<?xml version="1.0" encoding="UTF-8" standalone="no"?>
<!-- Created with Inkscape (http://www.inkscape.org/) -->

<svg
   xmlns:dc="http://purl.org/dc/elements/1.1/"
   xmlns:cc="http://creativecommons.org/ns#"
   xmlns:rdf="http://www.w3.org/1999/02/22-rdf-syntax-ns#"
   xmlns:svg="http://www.w3.org/2000/svg"
   xmlns="http://www.w3.org/2000/svg"
   xmlns:sodipodi="http://sodipodi.sourceforge.net/DTD/sodipodi-0.dtd"
   xmlns:inkscape="http://www.inkscape.org/namespaces/inkscape"
   id="svg2985"
   version="1.1"
   inkscape:version="0.48.3.1 r9886"
   width="354.33069"
   height="354.33069"
   sodipodi:docname="bob2008-01.svg">
  <metadata
     id="metadata2991">
    <rdf:RDF>
      <cc:Work
         rdf:about="">
        <dc:format>image/svg+xml</dc:format>
        <dc:type
           rdf:resource="http://purl.org/dc/dcmitype/StillImage" />
        <dc:title />
      </cc:Work>
    </rdf:RDF>
  </metadata>
  <defs
     id="defs2989" />
  <sodipodi:namedview
     pagecolor="#ffffff"
     bordercolor="#666666"
     borderopacity="1"
     objecttolerance="10"
     gridtolerance="10"
     guidetolerance="10"
     inkscape:pageopacity="0"
     inkscape:pageshadow="2"
     inkscape:window-width="1020"
     inkscape:window-height="729"
     id="namedview2987"
     showgrid="false"
     inkscape:zoom="1.2787159"
     inkscape:cx="79.5"
     inkscape:cy="145.49938"
     inkscape:window-x="0"
     inkscape:window-y="18"
     inkscape:window-maximized="0"
     inkscape:current-layer="svg2985"
     units="cm" />
  <path
     style="fill:#000000"
     d="m 85.103645,331.46452 c -4.36346,-6.736 -8.06622,-13.8356 -8.22834,-15.777 -0.1622,-1.9414 -4.467001,-8.8404 -9.566421,-15.331 -11.30234,-14.3862 -12.16136,-17.8876 -1.44656,-5.8964 l 7.82508,8.7572 -2.31446,-7.5 c -1.27296,-4.125 -3.37892,-7.5 -4.67992,-7.5 -1.301,0 -4.23078,-2.3714 -6.51062,-5.2698 l -4.14516,-5.2696 0,5.909 c 0,4.0198 3.13782,9.9632 9.81436,18.5898 5.3979,6.9746 9.43464,13.6706 8.9705,14.88 -0.46412,1.2096 0.8724,5.5654 2.970041,9.6798 6.69306,13.128 1.46298,8.0274 -7.807961,-7.6146 -4.92082,-8.3024 -10.88272,-16.3648 -13.2487,-17.9162 -9.42602,-6.181 -26.38528,-35.7908 -32.76056,-57.1978 -4.03064,-13.534 -4.26442,-17.1772 -2.93548,-45.7478 2.08618,-44.8506 4.29722,-50.5414 34.82136,-89.6238 11.4956,-14.7188 13.51492,-16.419 19.5,-16.419 5.222621,0 6.676441,0.8262 6.676441,3.7946 0,7.763 14.35214,32.018 21.409675,36.182 8.00224,4.7216 8.58594,4.8248 8.60398,1.5234 0.0234,-4.2662 13.2476,-12.004 17.9596,-10.5086 2.32028,0.7366 5.48608,0.2872 7.0351,-0.9984 3.4627,-2.8738 6.15686,-1.4012 7.61114,4.1598 1.05922,4.0506 0.95094,4.0784 -2.77086,0.7102 -2.13024,-1.9278 -4.54264,-2.8124 -5.3609,-1.9654 -1.79052,1.853 6.88806,8.024 11.34898,8.0698 2.29022,0.024 3.0819,1.8266 2.86838,6.5326 -0.30028,6.6186 3.03346,9.3876 3.6118,3 0.67196,-7.4218 -0.49586,-11.016 -4.82648,-14.8546 -3.65402,-3.2388 -3.80804,-3.7628 -0.82684,-2.8128 2.01496,0.642 4.06224,1.1674 4.5495,1.1674 0.48726,0 1.77278,2.3326 2.85672,5.1836 l 1.97078,5.1834 6.4797,-4.0838 c 6.18894,-3.9004 19.21645,-25.1384 21.94975,-35.7832 0.88436,-3.4442 2.60274,-4.5 7.32328,-4.5 4.93692,0 7.46888,1.7282 12.68724,8.6594 3.5857,4.7628 11.87968,15.7654 18.43106,24.4502 17.35974,23.013 20.3443,32.892 22.02098,72.8904 1.27654,30.4532 1.05046,34.0604 -2.92948,46.741 -6.4482,20.545 -23.82542,50.6304 -32.2775,55.8826 -2.10324,1.307 -8.0749,9.3514 -13.27034,17.8764 -5.19546,8.525 -10.09294,15.5 -10.88332,15.5 -0.79038,0 0.4126,-3.135 2.6733,-6.9666 8.08914,-13.71 2.49106,-10.9752 -6.7836,3.314 -10.50898,16.1908 -12.51695,16.3252 -3.65032,0.2442 3.15638,-5.7244 4.8534,-10.7034 3.77116,-11.0642 -1.08224,-0.3606 1.41534,-6.4282 5.55018,-13.4832 4.73986,-8.0874 6.65866,-13.1138 5.19262,-13.6024 -3.74898,-1.2498 -2.71484,-5.0566 3.3919,-12.4862 6.7059,-8.1586 9.71608,-15.9556 6.15992,-15.9556 -2.30964,0 -1.92824,-7.3098 1.39736,-26.7804 0.74496,-4.3618 0.48136,-5.3964 -0.88248,-3.4634 -3.36982,4.7758 -6.39096,0.364 -6.4193,-9.3742 -0.0368,-12.6314 -1.74016,-18.3458 -5.08602,-17.0618 -1.75202,0.6724 -3.20276,-0.9776 -4.07872,-4.6384 -0.74772,-3.125 -2.19466,-6.7454 -3.2154,-8.0454 -1.14554,-1.459 -1.1017,-5.0952 0.1146,-9.5 1.0837,-3.925 1.25546,-7.1364 0.38162,-7.1364 -0.87382,0 -2.12878,2.7 -2.78878,6 -1.75726,8.7862 -7.3,7.9664 -7.3,-1.0798 0,-7.271 -6.70933,-22.9202 -9.82665,-22.9202 -0.95996,0 -2.26342,1.35 -2.89658,3 -0.63318,1.65 -0.27946,3 0.78602,3 1.06546,0 1.97494,-1.125 2.02106,-2.5 0.0462,-1.375 1.77628,0.65 3.84486,4.5 4.74851,8.8378 1.74156,13.3918 -4.11198,6.2274 -3.8147,-4.669 -3.98832,-4.692 -7.9986,-1.0628 -3.13288,2.8352 -3.81944,5.2012 -2.91228,10.0368 1.10898,5.9114 0.65556,6.5398 -6.8999,9.5628 -10.01718,4.0082 -20.00808,4.1242 -29.07018,0.3378 -7.91208,-3.3058 -8.12138,-4.3836 -3.7259,-19.1848 1.8309,-6.1654 2.7976,-14.4664 2.2502,-19.3228 -0.6196,-5.497 0.016,-9.7688 1.79504,-12.0544 2.15284,-2.7666 2.51526,-2.8454 1.6588,-0.3604 -0.60276,1.7488 0.29502,4.334 1.99508,5.7448 2.5148,2.0872 3.66726,2.0872 6.18204,0 1.70006,-1.4108 2.62716,-3.774 2.06022,-5.2516 -0.7753,-2.0204 0.1524,-1.911 3.74248,0.4414 4.02894,2.64 5.50098,2.719 9.43978,0.5066 2.56658,-1.4414 4.974,-2.7784 5.34984,-2.9708 0.37582,-0.192 -0.27182,-1.9926 -1.4392,-4 -1.52156,-2.6166 -2.13972,-2.8312 -2.18332,-0.7576 -0.0384,1.8308 -2.54046,0.4888 -6.81734,-3.6564 -5.06806,-4.9122 -8.19182,-6.3846 -12.5,-5.8924 -4.48398,0.5124 -5.59214,1.5336 -5.05334,4.6564 1.00326,5.8148 2.0078,6.1732 5.19588,1.854 2.42248,-3.282 3.23574,-3.4394 5.47934,-1.0606 1.54682,1.64 1.6589,2.2456 0.27148,1.4666 -1.29972,-0.7298 -3.69224,0.5706 -5.31668,2.8898 l -2.95354,4.2168 -4.18332,-4.1834 c -2.3008,-2.3008 -4.52832,-4.1832 -4.95004,-4.1832 -1.89738,0 -2.52878,7.756 -0.87236,10.716 1.1903,2.1268 1.09814,3.284 -0.26152,3.284 -1.15466,0 -2.09938,-0.8646 -2.09938,-1.9214 0,-1.0568 -4.5,-4.8674 -10,-8.468 -5.499995,-3.6006 -9.999995,-7.853 -9.999995,-9.4496 0,-1.5968 -1.86952,-4.8932 -4.1545,-7.3254 -2.28498,-2.4324 -5.26476,-8.7904 -6.62172,-14.129 -1.87226,-7.3658 -3.48658,-9.856 -6.694301,-10.326 -4.27488,-0.6262 -5.97634,1.252 -30.11286,33.2428 -8.3753,11.1008 -16.43626,26.3614 -16.39708,31.0424 0.01,1.2838 2.3019,-2.569 5.09144,-8.5618 4.83676,-10.3908 23.28588,-36.2232 30.59254,-42.8358 5.06364,-4.5824 12.24924,-2.0044 13.628021,4.8894 0.62016,3.1008 2.82428,7.1734 4.89802,9.0502 2.07374,1.8766 3.77044,4.6758 3.77044,6.2202 0,1.5444 0.9,2.2518 2,1.572 1.1,-0.6798 2,-0.3522 2,0.728 0,2.5276 11.704435,14.272 14.223435,14.272 1.05366,0 -1.39962,2.911 -5.451755,6.4688 -8.06264,7.079 -12.7825,16.3198 -12.75214,24.967 0.016,4.8682 0.62066,4.3134 4.82574,-4.4358 4.3668,-9.0858 21.154715,-25.9558 21.154715,-21.2582 0,1.0824 -2.05368,3.6082 -4.56376,5.613 -2.51006,2.0048 -4.70926,5.7382 -4.88708,8.2964 -0.23188,3.3356 0.35182,4.1244 2.06376,2.7888 3.45332,-2.6942 11.38708,-4.3576 11.38708,-2.3876 0,0.923 -2.025,2.2938 -4.5,3.0466 -2.475,0.7526 -6.37604,3.6584 -8.66898,6.4574 -5.678975,6.932 -9.912535,4.3364 -5.823675,-3.5706 4.379855,-8.4698 3.496175,-10.2118 -1.00734,-1.9858 -2.10778,3.85 -3.87006,10.375 -3.91616,14.5 -0.1052,9.4036 -5.58064,10.516 -7.38384,1.5 -0.66,-3.3 -1.92468,-6 -2.81038,-6 -0.88572,0 -0.77322,2.919 0.25,6.4868 1.0232,3.5678 1.86038,7.1678 1.86038,8 0,3.1632 -5.26114,1.127 -12.000001,-4.6442 l -7,-5.995 -1,16.5762 c -0.55,9.1168 -0.61806,18.8262 -0.1512,21.5762 0.69948,4.1206 1.35294,3.2412 3.71534,-5 1.57662,-5.5 3.31374,-13.37 3.86026,-17.4888 1.0376,-7.82 4.55312,-8.5016 4.60628,-0.8932 0.025,3.5624 0.39322,3.821 1.969381,1.382 1.60542,-2.4842 1.93876,-2.3122 1.93876,1 0,5.3034 -2.99392,9.82 -5.487761,8.2786 -2.67242,-1.6516 -4.3904,5.425 -4.42368,18.2214 -0.028,10.7576 -1.22314,12.3804 -5.8918,8 -2.19514,-2.0596 -2.46042,-1.4046 -1.50608,3.7196 3.22726,17.3276 3.80198,26.7804 1.62822,26.7804 -3.68142,0 -2.65332,2.976 4.74234,13.7274 7.41624,10.7812 8.316781,13.5004 4.85358,14.6548 -1.23024,0.41 0.96652,6.2228 5.146421,13.6178 4.01108,7.0962 6.4347,13.1884 5.38584,13.538 -1.04886,0.3496 0.7818,5.6 4.06812,11.6676 3.28634,6.0676 5.6536,11.3148 5.2606,11.6604 -0.393,0.3454 -4.28468,-4.883 -8.64816,-11.6188 z m 118.645025,-30.9268 c 5.2549,-6.7708 8.28856,-12.7536 8.28856,-16.3462 l 0,-5.6666 -6.07724,6.0774 c -6.12374,6.1236 -16.06246,23.1734 -12.07008,20.706 1.18104,-0.7298 2.14732,-0.427 2.14732,0.673 0,1.1 -0.9,2.5562 -2,3.236 -1.1,0.6798 -2,2.263 -2,3.518 0,2.7202 0.69716,1.994 11.71144,-12.1976 z m -7.5531,2.6796 c 0.004,-1.1 3.1207,-5.525 6.92492,-9.8332 3.8042,-4.3084 6.90336,-7.0084 6.88698,-6 -0.016,1.0082 -3.13256,5.4332 -6.9249,9.8332 -3.79234,4.4 -6.89148,7.1 -6.887,6 z m -139.978766,-8.6646 c -1.07864,-2.0154 -3.53308,-4.9404 -5.45428,-6.5 -3.04614,-2.4726 -3.2771,-2.4516 -1.80498,0.164 2.06604,3.6716 7.4199,10 8.46004,10 0.41822,0 -0.1222,-1.6492 -1.20078,-3.6646 z m 162.257066,-5.171 c 2.01846,-3.7894 1.90872,-3.909 -1.2184,-1.329 -1.89014,1.5596 -4.43484,4.7096 -5.65488,7 -2.01846,3.7896 -1.90872,3.9092 1.2184,1.329 1.89014,-1.5594 4.43484,-4.7094 5.65488,-7 z M 50.850004,273.90312 c -1.9152,-3.6772 -6.44246,-13.8858 -10.06056,-22.6858 l -6.57838,-16 -0.087,8.5796 c -0.091,8.983 4.79016,20.5606 13.48056,31.9748 6.16742,8.1004 7.91376,7.095 3.24528,-1.8686 z m 178.300086,-12.1194 c 2.9887,-5.769 4.87292,-12.7612 4.85054,-18 l -0.0366,-8.5664 -6.72396,16 c -3.69818,8.8 -8.2078,19.6 -10.0214,24 l -3.29742,8 5.17084,-6 c 2.84396,-3.3 7.37006,-10.245 10.058,-15.4336 z m -168.803806,5.9034 c -1.93484,-6.2534 -5.4292,-13.4174 -7.76522,-15.9198 -2.336,-2.5026 -4.84624,-7.25 -5.57828,-10.55 l -1.33096,-6 4.37738,6 c 4.1855,5.737 4.32622,5.7808 3.21002,1 -0.64204,-2.75 -1.28404,-8.15 -1.42668,-12 -0.1602,-4.3256 -0.64188,-5.4908 -1.26064,-3.0498 -0.55072,2.1724 -2.47132,5.056 -4.268,6.4076 -2.65392,1.9966 -3.73558,1.8406 -5.76666,-0.8324 -1.375,-1.8094 -2.56326,-5.593 -2.64056,-8.4076 -0.0774,-2.8148 -0.91344,-6.9178 -1.85806,-9.1178 -1.1667,-2.7172 -1.48914,-0.7484 -1.00542,6.1396 0.62604,8.9152 10.75348,36.0002 10.93408,29.2424 0.1162,-4.3468 4.06996,-0.4682 4.06996,3.9926 0,4.0408 11.74278,26.5492 13.12814,25.164 0.38436,-0.3844 -0.88424,-5.8154 -2.8191,-12.0688 z m 151.631726,2.0302 c 3.31192,-5.775 6.03012,-12.472 6.04046,-14.882 0.0208,-4.8682 3.23566,-7.9674 4.4587,-4.2982 1.39272,4.1782 10.21544,-19.0536 10.64944,-28.0418 0.2664,-5.5172 -0.21256,-7.722 -1.3035,-6 -0.94854,1.497 -1.73842,4.8062 -1.75526,7.3534 -0.016,2.5474 -0.95742,6.3632 -2.09016,8.4798 -1.74338,3.2576 -2.66444,3.4706 -6,1.3874 -2.16726,-1.3534 -4.05274,-4.2694 -4.18998,-6.4798 -0.1372,-2.2104 -0.96588,0.9276 -1.84144,6.973 -0.87558,6.0456 -1.28372,11.3002 -0.90702,11.6768 0.37672,0.3768 2.10286,-1.8696 3.83586,-4.9918 l 3.1509,-5.6768 -0.59156,5.47 c -0.32534,3.0086 -2.89886,7.9586 -5.7189,11 -2.82004,3.0416 -6.0441,9.13 -7.16456,13.53 -1.12046,4.4 -2.69072,9.575 -3.48946,11.5 -3.02562,7.2918 1.1352,3.0808 6.91648,-7 z m -174.346206,-5 c -6.6314,-14.4504 -11.25948,-21.3918 -7.66736,-11.5 3.89778,10.7334 11.4377,25 13.21262,25 0.35752,0 -2.13786,-6.075 -5.54526,-13.5 z m 197.325986,-2.6818 c 2.99242,-6.668 4.93466,-12.6296 4.31606,-13.2482 -0.61858,-0.6186 -2.10574,1.4556 -3.30478,4.6092 -1.19906,3.1538 -4.40546,10.1648 -7.12536,15.58 -2.7199,5.4152 -3.68108,8.7966 -2.13598,7.5142 1.54512,-1.2824 5.25764,-7.787 8.25006,-14.4552 z m -177.811206,-39.566 c -2.81244,-2.8124 -3.10934,-2.5802 -3.10934,2.4336 0,3.0486 1.125,9.7664 2.5,14.9286 l 2.5,9.3856 0.60934,-11.8192 c 0.44604,-8.6518 -0.22396,-12.6526 -2.5,-14.9286 z m 156.736946,4.105 c 0.1366,-5.9048 -0.1796,-6.3096 -2.8463,-3.643 -2.03888,2.039 -2.93282,6.73 -2.7903,14.643 l 0.20972,11.6428 2.63658,-8 c 1.45012,-4.4 2.70576,-10.9894 2.7903,-14.6428 z m -185.674206,-10.548 c -1.58956,-14.6116 -1.5548,-22.0598 0.1324,-28.368 1.9135,-7.1544 1.75392,-9.527 -0.9751,-14.4978 l -3.26304,-5.9434 0.46682,13 c 0.25676,7.15 -0.1626,17.5 -0.93188,23 -0.99238,7.0948 -0.85592,8.5474 0.46968,5 1.37874,-3.6896 1.60874,-1.9782 0.87764,6.5306 -0.54492,6.3418 0.125,15.7918 1.48874,21 3.5937,13.7246 4.38928,4.6798 1.73472,-19.7214 z m 213.873546,20.0212 c 1.36696,-5.0764 1.60736,-12.4592 0.63496,-19.5 l -1.56486,-11.3304 -1.3408,12 c -1.68052,15.0404 -2.05792,27 -0.85202,27 0.5076,0 1.91282,-3.6764 3.12272,-8.1696 z m -194.713666,-28.494 c 0.0932,-11.5168 1.19446,-22.583 2.48796,-25 1.27646,-2.385 1.86226,-4.3364 1.30182,-4.3364 -3.51096,0 -7.1187,13.4256 -7.09442,26.4006 0.0228,12.2064 1.36896,23.5994 2.78834,23.5994 0.192,0 0.42436,-9.2986 0.5163,-20.6636 z m 176.547186,-1.3364 c -0.0352,-10.0456 -1.18348,-19.4546 -2.80694,-23 -1.51104,-3.3 -2.82044,-4.8144 -2.90978,-3.3652 -0.1022,1.6562 -1.57158,2.1874 -3.9566,1.4306 -3.68608,-1.17 -3.70032,-0.8462 -0.5,11.3652 l 3.29416,12.5694 1.01192,-12 1.01192,-12 1.61068,16.3296 c 0.88586,8.9814 1.03814,19.7814 0.33842,24 -0.9438,5.6902 -0.72522,6.896 0.8468,4.6704 1.16546,-1.65 2.0922,-10.65 2.05942,-20 z m -19.42186,-6.4706 -0.95582,-17.4708 -7.65314,6.0614 c -5.37692,4.2586 -7.2718,7.0552 -6.37096,9.4028 1.02892,2.6814 1.75114,2.194 3.65642,-2.4672 l 2.37426,-5.8086 1.07316,7.8764 c 0.59026,4.3322 2.22302,12.241 3.62838,17.5752 3.58126,13.5932 5.45516,6.9012 4.2477,-15.1692 z m -162.457286,6.2256 c 0,-10.6574 -0.38888,-11.922 -3,-9.755 -1.65,1.3694 -3,4.5872 -3,7.1508 0,4.3184 3.7736,14.8492 5.32104,14.8492 0.37342,0 0.67896,-5.5102 0.67896,-12.245 z m 189.929106,-2.0102 c 0.039,-2.8902 -1.27912,-6.3754 -2.92912,-7.7448 -2.6143,-2.1698 -2.99088,-0.8512 -2.92912,10.255 0.067,12.062 0.22404,12.477 2.92912,7.745 1.57204,-2.75 2.89016,-7.3648 2.92912,-10.2552 z M 35.338424,193.58772 c 1.7085,-5.2962 2.67276,-10.0632 2.14278,-10.5932 -0.52996,-0.53 -1.59178,1.5534 -2.35958,4.6296 -0.76782,3.0762 -2.55376,6.9432 -3.9688,8.5932 -1.66388,1.9402 -2.15994,5.8262 -1.40418,11 1.07232,7.3408 1.22276,7.5056 1.826,2 0.36158,-3.3 2.05528,-10.3334 3.76378,-15.6296 z m 173.550226,-9.0712 c -1.93644,-12.8102 -3.8915,-21.943 -4.34456,-20.2952 -2.38618,8.6782 -3.31598,7.7314 -5.71954,-5.8242 -1.44526,-8.1512 -3.69612,-15.8012 -5.0019,-17 -1.77072,-1.6258 -2.08606,-1.3552 -1.24066,1.0644 0.6234,1.7844 1.70842,7.6344 2.41116,13 1.2204,9.318 1.12722,9.5764 -2.07656,5.7558 -3.28246,-3.9144 -3.32818,-3.887 -2.1352,1.275 0.6705,2.9012 0.4475,9.405 -0.49554,14.453 -0.94306,5.048 -1.00046,8.7366 -0.1276,8.1972 2.50158,-1.5462 6.29962,-14.6264 4.90308,-16.8862 -0.69306,-1.1214 -0.1886,-2.039 1.1212,-2.039 1.61722,0 2.04264,2.5254 1.32578,7.87 l -1.05558,7.87 4.96802,-5.37 c 2.96172,-3.2014 4.5488,-4.0354 3.92994,-2.0652 -0.57094,1.8176 0.45786,11.7176 2.28622,22 4.59462,25.8392 5.56526,16.5294 1.25174,-12.0056 z m 28.32404,11.7008 c -1.3327,-1.65 -4.9732,-10.65 -8.09,-20 -5.50516,-16.5148 -10.6085,-26.438 -8.22842,-16 0.62706,2.75 2.43228,10.7166 4.01162,17.7034 2.837,12.5508 6.61832,20.891 4.21306,9.2924 -0.71482,-3.447 0.49072,-1.7448 2.83582,4.0042 2.24356,5.5 4.18344,13.15 4.31082,17 l 0.23164,7 1.56928,-8 c 1.0629,-5.4186 0.7874,-8.968 -0.85382,-11 z m -176.045826,-2.7814 c 1.66524,-9.5402 2.5367,-18.1404 1.93658,-19.1116 -0.60012,-0.971 -0.35232,-2.0672 0.55064,-2.4362 0.90298,-0.369 1.0803,-2.9208 0.39406,-5.6708 -0.85302,-3.4184 -2.321,1.959 -4.64078,17 -1.8662,12.1 -3.38792,23.725 -3.3816,25.8334 0.0234,7.8362 2.20354,1.215 5.1411,-15.6148 z m 183.170006,4.4074 c -1.07232,-5.8444 -1.52082,-15.126 -0.99666,-20.626 l 0.953,-10 -3.32318,6.3872 c -3.0712,5.903 -3.0809,7.3534 -0.128,19.1278 1.75736,7.0072 3.26626,14.483 3.3531,16.6128 0.0868,2.1296 0.59294,2.8038 1.12466,1.4982 0.53172,-1.3056 0.0894,-7.1556 -0.98292,-13 z m -189.427686,-5.826 c 3.09776,-11.942 3.08322,-12.2444 -0.48272,-10.0406 -1.37222,0.848 -3.04726,6.4242 -3.7223,12.3912 -1.5003,13.262 0.43596,12.1796 4.20502,-2.3506 z m 91.997856,-1.7506 c 2.82162,-1.0728 5.1302,-2.9828 5.1302,-4.2448 0,-1.7002 -0.69976,-1.7136 -2.70178,-0.052 -4.90356,4.0696 -19.84832,4.907 -27.85668,1.561 -4.09284,-1.7102 -7.44154,-2.3302 -7.44154,-1.378 0,4.8896 23.1944,7.7926 32.8698,4.114 z m -99.505396,-32.86 c -1.40304,-4.4452 -8.86706,20.4884 -7.7671,25.946 1.01038,5.013 1.70168,3.6862 4.76032,-9.1354 1.96806,-8.25 3.32112,-15.8148 3.00678,-16.8106 z m 30.594941,18.8106 c -0.93146,-4.95 -1.1965,-11.25 -0.58898,-14 1.08434,-4.9084 1.04364,-4.9268 -2.224041,-1 -3.17966,3.821 -3.27324,3.5972 -2.09136,-5 0.68048,-4.95 1.66448,-10.8 2.18664,-13 0.8613,-3.6288 0.74564,-3.675 -1.24652,-0.4982 -1.20776,1.926 -3.42946,9.9756 -4.9371,17.8882 -2.3733,12.4554 -2.34948,14.938 0.1774,18.498 2.68876,3.788 2.8137,3.4424 1.58598,-4.388 -0.8208,-5.2352 -0.56232,-8.5 0.67294,-8.5 1.10308,0 2.02858,2.025 2.05662,4.5 0.056,4.9354 4.098941,16.5208 5.331401,15.2774 0.42378,-0.4276 0.008,-4.8274 -0.92306,-9.7774 z m 68.857635,7.3812 c 3.069,-2.2442 3.28064,-3.7086 1.47898,-10.2336 -1.15638,-4.1882 -1.63614,-10.4346 -1.0661,-13.8812 0.89664,-5.4214 0.71666,-5.761 -1.33464,-2.5188 -1.48458,2.3464 -1.90106,7.1764 -1.11394,12.9192 0.98506,7.1868 0.73224,8.6466 -1.16826,6.7462 -1.33394,-1.334 -2.5622,-6.7382 -2.72946,-12.0094 -0.27986,-8.8194 -3.47398,-18.4036 -6.13334,-18.4036 -0.60998,0 -2.72516,1.9958 -4.7004,4.4352 -2.87636,3.552 -4.16386,3.9598 -6.46708,2.0484 -2.40066,-1.9924 -2.75462,-1.486 -2.1426,3.0648 0.40322,2.9984 -0.50574,10.106 -2.01988,15.7948 -2.63128,9.886 -2.5688,10.4326 1.41338,12.3646 6.03206,2.9266 21.80544,2.7282 25.98334,-0.3266 z m -12.58034,-16.7632 c 0.1734,-11.443 0.64476,-14.0142 1.76336,-9.618 2.27714,8.949 2.27714,22.5926 0,24 -1.27528,0.7882 -1.91426,-4.4232 -1.76336,-14.382 z m -10.09076,8.382 c 0.0466,-2.2 0.82928,-7.6 1.73938,-12 l 1.65474,-8 0.1994,9 c 0.1096,4.95 -0.67306,10.35 -1.73938,12 -1.60142,2.478 -1.92402,2.304 -1.85412,-1 z m -84.122536,-9.0648 c 7.42538,-20.5926 7.03162,-26.6 -0.493,-7.5214 -4.67596,11.8558 -8.28512,25.5862 -6.72558,25.5862 0.3876,0 3.63596,-8.1292 7.21858,-18.0648 z m 194.797926,11.0648 c -0.8018,-3.1948 -0.41188,-5 1.07994,-5 1.28416,0 1.77862,-0.9 1.09878,-2 -0.67984,-1.1 -0.2943,-2 0.85674,-2 1.15106,0 -0.194,-5.175 -2.98888,-11.5 -5.3819,-12.1794 -10.73534,-19.7802 -7.04318,-10 1.14198,3.025 1.5597,5.5 0.92826,5.5 -0.63142,0 0.74904,3.2152 3.06768,7.145 3.07146,5.2058 3.68444,8.0558 2.25836,10.5 -1.70602,2.9242 -1.96516,2.9492 -2.01816,0.194 -0.0334,-1.7382 -2.33548,-8.4882 -5.11562,-15 -6.72062,-15.7416 -4.55894,-3.104 2.50766,14.6602 5.12006,12.871 7.57846,16.3054 5.36842,7.5 z m -53.80298,-8.8916 c -0.8634,-5.1106 -3.61176,-10.3942 -7.3524,-14.1348 -3.28547,-3.2856 -5.08083,-5.9736 -3.98971,-5.9736 1.09114,0 5.53707,4.0366 9.87987,8.9704 l 7.896,8.9702 -1.47684,-8.0762 c -0.81226,-4.4418 -3.54586,-10.2784 -6.07466,-12.9702 -2.5288,-2.6918 -3.60626,-4.8942 -2.39434,-4.8942 1.2119,0 4.06878,2.3714 6.34862,5.2696 4.85838,6.1766 5.39728,4.1786 1.09706,-4.0672 -1.66288,-3.1886 -2.59104,-6.23 -2.06256,-6.7584 0.5285,-0.5286 2.07254,1.4788 3.43122,4.4608 2.41602,5.3026 2.50554,5.3266 4.0719,1.0924 1.01692,-2.749 0.64196,-5.6996 -1.0271,-8.0826 -2.4765,-3.5356 -3.20006,-3.2154 -12.49702,5.5312 -5.42757,5.1062 -10.76833,9.0556 -11.86833,8.7762 -1.1,-0.2792 -0.875,0.6366 0.5,2.0352 1.375,1.3984 2.5,3.7206 2.5,5.16 0,1.4396 2.7,6.3446 5.99999,10.9002 3.3,4.5554 6,9.6476 6,11.316 0,1.6682 0.53936,2.4938 1.19856,1.8346 0.65922,-0.6592 0.5781,-4.871 -0.1802,-9.3596 z M 60.338664,155.21732 c -1.3101,-2.2482 -5.99472,11.8228 -5.9927,18 7.2e-4,2.2 1.6116,-0.5 3.57974,-6 1.96814,-5.5 3.05396,-10.9 2.41296,-12 z m 154.933846,17.3618 c -0.45648,-0.749 -1.86316,-5.214 -3.12596,-9.9222 -1.2628,-4.7082 -3.07072,-8.0816 -4.0176,-7.4964 -0.9469,0.5854 -0.29728,5.5182 1.4436,10.962 1.74086,5.4438 3.92228,9.43 4.84758,8.8582 0.92528,-0.572 1.30886,-1.6526 0.85238,-2.4016 z m -59.23527,-1.3618 c 1.36938,-1.65 2.03978,-3 1.48978,-3 -0.55,0 -2.1204,1.35 -3.48978,3 -1.36938,1.65 -2.03978,3 -1.48978,3 0.55,0 2.1204,-1.35 3.48978,-3 z m -93.244196,-41.3148 c 0.76576,-5.3464 9.9274,-17.4952 12.17944,-16.1504 1.13562,0.6782 0.82956,-0.2898 -0.68012,-2.151 -3.48512,-4.2964 -6.25512,-4.3362 -6.25512,-0.09 0,1.8116 -3.00214,6.9866 -6.6714,11.5 -3.66928,4.5132 -8.28926,10.906 -10.26664,14.206 -2.92904,4.8882 -2.26266,4.5176 3.59632,-2 8.75536,-9.7396 9.22826,-8.3972 1.5384,4.367 -4.08752,6.785 -6.09212,13.1808 -6.78014,21.633 l -0.97684,12 6.92068,-20 c 3.80636,-11 7.1343,-21.4916 7.39542,-23.3148 z m 156.063646,30.8148 c -0.79138,-7.4874 -3.23992,-14.8612 -7.01748,-21.133 -7.68828,-12.7646 -7.21524,-14.1062 1.53974,-4.367 5.92656,6.5928 6.56782,6.9446 3.64566,2 -1.95024,-3.3 -6.57022,-9.7514 -10.26664,-14.3366 -3.6964,-4.5852 -6.72074,-9.7602 -6.72074,-11.5 0,-4.128 -2.80818,-4.029 -6.25512,0.2204 -1.50968,1.8612 -1.763,2.7966 -0.56294,2.0786 2.33612,-1.3976 11.94076,10.0816 10.03218,11.9902 -0.62596,0.6258 0.5862,4.3802 2.69366,8.3426 2.10746,3.9626 5.82146,14.1798 8.25334,22.7048 2.43186,8.525 4.74832,15.5 5.1477,15.5 0.39936,0 0.1792,-5.175 -0.48936,-11.5 z m -183.187726,-0.2724 c 2.40256,-4.2748 4.36828,-9.4948 4.36828,-11.6 0,-2.1052 1.125,-5.0396 2.5,-6.521 2.01818,-2.1744 1.9708,-2.3922 -0.24592,-1.13 -1.51024,0.8598 -5.29394,7.0668 -8.40822,13.7934 -3.11426,6.7264 -5.7036,10.955 -5.75408,9.3966 -0.0504,-1.5582 -0.6319,-2.2932 -1.29204,-1.633 -1.41706,1.417 0.76822,5.4664 2.95002,5.4664 0.83252,0 3.4794,-3.4976 5.88196,-7.7724 z m 57.370441,-7.9612 7.420055,-6.515 -9.579435,-8.7948 c -9.04268,-8.302 -9.72674,-8.5846 -12.20814,-5.042 -1.66906,2.383 -2.044,5.3336 -1.0271,8.0826 1.56636,4.2342 1.6559,4.2102 4.0719,-1.0924 1.35868,-2.982 2.953,-4.939 3.54292,-4.3492 0.58992,0.59 -0.34378,3.8116 -2.07488,7.1592 -3.44422,6.6604 -4.26206,11.407 -1.001,5.8096 1.11366,-1.9114 3.98032,-4.522 6.37034,-5.801 3.83432,-2.052 3.70662,-1.5664 -1.08566,4.129 -3.84374,4.568 -5.3941,8.6018 -5.30438,13.801 0.1024,5.9316 0.4473,6.5552 1.79104,3.2372 0.91534,-2.2602 5.0033,-7.041 9.08434,-10.6242 z m 66.863355,1.7336 c 0.006,-2.2638 -0.71332,-2.0474 -2.92912,0.8822 -1.61502,2.1352 -2.9045,5.7352 -2.86552,8 0.0648,3.7644 0.31618,3.6886 2.92912,-0.8822 1.57204,-2.75 2.86154,-6.35 2.86552,-8 z m 77.24985,-5.0324 c -3.54758,-8.4906 -18.96372,-30.724 -24.31856,-35.0728 -4.7225,-3.8352 -3.02006,-1.044 9.25486,15.1734 5.21322,6.8876 11.10036,16.1988 13.08256,20.6916 4.47976,10.1536 6.25756,9.4428 1.98114,-0.7922 z M 76.207064,132.77112 c 3.092241,-4.6454 4.848301,-8.9246 3.902341,-9.5092 -2.2955,-1.4188 -12.133261,16.3852 -13.236781,23.9554 l -0.87464,6 2.2934,-6 c 1.26138,-3.3 4.82342,-9.8008 7.91568,-14.4462 z m 71.038516,11.9878 c -0.66458,-0.6646 -1.13728,0.5168 -1.05044,2.625 0.096,2.33 0.56988,2.8038 1.20834,1.2084 0.57774,-1.4438 0.50668,-3.1688 -0.1578,-3.8334 z m 49.55867,-10.3426 c -3.17186,-6.1594 -5.93214,-11.5142 -6.13396,-11.8994 -0.20182,-0.385 -1.25858,-0.148 -2.34838,0.5244 -1.13656,0.7024 0.93866,5.5638 4.86694,11.4012 3.7666,5.5972 6.91944,11.6612 7.00628,13.4758 0.12,2.5056 0.4246,2.6254 1.267,0.498 0.61002,-1.5406 -1.48604,-7.8406 -4.65788,-14 z m -24.79495,3.5212 c 3.31535,-3.3154 6.02793,-6.8586 6.02793,-7.874 0,-1.0154 1.40312,-1.8462 3.11804,-1.8462 1.71492,0 2.63614,-0.7798 2.04716,-1.7328 -0.58898,-0.953 0.6046,-3.249 2.6524,-5.1022 2.04782,-1.8532 4.2307,-5.9066 4.85086,-9.0074 1.31906,-6.5952 7.46224,-9.0112 12.73858,-5.0096 6.33146,4.8016 6.6999,3.0616 1.07396,-5.0722 -7.7986,-11.2746 -13.6912,-10.9838 -16.66412,0.8228 -1.2324,4.8944 -4.39536,11.8192 -7.0288,15.3886 -2.63344,3.5694 -4.79422,7.44 -4.80174,8.6014 -0.008,1.1612 -3.38252,4.3534 -7.49999,7.0936 -7.76012,5.1642 -10.40334,7.8572 -10.45572,10.6526 -0.0576,3.0712 7.90454,-0.8776 13.94144,-6.9146 z m -99.653436,-10.4582 c 2.37766,-4.5932 3.27296,-8.4704 2.20302,-9.5404 -1.06994,-1.07 -2.64874,0.042 -3.88484,2.738 -5.18024,11.295 -8.63162,19.7928 -8.5732,21.1082 0.0992,2.2354 5.8329,-5.763 10.25502,-14.3058 z m 130.648366,5.4004 c -6.4367,-14.6142 -7.5784,-16.5206 -9.26842,-15.4762 -2.57706,1.5928 -2.16192,2.9404 4.4671,14.5002 6.90116,12.0344 9.94432,12.653 4.80132,0.976 z M 64.279724,115.71732 c 3.97558,-7.3302 -1.85844,-3.0814 -8.23878,6 l -6.67438,9.5 6.50746,-6 c 3.5791,-3.3 7.36166,-7.575 8.4057,-9.5 z m 151.854826,11 c -3.72798,-6.3854 -11.90356,-15.3604 -12.99652,-14.2674 -0.59192,0.5918 2.1384,4.8316 6.06734,9.4218 7.4836,8.7428 10.39196,10.7766 6.92918,4.8456 z M 78.084125,277.27372 c -1.966221,-2.369 -1.595761,-4.3142 1.8984,-9.9678 5.31134,-8.594 4.84018,-16.3364 -0.94528,-15.5336 -3.897401,0.541 -3.892121,0.4618 0.20636,-3.0828 2.3135,-2.0008 5.27016,-5.6256 6.57036,-8.055 2.15606,-4.0286 1.9076,-4.4172 -2.82438,-4.4172 -2.94964,0 -4.65506,0.863 -3.95234,2 0.67984,1.1 0.28296,2 -0.88196,2 -2.654321,0 -2.791041,-5.348 -0.178,-6.963 1.067,-0.6594 7.26682,-1.5156 13.77736,-1.9026 10.626455,-0.6316 12.085575,-0.2396 14.264135,3.831 1.91038,3.5696 1.89674,5.525 -0.0642,9.189 -1.83286,3.4248 -1.8868,4.8558 -0.20416,5.4166 1.25774,0.4192 2.2811,4.0624 2.27416,8.0956 -0.016,9.3456 -7.6698,14.682 -16.518795,11.5174 -4.42244,-1.5816 -6.22684,-1.2726 -9,1.541 -3.2926,3.341 -3.27162,3.6654 0.4137,6.3972 3.09938,2.2974 3.24958,2.8778 0.74488,2.8778 -1.72554,0 -4.23668,-1.3246 -5.58028,-2.9436 z m 23.953115,-14.1744 c 0,-1.715 -0.9,-2.5618 -2,-1.882 -1.099995,0.6798 -1.999995,2.083 -1.999995,3.118 0,1.035 0.9,1.882 1.999995,1.882 1.1,0 2,-1.4032 2,-3.118 z m -5.999995,-9.882 c 0,-6.05 0.87176,-11 1.93724,-11 1.06548,0 1.442,1.575 0.83672,3.5 -0.9679,3.0782 -0.72868,3.045 1.985275,-0.2764 2.30496,-2.8206 2.56402,-4.7512 1.0238,-7.629 -3.399515,-6.352 -7.777875,-0.6644 -7.813655,10.1502 -0.0338,10.1926 -2.31616,15.513 -5.74578,13.3934 -1.22298,-0.7558 -2.2236,-0.4212 -2.2236,0.7438 0,1.1648 2.25,2.118 5,2.118 4.72728,0 5,-0.6 5,-11 z m -6.56484,-8.4726 c -0.4597,-3.04 -0.84812,-1.0274 -0.86312,4.4726 -0.014,5.5 0.3611,7.9874 0.83582,5.5274 0.47472,-2.4598 0.48702,-6.9598 0.0272,-10 z m 12.564835,7.4726 c 0,-1.1 -0.9,-2 -2,-2 -1.099995,0 -1.999995,0.9 -1.999995,2 0,1.1 0.9,2 1.999995,2 1.1,0 2,-0.9 2,-2 z m -7.999995,-17 c 1.36938,-1.65 2.03978,-3 1.48978,-3 -0.55,0 -2.1204,1.35 -3.48978,3 -1.36938,1.65 -2.03978,3 -1.48978,3 0.55,0 2.1204,-1.35 3.48978,-3 z m 71.248935,41.9276 c -0.64846,-1.69 0.60524,-6.4016 2.78602,-10.4704 5.68871,-10.614 4.85753,-19.3476 -1.35094,-14.195 -1.83964,1.5268 -2.68402,1.557 -2.68402,0.096 0,-1.1724 1.65718,-3.3076 3.6826,-4.7448 2.02544,-1.4374 4.75709,-4.6384 6.07035,-7.1134 2.18818,-4.124 1.9541,-4.5 -2.80061,-4.5 -2.94966,0 -4.65506,0.8628 -3.95234,2 0.67984,1.1 0.28296,2 -0.88196,2 -2.766,0 -2.7412,-5.3788 0.0328,-7.0932 1.18292,-0.7312 7.35523,-1.6386 13.71629,-2.0168 10.413,-0.6188 11.81348,-0.224 14.0534,3.9612 1.9842,3.7076 1.98358,5.591 -0.004,9.3032 -1.83286,3.4246 -1.8868,4.8556 -0.20416,5.4166 1.25774,0.4192 2.2811,4.0622 2.27416,8.0956 -0.01,5.9634 -1.0771,7.9388 -5.71112,10.5744 -4.00134,2.276 -6.7211,2.669 -9.13222,1.3196 -5.09258,-2.85 -13.14401,-0.198 -13.14401,4.3308 0,2.0984 1.575,4.2268 3.5,4.7298 2.76075,0.7216 2.59473,0.9638 -0.78602,1.1468 -2.35732,0.128 -4.81658,-1.1506 -5.46504,-2.8406 z m 24.75105,-14.0456 c 0,-1.715 -0.9,-2.5618 -2,-1.882 -1.1,0.6798 -2,2.083 -2,3.118 0,1.035 0.9,1.882 2,1.882 1.1,0 2,-1.4032 2,-3.118 z m -6,-11 c 0,-7.2006 0.77616,-11.6384 1.91266,-10.936 1.05196,0.6502 1.349,2.6508 0.66012,4.4462 -0.83726,2.1818 -0.47676,2.7844 1.08734,1.8178 2.50366,-1.5474 3.2056,-9.6776 1.0239,-11.8594 -3.08838,-3.0884 -6.68402,3.7164 -6.68402,12.6494 0,5.4762 -1.12898,10.4472 -2.66156,11.719 -2.17832,1.808 -2.4964,0.128 -1.75188,-9.255 1.1749,-14.8064 -0.68024,-13.0626 -2.16594,2.036 -1.09744,11.1528 -0.98502,11.5 3.72388,11.5 4.60642,0 4.8555,-0.6216 4.8555,-12.118 z m 6,0.118 c 0,-1.1 -0.9,-2 -2,-2 -1.1,0 -2,0.9 -2,2 0,1.1 0.9,2 2,2 1.1,0 2,-0.9 2,-2 z m -8,-17 c 1.36938,-1.65 2.03978,-3 1.48978,-3 -0.55,0 -2.1204,1.35 -3.48978,3 -1.36938,1.65 -2.03978,3 -1.48978,3 0.55,0 2.1204,-1.35 3.48978,-3 z m -70.89441,37.1708 c -0.64396,-1.042 -0.31834,-2.4214 0.7236,-3.0652 1.04194,-0.644 2.4213,-0.3184 3.06526,0.7236 0.64394,1.0418 0.31832,2.4212 -0.72362,3.0652 -1.04194,0.644 -2.4213,0.3184 -3.06524,-0.7236 z m 46,0 c -0.64396,-1.042 -0.31834,-2.4214 0.7236,-3.0652 1.04194,-0.644 2.4213,-0.3184 3.06526,0.7236 0.64394,1.0418 0.31832,2.4212 -0.72362,3.0652 -1.04194,0.644 -2.4213,0.3184 -3.06524,-0.7236 z m -26.32934,-2.088 c -12.5514,-5.1992 -16.41816,-21.4478 -7.59844,-31.9294 6.30146,-7.489 10.79128,-8.2876 4.96736,-0.8838 -5.91834,7.524 -5.56422,19.493 0.76394,25.8212 8.27486,8.275 11.0954,6.5942 11.06028,-6.5908 -0.016,-6.325 -0.90306,-12.85 -1.96938,-14.5 -1.39118,-2.1528 -1.9474,-0.104 -1.96938,7.255 -0.018,6.2452 -1.1096,11.1506 -2.79004,12.5452 -2.29778,1.907 -2.58886,0.777 -1.7399,-6.755 0.75668,-6.7132 0.33216,-9.0452 -1.64646,-9.0452 -1.4663,0 0.8493,-3.6 5.14578,-8 4.29648,-4.4 8.30414,-7.994 8.9059,-7.9864 3.47442,0.044 10.0941,14.142 10.0941,21.4986 0,13.582 -12.03482,23.2056 -23.22376,18.5706 z m 19.22376,-13.3044 c 0,-1.5282 -1.8,-2.7784 -4,-2.7784 -3.30072,0 -3.98836,1.311 -3.93346,7.5 l 0.0666,7.5 3.93346,-4.7216 c 2.1634,-2.597 3.93346,-5.972 3.93346,-7.5 z m 0,-6.6542 c 0,-1.0316 -1.8,-1.74 -4,-1.5744 -2.2,0.166 -4,1.0098 -4,1.8758 0,0.8658 1.8,1.5744 4,1.5744 2.2,0 4,-0.8442 4,-1.8758 z m -2,-5.8794 c 0,-0.9652 -1.35,-2.8754 -3,-4.2448 -2.5064,-2.0802 -3,-1.7914 -3,1.755 0,2.44 1.27564,4.245 3,4.245 1.65,0 3,-0.7898 3,-1.7552 z m -46,-117.2448 c -2.02494,-2.44 -1.92968,-3 0.51022,-3 1.65,0 4.1204,1.35 5.48978,3 2.02494,2.4398 1.92968,3 -0.51022,3 -1.65,0 -4.1204,-1.35 -5.48978,-3 z m 58,1.1026 c 0,-1.1 2.7,-3.3962 6,-5.1026 3.3,-1.7066 6,-2.2028 6,-1.1028 0,1.1 -2.7,3.3962 -6,5.1028 -3.3,1.7064 -6,2.2026 -6,1.1026 z m -50.62726,-10.559 c -3.6128,-7.4596 -2.68356,-10.039 1.58432,-4.3976 2.6208,3.464 4.18178,10.854 2.29274,10.854 -0.4126,0 -2.15728,-2.9054 -3.87706,-6.4564 z m 46.62726,0.4564 c 1.1774,-2.2 3.04074,-4 4.14074,-4 1.28642,0 1.2362,1.427 -0.1408,4 -1.1774,2.2 -3.04074,4 -4.14074,4 -1.28642,0 -1.2362,-1.4272 0.1408,-4 z m -4.80358,-4 c 1.31612,-7.4752 10.48628,-26 12.87052,-26 1.40298,0 -1.03502,6.0034 -9.74644,24 -4.27476,8.831 -4.33342,8.8686 -3.12408,2 z m -33.84416,-5.863 c -1.84374,-5.9748 -3.2624,-12.7248 -3.15256,-15 0.1098,-2.2754 1.93614,1.244 4.05846,7.8208 2.12232,6.577 3.54096,13.327 3.15254,15 -0.3884,1.6732 -2.2147,-1.8462 -4.05844,-7.8208 z m 24.64774,6.099 c 0,-2.2 0.9,-4.5562 2,-5.236 1.1,-0.68 2,0.5638 2,2.7638 0,2.2 -0.9,4.5562 -2,5.2362 -1.1,0.6798 -2,-0.564 -2,-2.764 z m -15.96938,-2.736 c 0.0248,-3.639 0.40164,-3.926 1.96938,-1.5 2.50584,3.8774 2.50584,6 0,6 -1.1,0 -1.98622,-2.025 -1.96938,-4.5 z m 8.08464,-3 c 0.0634,-3.025 0.8599,-9.1 1.77,-13.5 1.53248,-7.409 1.67174,-7.0026 1.88474,5.5 0.1332,7.82 -0.61148,13.5 -1.77,13.5 -1.1,0 -1.94814,-2.475 -1.88474,-5.5 z"
     id="path2995"
     inkscape:connector-curvature="0" />
</svg>
