<?xml version="1.0" encoding="UTF-8" standalone="no"?>
<!-- Generator: Adobe Illustrator 16.0.0, SVG Export Plug-In . SVG Version: 6.00 Build 0)  -->

<svg
   xmlns:dc="http://purl.org/dc/elements/1.1/"
   xmlns:cc="http://creativecommons.org/ns#"
   xmlns:rdf="http://www.w3.org/1999/02/22-rdf-syntax-ns#"
   xmlns:svg="http://www.w3.org/2000/svg"
   xmlns="http://www.w3.org/2000/svg"
   xmlns:sodipodi="http://sodipodi.sourceforge.net/DTD/sodipodi-0.dtd"
   xmlns:inkscape="http://www.inkscape.org/namespaces/inkscape"
   version="1.1"
   id="Ebene_1"
   x="0px"
   y="0px"
   width="716.45667"
   height="716.45667"
   viewBox="0 0 716.45666 716.45666"
   enable-background="new 0 0 1000 1000"
   xml:space="preserve"
   inkscape:version="0.48.2 r9819"
   sodipodi:docname="ChaosTreffSiegen.svg"><metadata
     id="metadata95"><rdf:RDF><cc:Work
         rdf:about=""><dc:format>image/svg+xml</dc:format><dc:type
           rdf:resource="http://purl.org/dc/dcmitype/StillImage" /><dc:title></dc:title></cc:Work></rdf:RDF></metadata><defs
     id="defs93" /><sodipodi:namedview
     pagecolor="#ffffff"
     bordercolor="#666666"
     borderopacity="1"
     objecttolerance="10"
     gridtolerance="10"
     guidetolerance="10"
     inkscape:pageopacity="0"
     inkscape:pageshadow="2"
     inkscape:window-width="1192"
     inkscape:window-height="763"
     id="namedview91"
     showgrid="false"
     units="cm"
     inkscape:zoom="0.236"
     inkscape:cx="500"
     inkscape:cy="500"
     inkscape:window-x="0"
     inkscape:window-y="0"
     inkscape:window-maximized="0"
     inkscape:current-layer="Ebene_1" /><g
     id="g3"
     transform="matrix(-0.7303033,0,0,0.73030308,723.52757,-1.0444016)"><path
       d="M 986.014,497.667 C 985.988,766.617 767.665,984.74 498.61,984.624 229.719,984.514 11.714,766.068 11.913,496.95 12.11,228.106 230.664,10.235 499.853,10.524 768.181,10.809 986.045,229.113 986.014,497.667 z M 498.662,979.294 C 763.616,978.119 977.327,768.937 980.364,503.069 983.415,235.477 771.618,18.847 503.797,16.171 236.089,13.49 19.853,225.724 17.557,493.406 15.249,762.451 229.868,977.76 498.662,979.294 z"
       id="path5"
       inkscape:connector-curvature="0" /><path
       d="m 456.485,331.523 c 11.528,0 22.093,0 34.09,0 -2.651,2.383 -4.296,4.423 -6.405,5.673 -23.763,14.1 -48.628,12.245 -73.846,4.412 7.606,0 15.218,0 23.646,0 -0.922,-2.325 -1.586,-3.996 -2.229,-5.635 3.706,-1.081 7.417,-2.167 11.128,-3.248 0.079,-0.78 0.158,-1.56 0.242,-2.34 -3.173,-1.381 -6.336,-2.757 -9.963,-4.333 0.301,-0.928 0.78,-2.425 1.471,-4.581 -7.854,0 -15.329,0 -22.867,0 0.317,-3.837 0.76,-7.148 0.812,-10.469 0.1,-5.835 -0.749,-6.526 -6.395,-5.793 -1.039,0.132 -2.056,0.38 -2.979,0.554 -7.042,-10.421 -13.436,-10.485 -18.95,-0.385 -11.471,-0.216 -11.471,-0.216 -8.972,16.03 -7.528,0 -15.003,0 -23.036,0 0.695,2.04 1.175,3.432 1.607,4.691 -3.389,1.36 -6.784,2.721 -10.179,4.075 0.027,0.827 0.059,1.65 0.08,2.478 3.685,1.091 7.369,2.193 11.307,3.357 -0.533,1.381 -1.123,2.931 -1.993,5.204 8.476,0 16.473,0 24.464,0 0,0.447 0.105,0.975 -0.01,1.033 -16.869,7.855 -34.027,11.561 -51.743,2.842 -7.022,-3.458 -9.885,-8.224 -9.156,-14.396 6.246,0 12.63,0.474 18.892,-0.195 3.294,-0.354 8.708,0.669 8.571,-5.772 -0.01,-0.454 2.151,-0.87 3.231,-1.444 3.59,-1.908 3.758,-4.217 0.248,-6.178 -1.645,-0.923 -3.764,-0.965 -5.546,-1.697 -1.876,-0.765 -3.584,-1.924 -5.408,-2.816 -1.502,-0.732 -3.058,-1.824 -4.624,-1.886 -5.44,-0.232 -10.891,-0.09 -16.362,-0.09 -0.438,-2.625 -0.279,-5.676 -1.492,-8.022 -2.235,-4.312 -5.661,-7.137 -11.26,-5.793 -1.76,0.417 -4.317,0.058 -5.713,-0.996 -6.542,-4.934 -6.837,-5.034 -13.174,1.075 18.134,31.275 36.235,62.566 54.432,93.804 1.613,2.768 0.49,3.791 -1.713,5.451 -9.399,7.09 -18.819,14.185 -27.801,21.792 -17.422,14.766 -32.25,31.918 -45.394,50.579 -11.417,16.205 -20.977,33.442 -28.648,51.681 -7.655,18.202 -14.041,36.879 -16.953,56.493 -1.94,13.052 -2.746,26.268 -4.51,39.355 -2.37,17.57 0.1,34.871 2.107,52.229 0.548,4.729 0.953,9.474 1.45,14.471 -12.383,4.074 -24.685,8.123 -36.986,12.171 214.356,-36.267 428.052,-33.678 642.919,8.065 -25.297,39.562 -55.387,72.492 -91.555,99.724 -72.064,54.248 -153.363,80.245 -243.516,78.326 C 311.577,877.266 158.42,748.387 123.097,574.28 87.45,398.585 177.828,221.734 340.908,148.088 504.173,74.359 697.236,123.386 804.729,266.029 c 107.141,142.182 94.152,320.855 18.129,436.097 -10.602,-3.652 -21.266,-7.321 -31.919,-10.995 -0.332,-0.122 -0.605,-0.405 -0.927,-0.522 -9.795,-3.442 -9.567,-3.621 -7.728,-13.61 3.41,-18.486 5.213,-37.152 3.601,-55.956 -1.178,-13.688 -2.295,-27.442 -4.55,-40.979 -3.864,-23.172 -11.17,-45.327 -21.018,-66.729 -10.142,-22.041 -22.777,-42.456 -37.905,-61.333 -16.995,-21.191 -36.843,-39.351 -59.487,-54.427 -1.866,-1.244 -3.559,-2.768 -5.562,-4.349 18.782,-32.303 37.39,-64.305 56.093,-96.477 -5.056,-5.84 -6.353,-5.935 -12.499,-1.054 -1.111,0.886 -2.789,1.634 -4.138,1.534 -10.664,-0.738 -14.248,2.525 -14.28,13.379 -5.436,0 -10.864,-0.042 -16.289,0.026 -1.217,0.016 -3.277,0.048 -3.505,0.632 -1.924,4.961 -6.599,3.643 -10.157,4.955 -1.804,0.67 -3.163,2.515 -4.729,3.828 1.293,1.26 2.636,2.478 3.854,3.8 0.728,0.786 1.182,1.829 1.897,2.614 0.954,1.034 1.951,2.594 3.105,2.778 6.104,0.971 12.256,1.656 18.401,2.268 1.708,0.168 3.475,-0.248 7.128,-0.554 -1.887,3.885 -2.715,7.1 -4.671,9.325 -5.039,5.708 -11.913,8.312 -19.314,9.225 -13.415,1.639 -26.108,-1.076 -38.143,-7.728 7.385,0 14.77,0 23.015,0 -0.87,-2.43 -1.472,-4.095 -2.071,-5.777 3.716,-1.059 7.453,-2.129 11.186,-3.199 0.104,-0.792 0.21,-1.581 0.311,-2.368 -3.284,-1.428 -6.568,-2.861 -10.067,-4.38 0.379,-1.159 0.832,-2.567 1.497,-4.623 -7.897,0 -15.24,0 -22.82,0 0.269,-3.537 0.69,-6.816 0.738,-10.11 0.095,-6.357 -0.696,-6.937 -7.217,-5.931 -0.701,0.111 -1.386,0.254 -2.024,0.37 -8.308,-10.538 -13.595,-10.57 -19.172,-0.212 -11.454,-0.89 -11.713,-0.453 -8.908,15.361 -3.816,0 -7.591,0 -11.376,0 -3.669,0 -7.337,0 -11.707,0 0.796,2.419 1.259,3.838 1.723,5.255 -3.331,1.313 -6.735,2.657 -10.151,3.996 0.011,0.806 0.021,1.613 0.026,2.414 3.674,1.133 7.354,2.267 11.222,3.458 -0.5,1.413 -1.049,2.979 -1.845,5.218 8.497,0 16.521,0 24.622,0 -13.773,13.2 -69.66,6.558 -79.229,-9.673 11.081,0 21.956,0 33.637,0 -0.822,-2.14 -1.519,-3.969 -2.156,-5.646 3.896,-1.065 7.823,-2.135 11.745,-3.205 0.09,-0.828 0.185,-1.656 0.28,-2.488 -3.486,-1.514 -6.959,-3.032 -10.749,-4.682 0.411,-0.996 1.039,-2.498 1.956,-4.717 -8.419,0 -16.288,0 -24.413,0 0.401,-3.59 1.051,-7.164 1.15,-10.759 0.169,-6.272 -0.838,-7.021 -7.133,-6.11 -1.043,0.153 -2.072,0.386 -3.058,0.57 -5.646,-11.541 -15.261,-10.655 -19.769,-0.411 -12.419,-0.437 -12.419,-0.437 -9.182,16.62 -8.044,0 -16.02,0 -24.586,0 0.828,2.199 1.414,3.759 1.845,4.893 -3.664,1.528 -7.206,2.994 -10.743,4.465 0.059,0.827 0.116,1.655 0.174,2.482 3.885,1.108 7.77,2.209 11.934,3.395 -0.575,1.381 -1.32,3.163 -2.316,5.54 z m 86.831,402.005 c -0.048,0.506 -0.09,1.012 -0.138,1.522 -21.85,0 -43.706,-0.158 -65.555,0.111 -5.246,0.064 -10.591,1.149 -15.656,2.572 -2.172,0.617 -4.982,3.068 -5.366,5.092 -0.959,4.972 -0.781,10.18 -0.791,15.282 0,0.785 1.607,2.335 2.151,2.204 1.133,-0.28 2.699,-1.292 2.915,-2.262 0.442,-2.036 0.164,-4.233 0.121,-6.363 -0.195,-9.456 0.827,-11.037 10.39,-11.249 20.954,-0.469 41.919,-0.463 62.883,-0.562 1.245,0 2.552,0.652 3.717,1.223 2.974,1.444 5.739,3.853 8.846,4.38 9.609,1.628 18.091,-2.309 26.377,-6.578 1.191,-0.617 2.378,-1.255 3.569,-1.888 -6.094,7.906 -14.407,10.843 -23.664,11.935 -3.067,0.363 -6.062,1.371 -9.088,2.087 0.048,0.628 0.091,1.256 0.127,1.887 1.913,0.655 3.784,1.666 5.746,1.903 11.734,1.423 28.607,-7.052 33.6,-17.78 1.75,-3.747 0.832,-8.734 1.218,-14.406 -2.984,2.003 -4.37,2.946 -5.809,3.906 -3.069,-5.36 -2.373,-12.825 -9.942,-15.149 0.548,3.674 2.029,6.969 2.937,10.416 0.885,3.384 3.547,6.863 0.428,11.175 -5.594,-9.899 -7.191,-21.95 -18.873,-26.515 2.209,5.129 5.087,9.799 7.849,14.538 4.898,8.392 5.852,11.623 4.444,15.576 -0.764,-1.254 -1.365,-2.24 -1.966,-3.235 -4.497,-7.406 -8.787,-14.945 -13.559,-22.172 -2.567,-3.88 -4.106,-4.144 -7.512,-3.368 4.972,7.253 9.953,14.522 14.934,21.792 -0.484,0.41 -0.959,0.833 -1.444,1.249 -6.071,-13.991 -17.559,-19.799 -31.633,-21.286 -6.7,-0.707 -13.479,-0.76 -20.226,-0.896 -10.133,-0.201 -20.265,-0.101 -30.392,-0.343 -11.454,-0.27 -12.471,-1.381 -12.772,-12.604 -0.046,-1.75 -0.179,-3.499 -0.305,-5.92 -1.549,0.375 -3.3,0.259 -3.933,1.045 -4.306,5.286 -0.6,19.213 6.005,20.505 8.619,1.688 17.516,2.282 26.319,2.625 13.133,0.517 26.295,0.175 39.427,0.664 6.404,0.237 12.244,2.562 16.33,8.166 -12.341,-5.783 -25.424,-4.133 -38.291,-4.291 -15.457,-0.195 -30.918,0.016 -46.363,-0.512 -3.158,-0.11 -7.021,-1.955 -9.204,-4.274 -5.824,-6.188 -10.77,-13.2 -16.378,-19.605 -1.718,-1.959 -4.459,-3.024 -6.727,-4.495 -0.532,0.627 -1.064,1.249 -1.586,1.87 8.139,9.51 16.146,19.146 24.559,28.419 1.381,1.522 4.518,1.961 6.869,2.024 19.894,0.568 39.799,0.901 59.705,1.387 6.03,0.146 12.093,0.269 18.08,0.948 2.946,0.337 5.745,1.913 8.613,2.925 -5.245,0.627 -10.067,-0.422 -14.901,-0.474 -23.279,-0.258 -46.568,-0.328 -69.853,-0.232 -3.084,0.011 -6.789,0.48 -9.135,2.198 -11.276,8.266 -18.782,19.783 -25.782,31.93 2.635,-0.491 5.108,-1.352 6.615,-3.06 5.403,-6.118 10.321,-12.677 15.74,-18.786 4.955,-5.582 11.297,-8.292 18.929,-8.123 22.567,0.49 45.145,0.743 67.712,1.26 3.237,0.083 6.458,1.053 9.689,1.612 z m -108.211,36.515 c 0,0.026 0,0.064 0,0.094 10.843,0 21.676,0.086 32.519,-0.042 5.482,-0.058 10.985,-0.305 16.436,-0.901 1.698,-0.184 4.328,-1.508 4.654,-2.788 1.581,-6.131 2.652,-12.419 3.543,-18.702 0.137,-0.959 -1.608,-2.182 -2.478,-3.289 -1.044,1.001 -2.272,1.876 -3.058,3.047 -0.548,0.82 -0.496,2.045 -0.701,3.094 -2.345,11.749 -3.269,12.794 -15.355,12.92 -22.566,0.242 -45.133,0.232 -67.694,0.157 -8.687,-0.025 -12.182,-2.792 -14.159,-11.427 -3.896,-17.017 -3.016,-34.232 -1.25,-51.407 0.264,-2.534 1.308,-5.335 2.868,-7.312 1.519,-1.912 4.064,-3.953 6.331,-4.164 25.677,-2.446 51.417,-3.432 77.152,-1.069 9.509,0.87 10.474,2.204 12.408,11.485 0.222,1.044 0.053,2.44 0.675,3.063 0.98,0.985 2.461,1.903 3.769,1.961 0.706,0.026 2.156,-1.813 2.119,-2.763 -0.126,-3.347 -0.506,-6.73 -1.249,-9.994 -1.16,-5.113 -3.948,-7.912 -9.815,-8.592 -29.82,-3.442 -59.614,-1.819 -89.417,-0.285 -7.617,0.391 -9.283,1.434 -10.01,9.516 -1.275,14.096 -1.94,28.291 -1.888,42.444 0.032,8.992 1.408,18.049 2.941,26.941 1.218,7.086 3.026,8.018 10.084,8.018 13.858,-0.005 27.717,-0.005 41.575,-0.005 z m 147.209,81.536 c -0.676,-2.625 -0.733,-4.875 -1.767,-6.509 -4.354,-6.9 -6.288,-14.106 -4.423,-22.263 1.224,-5.344 2.083,-10.783 2.962,-16.207 1.608,-9.881 2.542,-19.764 -1.307,-29.378 -0.479,-1.203 -1.981,-2.752 -3.046,-2.778 -1.451,-0.042 -3.58,0.839 -4.302,2.009 -3.796,6.177 -7.565,12.418 -10.696,18.945 -1.786,3.721 -2.714,7.979 -3.337,12.103 -0.512,3.362 1.46,4.476 4.761,2.8 0.827,-9.79 6.057,-17.307 13.574,-25.293 0.41,2.931 0.959,4.597 0.807,6.185 -0.527,5.455 -1.266,10.884 -1.993,16.313 -1.176,8.752 -3.115,17.464 -3.422,26.235 -0.32,9.147 4.255,15.278 12.189,17.838 z m 34.912,-64.137 c -1.207,-6.045 -4.249,-5.486 -7.564,-4.858 -9.098,1.706 -14.485,-0.828 -19.066,-8.813 -1.476,-2.563 -2.867,-5.183 -4.666,-8.435 -1.929,2.13 -3.494,3.854 -5.112,5.63 1.176,1.55 2.277,2.941 3.306,4.381 5.171,7.264 6.662,15.338 6.215,24.189 -0.354,7.09 -4.549,11.122 -9.288,15.297 -1.477,1.308 -2.077,3.626 -3.073,5.479 16.747,-5.299 18.386,-18.867 18.612,-32.869 7.067,-10e-4 13.488,-10e-4 20.636,-10e-4 z M 547.56,762.12 c 7.321,6.516 14.592,2.972 21.08,0.315 10.231,-4.189 19.383,-17.737 18.429,-26.92 -10.032,14.459 -21.286,25.746 -39.509,26.605 z m 42.102,-17.422 c -7.612,11.091 -12.656,24.844 -29.398,26.33 5.894,4.612 14.802,2.63 21.781,-3.842 6.916,-6.416 10.937,-17.669 7.617,-22.488 z m -35.877,78.934 c 10.316,1.565 14.381,-0.037 13.669,-5.167 -9.73,-0.906 -11.892,-0.148 -13.669,5.167 z"
       id="path7"
       inkscape:connector-curvature="0" /><path
       d="m 221.024,681.474 c -18.326,-84.242 16.592,-180.439 76.515,-234.233 55.687,38.207 113.086,74.027 168.551,113.852 -7.802,6.642 -15.049,12.525 -21.987,18.761 -29.988,26.964 -59.845,54.073 -89.918,80.942 -2.282,2.034 -5.824,3.299 -8.935,3.684 -32.245,4.012 -64.551,7.617 -96.791,11.692 -9.099,1.153 -18.053,3.457 -27.435,5.302 z"
       id="path9"
       inkscape:connector-curvature="0" /><path
       d="m 777.759,590.411 c -99.633,-11.328 -198.692,-22.587 -298.148,-33.9 6.627,-5.793 13.453,-11.617 20.116,-17.621 47.001,-42.378 94.016,-84.744 140.878,-127.278 4.28,-3.885 7.194,-5.193 12.884,-1.703 23.076,14.138 43.415,31.317 61.426,51.454 17.955,20.089 32.508,42.382 43.731,66.806 8.762,19.07 15.53,38.854 19.098,59.623 0.115,0.669 0.015,1.364 0.015,2.619 z"
       id="path11"
       inkscape:connector-curvature="0" /><path
       d="m 404.826,381.765 c 85.786,-30 176.08,-13.015 234.871,20.885 -55.443,50.452 -110.84,100.857 -166.211,151.248 -22.825,-57.217 -45.74,-114.67 -68.66,-172.133 z"
       id="path13"
       inkscape:connector-curvature="0" /><path
       d="m 777.985,685.479 c -26.436,-4.797 -51.564,-9.804 -76.86,-13.806 -17.001,-2.683 -34.232,-3.896 -51.344,-5.918 -2.371,-0.281 -4.908,-0.992 -6.915,-2.23 -41.392,-25.545 -82.771,-51.116 -124.02,-76.888 -11.397,-7.122 -22.389,-14.908 -33.306,-23.327 10.216,1.208 20.438,2.389 30.648,3.606 58.518,6.99 117.02,14.011 175.542,20.959 28.032,3.326 56.081,6.531 84.137,9.726 2.935,0.331 4.278,1.486 4.643,4.597 2.229,19.188 2.92,38.396 0.948,57.631 -0.91,8.857 -2.37,17.659 -3.473,25.65 z"
       id="path15"
       inkscape:connector-curvature="0" /><path
       d="m 362.375,663.319 c 4.555,-4.181 8.013,-7.401 11.513,-10.559 30.2,-27.274 60.399,-54.542 90.593,-81.812 5.725,-5.171 6.537,-5.35 12.899,-1.402 49.631,30.801 99.239,61.633 148.859,92.465 0.585,0.364 1.149,0.748 1.671,1.598 -88.025,-5.756 -176.021,-6.041 -265.535,-0.29 z"
       id="path17"
       inkscape:connector-curvature="0" /><path
       d="m 300.997,441.167 c 12.841,-9.567 24.169,-19.567 36.941,-27.131 17.491,-10.353 36.083,-18.84 54.2,-28.138 4.032,-2.072 6.099,-0.955 7.828,3.421 18.455,46.573 37.095,93.065 55.76,139.56 2.8,6.979 5.978,13.801 8.05,21.333 C 410.029,514.204 356.277,478.199 300.997,441.167 z"
       id="path19"
       inkscape:connector-curvature="0" /><path
       d="m 543.316,733.528 c -3.231,-0.554 -6.452,-1.529 -9.688,-1.603 -22.567,-0.512 -45.146,-0.775 -67.712,-1.266 -7.632,-0.168 -13.974,2.547 -18.929,8.129 -5.419,6.109 -10.337,12.661 -15.74,18.782 -1.513,1.708 -3.985,2.567 -6.615,3.057 7,-12.141 14.506,-23.663 25.782,-31.924 2.346,-1.723 6.051,-2.192 9.135,-2.197 23.284,-0.101 46.573,-0.025 69.853,0.232 4.834,0.053 9.656,1.096 14.901,0.474 -2.868,-1.018 -5.667,-2.594 -8.613,-2.925 -5.987,-0.686 -12.05,-0.807 -18.08,-0.954 -19.906,-0.48 -39.811,-0.812 -59.705,-1.382 -2.351,-0.067 -5.487,-0.506 -6.869,-2.023 -8.407,-9.278 -16.42,-18.908 -24.559,-28.419 0.522,-0.626 1.054,-1.249 1.586,-1.87 2.268,1.471 5.008,2.535 6.727,4.495 5.608,6.405 10.554,13.416 16.378,19.604 2.188,2.319 6.046,4.165 9.204,4.275 15.444,0.521 30.906,0.311 46.363,0.506 12.867,0.164 25.95,-1.486 38.291,4.291 -4.086,-5.598 -9.926,-7.929 -16.33,-8.16 -13.132,-0.49 -26.294,-0.152 -39.427,-0.663 -8.803,-0.349 -17.701,-0.944 -26.319,-2.626 -6.605,-1.292 -10.311,-15.225 -6.005,-20.511 0.633,-0.781 2.384,-0.664 3.933,-1.045 0.126,2.421 0.259,4.176 0.305,5.926 0.301,11.224 1.319,12.336 12.772,12.604 10.126,0.242 20.259,0.143 30.392,0.344 6.747,0.137 13.525,0.185 20.226,0.896 14.074,1.486 25.562,7.291 31.633,21.281 0.485,-0.417 0.96,-0.834 1.444,-1.25 -4.985,-7.27 -9.962,-14.538 -14.934,-21.787 3.411,-0.78 4.944,-0.517 7.512,3.369 4.771,7.222 9.062,14.765 13.559,22.171 0.601,0.99 1.202,1.982 1.966,3.231 1.407,-3.953 0.454,-7.185 -4.444,-15.577 -2.762,-4.732 -5.646,-9.398 -7.849,-14.537 11.682,4.568 13.279,16.619 18.873,26.514 3.119,-4.307 0.457,-7.791 -0.428,-11.175 -0.907,-3.442 -2.389,-6.742 -2.937,-10.411 7.569,2.325 6.873,9.784 9.942,15.149 1.438,-0.964 2.83,-1.903 5.809,-3.905 -0.386,5.666 0.532,10.653 -1.218,14.401 -4.998,10.727 -21.871,19.209 -33.6,17.784 -1.962,-0.235 -3.833,-1.248 -5.746,-1.908 -0.036,-0.626 -0.079,-1.26 -0.127,-1.886 3.026,-0.717 6.021,-1.724 9.088,-2.089 9.257,-1.085 17.57,-4.021 23.664,-11.929 -1.191,0.628 -2.378,1.271 -3.569,1.883 -8.286,4.27 -16.773,8.208 -26.377,6.578 -3.106,-0.521 -5.872,-2.931 -8.846,-4.381 -1.165,-0.568 -2.472,-1.223 -3.717,-1.217 -20.964,0.1 -41.93,0.09 -62.883,0.56 -9.562,0.216 -10.585,1.791 -10.39,11.248 0.047,2.13 0.321,4.334 -0.121,6.363 -0.216,0.969 -1.781,1.981 -2.915,2.266 -0.544,0.125 -2.151,-1.418 -2.151,-2.203 0.01,-5.108 -0.169,-10.311 0.791,-15.281 0.39,-2.03 3.194,-4.477 5.366,-5.092 5.065,-1.425 10.41,-2.51 15.656,-2.573 21.849,-0.273 43.705,-0.115 65.555,-0.115 0.048,-0.517 0.094,-1.023 0.137,-1.529 z"
       id="path21"
       inkscape:connector-curvature="0"
       style="fill:#ffffff" /><path
       d="m 435.105,770.043 c -13.858,0 -27.717,0 -41.575,0 -7.059,0 -8.867,-0.933 -10.084,-8.019 -1.528,-8.893 -2.91,-17.947 -2.941,-26.941 -0.052,-14.153 0.612,-28.349 1.888,-42.445 0.732,-8.08 2.393,-9.124 10.01,-9.514 29.804,-1.529 59.598,-3.157 89.417,0.284 5.867,0.68 8.655,3.479 9.815,8.592 0.738,3.264 1.123,6.647 1.249,9.995 0.037,0.954 -1.413,2.789 -2.119,2.763 -1.308,-0.059 -2.789,-0.976 -3.769,-1.961 -0.622,-0.618 -0.454,-2.02 -0.675,-3.063 -1.935,-9.276 -2.899,-10.61 -12.408,-11.486 -25.735,-2.361 -51.475,-1.371 -77.152,1.07 -2.266,0.211 -4.812,2.251 -6.331,4.164 -1.56,1.977 -2.609,4.776 -2.868,7.316 -1.766,17.169 -2.646,34.386 1.25,51.401 1.977,8.635 5.472,11.407 14.159,11.429 22.562,0.073 45.128,0.085 67.694,-0.158 12.087,-0.127 13.01,-1.17 15.355,-12.92 0.206,-1.05 0.153,-2.272 0.701,-3.095 0.786,-1.171 2.013,-2.045 3.058,-3.047 0.869,1.107 2.614,2.33 2.478,3.288 -0.891,6.285 -1.962,12.568 -3.543,18.704 -0.327,1.281 -2.956,2.604 -4.654,2.789 -5.451,0.596 -10.954,0.843 -16.436,0.901 -10.843,0.126 -21.675,0.042 -32.514,0.042 -0.005,-0.025 -0.005,-0.063 -0.005,-0.089 z"
       id="path23"
       inkscape:connector-curvature="0"
       style="fill:#ffffff" /><path
       d="m 582.314,851.579 c -7.935,-2.555 -12.51,-8.691 -12.188,-17.838 0.301,-8.771 2.24,-17.483 3.416,-26.235 0.733,-5.43 1.472,-10.858 1.993,-16.313 0.158,-1.588 -0.391,-3.254 -0.807,-6.185 -7.512,7.986 -12.746,15.503 -13.568,25.293 -3.301,1.676 -5.277,0.562 -4.766,-2.8 0.628,-4.123 1.55,-8.382 3.342,-12.103 3.126,-6.527 6.896,-12.769 10.696,-18.945 0.722,-1.17 2.846,-2.051 4.296,-2.009 1.064,0.026 2.567,1.575 3.047,2.778 3.854,9.614 2.915,19.497 1.307,29.378 -0.88,5.424 -1.74,10.863 -2.962,16.207 -1.86,8.156 0.068,15.362 4.428,22.263 1.028,1.634 1.091,3.884 1.766,6.509 z"
       id="path25"
       inkscape:connector-curvature="0"
       style="fill:#ffffff" /><path
       d="m 617.226,787.442 c -7.147,0 -13.568,0 -20.638,0 -0.227,14.002 -1.865,27.574 -18.612,32.873 0.996,-1.856 1.597,-4.169 3.073,-5.482 4.744,-4.169 8.935,-8.202 9.288,-15.297 0.447,-8.852 -1.044,-16.922 -6.215,-24.186 -1.028,-1.438 -2.13,-2.83 -3.306,-4.38 1.618,-1.777 3.184,-3.505 5.112,-5.631 1.794,3.253 3.19,5.873 4.666,8.435 4.581,7.981 9.969,10.516 19.066,8.81 3.317,-0.628 6.359,-1.187 7.566,4.858 z"
       id="path27"
       inkscape:connector-curvature="0"
       style="fill:#ffffff" /><path
       d="m 547.56,762.12 c 18.229,-0.859 29.483,-12.146 39.509,-26.6 0.954,9.178 -8.197,22.729 -18.429,26.915 -6.489,2.657 -13.764,6.201 -21.08,-0.315 z"
       id="path29"
       inkscape:connector-curvature="0"
       style="fill:#ffffff" /><path
       d="m 589.662,744.698 c 3.315,4.818 -0.701,16.071 -7.617,22.488 -6.974,6.468 -15.888,8.454 -21.775,3.842 16.741,-1.486 21.78,-15.233 29.392,-26.33 z"
       id="path31"
       inkscape:connector-curvature="0"
       style="fill:#ffffff" /><path
       d="m 553.785,823.632 c 1.776,-5.309 3.938,-6.073 13.669,-5.167 0.712,5.13 -3.352,6.732 -13.669,5.167 z"
       id="path33"
       inkscape:connector-curvature="0"
       style="fill:#ffffff" /><path
       d="m 762.161,146.972 c 4.523,-6.059 8.514,-11.414 13.089,-17.549 5.836,5.285 11.513,10.021 16.695,15.252 3.21,3.241 4.349,7.3 1.032,11.495 -3.368,4.252 -7.896,5.362 -12.324,2.925 -6.304,-3.47 -12.096,-7.865 -18.492,-12.123 z"
       id="path35"
       inkscape:connector-curvature="0"
       style="fill:#ffffff" /><ellipse
       cx="498.87799"
       cy="493.30301"
       rx="389.10101"
       ry="386.39401"
       id="ellipse37"
       sodipodi:cx="498.87799"
       sodipodi:cy="493.30301"
       sodipodi:rx="389.10101"
       sodipodi:ry="386.39401"
       style="fill:none"
       d="m 887.979,493.30301 c 0,213.39952 -174.20645,386.39401 -389.10101,386.39401 -214.89456,0 -389.10101,-172.99449 -389.10101,-386.39401 0,-213.39952 174.20645,-386.39401 389.10101,-386.39401 214.89456,0 389.10101,172.99449 389.10101,386.39401 z" /><text
       transform="matrix(0.6118,-0.7998,0.7943,0.6076,167.793,287.3315)"
       font-size="121.5962"
       id="text39"
       style="font-size:121.59619904px;font-family:SourceSansPro-Regular">C</text>
<text
       transform="matrix(0.746,-0.6764,0.6717,0.7408,207.269,234.4824)"
       font-size="121.5886"
       id="text41"
       style="font-size:121.58860016px;font-family:SourceSansPro-Regular">H</text>
<text
       transform="matrix(0.8533,-0.5347,0.531,0.8474,263.5972,183.792)"
       font-size="121.5937"
       id="text43"
       style="font-size:121.59369659px;font-family:SourceSansPro-Regular">A</text>
<text
       transform="matrix(0.935,-0.374,0.3714,0.9285,316.1284,149.7363)"
       font-size="121.5938"
       id="text45"
       style="font-size:121.59380341px;font-family:SourceSansPro-Regular">O</text>
<text
       transform="matrix(0.9864,-0.2025,0.201,0.9796,387.9941,121.4282)"
       font-size="121.5918"
       id="text47"
       style="font-size:121.59179688px;font-family:SourceSansPro-Regular">S</text>
<text
       transform="matrix(1.0026,-0.094,0.0933,0.9956,449.5513,109.7939)"
       font-size="121.5861"
       id="text49"
       style="font-size:121.58609772px;font-family:SourceSansPro-Regular" />
<text
       transform="matrix(1.0064,-0.0342,0.034,0.9994,472.9565,107.5679)"
       font-size="121.5881"
       id="text51"
       style="font-size:121.58809662px;font-family:SourceSansPro-Regular" />
<text
       transform="matrix(1.0067,0.0253,-0.0252,0.9997,496.5586,106.7314)"
       font-size="121.5929"
       id="text53"
       style="font-size:121.59290314px;font-family:SourceSansPro-Regular" />
<text
       transform="matrix(1.0034,0.0849,-0.0843,0.9964,520.0352,107.2856)"
       font-size="121.5859"
       id="text55"
       style="font-size:121.58589935px;font-family:SourceSansPro-Regular" />
<text
       transform="matrix(0.9882,0.1936,-0.1923,0.9813,542.7139,107.9785)"
       font-size="121.5864"
       id="text57"
       style="font-size:121.58640289px;font-family:SourceSansPro-Regular">T</text>
<text
       transform="matrix(0.9426,0.3542,-0.3518,0.9361,603.5557,119.4033)"
       font-size="121.5936"
       id="text59"
       style="font-size:121.59359741px;font-family:SourceSansPro-Regular">R</text>
<text
       transform="matrix(0.8718,0.5039,-0.5004,0.8658,666.6611,143.1382)"
       font-size="121.5913"
       id="text61"
       style="font-size:121.59130096px;font-family:SourceSansPro-Regular">E</text>
<text
       transform="matrix(0.7862,0.6293,-0.6249,0.7807,719.4971,173.6001)"
       font-size="121.5903"
       id="text63"
       style="font-size:121.59030151px;font-family:SourceSansPro-Regular">F</text>
<text
       transform="matrix(0.6862,0.737,-0.7319,0.6815,764.2197,209.1377)"
       font-size="121.5981"
       id="text65"
       style="font-size:121.59809875px;font-family:SourceSansPro-Regular">F</text>
<ellipse
       cx="495.414"
       cy="587.76599"
       rx="397.328"
       ry="386.384"
       id="ellipse67"
       sodipodi:cx="495.414"
       sodipodi:cy="587.76599"
       sodipodi:rx="397.328"
       sodipodi:ry="386.384"
       style="fill:none"
       d="m 892.742,587.76599 c 0,213.39399 -177.8898,386.384 -397.328,386.384 -219.4382,0 -397.328001,-172.99001 -397.328001,-386.384 0,-213.39399 177.889801,-386.384 397.328001,-386.384 219.4382,0 397.328,172.99001 397.328,386.384 z" /><text
       transform="matrix(0.9204,0.4586,-0.446,0.895,284.8643,917.1064)"
       font-size="121.5872"
       id="text69"
       style="font-size:121.58719635px;font-family:SourceSansPro-Regular">S</text>
<text
       transform="matrix(0.9756,0.3251,-0.3162,0.9487,351.2319,948.2812)"
       font-size="121.5916"
       id="text71"
       style="font-size:121.59159851px;font-family:SourceSansPro-Regular">I</text>
<text
       transform="matrix(1.0111,0.1876,-0.1824,0.9832,388.4189,961.3477)"
       font-size="121.5878"
       id="text73"
       style="font-size:121.58779907px;font-family:SourceSansPro-Regular">E</text>
<text
       transform="matrix(1.0282,-0.0162,0.0158,0.9999,463.0098,974.7256)"
       font-size="121.5938"
       id="text75"
       style="font-size:121.59380341px;font-family:SourceSansPro-Regular">G</text>
<text
       transform="matrix(1.0054,-0.2157,0.2097,0.9778,549.4746,971.9355)"
       font-size="121.5948"
       id="text77"
       style="font-size:121.59480286px;font-family:SourceSansPro-Regular">E</text>
<text
       transform="matrix(0.9395,-0.4179,0.4064,0.9137,623.8359,955.6406)"
       font-size="121.5913"
       id="text79"
       style="font-size:121.59130096px;font-family:SourceSansPro-Regular">N</text>
<path
       d="m 566.769,199.59 c -1.334,-0.703 -2.588,-1.357 -3.943,-2.075 -2.229,1.868 -4.549,3.817 -6.99,5.861 0.544,0.309 0.944,0.529 1.587,0.894 -3.763,1.686 -7.358,3.297 -10.958,4.91 -0.085,-0.082 -0.169,-0.165 -0.259,-0.244 2.203,-3.261 4.412,-6.521 6.736,-9.972 0.243,0.662 0.412,1.109 0.628,1.708 2.24,-1.878 4.428,-3.696 6.578,-5.555 0.206,-0.175 0.301,-0.668 0.222,-0.953 -0.338,-1.173 -0.76,-2.324 -1.191,-3.586 -2.889,-0.254 -5.856,-0.519 -8.961,-0.79 0.11,0.578 0.2,1.049 0.326,1.726 -3.838,-1.474 -7.522,-2.885 -11.212,-4.296 0.005,-0.103 0.021,-0.206 0.031,-0.309 3.869,-0.745 7.739,-1.492 11.824,-2.28 -0.279,0.626 -0.458,1.036 -0.717,1.625 3.115,0.281 6.114,0.547 9.029,0.81 0.712,-1.357 1.376,-2.607 2.077,-3.943 -1.871,-2.23 -3.79,-4.527 -5.814,-6.94 -0.307,0.481 -0.569,0.886 -0.959,1.496 -1.671,-3.735 -3.278,-7.338 -4.893,-10.94 0.085,-0.075 0.17,-0.15 0.254,-0.224 3.272,2.208 6.542,4.419 9.989,6.748 -0.686,0.238 -1.139,0.398 -1.734,0.607 2.024,2.416 3.975,4.731 5.862,6.978 1.449,-0.46 2.756,-0.872 4.227,-1.333 0.254,-2.875 0.522,-5.884 0.802,-9.021 -0.58,0.127 -1.022,0.227 -1.74,0.388 1.477,-3.85 2.895,-7.558 4.312,-11.264 0.104,0.015 0.2,0.034 0.301,0.051 0.748,3.879 1.496,7.76 2.282,11.854 -0.654,-0.305 -1.064,-0.5 -1.629,-0.765 -0.279,3.107 -0.543,6.073 -0.812,9.037 1.286,0.68 2.53,1.345 3.933,2.086 2.214,-1.851 4.533,-3.791 6.957,-5.822 -0.506,-0.318 -0.906,-0.577 -1.507,-0.958 3.758,-1.676 7.358,-3.281 10.964,-4.89 0.068,0.087 0.138,0.172 0.206,0.257 -2.213,3.278 -4.434,6.555 -6.747,9.988 -0.232,-0.667 -0.386,-1.103 -0.602,-1.738 -2.372,1.99 -4.681,3.924 -6.984,5.852 0.443,1.42 0.865,2.762 1.333,4.245 2.899,0.255 5.91,0.519 9.041,0.796 -0.152,-0.602 -0.259,-1.041 -0.432,-1.743 3.863,1.473 7.559,2.882 11.249,4.294 0,0.102 0,0.207 0,0.313 -3.859,0.746 -7.713,1.498 -11.781,2.289 0.236,-0.597 0.395,-0.999 0.643,-1.617 -2.162,-0.197 -4.28,-0.256 -6.342,-0.626 -1.987,-0.358 -3.32,-0.021 -3.854,2.135 -0.132,0.523 -0.595,0.963 -0.959,1.53 1.924,2.299 3.874,4.618 5.915,7.058 0.3,-0.517 0.526,-0.905 0.911,-1.565 1.682,3.759 3.289,7.348 4.903,10.94 -0.08,0.089 -0.165,0.173 -0.238,0.265 -3.258,-2.197 -6.51,-4.396 -9.963,-6.727 0.638,-0.243 1.086,-0.415 1.692,-0.647 -1.892,-2.248 -3.737,-4.467 -5.624,-6.65 -0.147,-0.179 -0.602,-0.238 -0.849,-0.162 -1.176,0.353 -2.325,0.773 -3.617,1.216 -0.253,2.859 -0.512,5.831 -0.79,8.956 0.563,-0.113 1.033,-0.203 1.729,-0.337 -1.466,3.832 -2.874,7.524 -4.286,11.213 -0.105,-0.005 -0.206,-0.008 -0.312,-0.013 -0.749,-3.862 -1.497,-7.721 -2.287,-11.794 0.616,0.25 1.018,0.413 1.623,0.659 0.277,-3.063 0.551,-6.059 0.82,-9.006 z"
       id="path81"
       inkscape:connector-curvature="0"
       style="fill:#ffffff" /><path
       d="m 680.777,223.337 c -1.334,-0.701 -2.588,-1.357 -3.944,-2.076 -2.229,1.869 -4.553,3.816 -6.989,5.863 0.544,0.304 0.944,0.528 1.587,0.893 -3.763,1.683 -7.364,3.297 -10.964,4.909 -0.079,-0.081 -0.164,-0.164 -0.253,-0.242 2.203,-3.263 4.405,-6.521 6.736,-9.974 0.243,0.659 0.411,1.109 0.628,1.709 2.24,-1.876 4.428,-3.693 6.578,-5.552 0.205,-0.178 0.301,-0.669 0.221,-0.956 -0.337,-1.174 -0.764,-2.321 -1.19,-3.584 -2.889,-0.253 -5.862,-0.518 -8.961,-0.791 0.11,0.578 0.2,1.051 0.326,1.73 -3.838,-1.476 -7.522,-2.888 -11.212,-4.3 0.005,-0.102 0.021,-0.204 0.031,-0.307 3.869,-0.742 7.739,-1.493 11.818,-2.278 -0.273,0.625 -0.452,1.034 -0.711,1.625 3.115,0.281 6.108,0.548 9.024,0.813 0.717,-1.362 1.381,-2.611 2.082,-3.947 -1.871,-2.229 -3.79,-4.525 -5.814,-6.938 -0.307,0.483 -0.569,0.885 -0.959,1.498 -1.671,-3.738 -3.285,-7.339 -4.893,-10.939 0.085,-0.078 0.169,-0.154 0.253,-0.227 3.269,2.207 6.542,4.419 9.989,6.748 -0.686,0.24 -1.138,0.397 -1.734,0.607 2.025,2.416 3.976,4.733 5.862,6.979 1.449,-0.461 2.757,-0.875 4.229,-1.333 0.253,-2.875 0.521,-5.885 0.801,-9.021 -0.58,0.129 -1.022,0.229 -1.74,0.388 1.477,-3.854 2.895,-7.56 4.312,-11.266 0.1,0.017 0.2,0.036 0.301,0.052 0.748,3.878 1.496,7.759 2.282,11.854 -0.654,-0.305 -1.064,-0.5 -1.629,-0.761 -0.28,3.106 -0.544,6.073 -0.812,9.038 1.285,0.68 2.529,1.341 3.932,2.084 2.214,-1.852 4.533,-3.789 6.958,-5.821 -0.506,-0.316 -0.906,-0.578 -1.507,-0.958 3.758,-1.677 7.358,-3.285 10.964,-4.891 0.069,0.084 0.138,0.173 0.206,0.256 -2.214,3.28 -4.434,6.556 -6.752,9.989 -0.228,-0.667 -0.381,-1.104 -0.598,-1.739 -2.371,1.989 -4.68,3.925 -6.983,5.852 0.443,1.419 0.864,2.76 1.333,4.246 2.899,0.256 5.904,0.518 9.041,0.796 -0.152,-0.603 -0.259,-1.042 -0.433,-1.744 3.863,1.474 7.559,2.882 11.245,4.296 0,0.1 0,0.206 0,0.311 -3.854,0.748 -7.708,1.497 -11.777,2.289 0.236,-0.596 0.396,-0.999 0.639,-1.616 -2.157,-0.198 -4.275,-0.257 -6.337,-0.624 -1.987,-0.359 -3.326,-0.022 -3.854,2.132 -0.132,0.523 -0.595,0.961 -0.959,1.53 1.924,2.3 3.874,4.618 5.914,7.058 0.295,-0.516 0.521,-0.906 0.912,-1.565 1.682,3.759 3.289,7.349 4.902,10.941 -0.079,0.089 -0.163,0.173 -0.243,0.265 -3.252,-2.197 -6.509,-4.398 -9.957,-6.724 0.638,-0.245 1.087,-0.415 1.691,-0.647 -1.891,-2.252 -3.737,-4.468 -5.624,-6.654 -0.152,-0.175 -0.601,-0.237 -0.848,-0.163 -1.176,0.355 -2.326,0.775 -3.617,1.218 -0.253,2.859 -0.511,5.831 -0.79,8.953 0.563,-0.111 1.033,-0.199 1.729,-0.335 -1.466,3.835 -2.874,7.525 -4.287,11.215 -0.105,-0.005 -0.211,-0.011 -0.311,-0.015 -0.748,-3.862 -1.497,-7.722 -2.287,-11.794 0.616,0.248 1.018,0.415 1.623,0.658 0.276,-3.07 0.551,-6.062 0.82,-9.013 z"
       id="path83"
       inkscape:connector-curvature="0"
       style="fill:#ffffff" /><path
       d="m 620.325,271.24 c -1.334,-0.701 -2.588,-1.357 -3.948,-2.075 -2.226,1.869 -4.549,3.816 -6.984,5.862 0.543,0.305 0.944,0.529 1.587,0.893 -3.764,1.684 -7.364,3.298 -10.966,4.91 -0.083,-0.082 -0.168,-0.165 -0.252,-0.243 2.203,-3.265 4.406,-6.521 6.737,-9.973 0.242,0.659 0.406,1.11 0.627,1.708 2.235,-1.875 4.429,-3.692 6.578,-5.551 0.2,-0.178 0.302,-0.669 0.222,-0.956 -0.337,-1.174 -0.765,-2.321 -1.191,-3.584 -2.889,-0.254 -5.861,-0.518 -8.966,-0.791 0.11,0.577 0.205,1.05 0.331,1.73 -3.843,-1.477 -7.527,-2.889 -11.217,-4.3 0.011,-0.103 0.025,-0.205 0.037,-0.307 3.869,-0.742 7.738,-1.493 11.818,-2.279 -0.279,0.625 -0.453,1.035 -0.711,1.625 3.108,0.28 6.108,0.547 9.024,0.812 0.716,-1.361 1.375,-2.611 2.081,-3.947 -1.871,-2.228 -3.789,-4.525 -5.814,-6.938 -0.306,0.484 -0.569,0.886 -0.959,1.499 -1.671,-3.739 -3.284,-7.339 -4.893,-10.94 0.086,-0.077 0.169,-0.153 0.254,-0.226 3.268,2.207 6.535,4.418 9.988,6.747 -0.685,0.24 -1.143,0.396 -1.738,0.607 2.029,2.416 3.979,4.734 5.86,6.98 1.456,-0.461 2.764,-0.875 4.234,-1.334 0.253,-2.874 0.521,-5.885 0.801,-9.021 -0.58,0.129 -1.022,0.229 -1.739,0.389 1.476,-3.854 2.889,-7.561 4.312,-11.266 0.101,0.018 0.2,0.035 0.301,0.051 0.743,3.878 1.497,7.759 2.281,11.854 -0.653,-0.304 -1.063,-0.499 -1.628,-0.761 -0.279,3.107 -0.543,6.072 -0.816,9.039 1.291,0.679 2.535,1.341 3.932,2.083 2.22,-1.852 4.539,-3.789 6.959,-5.82 -0.502,-0.317 -0.902,-0.579 -1.502,-0.958 3.758,-1.676 7.357,-3.285 10.959,-4.891 0.072,0.083 0.142,0.173 0.21,0.256 -2.215,3.28 -4.434,6.556 -6.753,9.989 -0.227,-0.667 -0.38,-1.104 -0.596,-1.738 -2.371,1.989 -4.681,3.925 -6.984,5.852 0.443,1.419 0.865,2.761 1.328,4.246 2.905,0.255 5.909,0.518 9.046,0.796 -0.152,-0.602 -0.264,-1.043 -0.432,-1.744 3.858,1.473 7.553,2.882 11.243,4.296 0,0.101 0,0.206 0,0.312 -3.853,0.747 -7.712,1.497 -11.775,2.288 0.236,-0.596 0.395,-0.998 0.638,-1.615 -2.156,-0.198 -4.276,-0.257 -6.336,-0.624 -1.987,-0.36 -3.327,-0.022 -3.858,2.131 -0.133,0.524 -0.592,0.96 -0.955,1.531 1.925,2.3 3.874,4.618 5.914,7.058 0.296,-0.516 0.522,-0.907 0.906,-1.566 1.683,3.76 3.296,7.35 4.908,10.942 -0.084,0.088 -0.163,0.173 -0.242,0.265 -3.252,-2.198 -6.51,-4.397 -9.958,-6.723 0.638,-0.246 1.087,-0.416 1.692,-0.648 -1.892,-2.251 -3.737,-4.466 -5.624,-6.652 -0.152,-0.175 -0.602,-0.238 -0.849,-0.163 -1.176,0.354 -2.33,0.775 -3.616,1.218 -0.253,2.858 -0.517,5.83 -0.796,8.952 0.569,-0.111 1.038,-0.199 1.734,-0.334 -1.466,3.835 -2.879,7.524 -4.286,11.212 -0.105,-0.005 -0.211,-0.01 -0.312,-0.01 -0.748,-3.865 -1.496,-7.724 -2.287,-11.796 0.611,0.248 1.018,0.415 1.623,0.657 0.275,-3.072 0.549,-6.065 0.818,-9.016 z"
       id="path85"
       inkscape:connector-curvature="0"
       style="fill:#ffffff" /><path
       d="m 187.702,415.122 c -1.333,-0.701 -2.588,-1.355 -3.946,-2.071 -2.229,1.866 -4.55,3.816 -6.988,5.861 0.543,0.301 0.943,0.527 1.588,0.891 -3.765,1.687 -7.362,3.3 -10.963,4.907 -0.084,-0.079 -0.167,-0.163 -0.254,-0.243 2.202,-3.263 4.408,-6.521 6.734,-9.968 0.243,0.653 0.41,1.106 0.628,1.708 2.238,-1.876 4.43,-3.696 6.577,-5.556 0.206,-0.174 0.302,-0.669 0.222,-0.954 -0.338,-1.176 -0.76,-2.319 -1.19,-3.584 -2.888,-0.253 -5.859,-0.517 -8.963,-0.791 0.11,0.58 0.203,1.049 0.33,1.729 -3.84,-1.477 -7.525,-2.883 -11.214,-4.296 0.009,-0.106 0.022,-0.206 0.032,-0.312 3.871,-0.738 7.739,-1.492 11.823,-2.277 -0.279,0.627 -0.457,1.033 -0.716,1.628 3.114,0.279 6.113,0.543 9.028,0.812 0.714,-1.36 1.376,-2.609 2.08,-3.949 -1.87,-2.229 -3.791,-4.528 -5.813,-6.937 -0.307,0.48 -0.572,0.886 -0.96,1.498 -1.67,-3.738 -3.282,-7.338 -4.891,-10.938 0.084,-0.079 0.167,-0.153 0.252,-0.227 3.27,2.209 6.539,4.417 9.99,6.747 -0.685,0.237 -1.142,0.396 -1.738,0.606 2.027,2.414 3.976,4.734 5.864,6.979 1.451,-0.464 2.757,-0.875 4.229,-1.334 0.253,-2.873 0.523,-5.888 0.801,-9.024 -0.58,0.131 -1.023,0.231 -1.739,0.39 1.474,-3.854 2.89,-7.559 4.311,-11.265 0.103,0.016 0.202,0.037 0.302,0.053 0.745,3.879 1.496,7.759 2.281,11.85 -0.654,-0.301 -1.063,-0.496 -1.627,-0.759 -0.281,3.104 -0.546,6.072 -0.816,9.04 1.288,0.68 2.532,1.339 3.932,2.083 2.216,-1.85 4.537,-3.79 6.958,-5.82 -0.502,-0.316 -0.904,-0.58 -1.503,-0.959 3.758,-1.676 7.358,-3.284 10.961,-4.892 0.069,0.084 0.141,0.174 0.208,0.258 -2.214,3.279 -4.433,6.552 -6.75,9.989 -0.23,-0.669 -0.381,-1.106 -0.597,-1.739 -2.372,1.987 -4.683,3.921 -6.985,5.851 0.443,1.418 0.864,2.762 1.33,4.243 2.902,0.258 5.909,0.521 9.041,0.796 -0.15,-0.601 -0.258,-1.039 -0.43,-1.74 3.861,1.471 7.556,2.879 11.247,4.296 0,0.1 0,0.206 0,0.312 -3.857,0.743 -7.712,1.497 -11.78,2.288 0.238,-0.596 0.395,-1.002 0.641,-1.619 -2.158,-0.195 -4.276,-0.258 -6.338,-0.622 -1.99,-0.359 -3.325,-0.021 -3.857,2.129 -0.132,0.527 -0.592,0.965 -0.958,1.535 1.926,2.298 3.875,4.617 5.916,7.058 0.298,-0.517 0.524,-0.913 0.911,-1.565 1.68,3.758 3.291,7.348 4.904,10.938 -0.082,0.089 -0.162,0.174 -0.241,0.263 -3.254,-2.192 -6.509,-4.396 -9.96,-6.721 0.638,-0.248 1.086,-0.417 1.692,-0.648 -1.891,-2.251 -3.737,-4.465 -5.625,-6.653 -0.151,-0.174 -0.602,-0.237 -0.848,-0.163 -1.177,0.353 -2.329,0.775 -3.616,1.218 -0.253,2.857 -0.516,5.83 -0.794,8.956 0.564,-0.11 1.036,-0.2 1.73,-0.336 -1.465,3.837 -2.874,7.522 -4.287,11.212 -0.104,-0.006 -0.208,-0.011 -0.31,-0.011 -0.747,-3.864 -1.496,-7.723 -2.286,-11.798 0.613,0.248 1.017,0.417 1.621,0.659 0.274,-3.067 0.546,-6.06 0.819,-9.012 z"
       id="path87"
       inkscape:connector-curvature="0"
       style="fill:#ffffff" /><path
       d="m 254.284,374.179 c -1.333,-0.701 -2.588,-1.354 -3.945,-2.071 -2.229,1.866 -4.55,3.817 -6.987,5.861 0.542,0.301 0.941,0.527 1.587,0.891 -3.765,1.687 -7.362,3.3 -10.963,4.908 -0.084,-0.08 -0.168,-0.164 -0.255,-0.243 2.203,-3.264 4.408,-6.521 6.735,-9.974 0.242,0.659 0.41,1.112 0.628,1.713 2.237,-1.876 4.429,-3.694 6.577,-5.556 0.205,-0.174 0.303,-0.67 0.222,-0.955 -0.338,-1.175 -0.761,-2.319 -1.19,-3.584 -2.887,-0.253 -5.859,-0.517 -8.962,-0.791 0.108,0.581 0.201,1.049 0.327,1.729 -3.84,-1.477 -7.523,-2.883 -11.213,-4.296 0.007,-0.105 0.021,-0.206 0.033,-0.311 3.87,-0.738 7.737,-1.492 11.821,-2.277 -0.278,0.627 -0.456,1.032 -0.716,1.623 3.114,0.284 6.113,0.548 9.029,0.817 0.713,-1.36 1.375,-2.614 2.081,-3.948 -1.873,-2.229 -3.793,-4.528 -5.814,-6.937 -0.308,0.48 -0.573,0.886 -0.961,1.497 -1.671,-3.738 -3.282,-7.338 -4.891,-10.938 0.084,-0.08 0.167,-0.154 0.251,-0.227 3.271,2.202 6.54,4.417 9.991,6.747 -0.686,0.237 -1.141,0.395 -1.738,0.606 2.027,2.415 3.976,4.734 5.864,6.979 1.45,-0.463 2.758,-0.875 4.228,-1.333 0.253,-2.874 0.523,-5.889 0.801,-9.024 -0.579,0.132 -1.022,0.231 -1.738,0.389 1.473,-3.854 2.892,-7.559 4.312,-11.265 0.102,0.016 0.201,0.037 0.301,0.053 0.745,3.879 1.496,7.76 2.282,11.85 -0.654,-0.3 -1.064,-0.495 -1.628,-0.759 -0.28,3.104 -0.545,6.072 -0.816,9.041 1.288,0.679 2.532,1.338 3.933,2.082 2.217,-1.85 4.538,-3.79 6.958,-5.819 -0.502,-0.316 -0.905,-0.58 -1.503,-0.959 3.757,-1.677 7.357,-3.285 10.96,-4.893 0.067,0.084 0.138,0.174 0.206,0.259 -2.214,3.279 -4.429,6.552 -6.747,9.989 -0.23,-0.669 -0.382,-1.107 -0.597,-1.739 -2.373,1.987 -4.682,3.921 -6.985,5.852 0.443,1.417 0.864,2.762 1.332,4.243 2.9,0.258 5.908,0.521 9.041,0.796 -0.15,-0.601 -0.259,-1.039 -0.431,-1.74 3.861,1.471 7.556,2.878 11.246,4.296 0,0.101 0,0.206 0,0.312 -3.86,0.743 -7.715,1.497 -11.782,2.288 0.237,-0.596 0.395,-1.001 0.641,-1.618 -2.157,-0.195 -4.275,-0.258 -6.337,-0.622 -1.989,-0.359 -3.325,-0.021 -3.857,2.13 -0.132,0.526 -0.593,0.964 -0.958,1.533 1.928,2.298 3.876,4.618 5.916,7.053 0.297,-0.512 0.524,-0.906 0.91,-1.561 1.681,3.759 3.292,7.349 4.904,10.938 -0.082,0.09 -0.163,0.174 -0.24,0.264 -3.255,-2.193 -6.511,-4.396 -9.96,-6.721 0.638,-0.248 1.086,-0.417 1.694,-0.648 -1.893,-2.251 -3.738,-4.465 -5.626,-6.653 -0.15,-0.173 -0.601,-0.237 -0.848,-0.164 -1.176,0.354 -2.328,0.775 -3.616,1.218 -0.252,2.857 -0.515,5.83 -0.793,8.951 0.564,-0.111 1.036,-0.195 1.73,-0.332 -1.466,3.837 -2.874,7.522 -4.286,11.212 -0.105,-0.005 -0.208,-0.011 -0.311,-0.011 -0.748,-3.864 -1.496,-7.723 -2.287,-11.797 0.613,0.249 1.02,0.417 1.623,0.659 0.275,-3.067 0.545,-6.061 0.817,-9.013 z"
       id="path89"
       inkscape:connector-curvature="0"
       style="fill:#ffffff" /></g></svg>