<?xml version="1.0" encoding="UTF-8" standalone="no"?>
<!-- Created with Inkscape (http://www.inkscape.org/) -->

<svg
   xmlns:dc="http://purl.org/dc/elements/1.1/"
   xmlns:cc="http://creativecommons.org/ns#"
   xmlns:rdf="http://www.w3.org/1999/02/22-rdf-syntax-ns#"
   xmlns:svg="http://www.w3.org/2000/svg"
   xmlns="http://www.w3.org/2000/svg"
   xmlns:sodipodi="http://sodipodi.sourceforge.net/DTD/sodipodi-0.dtd"
   xmlns:inkscape="http://www.inkscape.org/namespaces/inkscape"
   id="svg3058"
   version="1.1"
   inkscape:version="0.48.2 r9819"
   width="1133.8583"
   height="708.66138"
   sodipodi:docname="cthulhu2.hpgl">
  <metadata
     id="metadata3064">
    <rdf:RDF>
      <cc:Work
         rdf:about="">
        <dc:format>image/svg+xml</dc:format>
        <dc:type
           rdf:resource="http://purl.org/dc/dcmitype/StillImage" />
        <dc:title></dc:title>
      </cc:Work>
    </rdf:RDF>
  </metadata>
  <defs
     id="defs3062" />
  <sodipodi:namedview
     pagecolor="#ffffff"
     bordercolor="#666666"
     borderopacity="1"
     objecttolerance="10"
     gridtolerance="10"
     guidetolerance="10"
     inkscape:pageopacity="0"
     inkscape:pageshadow="2"
     inkscape:window-width="1721"
     inkscape:window-height="1019"
     id="namedview3060"
     showgrid="false"
     units="cm"
     height="20cm"
     inkscape:zoom="0.62642857"
     inkscape:cx="375.54162"
     inkscape:cy="237.09863"
     inkscape:window-x="407"
     inkscape:window-y="538"
     inkscape:window-maximized="0"
     inkscape:current-layer="svg3058" />
  <path
     style="fill:#000000"
     d="m 855.81124,581.22868 c 0.0489,-7.41935 -11.33771,-18.9029 -35.4556,-35.7575 -21.72902,-15.18529 -26.12821,-25.9311 -26.14228,-63.85691 -0.006,-17.97128 1.24568,-33.48227 2.78297,-34.4695 1.53732,-0.98722 6.95654,8.37825 12.04267,20.81191 16.70741,40.84364 37.65233,69.27147 65.08096,88.33181 13.4584,9.35265 26.63397,17.00464 29.27902,17.00464 7.14596,0 17.36311,-6.41864 17.36311,-10.908 0,-2.92289 -0.99607,-2.89255 -3.89418,0.11797 -6.66106,6.92067 -14.1878,4.56218 -34.13905,-10.69761 -29.42155,-22.50349 -60.43784,-78.53713 -64.83769,-117.1349 -2.45524,-21.53917 2.90944,-21.5955 13.37348,-0.14158 15.81944,32.43505 54.63148,64.34312 111.46596,91.63839 30.43088,14.6148 36.99905,21.85713 32.0283,35.31547 -1.02888,2.78599 -0.42007,5.06524 1.35292,5.06524 1.773,0 4.61166,-3.79312 6.30813,-8.42915 5.92397,-16.1887 -0.48947,-23.54164 -37.96787,-43.5285 -56.44359,-30.10118 -95.08331,-64.1779 -95.08331,-83.8549 0,-5.09021 6.16054,-0.57689 25.73444,18.85297 19.99997,19.85269 32.67422,29.05261 56.87799,41.28601 27.31834,13.80796 34.42101,15.94796 57.82817,17.42508 21.70952,1.37025 30.26512,0.36717 45.88862,-5.37983 17.8996,-6.58249 34.341,-18.32228 34.341,-24.5194 0,-1.47544 -5.1483,0.94778 -11.4407,5.38422 -14.5108,10.2313 -40.7235,16.14352 -59.78093,13.4836 -49.20301,-6.8674 -105.81189,-40.28259 -126.97181,-74.949 -17.40319,-28.51177 -13.78977,-29.84932 25.45201,-9.42076 54.05446,28.13956 73.32963,33.65897 117.57393,33.66638 34.1529,0 39.0503,-0.81189 57.7229,-9.64059 29.3796,-13.89056 52.8375,-47.73396 47.7328,-68.8655 -1.9127,-7.91802 -2.6417,-7.0778 -7.9244,9.13516 -7.492,22.99373 -22.8383,39.22526 -45.4418,48.0627 -15.2076,5.94594 -23.3262,6.832 -52.0895,5.68495 -29.58846,-1.17972 -36.89971,-2.7189 -55.53803,-11.69021 -31.25329,-15.04334 -31.01106,-17.91296 1.51236,-17.91296 56.02517,0 105.88817,-28.41907 105.93597,-60.37735 0.01,-6.63375 -1.3675,-5.40176 -7.5393,6.74332 -5.8956,11.60155 -11.714,17.0778 -26.5349,24.97491 -18.1235,9.65677 -20.8319,10.11498 -59.78549,10.11498 -40.54798,0 -41.02984,-0.0944 -77.40322,-14.88184 -20.13069,-8.18469 -36.16523,-16.24061 -35.63235,-17.90149 0.53289,-1.66122 9.54807,-6.64284 20.03373,-11.07051 10.48572,-4.42801 27.47064,-13.44147 37.74434,-20.0297 43.18448,-27.69415 70.79208,-35.20115 86.74939,-23.58847 6.4063,4.662 7.2123,4.67514 7.2123,0.11867 0,-8.43693 -12.65124,-12.94855 -32.09427,-11.44612 -13.77348,1.06443 -28.47577,6.45941 -60.39251,22.16092 -40.68642,20.01553 -69.77074,29.11665 -69.77074,21.83251 0,-1.87362 8.26789,-7.6095 18.37306,-12.74623 10.1052,-5.13672 25.43855,-16.41527 34.07409,-25.06358 13.04144,-13.06013 15.65144,-17.68471 15.40833,-27.30135 l -0.29271,-11.57761 -2.97551,10.67839 c -3.64746,13.08945 -18.62005,26.66579 -40.57341,36.78955 -19.51812,9.00064 -43.43241,16.08585 -45.84243,13.58206 -0.93635,-0.97306 2.91428,-5.80499 8.55701,-10.73808 5.64273,-4.93341 12.39752,-13.26512 15.01069,-18.51546 5.4632,-10.97646 6.26175,-23.36731 1.50599,-23.36731 -1.78484,0 -3.24515,2.91783 -3.24515,6.48437 0,9.06877 -14.80824,26.36606 -28.80328,33.64481 -25.08275,13.04563 -26.94418,12.6916 -68.27618,-12.98495 -63.04016,-39.16285 -100.4207,-54.58113 -172.21737,-71.03416 -61.412,-14.07298 -141.92213,-14.63268 -215.08282,-1.49466 -63.62802,11.42588 -154.58,48.35098 -199.55343,81.01529 -11.31659,8.21945 -22.57842,14.94422 -25.02631,14.94422 -7.15959,0 -39.15253,-32.29983 -63.946329,-64.55989 l -22.9389,-29.84664 -22.3248,0 c -12.2786,0 -22.3245998,1.22021 -22.3245998,2.71149 0,10.00204 47.8432998,73.16169 80.7409998,106.58902 l 16.316999,16.57981 -28.057799,30.62345 c -29.3378,32.02033 -68.9284998,84.91766 -68.9737998,92.15628 -0.019,2.96471 6.5761998,4.21457 22.2397998,4.21457 l 22.2662,0 18.4518,-25.02986 c 21.0298,-28.52662 61.348199,-69.37665 68.473669,-69.37665 2.62648,0 14.6467,7.04373 26.71166,15.65294 31.73354,22.6444 73.74615,42.97721 123.9791,60.00275 60.79978,20.60693 91.48031,25.79995 165.00865,27.93051 68.98554,1.99906 88.64398,-0.13155 151.4247,-16.42067 48.70085,-12.63529 79.78381,-25.0983 116.97374,-46.9015 16.06348,-9.41772 30.5619,-17.39878 32.21866,-17.73561 5.92316,-1.20469 8.38341,29.79032 4.96519,62.55309 -3.54529,33.98062 -11.48387,63.03186 -22.54825,82.51569 l -6.39974,11.26943 6.60246,-3.67107 c 9.21736,-5.12524 17.41848,-20.26468 26.1824,-48.33309 l 7.50208,-24.02678 2.77933,15.17247 c 4.17538,22.79345 11.49148,42.3285 18.22273,48.6578 3.30614,3.10867 16.76158,11.25999 29.90101,18.11425 14.82813,7.73493 25.41037,15.65901 27.89847,20.89115 3.75065,7.88664 4.01168,7.96319 4.05643,1.19223 z M 388.55735,433.53507 c -35.44037,-5.57775 -101.13998,-25.31984 -102.91285,-30.92454 -0.65856,-2.08202 1.76541,-4.59019 5.38658,-5.57404 10.4525,-2.83995 13.15236,-16.50227 13.15236,-66.55492 0,-39.30278 -0.82877,-47.29834 -5.16408,-49.81898 -6.35848,-3.69704 0.56811,-6.87517 41.22411,-18.91368 39.80397,-11.78633 70.767,-15.50897 128.86619,-15.49346 66.17559,0.0338 105.40003,6.41458 168.51303,27.4824 19.85864,6.62903 26.62834,12.96404 13.85371,12.96404 -7.2195,0 -10.93324,10.33281 -9.23937,25.70691 0.8538,7.74942 2.98667,10.00607 10.7691,11.39284 12.38449,2.20709 19.38659,15.66069 14.74806,28.33645 -2.17606,5.94661 -5.60978,8.74037 -10.74253,8.74037 -10.35304,0 -15.33254,6.10742 -15.33254,18.80543 0,19.70298 15.00853,22.96203 31.94853,6.93721 12.48707,-11.81229 16.72874,-23.96679 16.72874,-47.93594 0,-16.93789 -1.67628,-25.34646 -6.75497,-33.88417 -3.80758,-6.40078 -5.17646,-11.35577 -3.13729,-11.35577 9.86286,0 81.28559,42.72975 81.28559,48.63015 0,5.16741 -43.28592,31.93503 -81.94587,50.67506 -43.78794,21.22561 -83.69929,33.15524 -145.2147,43.4061 -21.30403,3.54968 -117.82821,1.81698 -146.0318,-2.62146 z m 97.14383,-8.37622 c 10.70244,-11.11974 13.15447,-29.81931 13.17319,-100.46169 l 0.0195,-68.21176 -8.15504,-2.12651 c -16.16391,-4.21524 -17.58638,0.87899 -18.54555,66.41635 -1.18299,80.82714 -6.84438,80.30623 -8.99607,-0.82775 -1.41819,-53.47624 -2.3379,-61.65049 -7.3016,-64.89807 -4.13681,-2.70644 -7.22119,-2.70577 -11.35804,0.002 -5.00341,3.2759 -5.78465,10.85271 -6.5671,63.69405 -0.98909,66.79666 2.26117,93.46549 12.81324,105.13549 8.87988,9.82065 26.09022,10.45047 34.91884,1.27753 z m 44.68221,0.55125 c 2.35494,-1.60456 4.28873,-13.33694 4.86774,-29.53237 0.75764,-21.19326 1.98901,-26.87012 5.82832,-26.87012 3.82662,0 5.07045,5.58886 5.81551,26.13038 l 0.9478,26.13036 9.48477,0 c 6.05603,0 10.69915,-2.35781 12.84412,-6.52179 2.0022,-3.88686 3.35931,-34.43715 3.35931,-75.62166 0,-59.28258 -0.74905,-69.87802 -5.27224,-74.57744 -2.89971,-3.01292 -8.37589,-5.0177 -12.16932,-4.45532 -6.21409,0.9208 -7.05773,3.69299 -8.51965,27.99558 -1.262,20.97916 -2.70428,26.97329 -6.4903,26.97329 -3.81783,0 -5.21767,-6.1816 -6.4903,-28.65912 l -1.62259,-28.65912 -11.35802,0 -11.35803,0 0,84.29153 0,84.29154 8.11288,0.87327 c 4.46209,0.48047 9.87107,-0.32368 12.02,-1.78901 z m -105.31808,0.69356 c 1.33863,-1.42318 2.43387,-40.36216 2.43387,-86.531 l 0,-83.94291 -10.54675,1.05634 -10.54675,1.05668 -1.62256,55.4861 -1.62259,55.48607 -8.11288,1.97242 c -7.55302,1.83655 -8.17984,3.56857 -9.0836,25.09966 -0.53388,12.71993 0.30798,24.45568 1.8711,26.07947 3.86125,4.01193 34.19506,7.46418 37.23016,4.23717 z m -53.12746,-9.39986 c 2.66868,-3.34099 3.51228,-26.22984 2.89204,-78.46732 l -0.8757,-73.75038 -7.48021,-1.10187 c -13.09397,-1.92858 -16.85843,4.8643 -16.85843,30.42082 0,20.50071 -0.71133,23.29548 -5.67902,22.31232 -4.56193,-0.90293 -5.86989,-5.29588 -6.64937,-22.33254 -1.04503,-22.84031 -4.79978,-27.58559 -16.62439,-21.01052 -6.46378,3.59386 -6.74387,6.40044 -6.74387,67.57418 0,59.65041 0.41047,64.05247 6.27696,67.31454 13.53147,7.52421 16.43593,4.72404 16.48878,-15.89672 0.0258,-10.66287 1.32437,-21.47815 2.88233,-24.03353 5.54103,-9.08933 10.04913,0.22253 10.09826,20.86081 0.0258,11.4805 1.12257,22.56585 2.43386,24.63403 4.12347,6.50326 15.78815,8.54716 19.83876,3.47618 z m 242.96879,-7.78349 c 2.92601,-1.22659 4.05643,-12.87569 4.05643,-41.80184 0,-39.05396 0.21191,-40.2455 8.11287,-45.62432 6.73824,-4.58715 8.10448,-8.17089 8.06321,-21.15043 -0.0258,-8.59538 -1.12618,-17.3853 -2.44184,-19.53372 -2.996,-4.89193 -42.17188,-15.66609 -48.21019,-13.25873 -3.15806,1.25933 -4.46587,8.20663 -4.46587,23.72437 0,19.68645 0.8347,22.51224 8.11288,27.46689 7.95895,5.41828 8.11289,6.3475 8.11289,48.96698 0,42.88383 0.0942,43.4405 7.30158,43.1775 4.01589,-0.14498 9.12699,-1.03138 11.35804,-1.9667 z M 240.19604,385.9427 c -24.93261,-11.39553 -62.57348,-37.62774 -62.57348,-43.6084 0,-6.94865 57.60805,-45.51741 67.98702,-45.51741 2.17181,0 3.4063,13.43776 3.4063,37.0785 l 0,37.07849 12.16445,13.98968 c 11.1838,12.86155 11.5108,13.77696 4.05645,11.35375 -4.45944,-1.44947 -15.72774,-6.11822 -25.04074,-10.37461 z m 31.53589,-52.25941 c 0,-16.81143 -1.61108,-33.69435 -3.5802,-37.51681 -3.84198,-7.45879 0.26349,-12.67338 10.0705,-12.79173 4.08455,-0.0506 4.72057,5.77396 3.95306,36.19377 -0.98189,38.9164 -1.89752,44.68159 -7.09637,44.68159 -2.05307,0 -3.34699,-11.81665 -3.34699,-30.56682 z"
     id="path3068"
     inkscape:connector-curvature="0" />
</svg>
