<?xml version="1.0" encoding="UTF-8" standalone="no"?>
<!-- Created with Inkscape (http://www.inkscape.org/) -->

<svg
   xmlns:dc="http://purl.org/dc/elements/1.1/"
   xmlns:cc="http://creativecommons.org/ns#"
   xmlns:rdf="http://www.w3.org/1999/02/22-rdf-syntax-ns#"
   xmlns:svg="http://www.w3.org/2000/svg"
   xmlns="http://www.w3.org/2000/svg"
   xmlns:sodipodi="http://sodipodi.sourceforge.net/DTD/sodipodi-0.dtd"
   xmlns:inkscape="http://www.inkscape.org/namespaces/inkscape"
   id="svg3039"
   version="1.1"
   inkscape:version="0.48.3.1 r9886"
   width="1000"
   height="1000"
   sodipodi:docname="doge.jpeg">
  <metadata
     id="metadata3045">
    <rdf:RDF>
      <cc:Work
         rdf:about="">
        <dc:format>image/svg+xml</dc:format>
        <dc:type
           rdf:resource="http://purl.org/dc/dcmitype/StillImage" />
        <dc:title></dc:title>
      </cc:Work>
    </rdf:RDF>
  </metadata>
  <defs
     id="defs3043" />
  <sodipodi:namedview
     pagecolor="#ffffff"
     bordercolor="#666666"
     borderopacity="1"
     objecttolerance="10"
     gridtolerance="10"
     guidetolerance="10"
     inkscape:pageopacity="0"
     inkscape:pageshadow="2"
     inkscape:window-width="1020"
     inkscape:window-height="729"
     id="namedview3041"
     showgrid="false"
     inkscape:zoom="0.531"
     inkscape:cx="500"
     inkscape:cy="500"
     inkscape:window-x="0"
     inkscape:window-y="18"
     inkscape:window-maximized="0"
     inkscape:current-layer="svg3039" />
  <path
     style="fill:#000000"
     d="m 361.5,855.07403 c -3.3,-0.82916 -8.925,-1.83168 -12.5,-2.22781 -3.575,-0.39613 -7.85,-1.43253 -9.5,-2.3031 -1.65,-0.87057 -5.08568,-1.88609 -7.63483,-2.25671 -2.63386,-0.38293 -5.39906,-1.51831 -6.40499,-2.62985 -0.97359,-1.0758 -2.93791,-1.95768 -4.36517,-1.95974 -1.42725,-0.002 -4.06839,-0.90205 -5.86918,-2 -1.80079,-1.09794 -4.12877,-1.99626 -5.17327,-1.99626 -1.04451,0 -3.2361,-1.125 -4.87019,-2.5 -1.6341,-1.375 -3.84888,-2.5 -4.92174,-2.5 -1.07286,0 -2.72852,-0.85953 -3.67924,-1.91006 -0.95072,-1.05054 -2.91284,-2.2073 -4.36027,-2.57058 -1.44742,-0.36328 -3.23982,-1.52875 -3.98311,-2.58993 -0.74328,-1.06119 -2.19376,-1.92943 -3.22329,-1.92943 -1.02952,0 -2.47579,-0.60393 -3.21393,-1.34206 -0.73813,-0.73814 -2.45778,-1.93455 -3.82143,-2.6587 -1.36365,-0.72415 -3.06738,-2.14522 -3.78606,-3.15794 -0.71869,-1.01271 -2.18119,-1.8413 -3.25,-1.8413 -1.06882,0 -1.9433,-0.43844 -1.9433,-0.97432 0,-0.53588 -1.2375,-1.63274 -2.75,-2.43748 -2.43132,-1.2936 -8.7772,-6.69805 -14.78517,-12.59174 -1.11934,-1.09805 -2.55152,-1.99646 -3.18261,-1.99646 -0.6311,0 -1.43309,-0.9 -1.78222,-2 -0.34913,-1.1 -1.11734,-2 -1.70715,-2 -0.5898,0 -1.6482,-0.7875 -2.352,-1.75 -0.70379,-0.9625 -1.8784,-1.75 -2.61024,-1.75 -0.73183,0 -1.47162,-0.99122 -1.64397,-2.20272 -0.17234,-1.2115 -1.09501,-2.45081 -2.05036,-2.75403 -0.95536,-0.30322 -2.83935,-1.90384 -4.18665,-3.55694 -1.3473,-1.65311 -6.38713,-7.07795 -11.19963,-12.05522 -4.8125,-4.97726 -8.75,-9.39447 -8.75,-9.81602 0,-0.42154 -1.125,-1.82332 -2.5,-3.11507 -1.375,-1.29175 -2.5,-2.92935 -2.5,-3.63913 0,-0.70978 -0.92154,-1.7837 -2.04787,-2.38649 -1.12632,-0.60279 -2.46519,-2.19362 -2.97525,-3.53518 -0.51006,-1.34156 -1.61352,-2.4392 -2.45213,-2.4392 -0.83861,0 -1.52475,-0.79999 -1.52475,-1.77776 0,-0.97777 -0.9,-2.54836 -2,-3.49021 -1.1,-0.94185 -2,-2.37603 -2,-3.18706 0,-0.81103 -0.9,-1.95627 -2,-2.54497 -1.15182,-0.61643 -2,-2.09382 -2,-3.48366 0,-1.32731 -1.125,-3.62719 -2.5,-5.11084 -1.38284,-1.49211 -2.5,-3.90362 -2.5,-5.39654 0,-1.48444 -0.84835,-3.46673 -1.88522,-4.40509 -1.03688,-0.93836 -2.15793,-3.0696 -2.49123,-4.7361 -0.3333,-1.6665 -1.50994,-4.17918 -2.61477,-5.58374 C 176.90395,704.58003 176,702.21127 176,700.72069 c 0,-1.49059 -0.84835,-3.4779 -1.88522,-4.41626 -1.03688,-0.93836 -2.15793,-3.0696 -2.49123,-4.7361 -0.3333,-1.6665 -1.50994,-4.17918 -2.61477,-5.58374 -1.10483,-1.40456 -2.01175,-3.28056 -2.01537,-4.16889 -0.004,-0.88833 -0.90066,-2.96514 -1.99341,-4.61514 -1.13273,-1.71037 -1.98965,-4.69181 -1.99341,-6.93555 -0.004,-2.60672 -0.71103,-4.68539 -2.09293,-6.15635 -1.49315,-1.58939 -2.23615,-4.02443 -2.61328,-8.56445 -0.31017,-3.73406 -1.36714,-7.78344 -2.56939,-9.84365 -1.71247,-2.93452 -2.01379,-5.03486 -1.86501,-13 0.12371,-6.62338 -0.3321,-11.04867 -1.50529,-14.61446 -1.53498,-4.66542 -1.54674,-5.45561 -0.13395,-9 1.30592,-3.27631 2.11463,-3.97837 5.15774,-4.47759 1.98493,-0.32563 4.39795,-1.27725 5.36225,-2.11471 2.41915,-2.10096 8.85093,-2.98296 10.16922,-1.39452 0.57189,0.68909 1.41551,10.07116 1.87471,20.84904 0.55897,13.11958 1.24902,20.09512 2.08787,21.10588 0.68913,0.83034 1.6712,4.46304 2.18238,8.07265 0.51119,3.60961 1.8316,8.24619 2.93426,10.30351 1.10266,2.05732 2.00483,5.20593 2.00483,6.99692 0,2.17333 0.66517,3.67174 2,4.50535 1.21693,0.75999 2,2.33203 2,4.01509 0,1.70415 0.95978,3.60058 2.5,4.93979 1.39575,1.21359 2.5,3.2566 2.5,4.62535 0,1.3484 0.85146,3.85475 1.89213,5.56967 1.04067,1.71491 2.19316,4.54294 2.5611,6.28449 0.36794,1.74155 1.30841,3.41183 2.08994,3.71173 0.78153,0.2999 1.70823,2.34181 2.05935,4.53757 0.35112,2.19576 1.48419,4.75772 2.51794,5.69325 1.03375,0.93553 1.87954,2.56157 1.87954,3.61342 0,1.05186 2.025,4.39836 4.5,7.43668 2.475,3.03833 4.5,6.36155 4.5,7.38494 0,1.02339 2.1375,4.05954 4.75,6.747 6.09405,6.2689 13.24875,14.45222 13.25432,15.15987 0.002,0.302 2.02737,2.78021 4.5,5.50714 2.47262,2.72694 4.49568,5.31444 4.49568,5.75 0,0.43557 0.64468,0.79194 1.43261,0.79194 0.78794,0 1.7172,0.89664 2.06502,1.99254 0.53545,1.68705 3.75658,4.73025 14.94733,14.12164 0.90824,0.7622 2.73422,2.39832 4.05773,3.63582 1.32352,1.2375 2.74853,2.25 3.16669,2.25 0.77631,0 3.40939,2.34854 8.12837,7.25 1.45619,1.5125 3.23653,2.75 3.95632,2.75 0.71978,0 1.56772,0.675 1.8843,1.5 0.32811,0.85503 1.81954,1.5 3.46862,1.5 1.92302,0 2.89301,0.51012 2.89301,1.52144 0,0.83679 1.2375,2.06736 2.75,2.7346 1.5125,0.66724 3.33802,2.0076 4.0567,2.97856 0.71869,0.97097 1.92166,1.7654 2.67328,1.7654 0.75161,0 2.70356,1.125 4.33765,2.5 1.6341,1.375 3.74116,2.5 4.68237,2.5 0.94121,0 3.04827,1.125 4.68237,2.5 1.63409,1.375 3.76681,2.5 4.73937,2.5 0.97256,0 2.58277,0.9 3.57826,2 1.11469,1.23172 3.07997,2 5.11603,2 1.92687,0 4.05236,0.78091 5.09501,1.87192 1.00552,1.05214 3.97862,2.18109 6.78896,2.57792 2.75,0.38831 6.01675,1.3591 7.25945,2.15733 1.24269,0.79822 5.96769,1.89535 10.5,2.43806 4.5323,0.54271 9.81555,1.67011 11.74055,2.50534 2.9246,1.26893 8.18537,1.46371 32,1.18481 18.03367,-0.2112 29.96896,-0.76809 32.5,-1.51641 2.2,-0.65045 10.51523,-1.69775 18.47829,-2.32734 8.48272,-0.67066 15.3188,-1.69541 16.50796,-2.47458 1.11631,-0.73143 5.84927,-1.64842 10.51769,-2.03776 5.40216,-0.45052 9.58016,-1.37389 11.49204,-2.53984 2.08132,-1.26927 4.96427,-1.83312 9.38599,-1.83571 4.70412,-0.003 7.26268,-0.54805 9.73192,-2.07413 1.85835,-1.14852 5.91826,-2.32044 9.11803,-2.63197 3.17245,-0.30887 6.47437,-1.17344 7.3376,-1.92127 0.86324,-0.74783 3.90046,-1.80174 6.74938,-2.34202 2.84892,-0.54029 6.41763,-1.60646 7.93048,-2.36927 1.51284,-0.76281 4.77562,-1.69725 7.25062,-2.07654 2.475,-0.3793 5.4,-1.2778 6.5,-1.99669 1.1,-0.71889 4.53874,-2.04454 7.64164,-2.94589 3.10291,-0.90136 5.90553,-2.32649 6.22804,-3.16696 0.41748,-1.08793 1.33606,-1.33997 3.18879,-0.87497 1.83814,0.46134 3.43863,0.0349 5.4499,-1.45209 1.56613,-1.15789 4.69628,-2.40089 6.95589,-2.76222 2.49714,-0.3993 4.50013,-1.38892 5.10725,-2.52334 0.66434,-1.24133 2.10084,-1.86638 4.28936,-1.86638 2.2169,0 4.05679,-0.81568 5.63913,-2.5 1.29175,-1.375 3.10133,-2.5 4.0213,-2.5 0.91998,0 2.71039,-0.9 3.9787,-2 1.26831,-1.1 2.85706,-2 3.53056,-2 0.67351,0 1.80633,-0.701 2.51739,-1.55778 0.71106,-0.85677 2.79116,-2.18381 4.62244,-2.94897 1.83129,-0.76516 3.32961,-1.86416 3.32961,-2.44222 0,-2.24266 3.05515,-0.86134 7.4872,3.38517 2.54651,2.43992 5.08268,4.58709 5.63592,4.77151 0.55324,0.18441 1.25618,2.20127 1.56207,4.4819 0.60686,4.52443 1.18267,3.97714 -10.93118,10.38976 -1.64094,0.86865 -3.40425,2.33115 -3.91846,3.25 -0.51421,0.91885 -1.96872,1.67063 -3.23223,1.67063 -1.26352,0 -3.33501,0.9 -4.60332,2 -1.26831,1.1 -3.04974,2 -3.95873,2 -0.90899,0 -3.17756,1.125 -5.04127,2.5 -1.86371,1.375 -4.54289,2.5 -5.95373,2.5 -1.41415,0 -3.08433,0.8313 -3.72216,1.85262 -0.7245,1.16012 -2.86202,2.08633 -5.71838,2.47783 -2.55523,0.35024 -5.45077,1.51459 -6.58356,2.64738 -1.13082,1.13082 -3.34454,2.02217 -5.02217,2.02217 -1.66667,0 -3.88889,0.88889 -5,2 -1.3891,1.3891 -3.33333,2 -6.36514,2 -2.85664,0 -5.24726,0.69387 -6.91771,2.00785 -1.40392,1.10432 -4.7271,2.29789 -7.38486,2.65238 -2.65776,0.35449 -5.90548,1.47595 -7.21715,2.49215 -1.54934,1.20032 -4.04207,1.84762 -7.11514,1.84762 -3.10836,0 -5.548,0.64234 -7.11514,1.87338 -1.31167,1.03036 -4.85986,2.20529 -7.88486,2.61095 -3.025,0.40566 -7.075,1.40721 -9,2.22567 -1.925,0.81846 -6.74136,1.86931 -10.70303,2.33522 -3.96167,0.46592 -8.23667,1.49668 -9.5,2.29059 -1.26333,0.79391 -5.58813,1.74821 -9.61065,2.12066 -4.02253,0.37245 -9.19753,1.35143 -11.5,2.17552 -2.30248,0.82408 -9.91228,1.85433 -16.91069,2.28945 -8.38982,0.52163 -13.29588,1.26589 -14.4021,2.18484 -2.58638,2.14855 -67.4764,2.37706 -75.87353,0.26719 z M 324,727.72954 c -4.125,-0.36199 -9.17305,-1.4166 -11.21788,-2.34358 -2.04484,-0.92697 -5.2015,-1.6854 -7.01481,-1.6854 -1.81331,0 -4.99715,-0.91127 -7.07521,-2.02504 -2.07805,-1.11377 -5.89639,-2.31306 -8.48519,-2.6651 -2.5888,-0.35203 -5.18423,-1.28639 -5.76762,-2.07634 -0.89404,-1.21059 -2.69011,-1.65906 -8.68929,-2.16968 -0.4125,-0.0351 -0.75,-0.93352 -0.75,-1.99645 0,-1.07003 -0.91492,-2.223 -2.04989,-2.58322 -1.12744,-0.35784 -3.58807,-2.18879 -5.46807,-4.06879 -1.88,-1.88 -4.4079,-3.56922 -5.61756,-3.75383 -1.20965,-0.18461 -2.3087,-1.08051 -2.44231,-1.9909 -0.13362,-0.91039 -2.01181,-3.35478 -4.17376,-5.43198 -7.07708,-6.79965 -7.87011,-10.3108 -3.31457,-14.67528 2.50101,-2.39613 3.45958,-2.71217 6.49751,-2.14225 2.57415,0.48292 3.988,1.48911 5.09184,3.62371 0.84049,1.62533 1.85411,2.95754 2.25249,2.96046 0.39838,0.003 4.09932,3.15053 8.22432,6.99469 4.125,3.84416 7.96249,6.99177 8.52776,6.99469 0.56527,0.003 1.79836,0.90531 2.74021,2.00531 1.01757,1.18844 2.94994,2 4.76208,2 1.67729,0 4.7192,0.83811 6.75979,1.86248 2.04059,1.02436 6.18516,2.17626 9.21016,2.55978 3.025,0.38352 6.4,1.27422 7.5,1.97934 3.21734,2.06236 6.45843,2.53535 18.05988,2.63561 6.01707,0.052 13.40907,0.5689 16.42668,1.14867 3.95204,0.75931 11.78322,0.69988 28,-0.21247 18.952,-1.06625 22.82982,-1.547 24.51344,-3.03903 1.1,-0.97483 3.65808,-2.07842 5.68463,-2.45243 2.02655,-0.374 4.45879,-1.53544 5.40499,-2.58098 0.94619,-1.04553 2.48087,-1.90097 3.41038,-1.90097 0.92951,0 2.50451,-0.9 3.5,-2 0.99549,-1.1 2.6057,-2 3.57826,-2 0.97256,0 3.10528,-1.125 4.73937,-2.5 1.6341,-1.375 3.68981,-2.5 4.56825,-2.5 0.87845,0 2.15923,-0.9 2.84619,-2 0.75469,-1.20844 2.33203,-2 3.98542,-2 1.81535,0 3.28777,-0.84149 4.37447,-2.5 0.90093,-1.375 2.47047,-2.5 3.48787,-2.5 1.01739,0 2.33147,-0.9 2.92017,-2 0.70088,-1.3096 2.09382,-2 4.03518,-2 3.37057,0 3.96758,-1.54696 0.96482,-2.5 -1.1,-0.34913 -2,-1.07976 -2,-1.62364 0,-0.54387 -2.28651,-3.31172 -5.08114,-6.15078 l -5.08113,-5.16191 -1.77335,2.35097 c -1.33854,1.77456 -3.04345,2.47302 -6.95355,2.84873 -3.6934,0.35489 -5.46737,1.03432 -6.18071,2.36719 -0.77136,1.44131 -2.13975,1.86944 -5.97509,1.86944 -3.73712,0 -5.4006,0.49752 -6.68706,2 -1.25011,1.46002 -2.94994,2 -6.29593,2 -3.31876,0 -5.51848,0.68982 -7.97204,2.5 -2.41752,1.78359 -4.66248,2.5 -7.83404,2.5 -3.08038,0 -4.83782,0.53738 -5.72317,1.75 -1.059,1.45046 -3.21826,1.80649 -12.61497,2.08002 -10.31427,0.30025 -11.55367,0.14234 -13.73555,-1.75 -2.70926,-2.34972 -0.332,-2.21538 -43.13063,-2.43726 -23.37841,-0.12119 -27.91022,-0.38433 -30,-1.74189 -1.3539,-0.87953 -4.09128,-1.90156 -6.08307,-2.2712 -1.99178,-0.36963 -4.69,-1.59883 -5.99603,-2.73154 -2.32004,-2.01217 -4.34441,-2.12354 -10.56106,-0.58104 -1.85735,0.46085 -2.1522,0.14577 -2,-2.13726 0.14,-2.10003 -0.31883,-2.74852 -2.12652,-3.00558 -1.26778,-0.18028 -2.88418,0.15286 -3.59201,0.74031 -1.69667,1.40811 -2.89719,0.1449 -1.4824,-1.55982 1.48975,-1.79504 0.37229,-4.35474 -1.90111,-4.35474 -1.9822,0 -6.21944,-5.00263 -6.21944,-7.34288 0,-0.78312 -0.9,-1.65921 -2,-1.94687 -1.80503,-0.47202 -2,-1.36401 -2,-9.14996 0,-8.43056 0.0753,-8.70226 3.30779,-11.93475 2.96961,-2.96961 4.06867,-3.37332 10.75,-3.94871 4.09322,-0.35251 8.56721,-0.87545 9.94221,-1.16208 1.375,-0.28663 4.22206,-0.79797 6.32681,-1.13632 4.61293,-0.74155 5.82589,-3.02661 2.87498,-5.41612 -1.89941,-1.53805 -2.16279,-2.9017 -2.41676,-12.51288 L 273.5,600.36327 l -3,-0.98939 c -1.65,-0.54416 -3.58802,-1.81827 -4.3067,-2.83135 -0.71869,-1.01308 -1.94036,-1.84197 -2.71482,-1.84197 -0.77446,0 -1.87347,-0.86952 -2.44223,-1.93228 -0.56877,-1.06275 -1.9346,-2.21807 -3.03519,-2.56738 C 256.90048,589.85159 256,589.07849 256,588.48291 c 0,-0.59558 -2.025,-2.99566 -4.5,-5.33352 -2.475,-2.33786 -4.5,-4.56177 -4.5,-4.94201 0,-0.38025 -0.9,-1.83553 -2,-3.23395 -1.1,-1.39842 -2,-3.40236 -2,-4.45318 0,-1.05083 -1.16506,-3.07566 -2.58902,-4.49962 -2.58676,-2.58676 -2.58871,-2.60175 -2.23035,-17.20454 0.31352,-12.77543 0.63948,-15.14559 2.58902,-18.82569 1.22669,-2.31559 2.23035,-5.11226 2.23035,-6.21482 0,-1.10256 0.9,-2.48632 2,-3.07502 1.15605,-0.6187 2,-2.09382 2,-3.49576 0,-1.33396 0.70319,-3.00563 1.56264,-3.71481 0.85945,-0.70919 2.73384,-2.52693 4.1653,-4.03943 1.43146,-1.5125 3.35942,-2.75 4.28435,-2.75 0.92493,0 2.7194,-0.9 3.98771,-2 1.69104,-1.46663 3.74136,-2 7.68819,-2 3.1073,0 6.35274,-0.63594 7.67845,-1.50458 2.80727,-1.83939 12.13271,-2.24211 15.88336,-0.68593 2.51143,1.04202 2.74872,1.59862 2.73526,6.41576 -0.027,9.67395 -2.91691,12.01769 -12.33997,10.00795 -3.44457,-0.73466 -4.91706,-0.5567 -7.68739,0.92904 -1.88468,1.01077 -4.87576,1.83776 -6.64684,1.83776 -2.06577,0 -4.08057,0.86042 -5.6203,2.40015 -4.20849,4.20848 -4.10757,5.43401 0.82001,9.95831 3.93739,3.61514 4.60523,4.82534 5.13602,9.30702 0.83053,7.01251 -0.22433,12.06566 -2.68153,12.84555 -1.08089,0.34306 -1.96526,1.25686 -1.96526,2.03068 0,0.77381 -1.35,2.10504 -3,2.95829 -2.99548,1.54902 -3.39585,2.90596 -2.15032,7.28794 0.80843,2.84419 14.04279,16.21206 16.05015,16.21206 0.8092,0 2.50168,0.96802 3.76106,2.15115 1.93618,1.81894 3.39013,2.13083 9.41474,2.01958 5.02518,-0.0928 8.05319,-0.68861 10.27466,-2.0217 1.73234,-1.03957 4.89929,-2.15516 7.03767,-2.4791 2.13837,-0.32393 4.7434,-1.50718 5.78895,-2.62945 1.04555,-1.12226 2.83101,-2.04048 3.96769,-2.04048 1.13668,0 3.40367,-1.125 5.03777,-2.5 2.44392,-2.05643 2.64697,-2.52023 1.14436,-2.61402 -5.42559,-0.33865 -7.74237,-0.95215 -9.45764,-2.50445 -1.04572,-0.94636 -4.36133,-2.05449 -7.36804,-2.46251 -3.00671,-0.40802 -6.15212,-1.42724 -6.98981,-2.26493 -0.8377,-0.83769 -2.41937,-1.80754 -3.51484,-2.15523 -2.68467,-0.85208 -3.3926,-4.3261 -2.60607,-12.78881 0.5017,-5.39804 1.28357,-7.93363 3.28332,-10.64768 4.07162,-5.52598 5.16698,-6.06237 12.37998,-6.06237 5.91823,0 7.10076,0.34124 10.475,3.02276 3.78597,3.0087 9.47137,12.6408 9.47137,16.04621 0,1.41322 1.13486,1.92891 5.42435,2.46485 2.98339,0.37275 5.85738,0.4101 6.38664,0.083 0.52925,-0.3271 1.27958,-2.2872 1.6674,-4.35577 0.38781,-2.06858 1.40621,-4.94839 2.26312,-6.39958 1.96862,-3.3339 1.23314,-5.26241 -2.66496,-6.98788 -1.6921,-0.749 -3.07655,-1.88251 -3.07655,-2.51893 0,-1.17695 -5.23345,-4.75441 -10.28995,-7.03396 -1.53448,-0.69176 -3.47912,-1.94691 -4.32143,-2.78923 -0.84231,-0.84231 -2.59504,-1.53147 -3.89495,-1.53147 -3.041,0 -7.73776,-1.78667 -8.70801,-3.31256 -1.21761,-1.91493 -0.90027,-6.47738 0.72032,-10.35599 l 1.50598,-3.60431 6.41953,0.5153 c 3.87056,0.31069 7.54105,1.26253 9.24403,2.39719 1.55346,1.03504 5.44132,3.22705 8.63968,4.87113 3.19835,1.64408 7.80331,4.78924 10.23323,6.98924 2.42991,2.2 5.83034,5.125 7.55649,6.5 4.49095,3.57735 5.76488,4.8882 7.00813,7.21123 1.30979,2.44738 0.40193,9.34739 -1.64052,12.46837 -0.78451,1.19878 -1.71878,4.00816 -2.07616,6.24308 -0.35737,2.23491 -1.49276,5.03545 -2.52307,6.22341 -1.03032,1.18796 -1.8733,2.76905 -1.8733,3.51353 0,0.74449 -1.125,2.33178 -2.5,3.52733 -1.375,1.19555 -2.5,2.78169 -2.5,3.52477 0,0.74308 -0.60825,1.58446 -1.35166,1.86973 -0.74341,0.28527 -2.85204,2.52115 -4.68585,4.96861 -1.83381,2.44747 -3.75322,4.44994 -4.26537,4.44994 -0.51214,0 -2.69143,1.81384 -4.84287,4.03075 -2.15143,2.21691 -5.22577,4.29355 -6.83186,4.61477 -1.60609,0.32122 -3.6879,1.43238 -4.62626,2.46926 -0.93836,1.03687 -2.47567,1.88522 -3.41626,1.88522 -0.94058,0 -2.85432,0.9 -4.25274,2 -1.39842,1.1 -3.27331,2 -4.1664,2 -0.8931,0 -4.42213,0.97832 -7.84228,2.17405 -3.42015,1.19572 -8.46845,2.43322 -11.21845,2.75 l -5,0.57595 0.3306,8.22802 c 0.42987,10.69834 1.26133,13.69223 3.91076,14.08158 1.15869,0.17028 2.82627,1.40778 3.70573,2.75 0.96169,1.46771 2.5578,2.4404 4.00453,2.4404 1.32304,0 3.1329,0.72738 4.02193,1.6164 0.88902,0.88902 3.4734,2.03364 5.74306,2.5436 2.26967,0.50997 4.64889,1.64138 5.28716,2.51426 0.709,0.96962 3.26829,1.78554 6.57836,2.09721 3.07525,0.28957 6.44905,1.31404 7.80273,2.36934 1.35493,1.05628 4.00117,1.85919 6.12755,1.85919 2.21492,0 4.28616,0.65483 5.07405,1.60418 1.46644,1.76694 3.74128,2.77731 8.66354,3.84787 3.0337,0.65982 3.25,0.52859 3.25,-1.97168 0,-1.87818 -1.34463,-3.94867 -4.5,-6.9292 -2.475,-2.33786 -4.5,-4.73794 -4.5,-5.33352 0,-0.59558 -0.85843,-1.35533 -1.90762,-1.68833 -2.2143,-0.70279 -3.27784,-2.88244 -2.45401,-5.02932 0.40092,-1.04477 2.0309,-1.5 5.37079,-1.5 4.42892,0 4.87507,0.22915 5.841,3 0.57519,1.65 1.54217,3 2.14885,3 0.60667,0 1.76112,1.575 2.56544,3.5 0.80431,1.925 1.82642,3.5 2.27134,3.5 0.44492,0 2.11353,1.9125 3.70802,4.25 2.80598,4.11351 2.89548,4.61932 2.78696,15.75 -0.0617,6.325 -0.27382,12.38276 -0.47145,13.46169 -0.2435,1.32939 0.28532,2.08939 1.64068,2.35791 1.1,0.21792 2.80503,1.24767 3.78896,2.28831 2.2945,2.42678 6.74998,2.41107 11.323,-0.0399 1.98258,-1.0626 6.59345,-2.24049 10.24637,-2.61753 3.65292,-0.37705 7.42461,-1.37326 8.38154,-2.21382 0.95693,-0.84055 3.97479,-1.74303 6.70636,-2.00549 3.11338,-0.29916 5.60028,-1.17756 6.66512,-2.35419 1.18677,-1.31137 3.08325,-1.88157 6.29364,-1.89227 2.52725,-0.008 5.27001,-0.45153 6.09501,-0.98469 2.9441,-1.90262 -8.44856,-1.04246 -14.53466,1.09739 -3.28094,1.15356 -8.32784,2.34152 -11.21534,2.6399 -2.8875,0.29838 -5.25,0.87497 -5.25,1.28129 0,0.40633 -1.31683,1.28423 -2.92628,1.95088 -3.34759,1.3866 -7.07372,0.57706 -7.07372,-1.53687 0,-0.78793 -0.65679,-1.43261 -1.45953,-1.43261 -0.80274,0 -2.49024,-1.10076 -3.75,-2.44613 -1.72478,-1.842 -3.52534,-2.52118 -7.29047,-2.75 -4.59038,-0.27898 -5.02539,-0.52365 -5.30993,-2.98661 -0.4161,-3.60171 2.664,-5.18183 8.92769,-4.57997 4.04882,0.38904 5.47473,1.13206 8.85308,4.61322 2.21481,2.28222 4.25244,4.14949 4.52805,4.14949 0.27561,0 1.40111,-0.9 2.50111,-2 1.44961,-1.44961 3.33333,-2 6.84501,-2 3.57502,0 5.31945,-0.52425 6.65499,-2 1.51053,-1.66911 3.06652,-1.99716 9.40499,-1.98286 5.86634,0.0132 8.6673,-0.49887 12.30616,-2.25 5.00777,-2.40989 6.03113,-3.76714 2.84037,-3.76714 -1.07166,0 -3.16237,-1.125 -4.64602,-2.5 -1.48365,-1.375 -3.23709,-2.5 -3.89654,-2.5 -0.65944,0 -2.01347,-0.9 -3.00896,-2 -1.02776,-1.13566 -3.07997,-2 -4.74861,-2 -2.07479,0 -3.08887,-0.57453 -3.44972,-1.95443 -0.37166,-1.4212 -1.71787,-2.1354 -4.9342,-2.61771 -2.89658,-0.43437 -4.78376,-1.33719 -5.46812,-2.61592 -0.78944,-1.47509 -1.90063,-1.87891 -4.54358,-1.65121 -2.60492,0.22443 -3.92733,-0.23993 -5.17717,-1.81793 -1.11096,-1.40267 -3.36941,-2.35507 -6.6786,-2.81639 -2.75,-0.38337 -5.9,-1.50677 -7,-2.49644 -1.25496,-1.12909 -4.13621,-1.96564 -7.7345,-2.24567 -3.15398,-0.24545 -6.52898,-1.13705 -7.5,-1.98134 -0.97103,-0.84428 -4.21333,-1.80924 -7.20513,-2.14435 -2.9918,-0.33511 -6.1418,-1.32442 -7,-2.19847 -1.4161,-1.44223 -1.34209,-1.76812 0.80041,-3.52465 3.44306,-2.82279 15.06472,-2.78028 17.63922,0.0645 1.3279,1.46732 3.07997,2 6.57826,2 3.66515,0 5.47678,0.59616 7.83072,2.57687 1.89875,1.59769 4.11282,2.50739 5.82673,2.39403 4.85952,-0.3214 6.14725,-0.0122 7.97533,1.91525 0.98393,1.03738 3.65737,2.19448 5.94099,2.57134 2.90963,0.48017 4.30294,1.2623 4.65638,2.61386 0.37821,1.44627 1.38897,1.92865 4.04127,1.92865 2.34443,0 3.98675,0.64224 4.87115,1.9049 0.73384,1.04769 2.83228,2.14099 4.66321,2.42954 1.83093,0.28856 3.98156,1.45636 4.77917,2.59511 0.79761,1.13875 2.32087,2.07045 3.38502,2.07045 1.06415,0 2.49688,0.9 3.18384,2 0.68696,1.1 2.21402,2 3.39347,2 1.18392,0 2.87815,1.11978 3.7825,2.5 0.90094,1.375 2.13859,2.5 2.75034,2.5 0.61175,0 2.13803,1.1068 3.39172,2.45956 3.36676,3.63279 7.32949,4.35083 9.33773,1.69198 1.8938,-2.50734 5.83448,-3.37153 16.11217,-3.53341 7.39174,-0.11642 7.5044,-0.0801 7.80513,2.51483 0.25334,2.1861 -0.24479,2.82465 -2.93507,3.76249 -1.7821,0.62125 -4.02367,1.83857 -4.98125,2.70517 -0.98125,0.88802 -4.39064,1.81589 -7.81242,2.12617 l -6.07138,0.55053 4.4975,4.04136 c 2.47362,2.22275 4.50438,4.52285 4.5128,5.11134 0.008,0.58849 0.45842,1.74498 1,2.56998 0.75596,1.15157 1.17045,1.21314 1.7844,0.26506 0.43984,-0.67922 2.16618,-1.50824 3.83631,-1.84226 3.60544,-0.72109 6.16783,1.34647 7.0336,5.67531 0.31428,1.57137 1.19218,3.37223 1.95089,4.00191 2.22832,1.84933 1.70208,4.883 -0.87051,5.0184 -1.2375,0.0651 -2.5875,0.0651 -3,0 -1.3366,-0.21104 -0.7933,2.60075 0.75,3.88158 0.91531,0.75964 1.5,2.95124 1.5,5.62244 0,2.40766 0.45,4.37756 1,4.37756 1.45031,0 1.22992,3.75495 -0.25,4.25947 -0.6875,0.23438 -2.9375,-0.44856 -5,-1.51763 -3.36757,-1.74555 -3.75,-2.3446 -3.75,-5.87419 0,-4.80513 -2.55434,-6.4245 -4.79968,-3.04283 -0.79434,1.19635 -2.25485,2.17518 -3.24557,2.17518 -0.99071,0 -3.13829,1.125 -4.77238,2.5 -1.6341,1.375 -3.54337,2.5 -4.24284,2.5 -0.69946,0 -1.9845,0.68805 -2.85564,1.52899 -2.81268,2.71519 -10.53673,7.43408 -12.19903,7.45281 -0.88833,0.01 -2.75931,0.9182 -4.15773,2.0182 -1.39842,1.1 -3.23359,2 -4.07816,2 -0.84456,0 -2.1236,0.83954 -2.84231,1.86565 -0.71871,1.0261 -2.88173,2.20974 -4.8067,2.63031 -1.92498,0.42057 -4.57315,1.60603 -5.88482,2.63436 -1.31167,1.02832 -3.33667,1.87136 -4.5,1.87342 -1.16333,0.002 -3.69014,0.98986 -5.61514,2.19512 -3.40439,2.13152 -4.40144,2.19544 -36.5,2.33984 -18.15,0.0817 -36.375,-0.14772 -40.5,-0.50972 z M 191.65499,670.87182 c -2.1971,-2.42776 -2.05903,-6.09787 0.34501,-9.17126 1.57374,-2.01191 1.95987,-4.10383 1.97776,-10.71482 0.0189,-6.98162 0.30242,-8.36476 1.88862,-9.21367 1.12126,-0.60008 2.12205,-2.5977 2.50677,-5.00362 0.40319,-2.5214 1.37868,-4.39989 2.63362,-5.07151 1.17628,-0.62953 1.99323,-2.09304 1.99323,-3.57073 0,-1.68188 1.64158,-4.11984 5,-7.42565 2.75,-2.70692 5,-5.3893 5,-5.96084 0,-1.14556 2.94665,-1.3806 5.41821,-0.43217 2.10898,0.80929 2.01243,4.94645 -0.16821,7.20772 -3.92777,4.07301 -8.25,10.1643 -8.25,11.62665 0,0.85725 -0.83154,2.39018 -1.84786,3.4065 -1.01633,1.01633 -2.13879,3.66721 -2.49437,5.89085 -0.35557,2.22364 -1.32403,4.30298 -2.15213,4.62075 -1.19081,0.45696 -1.50642,2.51852 -1.50938,9.85916 -0.003,7.48803 -0.38661,9.90935 -1.9853,12.53138 -2.27283,3.72771 -5.73564,4.31669 -8.35597,1.42126 z M 493.54755,645.7775 c -0.31377,-0.50769 -1.91532,-1.21844 -3.55902,-1.57946 C 488.34484,643.83703 487,643.15955 487,642.69253 c 0,-1.7648 -3.24501,-3.99211 -5.82143,-3.99571 -1.47321,-0.002 -4.15195,-0.90205 -5.95274,-2 -4.51247,-2.75125 -15.30302,-2.7494 -21.72583,0.004 -5.09601,2.1844 -9.60305,2.5504 -12.47554,1.01309 -2.59621,-1.38945 -1.52548,-4.36722 2.30345,-6.40605 1.74465,-0.92899 4.29709,-2.37356 5.67209,-3.21015 2.02965,-1.23491 5.1043,-1.43236 16.34245,-1.0495 12.61893,0.4299 13.97187,0.65636 15.3067,2.56209 0.80534,1.14979 2.52694,2.09052 3.82577,2.09052 3.39842,0 5.52508,1.00345 5.52508,2.60699 0,0.78415 0.99847,1.39301 2.28439,1.39301 2.67614,0 5.71561,4.46927 5.71561,8.40429 0,1.90274 -0.51818,2.59571 -1.94098,2.59571 -1.06754,0 -2.1977,-0.41538 -2.51147,-0.92306 z m 43.87951,-6.84225 c -0.59012,-0.40408 -1.3635,-1.52219 -1.71862,-2.48469 -0.41825,-1.13362 -1.70098,-1.75 -3.64187,-1.75 -1.90211,0 -3.36124,-0.68208 -3.99587,-1.8679 -0.54982,-1.02734 -2.43804,-2.15557 -4.19606,-2.50717 -1.75801,-0.3516 -3.82451,-1.53605 -4.59222,-2.63211 -0.84598,-1.20781 -2.53291,-1.99282 -4.28242,-1.99282 -1.66916,0 -3.4377,-0.77928 -4.1933,-1.84772 -0.83833,-1.18543 -3.03379,-2.04026 -6.12512,-2.38488 -3.10389,-0.34601 -5.51958,-1.28977 -6.78895,-2.65227 -1.45849,-1.56551 -3.17426,-2.11513 -6.60284,-2.11513 -2.99761,0 -5.31056,-0.61381 -6.55428,-1.73936 -1.37288,-1.24244 -4.42349,-1.91626 -10.6779,-2.35854 -6.89925,-0.48788 -9.40771,-1.10107 -11.82977,-2.89178 -3.00466,-2.22143 -3.50904,-2.26212 -22.40085,-1.80732 -17.11355,0.41199 -19.8647,0.71332 -24.02213,2.63114 -3.55984,1.64215 -6.60533,2.16586 -12.59501,2.16586 -6.62988,0 -8.19085,0.32152 -9.70985,2 -1.40277,1.55005 -3.07997,2 -7.45499,2 -5.80713,0 -8.04501,-1.13855 -8.04501,-4.09301 0,-1.81824 1.9391,-2.90699 5.17742,-2.90699 1.10761,0 3.42323,-1.00358 5.14583,-2.23017 2.32566,-1.65602 4.93989,-2.33205 10.15437,-2.62586 4.88858,-0.27546 7.74704,-0.96516 9.40724,-2.26983 2.20314,-1.73133 4.53011,-1.87414 30.53856,-1.87414 26.1794,0 28.42879,0.14025 32.07658,2 2.75888,1.40656 5.89718,2 10.57658,2 5.27609,0 7.21468,0.44126 9.36314,2.13124 1.49019,1.17219 4.71736,2.35757 7.17149,2.63418 2.97234,0.33503 4.79542,1.12587 5.4606,2.36876 0.69465,1.29797 2.10952,1.86582 4.64892,1.86582 2.27129,0 4.45282,0.75386 5.77442,1.99544 1.16823,1.0975 3.38238,2.09959 4.92033,2.22687 1.53795,0.12729 3.60089,1.25434 4.58432,2.50456 0.98342,1.25022 2.67509,2.27313 3.75926,2.27313 1.08417,0 3.10395,0.891 4.48839,1.98001 1.38444,1.089 3.69513,2.42786 5.13486,2.97524 1.43973,0.54739 2.61769,1.65009 2.61769,2.45045 0,0.80036 1.0125,1.599 2.25,1.77475 1.64279,0.23331 2.33908,1.09988 2.58008,3.21104 0.43732,3.83104 -3.21729,6.0246 -6.40302,3.8432 z m -430.26877,-7.10071 c -1.67742,-5.59871 -1.45516,-7.82309 0.84171,-8.42373 1.1,-0.28766 2,-1.25128 2,-2.14138 0,-0.8901 1.125,-2.0461 2.5,-2.56887 1.375,-0.52277 2.5,-1.60631 2.5,-2.40786 0,-0.80155 1.0125,-1.76441 2.25,-2.13969 1.2375,-0.37527 3.15,-1.47888 4.25,-2.45245 1.1,-0.97357 2.96391,-2.06175 4.14203,-2.41818 1.17812,-0.35643 2.37349,-1.53315 2.65638,-2.61494 0.28833,-1.10258 1.36624,-1.96688 2.45298,-1.96688 1.06625,0 2.75312,-0.9 3.74861,-2 0.99549,-1.1 2.81348,-2 4.03998,-2 1.27518,0 2.93137,-1.07042 3.86806,-2.5 1.27433,-1.94486 2.48675,-2.5 5.46003,-2.5 2.55196,0 4.42339,-0.66458 5.63193,-2 1.26566,-1.39854 3.07997,-2 6.03302,-2 3.07527,0 4.59592,-0.53673 5.59501,-1.97482 1.05062,-1.51226 3.01156,-2.12845 8.37197,-2.63069 4.05958,-0.38037 7.75085,-1.31042 8.78747,-2.21408 1.93673,-1.68832 12.04695,-2.81526 16.10944,-1.79564 1.35838,0.34093 2.76196,1.54043 3.11906,2.66554 1.04908,3.30537 -1.21314,4.94969 -6.80967,4.94969 -3.37319,0 -5.68013,0.57133 -6.95101,1.72146 -1.30841,1.18409 -4.13675,1.84773 -9.0606,2.12595 -4.03292,0.22788 -7.60293,0.9486 -8.17654,1.65069 -1.22239,1.49618 -6.95699,3.5019 -10.01239,3.5019 -1.20768,0 -3.01027,0.9 -4.00576,2 -1.07388,1.18663 -3.07997,2 -4.93275,2 -1.88528,0 -3.80138,0.79256 -4.83522,2 -0.94185,1.1 -2.61984,2 -3.72886,2 -1.10902,0 -2.99457,1.125 -4.19012,2.5 -1.3343,1.53458 -3.23656,2.5 -4.926,2.5 -1.87402,0 -2.95483,0.63821 -3.38705,2 -0.34913,1.1 -1.1983,2 -1.88705,2 -0.68875,0 -2.1388,1.0125 -3.22233,2.25 -1.08353,1.2375 -3.35759,3.41041 -5.05347,4.82869 -1.69588,1.41828 -3.60634,3.55578 -4.24547,4.75 -0.63912,1.19422 -1.83235,2.17131 -2.65161,2.17131 -0.81927,0 -1.9173,1.125 -2.44007,2.5 -1.34004,3.52458 -2.50003,3.11212 -3.84171,-1.36602 z m 79.47261,-1.92218 c -0.3068,-0.49641 -0.84991,-2.7292 -1.20691,-4.96176 -0.55093,-3.44536 -0.33986,-4.2247 1.39574,-5.15356 1.12465,-0.6019 2.36357,-2.09863 2.75314,-3.32608 0.96311,-3.03449 4.55475,-7.7704 5.89295,-7.7704 0.59933,0 1.8603,-0.9 2.80215,-2 0.94185,-1.1 2.78117,-2 4.08738,-2 1.30621,0 3.56096,-0.93293 5.01055,-2.07318 3.73633,-2.939 5.97894,-2.17269 6.70448,2.29095 0.33044,2.03292 0.32813,4.13743 -0.005,4.67667 -0.88707,1.4353 -5.76137,3.10556 -9.06295,3.10556 -1.93471,0 -3.06286,0.61548 -3.46802,1.89203 -0.33028,1.04062 -1.4856,2.12349 -2.56739,2.40638 -1.31234,0.34319 -1.96688,1.36978 -1.96688,3.08492 0,1.62171 -0.90081,3.16079 -2.4404,4.16958 -1.34222,0.87946 -2.57972,2.57733 -2.75,3.77305 -0.3179,2.23233 -4.11091,3.61357 -5.1787,1.88584 z M 70.606988,625.11877 c -1.06151,-2.76625 -0.656,-6.41821 0.71268,-6.41821 0.72581,0 2.29784,-1.125 3.49338,-2.5 1.19555,-1.375 2.83587,-2.5 3.64516,-2.5 0.80928,0 1.95309,-0.9 2.54179,-2 0.5887,-1.1 1.79044,-2 2.67052,-2 0.88008,0 2.63995,-1.0125 3.91084,-2.25 6.11984,-5.95909 7.06068,-6.75 8.0295,-6.75 0.57228,0 2.0974,-1.125 3.38914,-2.5 1.291752,-1.375 2.986712,-2.5 3.766582,-2.5 0.77988,0 2.56213,-0.9 3.96055,-2 1.39842,-1.1 3.59107,-2 4.87254,-2 1.28148,0 2.78328,-0.84703 3.33733,-1.88229 0.64363,-1.20263 2.60445,-2.12178 5.43047,-2.54557 3.21633,-0.48231 4.56254,-1.19651 4.9342,-2.61771 0.37234,-1.42386 1.37688,-1.95443 3.70034,-1.95443 1.75409,0 4.53732,-0.95991 6.18496,-2.13313 1.64764,-1.17323 5.0921,-2.36617 7.65437,-2.65099 2.56226,-0.28481 5.71199,-1.20341 6.9994,-2.04133 1.44156,-0.93824 6.24338,-1.81097 12.5,-2.27185 9.42853,-0.69455 16.0718,-1.75604 21.29229,-3.40219 1.54838,-0.48824 2.55007,-0.0772 3.65457,1.4997 1.30622,1.8649 1.83597,2.00403 3.74346,0.98317 1.64811,-0.88205 2.84704,-0.90432 4.64249,-0.0863 1.3313,0.60658 5.71928,1.10288 9.75106,1.10288 5.18826,0 7.68265,0.42432 8.53552,1.45196 3.60324,4.34164 -3.02386,8.0388 -11.50934,6.4209 -2.82585,-0.5388 -13.52741,-0.66684 -24.93303,-0.29831 -17.47568,0.56467 -20.28363,0.88272 -22.38486,2.53555 -1.6577,1.30395 -4.01799,1.8899 -7.61277,1.8899 -3.87451,0 -5.65725,0.49403 -6.9542,1.92715 -0.95923,1.05993 -3.55156,2.23253 -5.76075,2.60577 -2.20919,0.37324 -4.86912,1.53102 -5.91095,2.57285 -1.04183,1.04183 -3.2284,1.89423 -4.85905,1.89423 -1.94136,0 -3.3343,0.6904 -4.03518,2 -0.61643,1.15182 -2.09382,2 -3.48366,2 -1.32731,0 -3.62719,1.125 -5.11084,2.5 -1.48365,1.375 -3.64859,2.5 -4.81098,2.5 -1.16238,0 -2.67549,0.9 -3.36245,2 -0.68696,1.1 -1.85449,2 -2.59452,2 -0.740032,0 -2.559402,1.125 -4.043052,2.5 -1.48365,1.375 -3.33352,2.5 -4.11084,2.5 -0.77731,0 -1.89496,0.9 -2.48366,2 -0.5887,1.1 -1.56543,2 -2.17051,2 -0.60508,0 -2.08846,1.0125 -3.2964,2.25 -7.18004,7.35576 -12.55657,9.73716 -13.9261,6.16821 z M 226.51342,619.07844 C 225.68104,617.08627 225,614.68101 225,613.73342 c 0,-0.94759 -0.87763,-2.51713 -1.95029,-3.48787 -1.40069,-1.26761 -2.14115,-3.70194 -2.62758,-8.63842 -0.37852,-3.84148 -1.28268,-7.37587 -2.04971,-8.01245 C 217.37298,592.76521 217,589.67753 217,582.2331 c 0,-9.02225 0.23974,-10.43953 2.04175,-12.07032 1.76823,-1.60023 2.0108,-2.89151 1.81072,-9.63906 -0.19488,-6.57208 0.0817,-8.14588 1.7674,-10.05723 1.09915,-1.24626 2.52468,-3.50343 3.16785,-5.01593 1.52393,-3.58371 4.90756,-3.68166 6.23867,-0.1806 1.21728,3.2017 0.31363,7.26606 -2.2423,10.08518 -1.81795,2.00515 -1.95051,3.70065 -1.91136,24.44675 0.0398,21.09162 0.15597,22.44621 2.15681,25.15249 1.1631,1.57318 2.36971,4.52214 2.68135,6.55325 0.31165,2.03111 1.00453,4.2497 1.53975,4.9302 1.13403,1.44186 0.18842,4.65212 -1.13027,3.83712 -0.49157,-0.3038 -1.44984,0.11768 -2.12951,0.93662 -1.88428,2.27042 -2.82472,1.82237 -4.47744,-2.13313 z M 537,610.74248 c 0,-0.59664 -1.125,-1.59738 -2.5,-2.22387 -1.375,-0.6265 -2.5,-1.70723 -2.5,-2.40164 0,-1.41156 -5.67542,-7.41641 -7.00954,-7.41641 -0.47062,0 -1.14133,-0.9 -1.49046,-2 -0.34913,-1.1 -1.26362,-2 -2.0322,-2 -0.76859,0 -1.86279,-0.86952 -2.43155,-1.93228 -0.56877,-1.06275 -2.0471,-2.24358 -3.28519,-2.62407 -1.23808,-0.3805 -3.05609,-1.53597 -4.04002,-2.56773 -0.98392,-1.03176 -2.6459,-1.87592 -3.69329,-1.87592 -1.04739,0 -2.49236,-0.82829 -3.21105,-1.84064 -0.73365,-1.03343 -3.18657,-2.13754 -5.59329,-2.51766 -2.35762,-0.37237 -5.95096,-1.56909 -7.98519,-2.65937 -2.69455,-1.44419 -5.63026,-1.98233 -10.81419,-1.98233 -7.18632,0 -13.41403,-1.43822 -13.41403,-3.09783 0,-0.49619 -5.37428,-0.90217 -11.94284,-0.90217 -10.43446,0 -12.40438,0.27231 -15.59714,2.15609 -2.98452,1.76091 -5.51518,2.20394 -13.80716,2.41715 -7.99845,0.20566 -10.99347,0.70303 -14.1143,2.34391 -2.31532,1.21735 -5.84738,2.08559 -8.5,2.08944 -2.84599,0.004 -5.65736,0.74754 -7.53856,1.99341 -1.78942,1.18508 -4.69211,1.98948 -7.1933,1.99341 -3.11015,0.005 -4.57005,0.54448 -5.65187,2.089 -2.23727,3.19416 -6.07481,2.23423 -6.45189,-1.61389 -0.4285,-4.37284 3.39323,-7.72366 8.72518,-7.65008 3.01591,0.0416 4.42057,-0.47818 5.51515,-2.04091 1.18746,-1.69533 2.90819,-2.21452 8.98765,-2.71178 5.16543,-0.4225 7.91811,-1.12109 8.79404,-2.23179 0.95159,-1.20663 3.62057,-1.73926 10.52102,-2.09959 5.0853,-0.26555 9.8103,-0.90836 10.5,-1.42847 3.69982,-2.79002 9.85891,-3.49694 27.32308,-3.13604 14.73187,0.30443 18.58445,0.69211 21.59387,2.17296 2.01461,0.99133 7.12314,2.13294 11.3523,2.53691 5.64933,0.53962 7.94072,1.18362 8.63676,2.42738 0.58886,1.05223 2.18488,1.69289 4.21736,1.69289 2.24165,0 3.95356,0.78619 5.4437,2.5 1.22244,1.40593 3.25529,2.5 4.64515,2.5 1.44798,0 2.91469,0.82823 3.5418,2 0.5887,1.1 1.92421,2 2.9678,2 1.04358,0 2.18274,0.89895 2.53146,1.99768 0.34872,1.09872 1.72905,2.2725 3.06739,2.6084 1.33834,0.33591 2.43335,0.95215 2.43335,1.36944 0,0.41729 1.8,1.94989 4,3.40578 2.2,1.45589 4,3.24998 4,3.98687 0,1.29604 2.64724,4.79576 7.04653,9.31571 2.99677,3.07897 2.21295,5.74112 -1.80472,6.12948 C 538.38576,611.69333 537,611.36357 537,610.74248 z m -149.28136,-9.65661 c -0.35642,-0.35642 0.0111,-1.58905 0.81667,-2.73918 0.80558,-1.15013 1.46469,-3.11601 1.46469,-4.36864 0,-1.25262 0.59385,-2.27749 1.31966,-2.27749 0.72582,0 2.29784,-1.125 3.49339,-2.5 1.90451,-2.19037 2.98393,-2.5 8.71552,-2.5 4.18457,0 7.38225,-0.55068 8.87422,-1.52826 1.87359,-1.22763 5.1369,-1.47353 16.58852,-1.25 l 14.25609,0.27826 2.36694,3.07167 c 2.09257,2.71561 2.20461,3.29367 0.96656,4.98681 -1.29694,1.77367 -3.03793,1.93296 -23.5704,2.15654 -22.0795,0.24043 -22.18226,0.25172 -25.16699,2.7632 -1.64833,1.38698 -3.99743,2.52178 -5.22024,2.52178 -1.2228,0 -2.68077,0.4575 -3.23994,1.01667 -0.55916,0.55916 -1.30828,0.72505 -1.66469,0.36864 z M 362.5,580.82581 c -3.57249,-0.75988 -4.81087,-4.70604 -1.82014,-5.79991 1.00108,-0.36615 3.09217,-1.71414 4.64687,-2.99553 1.55469,-1.2814 4.11901,-2.32981 5.69847,-2.32981 1.67719,0 3.99385,-1.03992 5.5693,-2.5 1.86661,-1.72992 3.83696,-2.5 6.39654,-2.5 2.42899,0 4.32041,-0.68667 5.50896,-2 1.32195,-1.46074 3.07997,-2 6.52013,-2 3.24101,0 5.52664,-0.64225 7.32785,-2.05908 1.75826,-1.38305 4.94718,-2.30799 9.71287,-2.8172 4.39404,-0.46951 7.43178,-1.30359 7.97937,-2.19092 0.67169,-1.08844 4.37119,-1.57783 15.39292,-2.03623 9.96673,-0.41453 15.01963,-1.02744 16.14073,-1.95787 1.10773,-0.91934 5.05229,-1.41935 12.27907,-1.55649 8.7063,-0.16521 10.98493,0.10053 12.5006,1.45788 1.36704,1.22423 4.25426,1.74969 11,2.00198 6.99783,0.2617 9.61629,0.75932 11.14646,2.1183 1.1,0.97694 4.17482,2.05702 6.83293,2.40018 6.34171,0.81871 6.66707,1.09082 6.66707,5.57602 0,4.8663 -2.52925,7.4277 -4.57367,4.6318 -0.82817,-1.13259 -3.36921,-2.17419 -6.51861,-2.67204 -2.83875,-0.44875 -6.05184,-1.6215 -7.14019,-2.60612 -1.81275,-1.63998 -4.60462,-1.79021 -33.26861,-1.79021 -29.87207,0 -31.38978,0.0905 -33.49627,1.99721 -1.71976,1.55667 -3.95349,2.07655 -10.12658,2.35689 -6.32132,0.28707 -8.11171,0.71768 -8.86927,2.1332 -0.68946,1.28826 -2.74413,1.96576 -7.50928,2.47606 -5.3768,0.57581 -6.84199,1.13274 -8.12285,3.08757 -1.35727,2.07145 -2.1095,2.31009 -5.72138,1.81503 -3.40247,-0.46636 -4.50455,-0.18779 -6.06096,1.53201 -1.28538,1.42034 -3.11195,2.10203 -5.63231,2.10203 -2.87518,0 -4.1054,0.57293 -5.36806,2.5 -1.69914,2.59321 -2.10451,2.68611 -7.09196,1.62525 z M 154.73672,571.10394 C 154.33152,570.69875 154,567.79208 154,564.64468 c 0,-8.27698 1.70299,-10.01479 10.00499,-10.20956 7.65083,-0.17949 12.1464,1.64167 12.99781,5.26544 0.79072,3.3655 3.41461,3.21639 3.81039,-0.21654 0.40721,-3.53197 3.74654,-4.19258 18.01181,-3.56321 12.02773,0.53065 17.54765,2.30877 19.33328,6.22779 1.57793,3.46318 -0.3648,8.10782 -2.93152,7.0086 -0.94972,-0.40672 -2.93713,-0.94795 -4.41648,-1.20272 -1.47935,-0.25477 -3.46159,-1.31613 -4.40499,-2.35857 -1.49887,-1.65623 -3.20218,-1.89535 -13.50126,-1.89535 -6.77864,0 -12.04857,0.42486 -12.40403,1 -0.33992,0.55 -1.45394,1 -2.47561,1 -1.02167,0 -2.68261,1.08056 -3.69098,2.40125 -1.59116,2.08399 -2.95826,2.48963 -10.34669,3.07006 -4.68231,0.36783 -8.84481,0.33727 -9.25,-0.0679 z m 52.85281,-18.44577 c -4.53101,-1.35516 -21.77733,-2.16606 -49.30419,-2.31823 -22.5666,-0.12474 -25.39842,-0.32317 -26.96429,-1.88938 -1.66616,-1.66652 -1.66608,-1.83348 0.002,-3.5 1.60118,-1.5999 4.75019,-1.75 36.71468,-1.75 31.96899,0 40.02139,-0.53822 32.0136,-2.13978 -1.62189,-0.32437 -3.71663,-1.43812 -4.65499,-2.475 -0.99247,-1.09643 -3.04105,-1.88522 -4.89634,-1.88522 -1.84982,0 -3.90334,-0.7882 -4.88789,-1.87611 -0.93382,-1.03187 -3.30938,-2.13763 -5.27901,-2.45726 -1.96964,-0.31963 -4.34683,-1.27407 -5.28266,-2.12098 -0.93583,-0.84692 -4.52676,-1.83514 -7.97985,-2.19606 -4.14013,-0.43273 -6.85784,-1.27823 -7.97989,-2.48261 -1.28198,-1.37604 -3.16739,-1.8236 -7.64613,-1.81505 -9.60365,0.0183 -14.63392,-0.76345 -19.82362,-3.08093 -4.46658,-1.99457 -6.15734,-2.14691 -20,-1.80207 -12.399882,0.3089 -15.598102,0.69659 -17.772472,2.15436 -1.93535,1.29753 -5.52371,1.94033 -13.28534,2.37987 -5.8486,0.3312 -10.89228,1.02038 -11.20817,1.53151 -0.3159,0.51113 -1.85948,-0.3019 -3.43019,-1.80674 -2.73657,-2.62179 -2.79036,-2.8469 -1.28802,-5.39015 1.49533,-2.53139 1.94449,-2.65269 9.71553,-2.62365 5.32824,0.0199 9.54983,-0.54022 12.19957,-1.61866 3.34879,-1.36295 8.85171,-1.70517 31.714002,-1.97228 27.02435,-0.31574 27.66874,-0.27708 27.94814,1.67681 0.25125,1.75702 1.29355,2.07488 8.57932,2.61638 6.54014,0.48609 8.77343,1.06743 10.56445,2.75 1.40606,1.32093 3.57973,2.13504 5.70668,2.13736 1.88955,0.002 4.90893,0.90205 6.70972,2 1.80079,1.09794 4.57649,1.99626 6.16821,1.99626 3.90418,0 6.05762,0.92676 6.05762,2.60699 0,0.76615 0.45,1.44926 1,1.51801 0.55,0.0688 1.45,0.2375 2,0.375 0.55,0.1375 1.9044,0.30625 3.00979,0.375 1.10538,0.0688 2.78039,1.025 3.72224,2.125 0.94185,1.1 2.87643,2 4.29908,2 4.17932,0 5.84795,2.05524 8.00313,9.85744 1.55891,5.64361 1.76311,7.68181 0.8766,8.75 -1.2932,1.5582 -1.28421,1.55761 -5.32131,0.35017 z M 161.75,539.62046 c -2.16565,-1.26137 -2.23828,-3.77778 -0.1933,-6.69739 1.15434,-1.64805 2.5607,-2.22251 5.44099,-2.22251 2.13635,0 4.18541,0.48724 4.55346,1.08276 0.36805,0.59552 2.64461,1.92953 5.05902,2.96446 4.79347,2.05473 5.42853,3.32652 2.45557,4.9176 -2.47643,1.32534 -15.019,1.29281 -17.31574,-0.0449 z m 358.1479,-1.35533 c -0.30806,-0.30807 -6.19614,-0.76296 -13.08462,-1.01088 -10.097,-0.36339 -13.1824,-0.83345 -15.91889,-2.42521 -1.86691,-1.08594 -5.19439,-2.09191 -7.39439,-2.23548 -2.2,-0.14357 -4.82191,-0.95411 -5.82646,-1.8012 -1.00456,-0.8471 -3.25456,-2.00958 -5,-2.5833 -2.91356,-0.95767 -3.1668,-1.3854 -3.09126,-5.22126 0.10973,-5.57235 1.83888,-7.56659 5.82706,-6.7204 1.69986,0.36066 3.84323,1.3188 4.76304,2.1292 0.91982,0.8104 3.61982,1.723 6,2.028 2.38019,0.305 5.90262,1.329 7.82762,2.27556 7.98358,3.92566 46.41119,3.18192 51.72915,-1.00119 1.40729,-1.10697 4.05567,-1.99841 5.93709,-1.99841 2.00001,0 3.61896,-0.57964 3.9375,-1.40975 0.29754,-0.77537 1.69871,-1.70033 3.11371,-2.05547 6.06641,-1.52257 24.82597,-19.37014 26.75788,-25.45704 0.39716,-1.25135 1.57769,-3.13076 2.62339,-4.17646 1.0457,-1.0457 1.90128,-3.22892 1.90128,-4.85159 0,-1.75005 0.69949,-3.34176 1.71937,-3.91252 1.1521,-0.64474 1.64096,-1.99129 1.48171,-4.08126 -0.13071,-1.71547 0.25165,-4.03334 0.84971,-5.1508 0.9669,-1.80669 1.71668,-1.96039 6.76828,-1.38749 3.12451,0.35435 8.27022,1.50785 11.43491,2.56333 3.29847,1.10009 8.51036,1.91905 12.21298,1.91905 3.91426,0 8.34501,0.73277 11.24602,1.85989 2.63286,1.02294 7.88261,2.16642 11.66611,2.54107 3.7835,0.37466 8.0585,1.28116 9.5,2.01445 1.4415,0.7333 5.61707,1.6462 9.27905,2.02868 4.67006,0.48778 7.17974,1.27178 8.40499,2.62567 1.36022,1.50302 3.09584,1.9317 7.84186,1.93683 4.35311,0.005 6.93909,0.56299 9.04849,1.95347 1.62441,1.07078 5.44941,2.24471 8.5,2.60873 3.05058,0.36402 6.94964,1.50996 8.66455,2.54653 1.8275,1.10462 4.97937,1.88468 7.61515,1.88468 2.96545,0 5.3531,0.67333 7.01043,1.97698 1.43683,1.13022 4.90652,2.25825 8.10085,2.63369 3.53291,0.41522 6.2086,1.34297 7.27652,2.52301 1.07052,1.18292 3.04757,1.86632 5.39915,1.86632 2.09491,0 4.74842,0.8095 6.09501,1.8594 1.31167,1.02268 4.52529,2.17569 7.14137,2.56225 3.88246,0.57369 5.03095,1.23356 6.25,3.59094 2.40197,4.6449 1.90475,6.82365 -1.98002,8.67617 -2.81709,1.34337 -3.95987,1.43481 -6.04706,0.48382 -1.41544,-0.64492 -3.38262,-1.17258 -4.3715,-1.17258 -0.98887,0 -2.61244,-0.9 -3.60793,-2 -1.264,-1.3967 -3.07997,-2 -6.02013,-2 -2.56964,0 -5.13943,-0.72067 -6.59501,-1.84949 -1.35227,-1.04871 -4.98272,-2.14127 -8.38486,-2.52338 -3.72698,-0.4186 -6.46034,-1.28763 -7.21513,-2.29395 -0.73877,-0.98496 -3.27507,-1.818 -6.46977,-2.12497 -2.89005,-0.2777 -6.61824,-1.33646 -8.28487,-2.35282 -1.66662,-1.01635 -4.55211,-1.8496 -6.4122,-1.85165 -1.86008,-0.002 -4.78508,-0.84648 -6.5,-1.8765 -1.71491,-1.03002 -5.59303,-2.15674 -8.61803,-2.50383 -3.025,-0.34709 -7.525,-1.34786 -10,-2.22394 -2.475,-0.87608 -7.32913,-1.99988 -10.78696,-2.49734 -3.45784,-0.49745 -7.28284,-1.5352 -8.5,-2.3061 -1.21717,-0.7709 -5.81304,-1.87094 -10.21304,-2.44454 -4.4,-0.57359 -9.67305,-1.74233 -11.71788,-2.5972 -2.16349,-0.90446 -6.64946,-1.55429 -10.72976,-1.55429 -4.05246,0 -8.67554,-0.66566 -10.95365,-1.57718 -5.22045,-2.08881 -7.69008,-0.80094 -8.58146,4.47509 -0.36462,2.15818 -1.53017,4.70879 -2.5901,5.66802 -1.05993,0.95922 -1.92715,2.39063 -1.92715,3.1809 0,0.79026 -1.0125,2.74875 -2.25,4.3522 -3.96586,5.1386 -17.43176,18.90097 -18.4938,18.90097 -0.5644,0 -1.76331,1.125 -2.66424,2.5 -0.90094,1.375 -2.23295,2.5 -2.96003,2.5 -0.72707,0 -2.07395,0.83094 -2.99305,1.84654 -0.9191,1.01559 -3.41046,2.36766 -5.53636,3.0046 -2.1259,0.63693 -4.42375,1.83099 -5.10634,2.65346 -0.68259,0.82247 -2.72883,1.4954 -4.5472,1.4954 -2.97994,0 -6.44898,2.05913 -6.44898,3.82795 0,0.3768 -3.4875,0.68215 -7.75,0.67857 -4.2625,-0.004 -10.00945,0.35903 -12.77099,0.80582 -2.76155,0.44679 -5.27305,0.56029 -5.58111,0.25223 z m -146.42066,-9.58971 c -0.93136,-1.02915 -1.4882,-3.01174 -1.3022,-4.63643 0.2934,-2.56278 0.73724,-2.86827 4.57043,-3.14571 2.95151,-0.21362 4.55867,-0.8925 5.27308,-2.22739 0.56519,-1.05606 2.47973,-2.29605 4.25453,-2.75553 1.77481,-0.45948 3.67704,-1.73665 4.22718,-2.83816 0.75038,-1.50243 1.77689,-1.91406 4.10913,-1.64773 2.44588,0.2793 3.46372,-0.18655 4.7728,-2.18445 0.96073,-1.46626 2.60904,-2.53946 3.90032,-2.53946 1.23002,0 2.79846,-0.9 3.48542,-2 0.68696,-1.1 1.7561,-2 2.37587,-2 0.61977,0 2.1348,-1.0125 3.36674,-2.25 1.23193,-1.2375 3.88168,-3.375 5.88833,-4.75 5.47354,-3.75059 8.32228,-6.22747 16.23139,-14.11263 7.86961,-7.84578 10.49557,-9.88737 12.71747,-9.88737 1.57674,0 2.64468,0.64875 2.88072,1.75 0.59204,2.7621 -0.32669,5.25 -1.9387,5.25 -0.81234,0 -1.70845,0.8851 -1.99134,1.96688 -0.28289,1.08179 -1.36576,2.23711 -2.40638,2.56739 -1.04062,0.33028 -1.89203,1.03518 -1.89203,1.56645 0,0.53127 -1.56,2.52595 -3.46667,4.43261 -1.90666,1.90667 -3.90134,3.46667 -4.43261,3.46667 -0.53127,0 -1.25159,0.9 -1.60072,2 -0.34913,1.1 -1.26362,2 -2.0322,2 -0.76859,0 -1.86279,0.86952 -2.43155,1.93228 -0.56877,1.06275 -1.91159,2.21077 -2.98404,2.55115 -1.07245,0.34038 -2.22825,1.49586 -2.56845,2.56772 -0.42563,1.34107 -1.52214,1.94885 -3.51596,1.94885 -1.84013,0 -3.2748,0.70511 -3.93155,1.93228 -0.56877,1.06275 -1.88602,2.20265 -2.92722,2.53311 -1.0412,0.33047 -2.12455,1.48594 -2.40744,2.56773 -0.34095,1.30381 -1.36959,1.96688 -3.05127,1.96688 -1.3953,0 -3.12493,0.83544 -3.84362,1.85654 -0.71868,1.0211 -2.4317,2.20193 -3.8067,2.62408 -1.375,0.42215 -3.30503,1.6117 -4.28896,2.64346 -0.98392,1.03176 -3.06653,1.87592 -4.62802,1.87592 -1.7123,0 -3.38359,0.79219 -4.21105,1.99604 -0.75458,1.09782 -3.48598,2.62171 -6.06977,3.38642 -4.29477,1.2711 -4.83739,1.23613 -6.32496,-0.4076 z M 221,525.70056 c -0.5887,-1.1 -1.72096,-2 -2.51613,-2 -0.79517,0 -1.72812,-1.125 -2.07323,-2.5 -0.39264,-1.56443 -1.33534,-2.5 -2.51905,-2.5 -1.22492,0 -1.89159,-0.70487 -1.89159,-2 0,-1.1 -0.50492,-2 -1.12205,-2 -0.61713,0 -6.00193,-4.95 -11.96621,-11 -5.96428,-6.05 -11.63103,-11 -12.59278,-11 -0.96174,0 -2.80124,-1.0125 -4.08776,-2.25 -1.28653,-1.2375 -3.37896,-3.2625 -4.64984,-4.5 -1.27089,-1.2375 -3.44412,-2.25 -4.8294,-2.25 -1.61668,0 -2.69331,-0.66773 -3.00627,-1.8645 -0.31316,-1.19752 -1.78144,-2.10723 -4.10448,-2.54303 -2.05825,-0.38613 -4.06824,-1.52187 -4.66424,-2.6355 -0.5978,-1.11699 -2.08857,-1.95697 -3.4732,-1.95697 -1.33422,0 -3.23089,-0.83618 -4.21481,-1.85818 -0.98393,-1.02199 -3.58748,-2.13672 -5.78568,-2.47716 -2.1982,-0.34045 -4.57793,-1.41384 -5.28829,-2.38532 -1.03167,-1.41089 -3.4119,-1.89769 -11.82842,-2.41911 -9.06983,-0.5619 -10.87446,-0.96995 -12.96171,-2.93082 -2.92237,-2.74543 -3.11756,-5.48832 -0.4906,-6.89423 3.0344,-1.62396 12.2947,-1.26354 14.92819,0.58103 1.2691,0.88891 4.81861,1.79497 7.88779,2.01347 4.13601,0.29444 5.94046,0.91142 6.97175,2.38379 0.98131,1.40102 2.5338,1.98653 5.26733,1.98653 2.97481,0 4.02092,0.4569 4.49965,1.96526 0.39865,1.25603 1.89146,2.20308 4.13652,2.62426 1.93202,0.36245 4.0399,1.50308 4.68418,2.53474 0.64428,1.03166 2.15137,1.87574 3.34909,1.87574 3.18133,0 5.34124,1.02697 5.34124,2.5396 0,0.72909 1.0125,1.64551 2.25,2.03647 1.2375,0.39097 2.83802,1.54629 3.5567,2.56739 0.71869,1.0211 2.17738,1.85654 3.24153,1.85654 1.06415,0 2.49688,0.9 3.18384,2 0.68696,1.1 1.70328,2.0039 2.25848,2.00867 1.30725,0.0112 8.50945,6.82821 8.50945,8.05431 0,0.51536 0.57698,0.93702 1.28217,0.93702 0.70519,0 3.06769,2.02138 5.25,4.49196 2.18231,2.47058 4.50001,4.49558 5.15044,4.5 0.65044,0.004 1.46826,0.90804 1.81739,2.00804 0.34913,1.1 0.9734,2 1.38728,2 1.21139,0 7.11272,5.57897 7.11272,6.72419 0,0.57518 1.125,1.78292 2.5,2.68385 1.375,0.90094 2.5,2.11806 2.5,2.70472 0,0.58666 0.95716,1.84172 2.12703,2.78902 1.54091,1.24775 1.93568,2.32528 1.43262,3.91029 -0.8982,2.82997 -5.08153,2.94982 -6.55965,0.18793 z m -40,-5.56287 c -1.925,-0.72833 -4.49133,-1.34964 -5.70295,-1.38069 -3.83666,-0.0983 -6.87521,-2.10052 -8.09601,-5.33479 -1.06092,-2.8107 -0.93476,-3.39292 1.23013,-5.67678 1.32677,-1.39968 2.73889,-4.31919 3.13805,-6.48781 1.48157,-8.04923 8.21344,-10.97106 13.37941,-5.80706 1.51307,1.5125 3.99537,3.59755 5.51622,4.63344 2.46969,1.68217 2.71327,2.34394 2.27944,6.19287 -0.31517,2.79614 -1.5846,5.69686 -3.61501,8.26047 -1.72111,2.17306 -3.12928,4.67377 -3.12928,5.55712 0,1.8398 -0.24604,1.84193 -5,0.0432 z m 585,-13.37811 c 0,-0.58246 0.45,-1.05902 1,-1.05902 0.55,0 1,0.19844 1,0.44098 0,0.24254 -0.45,0.7191 -1,1.05902 -0.55,0.33992 -1,0.14148 -1,-0.44098 z m -227.84322,-8.94097 c -0.73878,-0.46822 -9.56521,-0.92871 -19.6143,-1.0233 -15.96337,-0.15026 -18.75699,-0.41971 -22.11822,-2.13337 -2.11593,-1.07876 -4.47453,-1.96138 -5.24135,-1.96138 -0.76681,0 -2.73118,-1.125 -4.36528,-2.5 -1.63409,-1.375 -3.72405,-2.51307 -4.64436,-2.52904 -0.9203,-0.016 -3.92327,-2.53039 -6.67327,-5.58761 -2.75,-3.05721 -6.14968,-6.75665 -7.55484,-8.22096 -1.40516,-1.46431 -3.11047,-3.78739 -3.78959,-5.16239 -0.67912,-1.375 -1.88531,-3.625 -2.68042,-5 -0.79512,-1.375 -1.4523,-4.62713 -1.46041,-7.22695 -0.0127,-4.0724 0.36606,-4.97005 2.73526,-6.48262 1.5125,-0.96562 3.33802,-2.55099 4.0567,-3.52305 0.71869,-0.97206 1.94036,-1.76738 2.71482,-1.76738 0.77446,0 1.88978,-0.9 2.47848,-2 0.5887,-1.1 1.94416,-2 3.01213,-2 1.06797,0 2.67889,-1.125 3.57983,-2.5 1.47723,-2.25454 2.29529,-2.5 8.33192,-2.5 4.07965,0 7.42338,0.53344 8.56185,1.36591 1.65829,1.21257 1.72353,1.71468 0.58113,4.47267 -0.70777,1.70872 -2.36236,4.26724 -3.67686,5.68561 -1.90049,2.05066 -2.4117,3.74599 -2.49596,8.27733 -0.11461,6.16321 0.0978,10.55993 0.64831,13.41838 0.43881,2.27856 7.03714,10.40476 9.08727,11.19147 C 502.1315,481.07199 510,480.7815 510,479.72907 c 0,-0.53431 -1.16673,-3.57181 -2.59274,-6.75 -2.24475,-5.00293 -2.51966,-6.70031 -2.0483,-12.6464 0.30031,-3.78829 1.18567,-7.59974 1.97446,-8.5 0.78651,-0.89766 1.71973,-2.58526 2.07383,-3.75023 0.35409,-1.16496 1.53232,-2.9222 2.61828,-3.90498 1.08596,-0.98278 1.97447,-2.3008 1.97447,-2.92894 0,-1.46599 7.09544,-8.41256 10.14665,-9.93375 1.2846,-0.64044 2.47272,-1.87626 2.64027,-2.74627 0.2371,-1.23118 -0.93089,-1.72703 -5.26914,-2.2369 -7.19714,-0.84589 -10.40565,-0.009 -13.64538,3.56029 -3.8943,4.29015 -8.7486,4.76762 -13.28597,1.3068 -4.38555,-3.34502 -4.86088,-7.06309 -1.08643,-8.49813 1.375,-0.52277 2.5,-1.55549 2.5,-2.29491 0,-2.1725 5.14555,-6.08488 10,-7.60344 8.27218,-2.58768 30.53129,-0.60446 36.40401,3.2435 1.38909,0.91017 3.58801,1.65485 4.88649,1.65485 1.29848,0 3.41775,1.125 4.7095,2.5 1.29175,1.375 3.04186,2.5 3.88915,2.5 1.66216,0 2.48559,0.6966 11.65459,9.85951 4.71927,4.71613 6.66568,7.63205 8.88174,13.30573 l 2.838,7.26601 -2.78501,5.03438 c -1.53177,2.7689 -3.61605,5.8394 -4.63175,6.82333 -1.01569,0.98392 -1.84672,2.48775 -1.84672,3.34183 0,2.13609 -3.15228,6.11498 -12.28238,15.50312 -5.92059,6.08793 -8.5987,8.13481 -11.19465,8.55608 -2.62299,0.42565 -3.64436,1.21947 -4.41561,3.43187 -1.05684,3.03166 -1.75789,3.3859 -3.95058,1.99619 z M 270.25,497.03828 c -1.95385,-0.7884 -1.55707,-6.30399 0.5,-6.95046 4.87766,-1.5329 13.28777,-6.32211 13.89898,-7.9149 0.31075,-0.8098 1.65369,-1.47236 2.98432,-1.47236 1.49036,0 4.1065,-1.63191 6.81326,-4.25 2.41665,-2.3375 6.56731,-5.82202 9.22368,-7.74338 2.65637,-1.92137 5.18962,-4.05887 5.62945,-4.75 0.43983,-0.69114 1.27179,-1.25662 1.84879,-1.25662 1.20694,0 6.85152,-5.79852 6.85152,-7.03837 0,-0.45477 0.81872,-1.08671 1.81938,-1.4043 1.00066,-0.3176 2.73086,-1.81042 3.8449,-3.31739 l 2.02552,-2.73994 -14.24931,-0.009 c -11.90578,-0.007 -14.55314,-0.28348 -16.09673,-1.6804 -1.01608,-0.91954 -3.0841,-2.14208 -4.59559,-2.71675 C 289.23668,443.22025 288,442.07976 288,441.26049 c 0,-0.81926 -0.83895,-1.93856 -1.86434,-2.48733 -1.02539,-0.54877 -3.06557,-3.45299 -4.53374,-6.45381 -2.24405,-4.58667 -2.67444,-6.81315 -2.70101,-13.97287 -0.0228,-6.15526 0.41075,-9.19195 1.56374,-10.95162 0.87744,-1.33914 1.93706,-4.40569 2.35471,-6.81455 l 0.75936,-4.37975 5.5799,0.019 c 6.68306,0.0228 8.84138,1.51276 8.84138,6.10339 0,3.89195 1.67359,4.52626 2.56556,0.97239 0.33201,-1.32284 1.69058,-3.42629 3.01905,-4.67431 3.40141,-3.19547 3.02794,-4.28161 -1.2344,-3.58993 -4.4149,0.71645 -8.45067,-1.74469 -10.33984,-6.30555 -1.41327,-3.41189 -0.1478,-6.02499 2.9178,-6.02499 0.9258,0 3.20812,-1.125 5.07183,-2.5 1.86371,-1.375 4.10101,-2.5 4.97177,-2.5 0.87077,0 2.6315,-0.73424 3.91272,-1.63165 1.54445,-1.08177 5.29558,-1.80077 11.1307,-2.13347 7.84972,-0.44757 9.12509,-0.27118 11.79737,1.63165 1.6479,1.17341 3.63306,2.13347 4.41148,2.13347 0.77841,0 2.385,1.11527 3.5702,2.47837 1.2852,1.47811 2.77057,2.24212 3.68034,1.89301 0.94507,-0.36266 1.52542,-0.0206 1.52542,0.89919 0,0.8165 0.675,2.04474 1.5,2.72943 0.825,0.68469 1.5,2.0291 1.5,2.98759 0,0.95848 1.0125,3.03136 2.25,4.6064 2.05436,2.61471 2.24093,3.86548 2.14569,14.38486 -0.0948,10.46914 -0.34757,11.97165 -2.76843,16.45477 -1.46528,2.71349 -3.31918,5.63849 -4.11979,6.5 -0.80061,0.86151 -2.86393,3.25388 -4.58515,5.31638 -1.72123,2.0625 -3.64964,3.75 -4.28537,3.75 -0.63572,0 -1.71792,0.9 -2.40488,2 -0.68696,1.1 -1.9202,2 -2.74054,2 -0.82034,0 -1.49153,0.45 -1.49153,1 0,0.55 0.9,1 2,1 1.45905,0 2,0.66667 2,2.46482 0,1.44136 -0.83045,2.90926 -2,3.53518 -1.1,0.5887 -2,1.95453 -2,3.03518 0,1.29815 -0.6786,1.96482 -2,1.96482 -1.1,0 -2,0.40214 -2,0.89364 0,1.25795 -11.72972,13.10636 -12.97507,13.10636 -0.56371,0 -1.02494,0.5625 -1.02496,1.25 -3e-5,1.37954 -6.29449,6.75 -7.91136,6.75 -0.56003,0 -1.48033,0.86342 -2.04511,1.91872 -0.56478,1.05529 -2.38435,2.21687 -4.0435,2.58128 -1.65915,0.36441 -3.47872,1.52599 -4.0435,2.58128 -0.56478,1.0553 -1.60759,1.91872 -2.31737,1.91872 -0.70978,0 -2.34738,1.125 -3.63913,2.5 -1.29175,1.375 -3.09175,2.5 -4,2.5 -0.90825,0 -2.70825,1.125 -4,2.5 -2.24566,2.3904 -6.42711,3.17853 -9.75,1.83772 z m -75.93664,-11.58772 c -1.12602,-1.2375 -3.72273,-3.59956 -5.77047,-5.24902 l -3.72316,-2.99902 0.34013,-38.00098 c 0.2962,-33.09156 0.55584,-38.41988 2.00974,-41.24345 0.91828,-1.78336 1.98184,-6.15814 2.36347,-9.72173 0.38163,-3.56359 1.3059,-6.98719 2.05394,-7.60801 0.74803,-0.62082 1.66149,-2.73549 2.0299,-4.69928 0.70122,-3.73785 5.51303,-13.59757 7.95836,-16.30725 0.7836,-0.86831 1.42473,-2.15335 1.42473,-2.85564 0,-0.7023 1.125,-2.61389 2.5,-4.24799 1.375,-1.63409 2.5,-3.61155 2.5,-4.39436 0,-0.7828 0.47296,-1.42327 1.05103,-1.42327 0.57806,0 1.7091,-1.575 2.51342,-3.5 0.80431,-1.925 1.92047,-3.5 2.48035,-3.5 0.55989,0 1.31884,-0.7875 1.68656,-1.75 0.36773,-0.9625 2.52458,-3.58201 4.79299,-5.82114 2.26842,-2.23912 4.41431,-4.82662 4.76864,-5.75 0.35433,-0.92337 1.31753,-1.67886 2.14044,-1.67886 0.82291,0 1.97787,-0.9 2.56657,-2 0.5887,-1.1 1.7137,-2 2.5,-2 0.7863,0 1.90093,-0.88064 2.47697,-1.95697 0.61624,-1.15146 2.58586,-2.22846 4.78518,-2.61657 2.05582,-0.36278 4.41285,-1.45987 5.23785,-2.43797 1.03165,-1.22311 3.43213,-1.92988 7.68804,-2.26358 3.84816,-0.30174 7.48502,-1.28678 9.61803,-2.60506 1.88718,-1.16634 5.10517,-2.11985 7.15423,-2.11985 2.1341,0 4.74727,-0.80471 6.12025,-1.8847 1.3178,-1.03658 4.38948,-2.18364 6.82596,-2.54901 2.43647,-0.36537 4.97185,-1.31726 5.63417,-2.1153 0.66231,-0.79804 2.43842,-1.45099 3.94691,-1.45099 1.50848,0 3.95538,-0.9539 5.43756,-2.11978 1.48217,-1.16588 4.51224,-2.52812 6.73348,-3.0272 2.22124,-0.49908 4.70138,-1.57018 5.51142,-2.38022 0.81005,-0.81004 2.59525,-1.4728 3.96712,-1.4728 3.60936,0 6.36283,-1.7658 6.36283,-4.0805 0,-1.76307 0.43862,-1.92784 3.56885,-1.34061 2.95226,0.55385 3.82591,0.30252 5.05671,-1.45468 0.93037,-1.3283 2.56541,-2.12421 4.36376,-2.12421 1.99765,0 3.06976,-0.61077 3.51068,-2 0.34913,-1.1 1.01992,-2 1.49066,-2 1.78622,0 7.00934,-5.25946 7.00934,-7.0581 0,-1.03417 -1.0125,-3.80667 -2.25,-6.16111 -2.10363,-4.00231 -2.23454,-5.35418 -2.01234,-20.78079 0.17933,-12.45052 0.74592,-18.70881 2.30866,-25.5 1.84961,-8.03789 2.038,-11.59638 1.76234,-33.28777 -0.22812,-17.95042 -0.63177,-24.48712 -1.54695,-25.05178 -2.74711,-1.69494 -4.49407,-23.78891 -2.33085,-29.47859 1.45069,-3.81562 10.62338,-12.42504 14.03666,-13.17473 1.67701,-0.36833 3.5112,-1.53312 4.07598,-2.58841 0.56478,-1.0553 1.66285,-1.91872 2.44016,-1.91872 0.77731,0 2.56481,-1.06718 3.97221,-2.37152 2.97457,-2.75674 13.5212,-4.2155 19.76747,-2.73415 5.82612,1.38171 13.04405,8.3758 15.8689,15.37678 0.61497,1.52411 1.97079,3.22744 3.01294,3.78518 1.19781,0.64105 1.89482,2.09174 1.89482,3.94371 0,1.90618 0.69869,3.30356 2,4 1.1,0.5887 2,1.64211 2,2.3409 0,0.6988 1.125,2.79539 2.5,4.6591 1.375,1.86371 2.5,4.35728 2.5,5.54127 0,1.18399 0.9,3.19042 2,4.45873 1.1,1.26831 2,3.04974 2,3.95873 0,0.90899 1.125,3.17756 2.5,5.04127 1.375,1.86371 2.5,4.20554 2.5,5.20407 0,0.99853 0.9,2.58611 2,3.52796 1.1,0.94185 2,2.51685 2,3.5 0,0.98315 0.9,2.55815 2,3.5 1.1,0.94185 2,2.47792 2,3.41349 0,0.93556 1.125,3.03802 2.5,4.67211 1.375,1.6341 2.5,3.4431 2.5,4.02002 0,0.57692 0.83544,1.63696 1.85654,2.35565 1.0211,0.71868 2.16503,2.28331 2.54207,3.47694 0.37705,1.19363 2.27838,3.89363 4.22519,6 1.94681,2.10637 4.18944,5.06726 4.98361,6.57976 0.79417,1.5125 1.85207,2.75 2.35088,2.75 0.49882,0 1.20077,0.92578 1.55989,2.05728 0.35913,1.13151 1.73945,2.47037 3.06739,2.97525 1.32794,0.50488 2.41443,1.40816 2.41443,2.00728 0,1.35246 5.79139,6.3123 7.69722,6.59201 1.95666,0.28718 4.30278,2.37557 4.30278,3.83011 0,0.66937 1.125,1.72962 2.5,2.35612 2.88114,1.31273 3.1319,2.41263 0.96084,4.21445 -1.93273,1.60403 -31.35639,0.61767 -34.74769,-1.16483 -2.21041,-1.16181 -5.43784,-4.42689 -9.21315,-9.32062 -1.1,-1.42587 -4.14271,-4.94477 -6.76158,-7.81977 -2.61888,-2.87501 -5.03016,-6.23978 -5.35841,-7.47728 -0.32826,-1.2375 -0.95402,-2.25 -1.39059,-2.25 -0.43657,0 -1.28395,-1.2375 -1.88306,-2.75 -0.59911,-1.5125 -2.63826,-4.775 -4.53144,-7.25 -1.89317,-2.475 -3.47201,-5.11004 -3.50853,-5.85564 -0.0365,-0.74561 -1.19139,-2.69263 -2.56639,-4.32673 -1.375,-1.63409 -2.5,-3.9804 -2.5,-5.21402 0,-1.23362 -1.125,-3.22111 -2.5,-4.41666 -1.375,-1.19555 -2.5,-3.20169 -2.5,-4.4581 0,-1.2564 -0.9,-3.05497 -2,-3.99682 -1.1,-0.94185 -2,-2.84626 -2,-4.23203 0,-1.38577 -0.9,-3.29018 -2,-4.23203 -1.1,-0.94185 -2,-2.70292 -2,-3.91349 0,-1.21056 -1.125,-3.53802 -2.5,-5.17211 -1.375,-1.6341 -2.5,-3.67126 -2.5,-4.52704 0,-0.85577 -0.58889,-1.91581 -1.30865,-2.35564 -0.71975,-0.43983 -2.22366,-2.59969 -3.34202,-4.79969 -2.23499,-4.39659 -5.77956,-5.87055 -6.7517,-2.8076 -0.31578,0.99494 -1.92943,2.40889 -3.58589,3.14211 -2.31218,1.02347 -3.01174,1.98205 -3.01174,4.12686 0,1.53656 0.60183,3.29321 1.33739,3.90368 0.73557,0.61046 1.40921,3.25306 1.49698,5.87244 0.20676,6.17055 0.89529,9.57501 3.24602,16.05002 1.05578,2.90813 1.91961,7.45995 1.91961,10.11514 0,3.16774 0.63527,5.64762 1.84762,7.21249 1.0162,1.31167 2.14473,4.63486 2.50785,7.38486 0.36312,2.75 1.55669,6.21928 2.65237,7.70951 1.12672,1.53243 1.99216,4.28767 1.99216,6.34227 0,2.11857 0.83363,4.69255 2,6.17535 1.1,1.39842 2,3.81073 2,5.36068 0,3.1815 1.88967,7.91219 3.16052,7.91219 1.52372,0 0.94763,8.02127 -0.61928,8.62255 -2.8481,1.09291 -8.27902,-1.57529 -9.57507,-4.70422 -0.68226,-1.64712 -2.07875,-3.4434 -3.10332,-3.99173 C 376.62174,224.96294 376,223.52551 376,221.32036 c 0,-2.03983 -0.76741,-4.00432 -2,-5.1198 -1.32911,-1.20283 -2,-3.07997 -2,-5.59597 0,-2.0823 -0.45,-4.06411 -1,-4.40403 -1.11577,-0.68958 -1.12423,-0.63663 -1.37961,8.63388 -0.10521,3.81897 -0.75168,7.31938 -1.52353,8.24941 -0.89522,1.07867 -1.48172,5.60341 -1.76494,13.61612 -0.2333,6.60032 -0.21539,12.00059 0.0398,12.00059 1.21295,0 10.4958,-5.13543 11.52544,-6.37607 0.64201,-0.77358 3.25149,-1.71905 5.79884,-2.10105 2.54735,-0.382 6.13969,-1.50286 7.98299,-2.49081 3.10025,-1.66164 6.77919,-1.78225 49.08623,-1.60925 39.48794,0.16147 46.28114,0.4076 49.73479,1.80202 2.2,0.88825 6.89418,1.90763 10.4315,2.26527 4.03052,0.40752 7.34739,1.3707 8.88486,2.58008 1.51809,1.19413 4.02213,1.93124 6.5685,1.93355 2.50696,0.002 5.48292,0.86342 7.61514,2.20358 3.4112,2.14403 4.31189,2.2014 35.5,2.26113 27.76712,0.0532 37.17677,-0.25071 52,-1.67932 2.92552,-0.28195 2.99199,-0.19017 2.67728,3.69679 -0.34393,4.24799 -1.41017,5.47423 -4.78126,5.49877 -1.15718,0.008 -3.31787,1.14031 -4.80152,2.51531 -1.48365,1.375 -3.40874,2.5 -4.27799,2.5 -0.86924,0 -3.04383,0.90442 -4.83242,2.00983 -1.87241,1.15722 -6.49392,2.42087 -10.89408,2.97876 -4.20316,0.53291 -8.64288,1.53876 -9.86606,2.23523 -1.61204,0.9179 -8.41473,1.26767 -24.72395,1.27125 -18.62091,0.004 -23.19271,-0.27937 -26.51794,-1.64412 -2.20986,-0.90698 -6.58676,-1.97 -9.72645,-2.36228 -3.13968,-0.39228 -6.62796,-1.51067 -7.75173,-2.48531 -1.35652,-1.1765 -4.6413,-2.01543 -9.77355,-2.49617 -4.25168,-0.39826 -9.53033,-1.4628 -11.73033,-2.36565 -3.48147,-1.42874 -8.86121,-1.62806 -41.5,-1.53756 -36.80511,0.10206 -46.66706,0.76062 -54.24979,3.62269 -3.74445,1.41333 -10.13793,6.38619 -16.09642,12.51982 -4.3437,4.47138 -12.48765,12.4886 -16.43827,16.18248 -1.80646,1.68907 -4.13864,3.07103 -5.18261,3.07103 -1.04397,0 -2.18378,0.9 -2.53291,2 -0.34913,1.1 -1.32699,2 -2.17303,2 -0.84604,0 -2.87524,1.125 -4.50934,2.5 -1.63409,1.375 -3.76681,2.5 -4.73937,2.5 -0.97256,0 -2.58277,0.9 -3.57826,2 -1.00202,1.10722 -3.07997,2 -4.65499,2 -1.56475,0 -3.67988,0.83487 -4.70028,1.85527 -1.02039,1.02039 -3.12238,2.17329 -4.67107,2.56199 -1.5487,0.38869 -3.92452,1.57882 -5.2796,2.64473 -1.35508,1.06591 -3.72757,1.93801 -5.27221,1.93801 -1.59316,0 -3.37389,0.79956 -4.11515,1.84772 -0.83639,1.18269 -3.03092,2.03993 -6.09728,2.38174 -2.63482,0.29371 -5.66892,1.3289 -6.74244,2.30043 -1.07353,0.97152 -4.26234,2.13165 -7.08625,2.57805 -2.82391,0.4464 -5.86481,1.44413 -6.75755,2.21717 -0.89275,0.77305 -3.74129,1.67988 -6.33009,2.01518 -2.5888,0.3353 -6.40714,1.5209 -8.48519,2.63467 -2.0872,1.11868 -5.67137,2.02504 -8.00791,2.02504 -3.20617,0 -4.48862,0.48395 -5.29999,2 -0.5887,1.1 -1.92561,2 -2.97091,2 -1.98546,0 -13.0291,10.5045 -13.0291,12.39304 0,0.59695 -1.09152,2.21523 -2.4256,3.59617 -5.87387,6.08018 -7.5744,8.18204 -7.5744,9.36196 0,0.69315 -1.125,2.78512 -2.5,4.64883 -1.375,1.86371 -2.5,4.13139 -2.5,5.03929 0,0.90791 -0.85544,2.4249 -1.90097,3.37109 -1.04554,0.9462 -2.20861,3.37844 -2.58462,5.40499 -0.376,2.02655 -1.41372,4.498 -2.30604,5.49212 -1.14022,1.2703 -1.64697,3.83935 -1.7051,8.64416 -0.0455,3.76017 -0.54854,7.4468 -1.1179,8.19251 -1.9608,2.56813 -3.38537,9.6047 -3.38537,16.72186 0,3.92369 0.35954,7.13398 0.79897,7.13398 0.43944,0 1.90194,-1.85181 3.25,-4.11514 1.34807,-2.26333 3.23853,-4.96333 4.20103,-6 0.9625,-1.03667 1.75,-2.27852 1.75,-2.75966 0,-0.48115 1.96526,-2.92593 4.36725,-5.43287 2.40198,-2.50693 4.63786,-5.26327 4.96861,-6.12519 0.33076,-0.86193 1.26017,-1.56714 2.06537,-1.56714 0.8052,0 1.78165,-1.00085 2.1699,-2.2241 0.85846,-2.70479 14.07625,-15.7759 15.95292,-15.7759 0.73765,0 1.62682,-0.9 1.97595,-2 0.34913,-1.1 1.21876,-2 1.93253,-2 0.71376,0 2.37094,-0.83138 3.68261,-1.84751 4.80119,-3.7194 7.31275,-3.52815 11.27597,0.85867 2.96586,3.28284 3.60493,4.75135 3.58665,8.24172 -0.014,2.66835 -0.74915,5.17644 -1.97776,6.74712 -1.47925,1.89111 -1.96094,4.0925 -1.97776,9.03856 -0.0161,4.71773 -0.61272,7.64172 -2.14264,10.5 -2.01348,3.76169 -2.12693,5.44894 -2.25,33.46144 -0.0713,16.225 0.22741,30.88855 0.66376,32.58567 0.60797,2.3646 0.35529,3.62666 -1.08128,5.40075 -2.14646,2.65077 -5.34397,2.3473 -9.33563,-0.88602 l -2.37645,-1.92497 0,-34.33771 c 0,-29.68454 0.21858,-34.74426 1.61296,-37.33772 0.88712,-1.65 1.9146,-6.06135 2.28328,-9.80299 0.6242,-6.33495 0.54763,-6.73391 -1.11296,-5.79882 -2.64563,1.48977 -7.70642,6.77941 -13.49172,14.10181 -2.82455,3.575 -5.95814,7.30503 -6.96355,8.28896 -1.00541,0.98392 -1.82801,2.67142 -1.82801,3.75 0,1.29437 -0.67991,1.96104 -2,1.96104 -1.1,0 -2,0.59385 -2,1.31966 0,0.72582 -1.125,2.29784 -2.5,3.49339 -1.375,1.19555 -2.5,2.9126 -2.5,3.81567 0,0.90306 -1.0125,2.68082 -2.25,3.95056 -4.75794,4.88189 -5.75,6.12466 -5.75,7.20309 0,0.61302 -1.16259,2.36904 -2.58353,3.90226 -2.50612,2.70415 -2.57792,3.14761 -2.3965,14.80152 0.28156,18.08758 0.17071,19.32317 -1.92125,21.41513 -1.0457,1.0457 -2.20103,2.8457 -2.56739,4 -0.88952,2.80264 -4.60093,2.72486 -7.21797,-0.15128 z m 593.25727,-31.63572 c -0.37877,-0.61285 -3.2761,-1.11428 -6.43852,-1.11428 -8.96003,0 -9.57512,-0.84788 -8.83118,-12.17334 0.67673,-10.30226 0.70289,-10.2358 -7.25649,-18.4319 C 763.92,420.93744 763,419.47875 763,418.85379 c 0,-0.62495 -0.9,-1.69834 -2,-2.3853 -1.1,-0.68696 -2,-1.79825 -2,-2.46952 0,-0.67128 -0.91194,-2.0701 -2.02654,-3.10851 -5.12405,-4.77378 3.10172,-7.63573 8.88084,-3.08987 1.32848,1.04499 3.19984,1.89997 4.15859,1.89997 0.95874,0 2.39174,0.97681 3.18445,2.17069 1.80923,2.72484 4.04006,1.64528 2.91042,-1.40843 -0.44234,-1.19576 -0.43328,-3.76893 0.0201,-5.71818 1.26112,-5.4216 1.11183,-5.92731 -2.3779,-8.05504 -2.65569,-1.61921 -5.04494,-1.98225 -13.06574,-1.9853 C 749.84313,394.7003 747,393.78397 747,390.29454 c 0,-2.11239 0.57308,-2.40048 5.9955,-3.01396 3.29753,-0.37307 7.55808,-1.3312 9.46788,-2.12917 1.90981,-0.79797 5.25754,-1.45085 7.4394,-1.45085 2.18186,0 5.14515,-0.44792 6.58508,-0.99538 2.4817,-0.94355 2.61327,-1.34716 2.52626,-7.75 -0.0505,-3.71504 0.0382,-7.6544 0.19705,-8.75414 0.40719,-2.81888 -3.39744,-3.15093 -6.91566,-0.60356 -3.82841,2.77195 -12.4379,3.84136 -14.16566,1.75954 -2.14778,-2.58792 -1.01884,-6.11157 2.07238,-6.46827 1.6139,-0.18623 2.94969,-1.09149 3.31665,-2.24768 0.33793,-1.06472 1.82193,-2.18871 3.29777,-2.49775 1.47584,-0.30903 3.35835,-0.99413 4.18335,-1.52243 0.825,-0.52829 3.00839,-1.6517 4.85198,-2.49646 2.78101,-1.2743 3.23168,-1.90964 2.64573,-3.7299 -1.55057,-4.8169 -1.62071,-8.55687 -0.21213,-11.31188 0.81045,-1.58515 1.80282,-4.45709 2.20528,-6.38209 0.40245,-1.925 1.37816,-4.23421 2.16825,-5.13158 0.79009,-0.89736 1.91028,-4.72236 2.48931,-8.5 0.57904,-3.77763 1.65447,-7.54786 2.38986,-8.3783 0.82932,-0.93649 1.54773,-5.30367 1.89178,-11.5 2.23145,-40.18775 2.14218,-32.45767 0.66964,-57.99012 -0.89175,-15.46223 -1.61202,-21.61461 -2.73134,-23.33069 -0.83611,-1.28188 -1.88112,-5.91076 -2.32223,-10.28639 -0.458,-4.54319 -1.44001,-8.69073 -2.2894,-9.66931 -0.81806,-0.94248 -1.77529,-3.93072 -2.12718,-6.64053 -0.35188,-2.7098 -1.30714,-5.66433 -2.12279,-6.56561 -0.81565,-0.90129 -1.77512,-3.18418 -2.13215,-5.07309 -0.35702,-1.88891 -1.25674,-4.1386 -1.99938,-4.99931 -0.74263,-0.86072 -1.8532,-3.00772 -2.46792,-4.77111 -0.61472,-1.7634 -1.97034,-3.66251 -3.01249,-4.22025 C 767.85267,163.08653 767,161.91857 767,161.0488 c 0,-1.2099 -0.64602,-1.43467 -2.75,-0.95683 -1.5125,0.34351 -7.47237,1.28808 -13.24416,2.09905 -6.07419,0.85346 -10.6624,1.97923 -10.89361,2.67286 -0.21971,0.65911 -1.45983,2.1811 -2.75585,3.3822 -1.29601,1.2011 -2.36118,2.58222 -2.36705,3.06915 -0.006,0.48693 -2.03086,3.07597 -4.5,5.75342 C 728.0202,179.7461 726,182.20339 726,182.52929 c 0,0.3259 -2.68829,3.1269 -5.97398,6.22445 -3.28568,3.09755 -6.32888,6.5913 -6.76265,7.76391 -0.81357,2.19928 -6.67624,9.27718 -13.87515,16.75121 -2.26148,2.34791 -4.38485,4.98055 -4.71861,5.85031 -0.33376,0.86976 -1.29596,1.58139 -2.13823,1.58139 -0.84226,0 -1.53138,0.47172 -1.53138,1.04827 0,0.57656 -3.15,4.18581 -7,8.02056 -3.85,3.83475 -7,7.31302 -7,7.72948 0,0.41647 -0.7875,1.50959 -1.75,2.42916 -0.9625,0.91958 -2.25862,2.19847 -2.88026,2.84198 -3.96203,4.10139 -10.30601,9.93055 -10.80762,9.93055 -0.32767,0 -2.53606,2.025 -4.90753,4.5 -2.37146,2.475 -4.83889,4.5 -5.48317,4.5 -0.64428,0 -1.17142,0.64468 -1.17142,1.43261 0,0.78794 -0.85974,1.70549 -1.91054,2.039 -1.0508,0.33351 -2.63617,1.71383 -3.52305,3.06738 -0.88689,1.35356 -2.4324,2.46101 -3.43448,2.46101 -1.00207,0 -2.63644,0.9 -3.63193,2 -0.99549,1.1 -2.3994,2 -3.1198,2 -0.72041,0 -1.75968,0.84055 -2.3095,1.8679 -0.54982,1.02734 -2.40295,2.14855 -4.11807,2.49157 -1.71512,0.34303 -3.86861,1.48793 -4.78552,2.54422 -1.18197,1.36165 -3.57962,2.10923 -8.23916,2.56896 l -6.57204,0.64842 -2.45281,-3.81053 c -4.28211,-6.65242 -4.9087,-7.7348 -6.52402,-11.2697 -1.51632,-3.31826 -1.49062,-3.5321 0.63089,-5.25 1.21638,-0.98496 2.85497,-1.79084 3.64131,-1.79084 0.78634,0 2.64898,-0.8296 4.13921,-1.84356 1.49023,-1.01396 4.73451,-3.12704 7.20951,-4.69573 2.475,-1.56869 5.53071,-3.88908 6.79047,-5.15644 1.25976,-1.26735 3.18638,-2.30427 4.28138,-2.30427 1.09501,0 2.23436,-0.63439 2.53189,-1.40975 0.29754,-0.77537 1.63341,-1.68394 2.96862,-2.01905 1.3352,-0.33512 2.42764,-1.09519 2.42764,-1.68904 0,-1.03621 5.69194,-6.88216 6.70085,-6.88216 0.67105,0 20.86241,-20.61062 25.79915,-26.33486 2.2,-2.55094 4.57215,-4.64416 5.27144,-4.6516 0.69929,-0.007 1.78402,-1.13854 2.41051,-2.51354 0.6265,-1.375 1.50529,-2.5 1.95288,-2.5 0.4476,0 1.46392,-1.2375 2.25851,-2.75 0.79458,-1.5125 3.16864,-4.6085 5.27568,-6.88 2.10704,-2.2715 5.75272,-6.3215 8.10151,-9 2.34878,-2.6785 6.28087,-7.12 8.73795,-9.87 2.9596,-3.31242 4.27998,-5.59071 3.91204,-6.75016 -0.43217,-1.36185 -0.0412,-1.69466 1.76204,-1.5 1.87039,0.2019 2.37949,-0.29077 2.63908,-2.55392 0.20755,-1.8094 1.18304,-3.19656 2.75,-3.91052 1.3356,-0.60853 2.42836,-1.5113 2.42836,-2.00615 0,-2.00367 15.39713,-15.7531 18.87174,-16.85222 1.99554,-0.63124 4.14932,-1.80239 4.78616,-2.60255 0.89201,-1.12076 4.94536,-1.58912 17.65164,-2.03961 15.8224,-0.56098 16.60498,-0.49727 19.22695,1.56518 1.50328,1.18247 3.31301,2.14995 4.02164,2.14995 0.70863,0 2.62541,1.125 4.2595,2.5 1.6341,1.375 3.46862,2.5 4.07673,2.5 0.6081,0 1.10564,0.81885 1.10564,1.81966 0,1.00082 1.125,2.79784 2.5,3.99339 1.375,1.19555 2.5,2.84789 2.5,3.67186 0,0.82398 0.9,2.0602 2,2.74716 1.1,0.68696 2,2.20509 2,3.37362 0,1.16853 0.86299,3.22171 1.91776,4.56263 1.05477,1.34093 2.2395,4.21411 2.63273,6.38486 0.39323,2.17075 1.55523,4.75185 2.58224,5.73578 1.027,0.98392 1.86727,3.13935 1.86727,4.78983 0,1.65049 0.84275,4.67046 1.87278,6.71105 1.03003,2.04059 2.20235,6.86016 2.60514,10.71016 0.4028,3.85 1.41709,8.32547 2.25399,9.94549 0.87592,1.69555 1.87262,7.63655 2.34873,14 0.4549,6.07998 1.51921,13.01326 2.36513,15.40728 1.26363,3.57619 1.47889,8.75007 1.20653,29 -0.19731,14.67018 -0.78979,26.06401 -1.46366,28.14723 -0.62268,1.925 -1.52982,7.85461 -2.01587,13.1769 -0.58568,6.41326 -1.40406,10.19725 -2.42655,11.21973 -0.84855,0.84856 -1.8554,4.23605 -2.23745,7.52778 -0.38204,3.29172 -1.30575,6.49214 -2.05269,7.11204 -2.05643,1.70668 -2.46544,6.9841 -2.90348,37.46355 -0.22133,15.4 -0.86565,30.025 -1.43183,32.5 -0.56617,2.475 -1.52553,11.7 -2.13191,20.5 -0.65706,9.53566 -1.68557,17.27312 -2.54568,19.15113 -0.79375,1.73312 -1.45007,4.43312 -1.45849,6 -0.008,1.56688 -0.39357,3.44549 -0.85588,4.1747 -1.1056,1.74385 -8.64833,2.76062 -9.55818,1.28845 z M 760.75,444.00837 c -0.9625,-0.24995 -1.75,-1.08609 -1.75,-1.85808 0,-0.77199 -1.125,-2.14075 -2.5,-3.04169 -1.375,-0.90093 -2.5,-2.24547 -2.5,-2.98787 0,-0.74239 -0.84824,-1.80377 -1.88497,-2.35861 -1.03674,-0.55484 -2.16705,-2.13269 -2.51181,-3.50632 -0.34476,-1.37363 -1.52152,-2.97633 -2.61503,-3.56156 C 745.89469,426.10901 745,424.98686 745,424.20056 c 0,-0.7863 -0.86952,-1.89499 -1.93228,-2.46375 -1.06275,-0.56877 -2.21807,-1.9346 -2.56738,-3.03519 -0.34931,-1.10058 -1.27979,-2.00106 -2.06773,-2.00106 -0.78793,0 -1.43261,-0.60826 -1.43261,-1.35169 0,-0.74342 -1.2375,-2.73703 -2.75,-4.43023 -1.5125,-1.6932 -3.65,-4.27317 -4.75,-5.73327 -1.1,-1.46011 -4.1375,-4.8965 -6.75,-7.63643 -2.6125,-2.73993 -4.75,-5.4017 -4.75,-5.91503 0,-0.51334 -0.68614,-0.93335 -1.52475,-0.93335 -0.83861,0 -1.95248,-1.125 -2.47525,-2.5 -0.69848,-1.83714 -1.68621,-2.5003 -3.72525,-2.50113 -1.94838,-7.9e-4 -4.48943,-1.56433 -8.53224,-5.25 -3.16662,-2.88688 -5.75412,-5.70312 -5.75,-6.25832 0.004,-0.5552 -0.89251,-1.57152 -1.99251,-2.25848 -1.1,-0.68696 -2,-1.83451 -2,-2.55012 0,-0.98641 -2.8418,-1.3348 -11.7494,-1.44041 -10.54607,-0.12504 -11.9195,-0.34937 -13.41029,-2.19042 -0.91349,-1.12812 -2.35075,-2.05112 -3.1939,-2.05112 -0.84315,0 -2.18501,-0.93087 -2.9819,-2.06859 -0.79718,-1.13813 -2.28455,-1.92529 -3.30671,-1.75 -1.15135,0.19744 -1.86416,-0.27771 -1.87452,-1.24955 -0.009,-0.86248 -1.95265,-3.56248 -4.31877,-6 C 644.15584,345.41226 643,344.04323 643,342.96195 c 0,-0.56547 -0.81496,-1.24124 -1.81102,-1.50172 -0.99606,-0.26047 -3.21261,-2.67546 -4.92566,-5.36663 -1.71306,-2.69117 -3.8231,-5.68054 -4.68899,-6.64304 C 630.70845,328.48806 630,327.07731 630,326.31557 c 0,-0.76174 -1.125,-2.12212 -2.5,-3.02305 -1.375,-0.90094 -2.5,-2.3071 -2.5,-3.1248 0,-0.8177 -0.9,-2.25734 -2,-3.19919 -1.1,-0.94185 -2,-2.52209 -2,-3.51165 0,-0.98956 -1.17171,-2.33306 -2.6038,-2.98557 -2.32177,-1.05787 -2.5467,-1.61201 -2.0767,-5.11614 0.2899,-2.16138 1.26564,-4.65536 2.16831,-5.54219 1.5118,-1.48528 1.79383,-1.42627 3.5767,0.74836 1.06452,1.29844 1.93549,2.9701 1.93549,3.71482 0,0.74472 0.9,1.8357 2,2.4244 1.1,0.5887 2,1.67443 2,2.41274 0,0.7383 0.701,1.92415 1.55778,2.63521 0.85677,0.71106 2.18381,2.79116 2.94897,4.62244 0.76516,1.83129 1.82014,3.32961 2.3444,3.32961 0.52426,0 1.42381,1.35 1.99901,3 0.57519,1.65 1.74421,3 2.59782,3 0.85361,0 1.55202,0.65182 1.55202,1.44848 0,0.79666 1.125,2.66237 2.5,4.14602 1.375,1.48365 2.5,3.50151 2.5,4.48414 0,0.98262 0.9,2.07223 2,2.42136 1.1,0.34913 2,1.07112 2,1.60442 0,0.80068 5.57059,6.50522 14.08389,14.42257 0.87114,0.81016 2.19213,1.47301 2.93555,1.47301 0.74341,0 2.42164,1.00519 3.72939,2.23376 1.90831,1.79277 3.81761,2.30648 9.67113,2.60207 6.72683,0.33968 7.3361,0.205 7.8431,-1.73377 0.43986,-1.68205 1.32769,-2.10206 4.44332,-2.10206 4.56822,0 6.29362,1.38861 6.29362,5.06514 0,1.46583 0.8381,3.73833 1.86244,5.05 1.02434,1.31167 2.17967,3.39736 2.56739,4.63486 0.40577,1.2951 1.51021,2.25 2.60237,2.25 1.04359,0 2.35952,0.86342 2.9243,1.91872 0.56478,1.05529 2.43522,2.22804 4.15655,2.60611 1.85514,0.40746 3.33138,1.45867 3.62495,2.58128 0.27239,1.04164 0.94863,1.89389 1.50274,1.89389 1.25697,0 16.75926,15.66627 16.75926,16.93654 0,0.51078 0.9,1.21433 2,1.56346 1.1,0.34913 2.00706,1.16695 2.01569,1.81739 0.009,0.65043 2.03362,3.42962 4.5,6.17596 2.46637,2.74634 4.48431,5.43052 4.48431,5.96483 0,0.9047 0.81173,1.862 6.75,7.96046 1.2375,1.27089 2.25,2.83274 2.25,3.47078 0,0.63805 1.125,1.58781 2.5,2.11058 1.87566,0.71313 2.5,1.67676 2.5,3.85862 0,2.06711 0.57838,3.05937 2,3.43113 1.53195,0.40061 2,1.36401 2,4.11663 0,1.97649 -0.1882,3.59362 -0.41821,3.59362 -0.23002,0 -1.01752,0.17151 -1.75,0.38114 -0.73249,0.20962 -2.11929,0.17663 -3.08179,-0.0733 z m -81.1191,-99.09601 c -0.3068,-0.49641 -0.83976,-2.66575 -1.18436,-4.82075 -0.50993,-3.1889 -0.24118,-4.26692 1.4439,-5.7919 1.13875,-1.03055 2.36944,-3.49945 2.73488,-5.48644 0.36545,-1.98699 1.49925,-4.6859 2.51956,-5.99757 1.02032,-1.31167 1.85512,-3.14302 1.85512,-4.06966 0,-0.92665 1.125,-2.66298 2.5,-3.85853 1.375,-1.19555 2.5,-2.77055 2.5,-3.5 0,-0.72945 1.125,-2.30445 2.5,-3.5 1.375,-1.19555 2.5,-2.59637 2.5,-3.11295 0,-0.51657 0.9,-1.22487 2,-1.574 1.1,-0.34913 2,-1.1983 2,-1.88705 0,-1.54402 3.84812,-4.96593 7.99734,-7.11157 1.70806,-0.88327 3.33617,-2.20693 3.61804,-2.94145 0.28186,-0.73453 1.87506,-1.60802 3.54044,-1.94109 1.87605,-0.37521 3.22758,-1.36896 3.5527,-2.61222 0.40417,-1.54557 1.36174,-2.00662 4.16756,-2.00662 2.47938,0 4.01696,-0.59908 4.81425,-1.87574 0.64428,-1.03166 2.89002,-2.19473 4.99054,-2.58461 2.10052,-0.38988 4.60406,-1.41322 5.56342,-2.27408 1.12138,-1.00625 4.42469,-1.73723 9.25,-2.0469 L 756,275.43755 l 0,2.5748 c 0,3.33587 -3.38584,5.68821 -8.18732,5.68821 -2.71886,0 -4.03504,0.54696 -4.81268,2 -0.67695,1.26489 -2.09382,2 -3.85485,2 -1.72379,0 -3.61252,0.95233 -4.9582,2.5 -1.19555,1.375 -2.78195,2.5 -3.52535,2.5 -0.74339,0 -2.16611,0.9 -3.1616,2 -0.99549,1.1 -2.21427,2 -2.70842,2 -1.19332,0 -7.79151,5.29274 -7.79155,6.25 -7e-5,1.6678 3.55639,0.5911 6.1014,-1.84718 1.93264,-1.85158 3.31196,-2.40639 4.80472,-1.93261 2.78063,0.88254 2.84639,5.15617 0.0928,6.03013 -1.10059,0.34931 -2.46642,1.50463 -3.03519,2.56738 -0.56876,1.06276 -1.90277,1.93228 -2.96446,1.93228 -1.06168,0 -3.27117,1.2375 -4.90997,2.75 -4.96082,4.57851 -5.99474,5.31254 -9.61179,6.82383 -1.91264,0.79916 -3.47753,1.91109 -3.47753,2.47097 0,0.55989 -0.7875,1.30786 -1.75,1.66216 -2.42006,0.89085 -12.25,11.16985 -12.25,12.80961 0,0.73523 -0.72947,1.48228 -1.62105,1.66011 -0.89158,0.17782 -2.12908,1.89832 -2.75,3.82332 -1.10542,3.42706 -4.68153,5.34197 -5.99805,3.2118 z M 636.10435,301.96554 C 632.74894,301.55702 630,299.7279 630,297.90376 c 0,-1.11198 10.48507,-4.2032 14.2568,-4.2032 1.75682,0 4.29659,-1.5717 7.67571,-4.75 2.77757,-2.6125 6.19358,-5.56948 7.59112,-6.57106 2.4769,-1.77512 6.28653,-6.85633 9.63387,-12.84943 0.91162,-1.63218 2.37412,-3.75947 3.25,-4.7273 0.87587,-0.96783 1.5925,-3.04525 1.5925,-4.6165 0,-1.57124 0.85932,-3.78581 1.9096,-4.92126 1.14841,-1.24154 2.09371,-4.05749 2.37149,-7.06445 0.38162,-4.13107 1.17524,-5.77744 4.56666,-9.47359 3.97347,-4.33048 4.15251,-4.41046 5.59671,-2.5 2.12398,2.80969 2.19349,25.11778 0.0876,28.12431 -0.80735,1.15266 -1.76584,4.06529 -2.12997,6.47251 -0.36413,2.40722 -1.45185,5.27677 -2.41715,6.37677 -0.96531,1.1 -2.04327,2.95304 -2.39549,4.11787 -0.7233,2.39208 -8.8866,11.38213 -10.33541,11.38213 -0.51925,0 -1.75858,0.9 -2.75407,2 -0.99549,1.1 -2.30939,2 -2.9198,2 -0.6104,0 -2.77419,0.89205 -4.80842,1.98233 -2.03423,1.09028 -5.40257,2.19838 -7.48519,2.46243 -7.2376,0.91765 -13.80641,1.23122 -17.18224,0.82022 z M 723,223.06864 c 0,-2.53918 5.88354,-9.36808 8.0712,-9.36808 0.51084,0 0.9288,-0.9 0.9288,-2 0,-1.33333 0.66667,-2 2,-2 1.1,0 2,-0.46679 2,-1.0373 0,-0.57052 2.0663,-3.04552 4.59178,-5.5 8.6192,-8.37691 2.26198,-4.48898 -7.41902,4.5373 -5.30905,4.95 -10.20397,9 -10.87761,9 -0.67363,0 -1.70095,-0.88973 -2.28294,-1.97718 -0.85497,-1.59754 -0.66971,-2.21976 0.96482,-3.24055 2.57045,-1.60527 2.57914,-3.41425 0.023,-4.78227 -2.7007,-1.44537 -2.5171,-3.43116 0.5,-5.40804 1.375,-0.90094 2.5,-2.30734 2.5,-3.12533 0,-1.47137 16.04929,-17.74884 22.03574,-22.34904 2.63502,-2.02483 4.25331,-2.38732 10.7823,-2.41514 8.70493,-0.0371 11.72846,0.67337 12.60683,2.96237 1.05686,2.75413 -1.23355,4.05361 -8.69143,4.93114 -7.0566,0.83032 -7.1112,0.85792 -2.23344,1.12895 9.71183,0.53965 11.5,1.13073 11.5,3.80135 0,1.72779 -0.65389,2.5645 -2.25,2.87905 -1.2375,0.24388 -4.275,0.87342 -6.75,1.39896 l -4.5,0.95555 6.55,0.12009 c 6.71949,0.1232 8.95,1.19108 8.95,4.28491 0,2.12999 -2.90182,3.83518 -6.52653,3.83518 -1.46191,0 -3.80218,0.9 -5.2006,2 -1.39842,1.1 -3.59653,2 -4.88468,2 -1.35371,0 -2.99074,0.98998 -3.87916,2.34587 -0.84539,1.29024 -2.67268,2.8633 -4.06064,3.49569 -2.74551,1.25094 -4.68174,2.69715 -7.241,5.40844 -0.90853,0.9625 -2.21649,1.75 -2.90658,1.75 -0.69009,0 -1.99183,1.125 -2.89277,2.5 -0.90093,1.375 -2.20882,2.5 -2.90642,2.5 -0.6976,0 -1.50371,0.9 -1.79137,2 -0.38083,1.4563 -1.36401,2 -3.61663,2 -2.67458,0 -3.09365,-0.35653 -3.09365,-2.63192 z"
     id="path3049"
     inkscape:connector-curvature="0" />
</svg>
