<?xml version="1.0" encoding="UTF-8" standalone="no"?>
<!-- Created with Inkscape (http://www.inkscape.org/) -->

<svg
   xmlns:dc="http://purl.org/dc/elements/1.1/"
   xmlns:cc="http://creativecommons.org/ns#"
   xmlns:rdf="http://www.w3.org/1999/02/22-rdf-syntax-ns#"
   xmlns:svg="http://www.w3.org/2000/svg"
   xmlns="http://www.w3.org/2000/svg"
   xmlns:sodipodi="http://sodipodi.sourceforge.net/DTD/sodipodi-0.dtd"
   xmlns:inkscape="http://www.inkscape.org/namespaces/inkscape"
   id="svg3574"
   version="1.1"
   inkscape:version="0.48.3.1 r9886"
   width="1000"
   height="1000"
   sodipodi:docname="doge.jpeg">
  <metadata
     id="metadata3580">
    <rdf:RDF>
      <cc:Work
         rdf:about="">
        <dc:format>image/svg+xml</dc:format>
        <dc:type
           rdf:resource="http://purl.org/dc/dcmitype/StillImage" />
        <dc:title></dc:title>
      </cc:Work>
    </rdf:RDF>
  </metadata>
  <defs
     id="defs3578" />
  <sodipodi:namedview
     pagecolor="#ffffff"
     bordercolor="#666666"
     borderopacity="1"
     objecttolerance="10"
     gridtolerance="10"
     guidetolerance="10"
     inkscape:pageopacity="0"
     inkscape:pageshadow="2"
     inkscape:window-width="1020"
     inkscape:window-height="729"
     id="namedview3576"
     showgrid="false"
     inkscape:document-units="cm"
     showguides="true"
     inkscape:guide-bbox="true"
     inkscape:zoom="0.50795312"
     inkscape:cx="500"
     inkscape:cy="500"
     inkscape:window-x="0"
     inkscape:window-y="18"
     inkscape:window-maximized="0"
     inkscape:current-layer="svg3574">
    <sodipodi:guide
       orientation="1,0"
       position="0,935.12566"
       id="guide3586" />
    <sodipodi:guide
       orientation="1,0"
       position="708.72681,978.43674"
       id="guide3588" />
    <sodipodi:guide
       orientation="0,1"
       position="-216.55542,-1.9686856"
       id="guide3590" />
    <sodipodi:guide
       orientation="0,1"
       position="423.2674,752.0379"
       id="guide3592" />
  </sodipodi:namedview>
  <path
     style="fill:#000000"
     d="m 214.75396,1002.0419 c -3.13554,-0.7879 -8.4802,-1.7404 -11.87703,-2.11679 -3.39683,-0.37639 -7.45878,-1.36114 -9.02654,-2.18832 -1.56777,-0.82719 -4.83223,-1.79209 -7.25433,-2.14424 -2.5026,-0.36385 -5.12999,-1.44264 -6.08578,-2.49879 -0.92507,-1.02218 -2.79149,-1.86011 -4.14762,-1.86207 -1.35612,-0.002 -3.86563,-0.85709 -5.57668,-1.90032 -1.71104,-1.04322 -3.923,-1.89677 -4.91544,-1.89677 -0.99246,0 -3.07482,-1.06894 -4.62747,-2.37541 -1.55266,-1.30647 -3.65706,-2.37541 -4.67646,-2.37541 -1.01939,0 -2.59253,-0.81669 -3.49587,-1.81486 -0.90334,-0.99819 -2.76767,-2.0973 -4.14296,-2.44247 -1.37529,-0.34518 -3.07836,-1.45256 -3.78461,-2.46086 -0.70623,-1.0083 -2.08442,-1.83327 -3.06264,-1.83327 -0.97822,0 -2.35241,-0.57383 -3.05376,-1.27517 -0.70134,-0.70136 -2.33529,-1.83814 -3.63098,-2.5262 -1.29569,-0.68806 -2.91451,-2.03831 -3.59737,-3.00055 -0.68287,-0.96224 -2.07248,-1.74954 -3.08803,-1.74954 -1.01555,0 -1.84645,-0.41659 -1.84645,-0.92576 0,-0.50917 -1.17582,-1.55137 -2.61294,-2.316 -2.31015,-1.22913 -8.33977,-6.36424 -14.04832,-11.9642 -1.06355,-1.04332 -2.42435,-1.89696 -3.02399,-1.89696 -0.59965,0 -1.36167,-0.85515 -1.6934,-1.90032 -0.33173,-1.04518 -1.06166,-1.90033 -1.62208,-1.90033 -0.56041,0 -1.56606,-0.74825 -2.23478,-1.66278 -0.66872,-0.91453 -1.784786,-1.66279 -2.480153,-1.66279 -0.695357,0 -1.398278,-0.94182 -1.562038,-2.09294 -0.163751,-1.15112 -1.040437,-2.32867 -1.948175,-2.61677 -0.907747,-0.28811 -2.697843,-1.80896 -3.977997,-3.37968 -1.28015,-1.57072 -6.068807,-6.7252 -10.641463,-11.45441 -4.572656,-4.72921 -8.31392,-8.92627 -8.31392,-9.32681 0,-0.40053 -1.068933,-1.73245 -2.375406,-2.95983 -1.306473,-1.22737 -2.375406,-2.78335 -2.375406,-3.45776 0,-0.67441 -0.875612,-1.6948 -1.945809,-2.26755 -1.070187,-0.57275 -2.34233,-2.0843 -2.82697,-3.359 -0.48464,-1.2747 -1.533106,-2.31763 -2.329922,-2.31763 -0.796815,0 -1.44876,-0.76012 -1.44876,-1.68916 0,-0.92904 -0.855146,-2.42136 -1.900324,-3.31627 -1.045179,-0.89491 -1.900325,-2.25761 -1.900325,-3.02822 0,-0.77061 -0.855146,-1.85878 -1.900325,-2.41814 -1.094416,-0.58571 -1.900324,-1.98947 -1.900324,-3.31004 0,-1.26116 -1.068933,-3.44642 -2.375406,-4.85613 -1.313923,-1.41775 -2.375406,-3.70907 -2.375406,-5.12759 0,-1.41046 -0.80607,-3.29395 -1.791265,-4.18555 -0.985204,-0.89159 -2.050384,-2.91662 -2.367073,-4.50006 -0.316689,-1.58345 -1.434688,-3.9709 -2.484456,-5.30546 -1.049768,-1.33456 -1.908667,-3.58527 -1.908667,-5.00156 0,-1.4163 -0.80607,-3.30457 -1.791265,-4.19616 -0.985204,-0.8916 -2.050384,-2.91662 -2.367073,-4.50007 -0.316689,-1.58344 -1.434688,-3.9709 -2.484456,-5.30546 -1.049768,-1.33456 -1.911489,-3.11706 -1.914928,-3.96112 -0.0038,-0.84406 -0.855774,-2.81736 -1.894063,-4.38513 -1.076278,-1.62513 -1.890491,-4.45798 -1.894063,-6.5899 -0.0038,-2.47681 -0.675594,-4.45188 -1.988624,-5.84953 -1.418735,-1.51018 -2.124705,-3.82386 -2.48304,-8.13762 -0.294712,-3.54796 -1.299005,-7.39553 -2.441337,-9.35307 -1.627125,-2.78827 -1.913428,-4.78393 -1.772063,-12.35211 0.117545,-6.29328 -0.315549,-10.49803 -1.43027,-13.88611 -1.45848,-4.4329 -1.469654,-5.18371 -0.127274,-8.55146 1.240836,-3.11302 2.009242,-3.78009 4.90069,-4.25443 1.886006,-0.3094 4.178767,-1.2136 5.095008,-2.00932 2.298586,-1.99625 8.409821,-2.8343 9.66241,-1.32502 0.543388,0.65475 1.344964,9.56924 1.781279,19.80997 0.531112,12.46573 1.186772,19.09363 1.983815,20.05401 0.654786,0.78896 1.587912,4.24062 2.073616,7.67033 0.485713,3.42972 1.740317,7.83522 2.788023,9.79001 1.047706,1.95479 1.904914,4.94648 1.904914,6.64821 0,2.06501 0.632019,3.48875 1.900324,4.28081 1.156281,0.72212 1.900325,2.21581 1.900325,3.81499 0,1.61922 0.911947,3.42113 2.375406,4.6936 1.326189,1.15311 2.375406,3.0943 2.375406,4.39483 0,1.2812 0.809025,3.66264 1.79783,5.29209 0.988806,1.62945 2.083858,4.31654 2.433461,5.97129 0.349603,1.65476 1.243202,3.24179 1.985782,3.52675 0.742581,0.28495 1.623096,2.2251 1.956717,4.31142 0.333621,2.08633 1.410221,4.52061 2.392452,5.40952 0.98223,0.8889 1.785868,2.4339 1.785868,3.43333 0,0.99944 1.924079,4.17916 4.27573,7.06605 2.351652,2.88691 4.275731,6.04451 4.275731,7.0169 0,0.97238 2.030972,3.85722 4.513271,6.41074 5.790337,5.95647 12.588459,13.73196 12.593752,14.40434 0.0019,0.28695 1.92633,2.64165 4.27573,5.23268 2.34939,2.59103 4.271626,5.04958 4.271626,5.46343 0,0.41386 0.61255,0.75247 1.36121,0.75247 0.74867,0 1.63162,0.85195 1.96211,1.89324 0.50877,1.60297 3.56937,4.4945 14.2024,13.41785 0.86297,0.72421 2.59795,2.27879 3.8555,3.45462 1.25756,1.17582 2.61155,2.13786 3.00887,2.13786 0.73762,0 3.23947,2.2315 7.72327,6.88868 1.38361,1.43712 3.07523,2.61295 3.75914,2.61295 0.68391,0 1.48959,0.64135 1.7904,1.42524 0.31175,0.81242 1.72885,1.42524 3.29575,1.42524 1.82718,0 2.74883,0.4847 2.74883,1.44562 0,0.79508 1.17582,1.96432 2.61294,2.59831 1.43712,0.63399 3.17166,1.90755 3.85453,2.83012 0.68287,0.92258 1.82588,1.67741 2.54005,1.67741 0.71415,0 2.56882,1.06894 4.12147,2.37541 1.55266,1.30647 3.55471,2.3754 4.44901,2.3754 0.8943,0 2.89635,1.06894 4.44901,2.37541 1.55265,1.30647 3.57908,2.37541 4.50317,2.37541 0.92409,0 2.45405,0.85514 3.39993,1.90032 1.05914,1.17033 2.92647,1.90033 4.86106,1.90033 1.83084,0 3.8504,0.74199 4.84108,1.77862 0.95541,0.99971 3.78034,2.07239 6.45062,2.44945 2.61295,0.36895 5.71689,1.29136 6.89765,2.04981 1.18076,0.75844 5.67028,1.80089 9.97671,2.31655 4.30642,0.51567 9.32636,1.58688 11.15543,2.38048 2.77884,1.20569 7.77743,1.39076 30.40519,1.12576 17.13492,-0.20067 28.47538,-0.72981 30.88028,-1.44083 2.09035,-0.61803 9.99117,-1.61314 17.55737,-2.21135 8.05996,-0.63724 14.55535,-1.61092 15.68524,-2.35126 1.06068,-0.69497 5.55776,-1.56626 9.99352,-1.9362 5.13293,-0.42807 9.1027,-1.30542 10.9193,-2.41326 1.97759,-1.20601 4.71686,-1.74176 8.91821,-1.74422 4.46968,-0.003 6.90073,-0.52074 9.24691,-1.97076 1.76573,-1.09128 5.62331,-2.2048 8.66361,-2.5008 3.01434,-0.29348 6.1517,-1.11496 6.97191,-1.82552 0.82022,-0.71056 3.70607,-1.71194 6.413,-2.2253 2.70694,-0.51336 6.09779,-1.52639 7.53525,-2.25119 1.43744,-0.72479 4.53761,-1.61266 6.88926,-1.97305 2.35166,-0.36039 5.13088,-1.21412 6.17606,-1.89718 1.04518,-0.68306 4.31254,-1.94264 7.2608,-2.79907 2.94827,-0.85644 5.61121,-2.21054 5.91765,-3.00913 0.39667,-1.03371 1.26947,-1.27319 3.02986,-0.83136 1.74654,0.43835 3.26726,0.0332 5.17829,-1.37972 1.48808,-1.10019 4.46223,-2.28124 6.60923,-2.62456 2.37269,-0.3794 4.27585,-1.3197 4.85271,-2.39758 0.63124,-1.17947 1.99614,-1.77337 4.07559,-1.77337 2.10642,0 3.85461,-0.77502 5.35809,-2.3754 1.22737,-1.30648 2.94677,-2.37541 3.82089,-2.37541 0.87413,0 2.57531,-0.85514 3.78041,-1.90032 1.2051,-1.04518 2.71467,-1.90033 3.35461,-1.90033 0.63994,0 1.7163,-0.66606 2.39192,-1.48014 0.67563,-0.81407 2.65206,-2.07498 4.39207,-2.802 1.74003,-0.72703 3.16367,-1.77126 3.16367,-2.32051 0,-2.13089 2.90289,-0.81841 7.11406,3.21646 2.4196,2.31832 4.82937,4.35848 5.35504,4.53371 0.52567,0.17522 1.19357,2.09157 1.48422,4.25854 0.57661,4.29894 1.12373,3.77892 -10.3864,9.87195 -1.55916,0.82536 -3.23459,2.21498 -3.72317,3.08803 -0.48858,0.87306 -1.8706,1.58737 -3.07114,1.58737 -1.20055,0 -3.16881,0.85515 -4.37391,1.90033 -1.2051,1.04517 -2.89774,1.90032 -3.76143,1.90032 -0.86369,0 -3.0192,1.06893 -4.79003,2.37541 -1.77082,1.30647 -4.31648,2.3754 -5.65701,2.3754 -1.34367,0 -2.93061,0.78987 -3.53665,1.76029 -0.6884,1.1023 -2.71939,1.98235 -5.43339,2.35434 -2.42789,0.33279 -5.17912,1.43911 -6.25545,2.51544 -1.07447,1.07447 -3.17786,1.92139 -4.77188,1.92139 -1.58361,0 -3.69508,0.84459 -4.75081,1.90033 -1.31987,1.31987 -3.16721,1.90032 -6.04792,1.90032 -2.71427,0 -4.98575,0.65929 -6.57294,1.90779 -1.33396,1.04928 -4.49152,2.18336 -7.01682,2.52019 -2.5253,0.33682 -5.61116,1.40239 -6.85746,2.36794 -1.47213,1.1405 -3.84063,1.75554 -6.76054,1.75554 -2.95345,0 -5.2715,0.61033 -6.76054,1.78002 -1.2463,0.97901 -4.61766,2.09538 -7.4919,2.48082 -2.87424,0.38545 -6.7224,1.33708 -8.55146,2.11475 -1.82906,0.77767 -6.40538,1.77615 -10.16961,2.21884 -3.76423,0.4427 -7.82618,1.42209 -9.02655,2.17643 -1.20036,0.75435 -5.30963,1.66109 -9.13167,2.01497 -3.82206,0.35389 -8.73915,1.28408 -10.92687,2.0671 -2.18773,0.78301 -9.41828,1.76192 -16.0679,2.17535 -7.97169,0.49564 -12.63324,1.20274 -13.68433,2.07594 -2.45748,2.0414 -64.11354,2.2586 -72.09217,0.2539 z M 179.12287,881.04395 c -3.91942,-0.34395 -8.71589,-1.346 -10.65881,-2.22678 -1.94293,-0.88077 -4.94227,-1.6014 -6.66521,-1.6014 -1.72293,0 -4.7481,-0.86586 -6.72259,-1.92412 -1.97449,-1.05826 -5.60253,-2.19778 -8.06231,-2.53228 -2.45978,-0.33448 -4.92586,-1.22228 -5.48018,-1.97286 -0.84948,-1.15026 -2.55604,-1.57638 -8.25623,-2.06155 -0.39194,-0.0334 -0.71262,-0.88699 -0.71262,-1.89695 0,-1.0167 -0.86933,-2.11221 -1.94773,-2.45448 -1.07125,-0.34 -3.40925,-2.0797 -5.19556,-3.86601 -1.7863,-1.7863 -4.18822,-3.39134 -5.33759,-3.56675 -1.14936,-0.17541 -2.19364,-1.02666 -2.32059,-1.89167 -0.12696,-0.86502 -1.91155,-3.18759 -3.96575,-5.16127 -6.72438,-6.46077 -7.47788,-9.79693 -3.14938,-13.94389 2.37637,-2.27672 3.28716,-2.57701 6.17369,-2.03549 2.44586,0.45885 3.78925,1.4149 4.83807,3.44311 0.79861,1.54433 1.76171,2.81015 2.14023,2.81292 0.37853,0.003 3.89502,2.99352 7.81444,6.64609 3.91942,3.65258 7.56566,6.64332 8.10276,6.64609 0.5371,0.003 1.70873,0.86019 2.60364,1.90537 0.96686,1.12921 2.80293,1.90033 4.52475,1.90033 1.5937,0 4.48401,0.79634 6.4229,1.76966 1.93889,0.9733 5.87691,2.0678 8.75115,2.4322 2.87424,0.36441 6.08104,1.21072 7.12622,1.8807 3.05699,1.95957 6.13655,2.40899 17.15981,2.50425 5.7172,0.0494 12.7408,0.54055 15.60802,1.09143 3.75507,0.72146 11.19597,0.665 26.60454,-0.20188 18.00748,-1.01312 21.69204,-1.46991 23.29175,-2.88758 1.04518,-0.92624 3.47577,-1.97483 5.40132,-2.3302 1.92555,-0.35536 4.23657,-1.45892 5.13562,-2.45235 0.89903,-0.99343 2.35723,-1.80623 3.24041,-1.80623 0.88319,0 2.37969,-0.85515 3.32557,-1.90033 0.94588,-1.04518 2.47584,-1.90032 3.39993,-1.90032 0.92409,0 2.95052,-1.06894 4.50317,-2.37541 1.55266,-1.30647 3.50592,-2.3754 4.34058,-2.3754 0.83467,0 2.05162,-0.85515 2.70434,-1.90033 0.71708,-1.14821 2.21581,-1.90032 3.7868,-1.90032 1.72487,0 3.12391,-0.79956 4.15645,-2.37541 0.85603,-1.30647 2.34735,-2.37541 3.31404,-2.37541 0.96669,0 2.21528,-0.85514 2.77464,-1.90032 0.66595,-1.24433 1.98947,-1.90032 3.83408,-1.90032 3.20258,0 3.76984,-1.46987 0.91673,-2.37541 -1.04518,-0.33173 -1.90032,-1.02595 -1.90032,-1.54272 0,-0.51677 -2.17256,-3.14667 -4.82791,-5.84424 l -4.8279,-4.90465 -1.68497,2.2338 c -1.27183,1.68612 -2.89177,2.34977 -6.607,2.70676 -3.50933,0.3372 -5.19489,0.98277 -5.87268,2.24921 -0.73292,1.36948 -2.03311,1.77627 -5.6773,1.77627 -3.55087,0 -5.13145,0.47273 -6.3538,1.90033 -1.1878,1.38725 -2.80292,1.90032 -5.98215,1.90032 -3.15336,0 -5.24345,0.65544 -7.57473,2.37541 -2.29704,1.6947 -4.43012,2.3754 -7.44361,2.3754 -2.92686,0 -4.59672,0.5106 -5.43794,1.66279 -1.00623,1.37817 -3.05787,1.71646 -11.98627,1.97635 -9.80023,0.28529 -10.97786,0.13525 -13.05101,-1.66278 -2.57423,-2.23262 -0.31545,-2.10497 -40.98109,-2.31579 -22.21329,-0.11515 -26.51924,-0.36518 -28.50487,-1.65508 -1.28643,-0.8357 -3.88738,-1.80679 -5.77991,-2.15801 -1.89251,-0.35121 -4.45626,-1.51915 -5.6972,-2.59541 -2.20441,-1.91188 -4.12789,-2.0177 -10.03472,-0.55208 -1.76479,0.43788 -2.04494,0.13851 -1.90033,-2.03074 0.13303,-1.99537 -0.30294,-2.61154 -2.02054,-2.85579 -1.20459,-0.1713 -2.74043,0.14524 -3.41299,0.70341 -1.61211,1.33794 -2.7528,0.13768 -1.40852,-1.48208 1.41551,-1.70558 0.35374,-4.13771 -1.80636,-4.13771 -1.88341,0 -5.90948,-4.75331 -5.90948,-6.97693 0,-0.74409 -0.85515,-1.57652 -1.90033,-1.84984 -1.71507,-0.4485 -1.90033,-1.29603 -1.90033,-8.69395 0,-8.0104 0.0716,-8.26856 3.14295,-11.33995 2.82161,-2.82161 3.8659,-3.2052 10.21424,-3.75191 3.88923,-0.33494 8.14024,-0.83182 9.44672,-1.10417 1.30647,-0.27234 4.01164,-0.7582 6.01149,-1.07969 4.38304,-0.70459 5.53555,-2.87577 2.7317,-5.14619 -1.80475,-1.4614 -2.055,-2.75708 -2.29631,-11.88927 l -0.27083,-10.24913 -2.85048,-0.94008 c -1.56777,-0.51704 -3.40921,-1.72765 -4.09207,-2.69024 -0.68287,-0.96259 -1.84366,-1.75017 -2.57952,-1.75017 -0.73586,0 -1.7801,-0.82619 -2.32051,-1.83598 -0.54043,-1.00979 -1.83819,-2.10753 -2.88393,-2.43943 -1.04573,-0.3319 -1.90133,-1.06647 -1.90133,-1.63237 0,-0.5659 -1.92408,-2.84636 -4.27573,-5.06771 -2.35165,-2.22135 -4.27573,-4.33442 -4.27573,-4.69571 0,-0.3613 -0.85515,-1.74405 -1.90033,-3.07278 -1.04518,-1.32873 -1.90033,-3.23279 -1.90033,-4.23124 0,-0.99846 -1.10699,-2.92238 -2.459987,-4.27537 -2.457842,-2.45785 -2.459695,-2.47209 -2.119195,-16.34711 0.297895,-12.13873 0.60761,-14.39077 2.459992,-17.88746 1.16555,-2.20019 2.11919,-4.85748 2.11919,-5.90509 0,-1.04761 0.85515,-2.36241 1.90033,-2.92177 1.09844,-0.58786 1.90033,-1.98947 1.90033,-3.32154 0,-1.26747 0.66815,-2.85583 1.48476,-3.52967 0.81662,-0.67384 2.59759,-2.40099 3.95771,-3.83811 1.36012,-1.43712 3.192,-2.61295 4.07083,-2.61295 0.87884,0 2.58387,-0.85514 3.78897,-1.90032 1.60677,-1.39354 3.5549,-1.90033 7.30503,-1.90033 2.95244,0 6.03614,-0.60424 7.29578,-1.42959 2.66736,-1.74772 11.52804,-2.13037 15.09177,-0.65175 2.38626,0.99009 2.61173,1.51895 2.59894,6.09602 -0.0257,9.19182 -2.77154,11.41875 -11.72498,9.50917 -3.2729,-0.69804 -4.672,-0.52895 -7.30427,0.88274 -1.79075,0.9604 -4.63276,1.74617 -6.31557,1.74617 -1.96282,0 -3.87721,0.81754 -5.3402,2.28053 -3.99875,3.99874 -3.90286,5.1632 0.77914,9.46201 3.74116,3.43497 4.37572,4.58486 4.88006,8.84318 0.78913,6.66303 -0.21315,11.46434 -2.54789,12.20536 -1.02702,0.32596 -1.86732,1.19422 -1.86732,1.92948 0,0.73524 -1.28272,2.00013 -2.85049,2.81085 -2.84619,1.47182 -3.22661,2.76114 -2.04315,6.92473 0.76814,2.70244 13.34293,15.40409 15.25025,15.40409 0.76887,0 2.377,0.91977 3.57362,2.04394 1.83968,1.72829 3.22117,2.02463 8.94553,1.91893 4.77473,-0.0882 7.65183,-0.65429 9.76259,-1.92094 1.64601,-0.98776 4.65512,-2.04776 6.68693,-2.35555 2.0318,-0.30779 4.507,-1.43207 5.50044,-2.49841 0.99345,-1.06633 2.68992,-1.93878 3.76995,-1.93878 1.08003,0 3.23404,-1.06894 4.7867,-2.37541 2.32212,-1.95394 2.51505,-2.39463 1.08733,-2.48374 -5.15519,-0.32178 -7.35651,-0.9047 -8.98629,-2.37964 -0.99361,-0.89919 -4.14398,-1.9521 -7.00084,-2.33978 -2.85686,-0.38769 -5.84551,-1.35611 -6.64145,-2.15205 -0.79595,-0.79594 -2.2988,-1.71746 -3.33967,-2.04782 -2.55087,-0.80961 -3.22352,-4.1105 -2.47619,-12.15145 0.4767,-5.12901 1.2196,-7.53823 3.11969,-10.11702 3.8687,-5.25058 4.90947,-5.76024 11.76299,-5.76024 5.62328,0 6.74687,0.32424 9.95295,2.87212 3.59728,2.85875 8.99934,12.01081 8.99934,15.2465 0,1.34279 1.0783,1.83278 5.15401,2.34201 2.8347,0.35417 5.56546,0.38966 6.06834,0.0789 0.50288,-0.3108 1.21581,-2.17321 1.58431,-4.13869 0.36848,-1.96548 1.33612,-4.70177 2.15033,-6.08064 1.87051,-3.16774 1.17168,-5.00014 -2.53215,-6.63962 -1.60777,-0.71167 -2.92322,-1.78869 -2.92322,-2.39339 0,-1.11829 -4.97263,-4.51746 -9.77712,-6.6834 -1.45801,-0.65729 -3.30573,-1.84988 -4.10606,-2.65022 -0.80033,-0.80034 -2.46571,-1.45515 -3.70084,-1.45515 -2.88944,0 -7.35213,-1.69763 -8.27402,-3.14747 -1.15693,-1.81949 -0.8554,-6.15456 0.68442,-9.83987 l 1.43093,-3.42468 6.09959,0.48962 c 3.67766,0.2952 7.16522,1.19961 8.78333,2.27772 1.47604,0.98345 5.17014,3.06622 8.2091,4.62836 3.03895,1.56215 7.41441,4.55056 9.72323,6.64092 2.30881,2.09035 5.53977,4.86958 7.17989,6.17605 4.26713,3.39906 5.47757,4.64458 6.65886,6.85184 1.24451,2.32541 0.3819,8.88154 -1.55876,11.84697 -0.74541,1.13904 -1.63312,3.80841 -1.97269,5.93194 -0.33956,2.12353 -1.41836,4.7845 -2.39732,5.91325 -0.97897,1.12876 -1.77994,2.63105 -1.77994,3.33843 0,0.70738 -1.06894,2.21557 -2.37541,3.35153 -1.30647,1.13597 -2.3754,2.64306 -2.3754,3.34911 0,0.70604 -0.57794,1.50549 -1.2843,1.77654 -0.70636,0.27106 -2.7099,2.39551 -4.45232,4.72099 -1.74242,2.32549 -3.56617,4.22817 -4.05279,4.22817 -0.48662,0 -2.5573,1.72344 -4.60152,3.82986 -2.0442,2.10643 -4.96533,4.07957 -6.49137,4.38478 -1.52605,0.30521 -3.50411,1.361 -4.3957,2.3462 -0.89159,0.9852 -2.35229,1.79127 -3.246,1.79127 -0.8937,0 -2.71207,0.85514 -4.04079,1.90032 -1.32873,1.04518 -3.11018,1.90033 -3.95876,1.90033 -0.84859,0 -4.20174,0.92956 -7.45144,2.0657 -3.2497,1.13612 -8.0464,2.31195 -10.65935,2.61294 l -4.75081,0.54725 0.31412,7.81795 c 0.40845,10.16516 1.19847,13.00984 3.71586,13.37979 1.10094,0.16179 2.68542,1.33762 3.52105,2.61295 0.91376,1.39456 2.43032,2.31877 3.80495,2.31877 1.2571,0 2.97676,0.69113 3.82149,1.53584 0.84471,0.84472 3.30029,1.93229 5.45683,2.41684 2.15656,0.48455 4.41721,1.55957 5.02367,2.38895 0.67366,0.9213 3.1054,1.69656 6.25051,1.99269 2.92198,0.27514 6.12764,1.24855 7.41386,2.25126 1.2874,1.00364 3.80176,1.76653 5.82216,1.76653 2.10454,0 4.07255,0.6222 4.82117,1.52423 1.39336,1.67888 3.55483,2.6389 8.23177,3.6561 2.88251,0.62694 3.08803,0.50225 3.08803,-1.87341 0,-1.78458 -1.27762,-3.75188 -4.27573,-6.58387 -2.35165,-2.22134 -4.27573,-4.50181 -4.27573,-5.06771 0,-0.56589 -0.81565,-1.28778 -1.81255,-1.60418 -2.10394,-0.66777 -3.11448,-2.73879 -2.33171,-4.77867 0.38094,-0.99271 1.92969,-1.42525 5.10313,-1.42525 4.20819,0 4.6321,0.21773 5.54989,2.85049 0.54653,1.56777 1.46532,2.85049 2.04176,2.85049 0.57643,0 1.67335,1.4965 2.43758,3.32556 0.76423,1.82907 1.7354,3.32557 2.15815,3.32557 0.42274,0 2.00819,1.81719 3.52322,4.03819 2.66613,3.9085 2.75117,4.38911 2.64806,14.96506 -0.0586,6.00978 -0.26017,11.76563 -0.44795,12.79079 -0.23137,1.26314 0.2711,1.98526 1.55891,2.2404 1.04518,0.20706 2.66523,1.18549 3.60013,2.17426 2.18014,2.30584 6.41357,2.29091 10.75868,-0.0379 1.88378,-1.00964 6.26485,-2.12883 9.73572,-2.48708 3.47087,-0.35826 7.05458,-1.30482 7.96382,-2.10349 0.90924,-0.79865 3.7767,-1.65616 6.37213,-1.90554 2.95822,-0.28425 5.32118,-1.11887 6.33295,-2.23686 1.12762,-1.24601 2.92959,-1.7878 5.97998,-1.79796 2.4013,-0.008 5.00736,-0.42903 5.79125,-0.93562 2.79737,-1.8078 -8.02751,-0.9905 -13.81029,1.0427 -3.11742,1.09607 -7.9128,2.22482 -10.65639,2.50833 -2.7436,0.28351 -4.98835,0.83137 -4.98835,1.21744 0,0.38608 -1.25121,1.22022 -2.78045,1.85365 -3.18075,1.3175 -6.72118,0.5483 -6.72118,-1.46028 0,-0.74866 -0.62405,-1.36121 -1.38679,-1.36121 -0.76273,0 -2.36613,-1.0459 -3.56311,-2.32422 -1.63882,-1.7502 -3.34964,-2.39553 -6.92713,-2.61294 -4.3616,-0.26508 -4.77493,-0.49756 -5.04529,-2.83777 -0.39536,-3.42221 2.53123,-4.92358 8.48275,-4.35171 3.84704,0.36965 5.20188,1.07564 8.41187,4.3833 2.10442,2.16848 4.0405,3.94269 4.30238,3.94269 0.26187,0 1.33128,-0.85514 2.37646,-1.90032 1.37736,-1.37737 3.1672,-1.90033 6.50387,-1.90033 3.39685,0 5.05434,-0.49812 6.32332,-1.90032 1.43525,-1.58593 2.91369,-1.89763 8.93627,-1.88404 5.57397,0.0125 8.23534,-0.47401 11.69285,-2.13786 4.75819,-2.28979 5.73055,-3.5794 2.69881,-3.5794 -1.01825,0 -3.00477,-1.06893 -4.41447,-2.37541 -1.40971,-1.30647 -3.07576,-2.3754 -3.70235,-2.3754 -0.62657,0 -1.91312,-0.85515 -2.859,-1.90033 -0.97654,-1.07906 -2.92647,-1.90032 -4.51195,-1.90032 -1.97139,0 -2.93493,-0.5459 -3.27779,-1.85703 -0.35314,-1.35037 -1.63226,-2.02897 -4.6883,-2.48725 -2.75222,-0.41272 -4.54534,-1.27054 -5.1956,-2.48554 -0.75009,-1.40158 -1.8059,-1.78527 -4.31714,-1.56892 -2.47509,0.21324 -3.7316,-0.22797 -4.91915,-1.72733 -1.05559,-1.33276 -3.20148,-2.2377 -6.34575,-2.67603 -2.61295,-0.36426 -5.60596,-1.43167 -6.65114,-2.37202 -1.19241,-1.07282 -3.93007,-1.86768 -7.34903,-2.13375 -2.99679,-0.23322 -6.20359,-1.08038 -7.12622,-1.8826 -0.92263,-0.8022 -4.00334,-1.71907 -6.84604,-2.03748 -2.84269,-0.31841 -5.83571,-1.25841 -6.65113,-2.0889 -1.34553,-1.37035 -1.27521,-1.68 0.76051,-3.34899 3.27147,-2.68211 14.31393,-2.64172 16.76013,0.0613 1.26172,1.39419 2.92647,1.90032 6.25041,1.90032 3.48249,0 5.20383,0.56645 7.44046,2.44844 1.80412,1.51807 3.90784,2.38243 5.53634,2.27472 4.61733,-0.30538 5.84088,-0.0116 7.57785,1.8198 0.9349,0.98568 3.4751,2.08511 5.64491,2.44319 2.76462,0.45624 4.08849,1.19939 4.42432,2.48359 0.35936,1.37419 1.31974,1.83253 3.83986,1.83253 2.22759,0 3.78806,0.61023 4.62838,1.80997 0.69727,0.99547 2.69113,2.03428 4.43081,2.30845 1.73968,0.27418 3.78313,1.38378 4.54099,2.46578 0.75785,1.082 2.2052,1.96726 3.21631,1.96726 1.01112,0 2.37245,0.85515 3.02517,1.90033 0.65272,1.04518 2.10368,1.90032 3.22435,1.90032 1.12491,0 2.73471,1.06398 3.59399,2.37541 0.85603,1.30647 2.032,2.3754 2.61326,2.3754 0.58127,0 2.03148,1.05164 3.22269,2.33699 3.19897,3.45174 6.9642,4.13399 8.87236,1.60765 1.79942,-2.38238 5.5437,-3.2035 15.30918,-3.35731 7.02335,-0.11062 7.13039,-0.0761 7.41614,2.38949 0.24071,2.07715 -0.23259,2.68388 -2.7888,3.57498 -1.69328,0.59029 -3.82314,1.74694 -4.73299,2.57035 -0.93235,0.84376 -4.17182,1.72539 -7.42307,2.02021 l -5.7688,0.52309 4.27336,3.83995 c 2.35034,2.11197 4.27989,4.29744 4.28789,4.8566 0.008,0.55916 0.43557,1.65802 0.95016,2.4419 0.71829,1.09418 1.11212,1.15268 1.69547,0.25185 0.41792,-0.64537 2.05823,-1.43307 3.64512,-1.75045 3.42575,-0.68515 5.86044,1.27937 6.68306,5.39247 0.29862,1.49306 1.13277,3.20417 1.85366,3.80246 2.11727,1.75717 1.61726,4.63965 -0.82712,4.7683 -1.17583,0.0618 -2.45855,0.0618 -2.85049,0 -1.26999,-0.20052 -0.75376,2.47113 0.71262,3.68813 0.8697,0.72178 1.42525,2.80416 1.42525,5.34223 0,2.28767 0.42757,4.15939 0.95016,4.15939 1.37803,0 1.16862,3.56781 -0.23754,4.04719 -0.65324,0.2227 -2.7911,-0.4262 -4.75081,-1.44199 -3.19974,-1.65856 -3.56311,-2.22775 -3.56311,-5.58144 0,-4.56565 -2.42704,-6.10432 -4.56048,-2.89118 -0.75475,1.13673 -2.14247,2.06677 -3.08382,2.06677 -0.94133,0 -2.98188,1.06894 -4.53453,2.37541 -1.55266,1.30647 -3.36678,2.3754 -4.03139,2.3754 -0.6646,0 -1.8856,0.65376 -2.71332,1.45279 -2.6725,2.57987 -10.0116,7.06359 -11.59106,7.08138 -0.84406,0.01 -2.62179,0.87244 -3.95052,1.91762 -1.32872,1.04518 -3.07243,1.90033 -3.87491,1.90033 -0.80247,0 -2.01777,0.79769 -2.70066,1.77267 -0.68289,0.97496 -2.73811,2.09961 -4.56714,2.49922 -1.82905,0.39961 -4.34524,1.52599 -5.59154,2.50307 -1.2463,0.97707 -3.17037,1.77809 -4.27573,1.78005 -1.10535,0.002 -3.50623,0.94053 -5.33529,2.08572 -3.23472,2.02529 -4.18208,2.08602 -34.68093,2.22323 -17.24544,0.0776 -34.56215,-0.14036 -38.48157,-0.48432 z M 53.373622,827.01989 c -2.087602,-2.30677 -1.956413,-5.79397 0.327815,-8.71419 1.495309,-1.91164 1.862195,-3.8993 1.879193,-10.18082 0.01796,-6.63367 0.287348,-7.94788 1.794496,-8.75448 1.065379,-0.57017 2.016292,-2.46824 2.381838,-4.75425 0.383096,-2.39574 1.30997,-4.18061 2.502367,-4.81876 1.117657,-0.59815 1.893892,-1.98873 1.893892,-3.39277 0,-1.59806 1.559767,-3.91452 4.750812,-7.05557 2.612946,-2.57202 4.750811,-5.12071 4.750811,-5.66377 0,-1.08847 2.799796,-1.31179 5.148179,-0.41063 2.003874,0.76896 1.912135,4.69993 -0.159827,6.8485 -3.732019,3.87002 -7.838839,9.65774 -7.838839,11.04721 0,0.81452 -0.790098,2.27106 -1.755767,3.23673 -0.965678,0.96567 -2.032197,3.48444 -2.370056,5.59726 -0.337849,2.11282 -1.258044,4.08853 -2.044873,4.39046 -1.131463,0.43419 -1.431344,2.393 -1.434156,9.3678 -0.0028,7.11485 -0.367342,9.4155 -1.886357,11.90685 -2.159558,3.54193 -5.449789,4.10156 -7.939528,1.35043 z M 340.22056,803.17621 c -0.29813,-0.48239 -1.81986,-1.15772 -3.38164,-1.50074 -1.56178,-0.34302 -2.83959,-0.98674 -2.83959,-1.43048 0,-1.67685 -3.08329,-3.79315 -5.5313,-3.79658 -1.39979,-0.002 -3.94503,-0.85709 -5.65607,-1.90032 -4.28758,-2.61413 -14.54036,-2.61238 -20.64307,0.004 -4.84204,2.07554 -9.12446,2.42329 -11.85379,0.9626 -2.46682,-1.3202 -1.44945,-4.14957 2.18865,-6.08679 1.6577,-0.88269 4.08294,-2.25526 5.38941,-3.05016 1.9285,-1.17337 4.84991,-1.36098 15.52798,-0.9972 11.99003,0.40848 13.27555,0.62365 14.54385,2.43441 0.7652,1.09248 2.401,1.98633 3.6351,1.98633 3.22905,0 5.24973,0.95344 5.24973,2.47706 0,0.74507 0.9487,1.32359 2.17054,1.32359 2.54276,0 5.43075,4.24653 5.43075,7.98544 0,1.80791 -0.49235,2.46634 -1.84424,2.46634 -1.01434,0 -2.08817,-0.39467 -2.38631,-0.87705 z m 41.69266,-6.50125 c -0.56071,-0.38394 -1.29555,-1.44633 -1.63297,-2.36086 -0.3974,-1.07712 -1.6162,-1.66278 -3.46036,-1.66278 -1.80732,0 -3.19373,-0.64809 -3.79673,-1.77481 -0.52242,-0.97614 -2.31653,-2.04814 -3.98694,-2.38222 -1.67039,-0.33407 -3.6339,-1.45949 -4.36335,-2.50093 -0.80382,-1.14762 -2.40668,-1.8935 -4.069,-1.8935 -1.58597,0 -3.26637,-0.74044 -3.98431,-1.75564 -0.79655,-1.12635 -2.88259,-1.93857 -5.81986,-2.26602 -2.9492,-0.32876 -5.2445,-1.22549 -6.4506,-2.52009 -1.38581,-1.48748 -3.01607,-2.00971 -6.27377,-2.00971 -2.84822,0 -5.0459,-0.58322 -6.22763,-1.65268 -1.30446,-1.18052 -4.20304,-1.82076 -10.14574,-2.24099 -6.55541,-0.46357 -8.93885,-1.0462 -11.2402,-2.74766 -2.85492,-2.11072 -3.33416,-2.14938 -21.28445,-1.71725 -16.26065,0.39146 -18.87469,0.67777 -22.82492,2.50001 -3.38243,1.56031 -6.27614,2.05792 -11.96731,2.05792 -6.29946,0 -7.78263,0.30549 -9.22593,1.90032 -1.33286,1.4728 -2.92647,1.90033 -7.08345,1.90033 -5.51772,0 -7.64406,-1.08181 -7.64406,-3.88903 0,-1.72762 1.84246,-2.76211 4.91938,-2.76211 1.05241,0 3.25263,-0.95356 4.88938,-2.11902 2.20975,-1.57349 4.6937,-2.21583 9.6483,-2.495 4.64494,-0.26173 7.36094,-0.91705 8.9384,-2.1567 2.09334,-1.64505 4.30434,-1.78074 29.01659,-1.78074 24.87468,0 27.01197,0.13326 30.47796,1.90032 2.62138,1.33646 5.60328,1.90033 10.04947,1.90033 5.01314,0 6.85512,0.41927 8.8965,2.02502 1.41592,1.11377 4.48226,2.24008 6.81408,2.5029 2.82421,0.31833 4.55643,1.06976 5.18846,2.25071 0.66003,1.23328 2.00438,1.77283 4.41723,1.77283 2.15809,0 4.2309,0.71629 5.48663,1.89599 1.11001,1.04281 3.21381,1.99495 4.67511,2.11589 1.46131,0.12095 3.42143,1.19183 4.35585,2.37974 0.93441,1.18791 2.54177,2.15984 3.57191,2.15984 1.03014,0 2.94926,0.8466 4.2647,1.88133 1.31544,1.03473 3.51097,2.30686 4.87895,2.82696 1.36798,0.52011 2.48723,1.56786 2.48723,2.32833 0,0.76047 0.96204,1.51931 2.13786,1.6863 1.56092,0.22168 2.22251,1.04506 2.4515,3.05101 0.41552,3.64011 -3.05695,5.72435 -6.08391,3.65166 z m -408.825177,-6.74683 c -1.593821,-5.31968 -1.382638,-7.4332 0.799761,-8.00391 1.045179,-0.27332 1.900325,-1.18892 1.900325,-2.03465 0,-0.84574 1.068932,-1.94413 2.375406,-2.44085 1.306471,-0.49671 2.375403,-1.52625 2.375403,-2.28786 0,-0.7616 0.96204,-1.67647 2.137866,-2.03305 1.175826,-0.35657 2.993011,-1.40518 4.03819,-2.33022 1.045178,-0.92505 2.816195,-1.959 3.9356006,-2.29767 1.1194052,-0.33866 2.2552007,-1.45674 2.5239922,-2.48462 0.2739603,-1.04763 1.2981497,-1.86885 2.3307291,-1.86885 1.0131106,0 2.6159109,-0.85515 3.56178802,-1.90033 0.94587709,-1.04517 2.67326288,-1.90032 3.83863698,-1.90032 1.211628,0 2.7852773,-1.01707 3.6752845,-2.37541 1.2108203,-1.84793 2.3628162,-2.3754 5.1879146,-2.3754 2.424776,0 4.202939,-0.63146 5.351248,-1.90033 1.202582,-1.32884 2.926471,-1.90032 5.732348,-1.90032 2.922006,0 4.36687,-0.50998 5.316168,-1.8764 0.998259,-1.43689 2.861471,-2.02237 7.95473,-2.49958 3.85726,-0.36142 7.364566,-1.24511 8.349523,-2.10374 1.840208,-1.60418 11.446558,-2.67495 15.306583,-1.70615 1.290682,0.32394 2.624311,1.46366 2.963614,2.5327 0.996796,3.14064 -1.15268,4.70301 -6.470292,4.70301 -3.205078,0 -5.397046,0.54285 -6.604588,1.63566 -1.243202,1.12508 -3.930584,1.75565 -8.609041,2.02 -3.831929,0.21652 -7.224018,0.90132 -7.76904,1.56842 -1.161469,1.42162 -6.61027,3.32738 -9.513396,3.32738 -1.147492,0 -2.860245,0.85514 -3.806122,1.90032 -1.02036,1.12749 -2.926472,1.90033 -4.686913,1.90033 -1.791322,0 -3.611928,0.75306 -4.594244,1.90032 -0.8949106,1.04518 -2.4892735,1.90033 -3.5430225,1.90033 -1.0537486,0 -2.8453272,1.06893 -3.9812938,2.3754 -1.2678016,1.4581 -3.07525754,2.37541 -4.6804998,2.37541 -1.7806232,0 -2.8075682,0.6064 -3.2182473,1.90032 -0.3317301,1.04518 -1.1385795,1.90033 -1.7930038,1.90033 -0.6544243,0 -2.0322072,0.96204 -3.0617366,2.13786 -1.0295292,1.17583 -3.1902552,3.24045 -4.8016172,4.58804 -1.611361,1.3476 -3.426608,3.37857 -4.033885,4.51327 -0.607268,1.13471 -1.74103,2.0631 -2.519458,2.0631 -0.77844,0 -1.821747,1.06893 -2.318463,2.37541 -1.273256,3.34892 -2.375434,2.95701 -3.650248,-1.29795 z m 75.511878,-1.82638 c -0.29151,-0.47167 -0.807553,-2.59318 -1.146761,-4.71448 -0.523473,-3.27365 -0.322922,-4.01415 1.32618,-4.89671 1.0686,-0.57191 2.245775,-1.99404 2.61593,-3.16032 0.915111,-2.88326 4.327752,-7.38314 5.599259,-7.38314 0.569461,0 1.767587,-0.85515 2.662497,-1.90033 0.894911,-1.04517 2.642563,-1.90032 3.883675,-1.90032 1.241111,0 3.38349,-0.88644 4.760836,-1.96986 3.55012,-2.79253 5.680963,-2.06441 6.370344,2.17678 0.313972,1.9316 0.311777,3.93123 -0.0048,4.44359 -0.84286,1.36377 -5.474237,2.95079 -8.611274,2.95079 -1.838288,0 -2.910214,0.5848 -3.295181,1.79773 -0.31382,0.98876 -1.411562,2.01766 -2.439438,2.28645 -1.246936,0.32609 -1.868855,1.30152 -1.868855,2.93118 0,1.54089 -0.855916,3.00326 -2.318776,3.96178 -1.275327,0.83563 -2.451153,2.44888 -2.612947,3.58501 -0.302056,2.12107 -3.906031,3.43348 -4.920605,1.79185 z m -110.241547,-4.55469 c -1.008608,-2.62838 -0.623306,-6.09834 0.677158,-6.09834 0.689642,0 2.18332,-1.06893 3.319283,-2.3754 1.135964,-1.30648 2.694533,-2.37541 3.463487,-2.37541 0.768953,0 1.855757,-0.85515 2.415119,-1.90032 0.559363,-1.04518 1.701202,-1.90033 2.537421,-1.90033 0.836219,0 2.50839,-0.96204 3.715936,-2.13786 5.814845,-5.66211 6.708789,-6.4136 7.629327,-6.4136 0.543763,0 1.992871,-1.06893 3.220238,-2.37541 1.227372,-1.30647 2.837859,-2.3754 3.578863,-2.3754 0.741012,0 2.434439,-0.85515 3.763165,-1.90033 1.328726,-1.04518 3.412099,-1.90032 4.629704,-1.90032 1.217614,0 2.644566,-0.80482 3.171003,-1.78848 0.611553,-1.1427 2.47465,-2.01604 5.159828,-2.41871 3.056036,-0.45827 4.335154,-1.13688 4.6882913,-2.48725 0.3537834,-1.35289 1.3082595,-1.85702 3.5159237,-1.85702 1.6666702,0 4.3111905,-0.91207 5.87671593,-2.02682 1.56552567,-1.11476 4.83832177,-2.24825 7.27289377,-2.51887 2.4345629,-0.27062 5.4273173,-1.14344 6.6505663,-1.9396 1.369716,-0.89148 5.932224,-1.72071 11.877029,-2.15862 8.958634,-0.65994 15.270819,-1.66853 20.231132,-3.23264 1.471212,-0.4639 2.42298,-0.0734 3.472434,1.42496 1.241121,1.77196 1.74447,1.90416 3.556895,0.93417 1.565972,-0.83809 2.70515,-0.85925 4.411119,-0.082 1.264951,0.57635 5.434245,1.04792 9.26509,1.04792 4.929689,0 7.299765,0.40317 8.11013,1.3796 3.423662,4.12526 -2.873158,7.63816 -10.935742,6.10089 -2.685016,-0.51194 -12.853235,-0.6336 -23.690425,-0.28344 -16.604733,0.53653 -19.272741,0.83873 -21.269251,2.40919 -1.575084,1.23896 -3.817743,1.79571 -7.233367,1.79571 -3.6814137,0 -5.3753057,0.46941 -6.6076187,1.8311 -0.9114243,1.00711 -3.3745585,2.12127 -5.47364784,2.47591 -2.09908916,0.35464 -4.62645436,1.45471 -5.61636196,2.44462 -0.9899076,0.98991 -3.0675041,1.79983 -4.6168865,1.79983 -1.844607,0 -3.168126,0.65599 -3.834076,1.90032 -0.585709,1.09442 -1.989469,1.90033 -3.310042,1.90033 -1.26116,0 -3.446418,1.06893 -4.856126,2.3754 -1.409708,1.30648 -3.466753,2.37541 -4.571212,2.37541 -1.10445,0 -2.54215,0.85514 -3.194873,1.90032 -0.652724,1.04518 -1.762067,1.90033 -2.465216,1.90033 -0.703146,0 -2.431845,1.06893 -3.841552,2.3754 -1.409709,1.30648 -3.167392,2.37541 -3.905965,2.37541 -0.738572,0 -1.800519,0.85515 -2.359882,1.90032 -0.559362,1.04518 -1.487415,1.90033 -2.062339,1.90033 -0.574925,0 -1.984376,0.96204 -3.132113,2.13786 -6.822204,6.98917 -11.930778,9.25189 -13.232056,5.8608 z m 148.136415,-5.73929 c -0.790896,-1.89289 -1.437995,-4.17827 -1.437995,-5.07864 0,-0.90036 -0.833891,-2.39168 -1.853092,-3.31404 -1.330883,-1.20444 -2.03444,-3.51744 -2.496628,-8.2079 -0.359655,-3.65003 -1.218754,-7.00828 -1.947557,-7.61313 -0.94963,-0.78813 -1.304022,-3.72193 -1.304022,-10.79534 0,-8.57261 0.227792,-9.91925 1.939994,-11.46877 1.680106,-1.52048 1.910587,-2.7474 1.720478,-9.15867 -0.185167,-6.24454 0.07763,-7.73991 1.679317,-9.556 1.044371,-1.18415 2.398856,-3.32883 3.009972,-4.76595 1.447981,-3.4051 4.662979,-3.49817 5.927745,-0.1716 1.156614,3.04214 0.298,6.90394 -2.130545,9.58256 -1.727347,1.90522 -1.853301,3.51622 -1.816102,23.22838 0.03782,20.04046 0.148197,21.32754 2.049319,23.89895 1.105134,1.49478 2.251606,4.29677 2.547714,6.22665 0.296118,1.92988 0.954467,4.03791 1.463013,4.68449 1.077512,1.37 0.179029,4.42027 -1.07394,3.64589 -0.467071,-0.28866 -1.37758,0.11181 -2.023376,0.88994 -1.790372,2.15727 -2.683943,1.73155 -4.254295,-2.02682 z m 295.012651,-7.92052 c 0,-0.5669 -1.06893,-1.51777 -2.3754,-2.11303 -1.30647,-0.59528 -2.37541,-1.62215 -2.37541,-2.28195 0,-1.34121 -5.39257,-7.04679 -6.6602,-7.04679 -0.44716,0 -1.08445,-0.85515 -1.41618,-1.90033 -0.33173,-1.04518 -1.20064,-1.90032 -1.93092,-1.90032 -0.73028,0 -1.76995,-0.82619 -2.31036,-1.83598 -0.54043,-1.00979 -1.94508,-2.13177 -3.12147,-2.4933 -1.17637,-0.36153 -2.90378,-1.45942 -3.83867,-2.43976 -0.93489,-0.98034 -2.51404,-1.78243 -3.50923,-1.78243 -0.99519,0 -2.36814,-0.78701 -3.05102,-1.7489 -0.69708,-0.98193 -3.02775,-2.03101 -5.31453,-2.39219 -2.24012,-0.35381 -5.65438,-1.49089 -7.58723,-2.52683 -2.56026,-1.37222 -5.34966,-1.88354 -10.27523,-1.88354 -6.82817,0 -12.74551,-1.36654 -12.74551,-2.94344 0,-0.47146 -5.10644,-0.85721 -11.34763,-0.85721 -9.91444,0 -11.78618,0.25874 -14.81982,2.04864 -2.83578,1.67315 -5.24032,2.0941 -13.11904,2.29669 -7.59983,0.19541 -10.44558,0.66799 -13.41088,2.22709 -2.19993,1.15668 -5.55596,1.98165 -8.07638,1.98531 -2.70415,0.004 -5.37541,0.71028 -7.16285,1.89406 -1.70024,1.12602 -4.45827,1.89033 -6.83481,1.89406 -2.95514,0.005 -4.34229,0.51735 -5.37019,1.98489 -2.12577,3.03497 -5.77206,2.12288 -6.13034,-1.53346 -0.40715,-4.1549 3.22412,-7.33873 8.29033,-7.26881 2.86561,0.0395 4.20026,-0.45435 5.24029,-1.9392 1.12828,-1.61084 2.76325,-2.10415 8.53973,-2.57663 4.908,-0.40144 7.52349,-1.06522 8.35576,-2.12056 0.90417,-1.1465 3.44013,-1.65258 9.99668,-1.99495 4.83186,-0.25232 9.32138,-0.86309 9.9767,-1.35728 3.51543,-2.65097 9.36757,-3.32266 25.96137,-2.97975 13.99766,0.28926 17.65824,0.65762 20.51768,2.06467 1.9142,0.94192 6.76814,2.02663 10.78653,2.41047 5.36778,0.51273 7.54497,1.12463 8.20632,2.30641 0.55951,0.99979 2.07599,1.60852 4.00718,1.60852 2.12993,0 3.75652,0.74701 5.17239,2.3754 1.16152,1.33586 3.09306,2.37541 4.41365,2.37541 1.37582,0 2.76943,0.78695 3.36529,1.90032 0.55936,1.04518 1.82831,1.90033 2.81989,1.90033 0.99157,0 2.07396,0.85415 2.4053,1.89812 0.33134,1.04396 1.64287,2.15924 2.91451,2.4784 1.27164,0.31917 2.31208,0.9047 2.31208,1.30119 0,0.3965 1.71029,1.85271 3.80065,3.23605 2.09036,1.38333 3.80065,3.088 3.80065,3.78817 0,1.23145 2.51531,4.55675 6.69535,8.85144 2.84742,2.92552 2.10266,5.45499 -1.71478,5.824 -1.76355,0.17047 -3.08025,-0.14286 -3.08025,-0.733 z m -141.84152,-9.17534 c -0.33866,-0.33866 0.0105,-1.50986 0.77597,-2.60267 0.76543,-1.09281 1.39169,-2.96071 1.39169,-4.15092 0,-1.19019 0.56426,-2.16398 1.25389,-2.16398 0.68965,0 2.18333,-1.06893 3.31929,-2.37541 1.8096,-2.0812 2.83522,-2.3754 8.28116,-2.3754 3.97602,0 7.01434,-0.52324 8.43195,-1.4521 1.78021,-1.16645 4.88089,-1.40009 15.76179,-1.1877 l 13.5456,0.26439 2.24897,2.91859 c 1.98828,2.58027 2.09474,3.12952 0.91839,4.73828 -1.2323,1.68527 -2.88652,1.83662 -22.3957,2.04906 -20.97911,0.22845 -21.07675,0.23917 -23.91273,2.62549 -1.56618,1.31785 -3.79821,2.3961 -4.96007,2.3961 -1.16186,0 -2.54717,0.4347 -3.07847,0.966 -0.5313,0.53129 -1.24308,0.68891 -1.58173,0.35027 z m -23.9618,-19.25035 c -3.39445,-0.72201 -4.57111,-4.4715 -1.72943,-5.51085 0.95119,-0.34791 2.93806,-1.62872 4.41528,-2.84624 1.47721,-1.21754 3.91373,-2.2137 5.41447,-2.2137 1.59361,0 3.79481,-0.9881 5.29174,-2.37541 1.77358,-1.6437 3.64574,-2.3754 6.07775,-2.3754 2.30794,0 4.10509,-0.65245 5.23441,-1.90033 1.25607,-1.38794 2.92647,-1.90032 6.19518,-1.90032 3.07949,0 5.25121,-0.61024 6.96265,-1.95646 1.67063,-1.31413 4.70062,-2.19297 9.2288,-2.6768 4.17505,-0.44611 7.0614,-1.23862 7.5817,-2.08173 0.63821,-1.0342 4.15334,-1.49919 14.62577,-1.93475 9.47001,-0.39387 14.27109,-0.97623 15.33631,-1.86029 1.05253,-0.87353 4.8005,-1.34862 11.66711,-1.47892 8.2724,-0.15698 10.43747,0.0955 11.8776,1.38522 1.29891,1.16322 4.04224,1.66249 10.45179,1.90221 6.64907,0.24865 9.13704,0.72147 10.59095,2.01273 1.04517,0.92825 3.96675,1.9545 6.49239,2.28056 6.02565,0.7779 6.3348,1.03645 6.3348,5.29812 0,4.62378 -2.4032,7.05752 -4.34573,4.40096 -0.7869,-1.07614 -3.2013,-2.06583 -6.19374,-2.53887 -2.69727,-0.42638 -5.75023,-1.54069 -6.78434,-2.47624 -1.72241,-1.55824 -4.37514,-1.70099 -31.61058,-1.70099 -28.38331,0 -29.82539,0.086 -31.82689,1.89768 -1.63405,1.47909 -3.75646,1.97306 -9.6219,2.23943 -6.00628,0.27276 -7.70744,0.68191 -8.42724,2.02688 -0.6551,1.22406 -2.60737,1.86779 -7.13504,2.35266 -5.10883,0.54711 -6.501,1.07629 -7.71802,2.93369 -1.28963,1.96822 -2.00437,2.19496 -5.43624,1.72458 -3.2329,-0.44312 -4.28006,-0.17843 -5.7589,1.45565 -1.22132,1.34956 -2.95686,1.99727 -5.35161,1.99727 -2.73189,0 -3.9008,0.54438 -5.10053,2.37541 -1.61446,2.46397 -1.99962,2.55224 -6.73851,1.54425 z M 18.295273,732.22421 c -0.385006,-0.385 -0.700004,-3.14681 -0.700004,-6.13735 0,-7.86447 1.618117,-9.51568 9.506365,-9.70074 7.26953,-0.17054 11.541051,1.55985 12.350029,5.00302 0.751312,3.19778 3.244434,3.0561 3.620489,-0.20574 0.386916,-3.35595 3.559821,-3.98364 17.114143,-3.38563 11.428296,0.5042 16.673116,2.1937 18.369754,5.91741 1.49929,3.29058 -0.346619,7.70374 -2.785419,6.65931 -0.902389,-0.38645 -2.790751,-0.90071 -4.196373,-1.14278 -1.405623,-0.24207 -3.289073,-1.25054 -4.185456,-2.24103 -1.42417,-1.57368 -3.042591,-1.80089 -12.828388,-1.80089 -6.440809,0 -11.448098,0.40369 -11.785842,0.95017 -0.32298,0.52259 -1.381479,0.95016 -2.352232,0.95016 -0.970752,0 -2.548915,1.02671 -3.50703,2.28158 -1.51186,1.98012 -2.810827,2.36555 -9.831035,2.91705 -4.448954,0.3495 -8.404005,0.32046 -8.789001,-0.0645 z m 50.218748,-17.52648 c -4.305195,-1.28762 -20.691998,-2.05811 -46.846983,-2.20269 -21.44193306,-0.11853 -24.132622,-0.30707 -25.6204526,-1.79522 -1.5831225,-1.58347 -1.5830464,-1.74211 0.0019,-3.32557 1.5213809,-1.52016 4.51345178,-1.66278 34.8849053,-1.66278 30.37573,0 38.026817,-0.5114 30.418117,-2.03314 -1.541059,-0.30821 -3.531402,-1.36645 -4.422996,-2.35165 -0.943008,-1.04179 -2.889491,-1.79127 -4.652318,-1.79127 -1.757629,0 -3.708807,-0.74892 -4.644289,-1.78261 -0.887281,-0.98044 -3.144448,-2.03109 -5.015916,-2.33479 -1.871478,-0.3037 -4.130195,-1.21058 -5.019385,-2.01528 -0.88919,-0.80471 -4.301157,-1.74368 -7.582153,-2.08661 -3.933795,-0.41117 -6.516061,-1.21453 -7.582191,-2.35889 -1.218089,-1.30746 -3.009534,-1.73271 -7.265064,-1.72459 -9.1250263,0.0174 -13.9045993,-0.7254 -18.835657,-2.92738 -4.243976,-1.89517 -5.8504724,-2.03991 -19.003245,-1.71226 -11.781904,0.29351 -14.820727,0.66187 -16.886733,2.04699 -1.838896,1.23287 -5.248417,1.84363 -12.623229,2.26126 -5.557119,0.3147 -10.349431,0.96953 -10.649582,1.45519 -0.300153,0.48565 -1.766809,-0.28686 -3.259237,-1.7167 -2.600182,-2.49112 -2.651292,-2.70502 -1.223831,-5.12152 1.420806,-2.40523 1.847582,-2.52048 9.231329,-2.49289 5.062702,0.0189 9.073896,-0.5133 11.591577,-1.53799 3.181896,-1.29502 8.410556,-1.62019 30.133448,-1.87399 25.6775187,-0.3 26.2897938,-0.26327 26.555269,1.59325 0.238728,1.66945 1.229083,1.97147 8.151747,2.48598 6.214194,0.46187 8.336182,1.01423 10.037942,2.61295 1.335985,1.2551 3.401325,2.02863 5.422273,2.03084 1.795379,0.002 4.66428,0.85709 6.375323,1.90032 1.711042,1.04322 4.348408,1.89677 5.8608,1.89677 3.709605,0 5.755723,0.88058 5.755723,2.47707 0,0.72796 0.427573,1.37703 0.950162,1.44235 0.522589,0.0654 1.377735,0.22567 1.900325,0.35631 0.522589,0.13065 1.809489,0.29099 2.859789,0.35631 1.05029,0.0654 2.641822,0.97392 3.536732,2.0191 0.89491,1.04518 2.733075,1.90032 4.084824,1.90032 3.971032,0 5.556502,1.95282 7.604272,9.36617 1.481218,5.36235 1.675241,7.29897 0.832913,8.31392 -1.22875,1.48055 -1.220208,1.47998 -5.056109,0.33272 z M 24.959027,702.30979 c -2.057719,-1.19851 -2.126729,-3.5895 -0.183666,-6.36361 1.09681,-1.56591 2.43308,-2.11174 5.169823,-2.11174 2.02988,0 3.976819,0.46295 4.326527,1.02879 0.349707,0.56585 2.512808,1.83337 4.80689,2.81672 4.554574,1.95233 5.157984,3.16074 2.33319,4.67252 -2.353011,1.25929 -14.270488,1.22838 -16.452764,-0.0427 z m 340.298643,-1.28778 c -0.2927,-0.29272 -5.88734,-0.72494 -12.43251,-0.9605 -9.59379,-0.34528 -12.52542,-0.79192 -15.12553,-2.30435 -1.77387,-1.03182 -4.93551,-1.98765 -7.02587,-2.12407 -2.09036,-0.13641 -4.5816,-0.90656 -5.53608,-1.71143 -0.9545,-0.80488 -3.09236,-1.90943 -4.75081,-2.45455 -2.76836,-0.90994 -3.00898,-1.31636 -2.9372,-4.96105 0.10426,-5.29463 1.74723,-7.18949 5.53665,-6.38547 1.61514,0.34269 3.65169,1.25308 4.52566,2.02309 0.87398,0.77001 3.43942,1.63713 5.70098,1.92693 2.26156,0.2898 5.60844,1.26276 7.4375,2.16215 7.5857,3.73001 44.09817,3.02334 49.15109,-0.95129 1.33716,-1.05181 3.85355,-1.89882 5.6412,-1.89882 1.90034,0 3.4386,-0.55075 3.74127,-1.33949 0.28271,-0.73673 1.61405,-1.61559 2.95853,-1.95303 5.76407,-1.44669 23.5887,-18.40478 25.42433,-24.18832 0.37736,-1.18899 1.49906,-2.97473 2.49264,-3.96832 0.99359,-0.99358 1.80653,-3.06799 1.80653,-4.60979 0,-1.66283 0.66463,-3.17522 1.63368,-3.71753 1.09468,-0.61261 1.55918,-1.89205 1.40786,-3.87786 -0.12419,-1.62998 0.23911,-3.83233 0.80737,-4.8941 0.91871,-1.71665 1.63112,-1.86269 6.43096,-1.31834 2.96879,0.33669 7.85805,1.4327 10.86502,2.43558 3.13408,1.04527 8.08622,1.82341 11.60431,1.82341 3.71919,0 7.92912,0.69625 10.68555,1.7672 2.50164,0.97196 7.48976,2.05845 11.0847,2.41443 3.59494,0.35598 7.65688,1.21731 9.02654,1.91405 1.36966,0.69675 5.33713,1.56416 8.8166,1.92758 4.43732,0.46347 6.82192,1.20839 7.98611,2.49481 1.29243,1.42811 2.94155,1.83543 7.45104,1.8403 4.13616,0.005 6.59326,0.53493 8.59753,1.85612 1.54346,1.01741 5.17783,2.13283 8.07638,2.47871 2.89855,0.34588 6.60329,1.43471 8.23273,2.41962 1.73642,1.04957 4.73121,1.79075 7.23563,1.79075 2.81766,0 5.08631,0.63977 6.66105,1.87845 1.36522,1.0739 4.66199,2.14571 7.69712,2.50244 3.35684,0.39452 5.89918,1.27604 6.91387,2.39727 1.01717,1.12396 2.89569,1.7733 5.13007,1.7733 1.99051,0 4.51177,0.76916 5.79125,1.76673 1.2463,0.97172 4.29976,2.06726 6.78546,2.43456 3.68897,0.5451 4.78022,1.17208 5.93852,3.41197 2.28226,4.41341 1.80982,6.48358 -1.88134,8.24377 -2.6767,1.27642 -3.76252,1.36331 -5.74569,0.45971 -1.3449,-0.61278 -3.21404,-1.11414 -4.15364,-1.11414 -0.93958,0 -2.48224,-0.85515 -3.42812,-1.90033 -1.201,-1.32709 -2.92647,-1.90032 -5.7201,-1.90032 -2.44157,0 -4.88329,-0.68475 -6.26633,-1.75732 -1.28487,-0.99644 -4.73439,-2.03455 -7.96697,-2.39762 -3.54124,-0.39773 -6.13838,-1.22345 -6.85555,-2.17962 -0.70195,-0.93587 -3.11185,-1.7274 -6.14733,-2.01907 -2.74602,-0.26386 -6.2884,-1.26985 -7.87197,-2.23556 -1.58356,-0.9657 -4.32525,-1.75742 -6.09263,-1.75937 -1.76738,-0.002 -4.54661,-0.80429 -6.17606,-1.78298 -1.62944,-0.97868 -5.31428,-2.04925 -8.18853,-2.37904 -2.87424,-0.32979 -7.14997,-1.28069 -9.50162,-2.11311 -2.35165,-0.83241 -6.96386,-1.90021 -10.24936,-2.37287 -3.28551,-0.47266 -6.91988,-1.45869 -8.07638,-2.19117 -1.15651,-0.73248 -5.52333,-1.7777 -9.70405,-2.32271 -4.18071,-0.54501 -9.19097,-1.6555 -11.13389,-2.46776 -2.05566,-0.85939 -6.31806,-1.47683 -10.19501,-1.47683 -3.85049,0 -8.24317,-0.63249 -10.40775,-1.49858 -4.96027,-1.98471 -7.30682,-0.76102 -8.15377,4.25206 -0.34645,2.05062 -1.45391,4.47412 -2.46102,5.38554 -1.00711,0.91142 -1.83111,2.27149 -1.83111,3.02237 0,0.75088 -0.96204,2.61176 -2.13786,4.1353 -3.76821,4.8825 -16.563,17.95899 -17.57211,17.95899 -0.53627,0 -1.67543,1.06893 -2.53146,2.37541 -0.85604,1.30647 -2.12167,2.3754 -2.81251,2.3754 -0.69084,0 -1.97059,0.78953 -2.84389,1.75451 -0.87329,0.96498 -3.24049,2.24966 -5.26044,2.85486 -2.01995,0.60519 -4.20328,1.73974 -4.85185,2.52122 -0.64857,0.78148 -2.59283,1.42087 -4.32058,1.42087 -2.83142,0 -6.12757,1.95651 -6.12757,3.63718 0,0.35802 -3.3137,0.64815 -7.36376,0.64475 -4.05007,-0.004 -9.5106,0.34113 -12.13452,0.76566 -2.62392,0.42452 -5.01025,0.53236 -5.30296,0.23966 z m -139.12339,-9.11178 c -0.88494,-0.97786 -1.41403,-2.86165 -1.2373,-4.40537 0.27878,-2.43505 0.7005,-2.72532 4.34265,-2.98893 2.80441,-0.20297 4.33147,-0.84802 5.01028,-2.11638 0.53702,-1.00343 2.35615,-2.18162 4.04249,-2.6182 1.68636,-0.43658 3.49379,-1.6501 4.01651,-2.69672 0.71298,-1.42755 1.68834,-1.81866 3.90434,-1.56561 2.32398,0.26538 3.2911,-0.17725 4.53494,-2.07558 0.91285,-1.39318 2.47901,-2.4129 3.70593,-2.4129 1.16872,0 2.659,-0.85514 3.31172,-1.90032 0.65272,-1.04518 1.66858,-1.90033 2.25746,-1.90033 0.58888,0 2.02841,-0.96204 3.19895,-2.13786 1.17053,-1.17583 3.68823,-3.2068 5.59487,-4.51327 5.20075,-3.56367 7.90752,-5.91711 15.42245,-13.40929 7.47741,-7.45477 9.9725,-9.39461 12.08367,-9.39461 1.49815,0 2.51287,0.61642 2.73715,1.66278 0.56253,2.62445 -0.31041,4.98836 -1.84208,4.98836 -0.77186,0 -1.62331,0.84098 -1.8921,1.86885 -0.26879,1.02788 -1.29769,2.12562 -2.28645,2.43944 -0.98876,0.31382 -1.79774,0.98359 -1.79774,1.48838 0,0.50479 -1.48225,2.40006 -3.2939,4.2117 -1.81163,1.81165 -3.7069,3.2939 -4.21169,3.2939 -0.5048,0 -1.18922,0.85514 -1.52095,1.90032 -0.33173,1.04518 -1.20064,1.90033 -1.93092,1.90033 -0.73028,0 -1.76995,0.82618 -2.31037,1.83598 -0.54042,1.00978 -1.81632,2.10059 -2.83532,2.424 -1.019,0.32342 -2.1172,1.42131 -2.44044,2.43976 -0.40442,1.27423 -1.44628,1.85172 -3.34073,1.85172 -1.74843,0 -3.1116,0.66997 -3.73562,1.83598 -0.54042,1.00978 -1.79202,2.09287 -2.78133,2.40686 -0.98931,0.314 -2.01867,1.41189 -2.28746,2.43976 -0.32396,1.23884 -1.30133,1.86886 -2.8992,1.86886 -1.32576,0 -2.96919,0.7938 -3.65206,1.76401 -0.68287,0.97022 -2.31051,2.0922 -3.61699,2.49331 -1.30647,0.40111 -3.14031,1.53137 -4.0752,2.51171 -0.93489,0.98034 -2.91371,1.78243 -4.39737,1.78243 -1.62697,0 -3.21496,0.75271 -4.00119,1.89656 -0.71697,1.04311 -3.31224,2.49105 -5.76726,3.21765 -4.08073,1.20775 -4.59631,1.17453 -6.00974,-0.38728 z m -144.878135,-2.8266 c -0.559361,-1.04518 -1.635192,-1.90033 -2.390732,-1.90033 -0.755541,0 -1.641995,-1.06893 -1.969905,-2.3754 -0.373072,-1.48647 -1.26879,-2.37541 -2.393507,-2.37541 -1.163872,0 -1.797317,-0.66974 -1.797317,-1.90033 0,-1.04517 -0.479756,-1.90032 -1.06613,-1.90032 -0.586373,0 -5.702808,-4.7033 -11.369842,-10.45179 -5.667034,-5.74848 -11.051366,-10.45178 -11.965185,-10.45178 -0.913809,0 -2.661633,-0.96204 -3.884035,-2.13787 -1.222413,-1.17582 -3.210561,-3.0999 -4.418103,-4.27573 -1.207552,-1.17582 -3.272473,-2.13786 -4.588714,-2.13786 -1.536108,0 -2.559082,-0.63445 -2.856445,-1.77158 -0.297552,-1.13784 -1.692657,-2.00221 -3.899922,-2.41629 -1.955671,-0.36689 -3.865488,-1.44602 -4.431785,-2.50415 -0.568007,-1.06133 -1.98448,-1.85944 -3.300104,-1.85944 -1.267725,0 -3.06987,-0.79451 -4.004753,-1.76558 -0.934894,-0.97105 -3.408689,-2.03023 -5.497336,-2.3537 -2.0886463,-0.32348 -4.3497761,-1.34338 -5.0247334,-2.26644 -0.9802536,-1.34058 -3.2418585,-1.80311 -11.2389189,-2.29855 -8.6178107,-0.53389 -10.3325027,-0.92161 -12.3157287,-2.78475 -2.776726,-2.60861 -2.962188,-5.2148 -0.46615,-6.55064 2.883173,-1.54303 11.6819613,-1.20057 14.1842042,0.55207 1.2058511,0.84461 4.5784619,1.70552 7.4946811,1.91313 3.9298805,0.27976 5.6444009,0.86599 6.6242937,2.26498 0.932404,1.3312 2.407521,1.88753 5.004819,1.88753 2.826552,0 3.820526,0.43413 4.275398,1.86732 0.378782,1.19343 1.797194,2.09328 3.930365,2.49347 1.835733,0.34438 3.838561,1.42817 4.450731,2.40841 0.612171,0.98025 2.044151,1.78226 3.18218,1.78226 3.022779,0 5.075045,0.97579 5.075045,2.41303 0,0.69276 0.962039,1.5635 2.137865,1.93498 1.175826,0.37148 2.696579,1.46923 3.379442,2.43944 0.682872,0.97021 2.068865,1.76401 3.07998,1.76401 1.011115,0 2.372441,0.85515 3.025165,1.90033 0.652723,1.04517 1.618392,1.90403 2.145922,1.90856 1.2421,0.0106 8.085359,6.48791 8.085359,7.6529 0,0.48968 0.548225,0.89032 1.21827,0.89032 0.670045,0 2.914803,1.92064 4.988352,4.26809 2.073549,2.34745 4.27574,4.27153 4.893754,4.27573 0.618023,0.004 1.395085,0.86279 1.726815,1.90797 0.331731,1.04518 0.924888,1.90032 1.318142,1.90032 1.151017,0 6.758238,5.30093 6.758238,6.38907 0,0.54652 1.068933,1.69407 2.375406,2.5501 1.306473,0.85604 2.375406,2.0125 2.375406,2.56992 0,0.55742 0.909457,1.74993 2.021023,2.65002 1.464115,1.18557 1.839211,2.20939 1.361222,3.71541 -0.853436,2.68893 -4.828278,2.80281 -6.232732,0.17857 z M 43.249652,683.798 c -1.829063,-0.69204 -4.267493,-1.28238 -5.418728,-1.31188 -3.64545,-0.0934 -6.532566,-1.99584 -7.692524,-5.06892 -1.008046,-2.67062 -0.888174,-3.22382 1.168823,-5.39386 1.260647,-1.32993 2.60239,-4.10393 2.981657,-6.16448 1.407732,-7.64807 7.804101,-10.42428 12.712611,-5.51764 1.437662,1.43712 3.79625,3.41825 5.241305,4.40252 2.346606,1.59833 2.578047,2.22712 2.165838,5.88423 -0.299463,2.65678 -1.505628,5.41294 -3.434847,7.84878 -1.635334,2.06476 -2.973324,4.44084 -2.973324,5.28017 0,1.74811 -0.233778,1.75013 -4.750811,0.041 z M 599.09462,671.08662 c 0,-0.55343 0.42757,-1.00624 0.95016,-1.00624 0.52259,0 0.95016,0.18855 0.95016,0.419 0,0.23045 -0.42757,0.68326 -0.95016,1.00624 -0.52259,0.32298 -0.95016,0.13443 -0.95016,-0.419 z m -216.48805,-8.49537 c -0.70196,-0.44489 -9.0885,-0.88243 -18.63677,-0.9723 -15.16779,-0.14278 -17.82218,-0.3988 -21.01589,-2.02705 -2.01048,-1.025 -4.25153,-1.86363 -4.98014,-1.86363 -0.72859,0 -2.59506,-1.06893 -4.14772,-2.37541 -1.55265,-1.30647 -3.53845,-2.38782 -4.4129,-2.403 -0.87443,-0.0152 -3.72774,-2.40428 -6.34069,-5.30913 -2.61294,-2.90485 -5.84319,-6.41992 -7.17832,-7.81125 -1.33513,-1.39133 -2.95545,-3.59863 -3.60073,-4.90511 -0.64527,-1.30647 -1.79135,-3.44434 -2.54683,-4.75081 -0.7555,-1.30647 -1.37992,-4.39652 -1.38763,-6.86677 -0.0121,-3.86945 0.34782,-4.72236 2.59894,-6.15955 1.43712,-0.91749 3.17166,-2.42385 3.85453,-3.34746 0.68287,-0.92362 1.84365,-1.6793 2.57952,-1.6793 0.73586,0 1.79559,-0.85515 2.35495,-1.90033 0.55936,-1.04518 1.84727,-1.90032 2.86202,-1.90032 1.01474,0 2.54538,-1.06893 3.40142,-2.37541 1.4036,-2.14218 2.18089,-2.3754 7.91667,-2.3754 3.87633,0 7.05342,0.50685 8.13515,1.29783 1.57564,1.15214 1.63763,1.62923 0.55217,4.24977 -0.6725,1.62356 -2.24463,4.05457 -3.49362,5.40225 -1.80577,1.94846 -2.2915,3.5593 -2.37156,7.8648 -0.1089,5.85605 0.0929,10.03365 0.616,12.74964 0.41694,2.16501 6.68642,9.88621 8.63438,10.63372 2.37719,0.91221 9.85354,0.6362 9.85354,-0.36378 0,-0.50768 -1.10858,-3.3938 -2.46352,-6.4136 -2.13288,-4.75359 -2.39409,-6.36638 -1.94622,-12.01613 0.28534,-3.59949 1.12658,-7.22099 1.87606,-8.07638 0.74731,-0.85292 1.63402,-2.45642 1.97047,-3.56333 0.33645,-1.1069 1.45596,-2.77656 2.48779,-3.71036 1.03184,-0.9338 1.87607,-2.18614 1.87607,-2.78297 0,-1.39293 6.74182,-7.9933 9.64097,-9.43868 1.22057,-0.60852 2.34948,-1.78275 2.50868,-2.6094 0.22528,-1.16982 -0.8845,-1.64096 -5.00654,-2.12542 -6.83845,-0.80373 -9.88705,-0.009 -12.96532,3.38286 -3.70022,4.07634 -8.31259,4.53001 -12.62383,1.24167 -4.16699,-3.17831 -4.61863,-6.71108 -1.03229,-8.0746 1.30648,-0.49672 2.37541,-1.47797 2.37541,-2.18054 0,-2.06423 4.88911,-5.78162 9.50162,-7.2245 7.85992,-2.45872 29.00968,-0.57434 34.58972,3.08185 1.31986,0.86481 3.40919,1.57237 4.64296,1.57237 1.23377,0 3.24742,1.06894 4.47479,2.37541 1.22737,1.30647 2.89026,2.37541 3.69532,2.37541 1.57933,0 2.36172,0.66188 11.07376,9.36813 4.48407,4.48109 6.33347,7.25169 8.43909,12.6426 l 2.69656,6.90389 -2.64621,4.78348 c -1.45543,2.63091 -3.43583,5.54838 -4.40091,6.48327 -0.96508,0.93489 -1.75469,2.36377 -1.75469,3.17528 0,2.02964 -2.99518,5.81023 -11.67025,14.73048 -5.62552,5.78453 -8.17016,7.72939 -10.63674,8.12967 -2.49226,0.40444 -3.46273,1.15869 -4.19554,3.26083 -1.00417,2.88057 -1.67028,3.21716 -3.7537,1.89671 z m -254.55493,-0.74144 c -1.85647,-0.74911 -1.47946,-5.98982 0.47509,-6.60407 4.63456,-1.4565 12.62553,-6.00703 13.20628,-7.52044 0.29527,-0.76944 1.57128,-1.39898 2.83559,-1.39898 1.41609,0 3.90184,-1.55058 6.4737,-4.03819 2.29621,-2.221 6.24002,-5.53186 8.764,-7.35747 2.52398,-1.82561 4.93098,-3.85658 5.34889,-4.51327 0.41791,-0.65669 1.20841,-1.19399 1.75665,-1.19399 1.14679,0 6.51006,-5.50954 6.51006,-6.68759 0,-0.43211 0.77791,-1.03256 1.7287,-1.33432 0.95079,-0.30177 2.59476,-1.72019 3.65328,-3.15206 l 1.92457,-2.60338 -13.53915,-0.009 c -11.31243,-0.007 -13.82785,-0.26935 -15.29451,-1.59665 -0.96544,-0.87371 -2.9304,-2.03532 -4.36656,-2.58135 -1.43616,-0.54555 -2.6112,-1.6292 -2.6112,-2.40764 0,-0.77843 -0.79714,-1.84194 -1.77143,-2.36336 -0.97429,-0.52143 -2.91279,-3.28091 -4.30779,-6.13217 -2.13221,-4.35808 -2.54115,-6.4736 -2.5664,-13.2765 -0.0217,-5.84849 0.39028,-8.73384 1.48581,-10.40581 0.83371,-1.2724 1.84052,-4.18612 2.23736,-6.47493 l 0.72151,-4.16148 5.30181,0.0181 c 6.35,0.0217 8.40075,1.43737 8.40075,5.79921 0,3.69798 1.59018,4.30068 2.4377,0.92393 0.31546,-1.25692 1.60632,-3.25553 2.86859,-4.44136 3.23189,-3.03621 2.87703,-4.06822 -1.17288,-3.41101 -4.19488,0.68074 -8.02951,-1.65774 -9.82453,-5.9913 -1.34284,-3.24185 -0.14044,-5.72472 2.77238,-5.72472 0.87966,0 3.04824,-1.06893 4.81906,-2.3754 1.77083,-1.30648 3.89663,-2.37541 4.72399,-2.37541 0.82738,0 2.50035,-0.69765 3.71772,-1.55033 1.46748,-1.02786 5.03166,-1.71102 10.57597,-2.02714 7.45851,-0.42527 8.67032,-0.25767 11.20942,1.55033 1.56577,1.11493 3.452,2.02714 4.19162,2.02714 0.73962,0 2.26614,1.05969 3.39227,2.35486 1.22115,1.40444 2.63249,2.13037 3.49692,1.79866 0.89797,-0.34458 1.4494,-0.0196 1.4494,0.85438 0,0.77581 0.64136,1.94283 1.42524,2.5934 0.78389,0.65057 1.42525,1.92797 1.42525,2.8387 0,0.91071 0.96203,2.88028 2.13786,4.37682 1.95198,2.4844 2.12925,3.67284 2.03875,13.66796 -0.0901,9.94738 -0.33024,11.37501 -2.63045,15.6347 -1.39226,2.57825 -3.15376,5.35748 -3.91447,6.17605 -0.76071,0.81858 -2.7212,3.09172 -4.35664,5.05143 -1.63545,1.95971 -3.46775,3.56311 -4.0718,3.56311 -0.60403,0 -1.6323,0.85514 -2.28502,1.90032 -0.65273,1.04518 -1.8245,1.90032 -2.60396,1.90032 -0.77946,0 -1.4172,0.42758 -1.4172,0.95017 0,0.52259 0.85515,0.95016 1.90033,0.95016 1.38633,0 1.90032,0.63344 1.90032,2.34198 0,1.36952 -0.78906,2.76427 -1.90032,3.35899 -1.04518,0.55936 -1.90033,1.85712 -1.90033,2.88392 0,1.23345 -0.64478,1.8669 -1.90032,1.8669 -1.04518,0 -1.90033,0.38209 -1.90033,0.8491 0,1.19525 -11.14513,12.45317 -12.32842,12.45317 -0.53561,0 -0.97386,0.53446 -0.97388,1.1877 -3e-5,1.31079 -5.98078,6.4136 -7.51707,6.4136 -0.53212,0 -1.40656,0.82039 -1.94319,1.82309 -0.53663,1.0027 -2.26552,2.10639 -3.84198,2.45264 -1.57646,0.34625 -3.30535,1.44993 -3.84198,2.45263 -0.53663,1.00271 -1.52747,1.8231 -2.20188,1.8231 -0.67441,0 -2.23039,1.06893 -3.45776,2.3754 -1.22738,1.30648 -2.93767,2.37541 -3.80065,2.37541 -0.86299,0 -2.57328,1.06893 -3.80065,2.3754 -2.13374,2.27127 -6.1068,3.02012 -9.26409,1.74614 z M 55.899505,650.83959 c -1.069902,-1.17582 -3.537198,-3.42016 -5.482883,-4.98742 l -3.537607,-2.84955 0.323179,-36.1071 c 0.281438,-31.44236 0.528138,-36.50513 1.909579,-39.18798 0.872515,-1.69448 1.88307,-5.85123 2.24568,-9.23722 0.362611,-3.38599 1.240817,-6.63896 1.951577,-7.22884 0.71075,-0.58988 1.578685,-2.59916 1.928734,-4.46508 0.666273,-3.55157 5.238274,-12.9199 7.561734,-15.49454 0.744547,-0.82503 1.353725,-2.04603 1.353725,-2.71332 0,-0.6673 1.068933,-2.48362 2.375406,-4.03628 1.306473,-1.55265 2.375406,-3.43156 2.375406,-4.17535 0,-0.74379 0.449388,-1.35234 0.998649,-1.35234 0.54925,0 1.623922,-1.49651 2.388157,-3.32557 0.764225,-1.82906 1.824758,-3.32557 2.356735,-3.32557 0.531986,0 1.253112,-0.74825 1.602506,-1.66278 0.349403,-0.91453 2.39876,-3.40349 4.554118,-5.53103 2.155367,-2.12753 4.194311,-4.58607 4.530982,-5.46343 0.336671,-0.87735 1.251867,-1.59519 2.033766,-1.59519 0.781898,0 1.879297,-0.85515 2.438658,-1.90033 0.55936,-1.04517 1.628293,-1.90032 2.375402,-1.90032 0.747112,0 1.806192,-0.83675 2.353523,-1.85944 0.585528,-1.09407 2.456987,-2.1174 4.546698,-2.48617 1.953361,-0.3447 4.192921,-1.38711 4.976811,-2.31646 0.98024,-1.16216 3.26109,-1.8337 7.30489,-2.15077 3.65638,-0.2867 7.11199,-1.22265 9.13869,-2.47523 1.79313,-1.10821 4.85074,-2.0142 6.79768,-2.0142 2.02774,0 4.51068,-0.76461 5.81523,-1.79077 1.25213,-0.98492 4.17072,-2.07482 6.48577,-2.42198 2.31504,-0.34716 4.72407,-1.25161 5.35338,-2.00988 0.6293,-0.75826 2.31689,-1.37867 3.7502,-1.37867 1.4333,0 3.75826,-0.90636 5.16657,-2.01414 1.4083,-1.10777 4.28736,-2.40212 6.3979,-2.87633 2.11054,-0.47421 4.46707,-1.49192 5.23674,-2.26159 0.76968,-0.76967 2.46591,-1.3994 3.76941,-1.3994 3.42948,0 6.04572,-1.6778 6.04572,-3.87714 0,-1.6752 0.41676,-1.83176 3.39099,-1.2738 2.80512,0.52625 3.63523,0.28745 4.80469,-1.38218 0.88401,-1.2621 2.43756,-2.01834 4.14628,-2.01834 1.89809,0 2.91677,-0.58033 3.33572,-1.90033 0.33173,-1.04518 0.96909,-1.90032 1.41637,-1.90032 1.6972,0 6.66001,-4.99734 6.66001,-6.70634 0,-0.98263 -0.96204,-3.61696 -2.13787,-5.85406 -1.99879,-3.80284 -2.12317,-5.08734 -1.91205,-19.74512 0.1704,-11.83002 0.70875,-17.77641 2.19361,-24.22914 1.75743,-7.6373 1.93643,-11.01844 1.6745,-31.6288 -0.21675,-17.05581 -0.60028,-23.26673 -1.46985,-23.80325 -2.6102,-1.61047 -4.2701,-22.60333 -2.21468,-28.00945 1.37839,-3.62546 10.09393,-11.8058 13.3371,-12.51813 1.59343,-0.34997 3.33621,-1.45671 3.87284,-2.45941 0.53664,-1.00271 1.57998,-1.8231 2.31855,-1.8231 0.73857,0 2.43699,-1.01399 3.77425,-2.25333 2.82632,-2.61935 12.84733,-4.0054 18.7823,-2.59788 5.53576,1.31285 12.39397,7.95837 15.07803,14.61044 0.58432,1.44815 1.87257,3.06659 2.86278,3.59653 1.13812,0.6091 1.80039,1.98749 1.80039,3.74717 0,1.81118 0.66387,3.13891 1.90033,3.80064 1.04517,0.55937 1.90032,1.56028 1.90032,2.22424 0,0.66397 1.06893,2.65607 2.37541,4.4269 1.30647,1.77083 2.3754,4.14012 2.3754,5.26511 0,1.12498 0.85515,3.03141 1.90033,4.23651 1.04517,1.2051 1.90032,2.89775 1.90032,3.76144 0,0.86369 1.06893,3.0192 2.37541,4.79003 1.30647,1.77082 2.3754,3.99594 2.3754,4.94471 0,0.94876 0.85515,2.45722 1.90033,3.35213 1.04518,0.89491 1.90032,2.39142 1.90032,3.32557 0,0.93415 0.85515,2.43066 1.90033,3.32557 1.04517,0.89491 1.90032,2.35442 1.90032,3.24337 0,0.88893 1.06893,2.88661 2.37541,4.43926 1.30647,1.55266 2.3754,3.2715 2.3754,3.81967 0,0.54817 0.79381,1.55538 1.76402,2.23825 0.97021,0.68286 2.05713,2.16953 2.41538,3.30367 0.35825,1.13414 2.16483,3.69958 4.01461,5.70097 1.84979,2.0014 3.98065,4.81472 4.73524,6.25184 0.75459,1.43712 1.75977,2.61295 2.23372,2.61295 0.47396,0 1.14092,0.87964 1.48215,1.95475 0.34123,1.07512 1.65276,2.34725 2.91452,2.82697 1.26175,0.47972 2.2941,1.33798 2.2941,1.90724 0,1.28506 5.50276,5.99771 7.3136,6.26348 1.85915,0.27287 4.08834,2.25718 4.08834,3.63923 0,0.63601 1.06894,1.64342 2.37541,2.23869 2.73755,1.24731 2.97581,2.29239 0.91295,4.00441 -1.8364,1.52409 -29.79366,0.58689 -33.01594,-1.10677 -2.10025,-1.10391 -5.16683,-4.20627 -8.75399,-8.8561 -1.04518,-1.35481 -3.93625,-4.69834 -6.4246,-7.43006 -2.48836,-2.73172 -4.77947,-5.9288 -5.09136,-7.10463 -0.3119,-1.17582 -0.90647,-2.13786 -1.32128,-2.13786 -0.41482,0 -1.21997,-1.17583 -1.78922,-2.61295 -0.56925,-1.43712 -2.50677,-4.53702 -4.3056,-6.88867 -1.79882,-2.35166 -3.29897,-4.85538 -3.33367,-5.56382 -0.0347,-0.70845 -1.13202,-2.55844 -2.43849,-4.1111 -1.30647,-1.55265 -2.37541,-3.78202 -2.37541,-4.95416 0,-1.17214 -1.06893,-3.06058 -2.3754,-4.19655 -1.30648,-1.13596 -2.37541,-3.04212 -2.37541,-4.23592 0,-1.19378 -0.85514,-2.90271 -1.90032,-3.79762 -1.04518,-0.89491 -1.90033,-2.70441 -1.90033,-4.02112 0,-1.31671 -0.85514,-3.1262 -1.90032,-4.02111 -1.04518,-0.89491 -1.90033,-2.56822 -1.90033,-3.71846 0,-1.15022 -1.06893,-3.36169 -2.3754,-4.91434 -1.30648,-1.55266 -2.37541,-3.48829 -2.37541,-4.30142 0,-0.81312 -0.55954,-1.82033 -1.24343,-2.23824 -0.68388,-0.41791 -2.11284,-2.47013 -3.17546,-4.56049 -2.1236,-4.17747 -5.49152,-5.57797 -6.41521,-2.66767 -0.30004,0.94535 -1.83327,2.28883 -3.40718,2.98551 -2.19694,0.97246 -2.86164,1.88327 -2.86164,3.92119 0,1.45998 0.57184,3.12908 1.27074,3.70913 0.69891,0.58003 1.33898,3.09093 1.42237,5.57977 0.19646,5.86302 0.85067,9.09781 3.08425,15.25012 1.00316,2.7632 1.82394,7.08817 1.82394,9.61103 0,3.00987 0.60361,5.36615 1.75554,6.85304 0.96555,1.24629 2.03784,4.40386 2.38286,7.01682 0.34502,2.61295 1.47911,5.90933 2.52018,7.32529 1.07057,1.45605 1.89288,4.07398 1.89288,6.02618 0,2.01299 0.79208,4.45869 1.90032,5.86759 1.04518,1.32872 1.90033,3.62081 1.90033,5.09351 0,3.02294 1.79549,7.51787 3.00301,7.51787 1.44778,0 0.9004,7.62151 -0.58842,8.19282 -2.70616,1.03844 -7.86641,-1.49678 -9.09787,-4.46977 -0.64826,-1.56503 -1.97515,-3.27179 -2.94866,-3.79279 -1.17926,-0.63112 -1.77001,-1.99691 -1.77001,-4.09216 0,-1.93817 -0.72916,-3.80476 -1.90032,-4.86464 -1.26287,-1.14289 -1.90033,-2.92648 -1.90033,-5.31708 0,-1.97853 -0.42757,-3.86157 -0.95016,-4.18455 -1.06016,-0.65521 -1.0682,-0.6049 -1.31085,8.20359 -0.1,3.62864 -0.71422,6.9546 -1.44761,7.83828 -0.8506,1.02491 -1.40787,5.32415 -1.67697,12.93752 -0.22168,6.27138 -0.20466,11.40251 0.0378,11.40251 1.1525,0 9.97272,-4.87949 10.95104,-6.0583 0.61001,-0.73503 3.08944,-1.63338 5.50984,-1.99634 2.4204,-0.36296 5.8337,-1.42796 7.58514,-2.36667 2.94574,-1.57883 6.44133,-1.69343 46.63988,-1.52905 37.51996,0.15342 43.9746,0.38729 47.25613,1.71221 2.09035,0.84398 6.55059,1.81256 9.91161,2.15237 3.82965,0.38722 6.98122,1.30239 8.44206,2.4515 1.44244,1.13462 3.82168,1.83499 6.24114,1.83719 2.38202,0.002 5.20967,0.82039 7.23562,2.09375 3.2412,2.03718 4.097,2.09169 33.73077,2.14845 26.38327,0.0505 35.32396,-0.23822 49.40844,-1.59563 2.77972,-0.2679 2.84287,-0.18069 2.54385,3.51255 -0.32679,4.03628 -1.33989,5.20141 -4.54298,5.22472 -1.0995,0.008 -3.15251,1.08348 -4.56222,2.38996 -1.40971,1.30647 -3.23885,2.3754 -4.06478,2.3754 -0.82592,0 -2.89214,0.85935 -4.59159,1.90967 -1.77909,1.09954 -6.17027,2.30022 -10.35114,2.8303 -3.99369,0.50635 -8.21214,1.46207 -9.37436,2.12383 -1.5317,0.87216 -7.99536,1.2045 -23.49177,1.2079 -17.69288,0.004 -22.03683,-0.26545 -25.19634,-1.56218 -2.09973,-0.86178 -6.25849,-1.87182 -9.24171,-2.24455 -2.9832,-0.37273 -6.29764,-1.43538 -7.3654,-2.36145 -1.28892,-1.11787 -4.40999,-1.91499 -9.28646,-2.37177 -4.03979,-0.37841 -9.05536,-1.38989 -11.14572,-2.24775 -3.30796,-1.35753 -8.41959,-1.54692 -39.43173,-1.46093 -34.97083,0.097 -44.34129,0.72271 -51.54611,3.44214 -3.55784,1.3429 -9.63268,6.06792 -15.29421,11.89586 -4.12722,4.24854 -11.8653,11.8662 -15.61903,15.37599 -1.71643,1.60489 -3.93238,2.91797 -4.92432,2.91797 -0.99194,0 -2.07494,0.85515 -2.40667,1.90033 -0.33173,1.04518 -1.26086,1.90032 -2.06473,1.90032 -0.80388,0 -2.73195,1.06894 -4.28461,2.37541 -1.55265,1.30647 -3.57908,2.3754 -4.50317,2.3754 -0.92409,0 -2.45405,0.85515 -3.39993,1.90033 -0.95208,1.05204 -2.92647,1.90032 -4.42299,1.90032 -1.48677,0 -3.49649,0.79327 -4.46603,1.76281 -0.96954,0.96954 -2.96677,2.06498 -4.43828,2.43431 -1.47151,0.36932 -3.72893,1.50013 -5.01648,2.51292 -1.28754,1.01279 -3.54179,1.84143 -5.00945,1.84143 -1.51376,0 -3.20574,0.75971 -3.91006,1.75563 -0.79471,1.12375 -2.87987,1.93826 -5.79341,2.26304 -2.5035,0.27907 -5.38639,1.26267 -6.40641,2.18578 -1.02003,0.9231 -4.04991,2.02541 -6.73309,2.44957 -2.68317,0.42415 -5.57252,1.37215 -6.42077,2.10667 -0.84825,0.73452 -3.55483,1.59616 -6.01461,1.91475 -2.45978,0.31859 -6.08782,1.4451 -8.06231,2.50336 -1.98318,1.06293 -5.38872,1.92412 -7.60881,1.92412 -3.04638,0 -4.26492,0.45983 -5.03585,1.90032 -0.55936,1.04518 -1.82964,1.90033 -2.82285,1.90033 -1.88652,0 -12.379769,9.98098 -12.379769,11.7754 0,0.5672 -1.037121,2.10482 -2.30471,3.41694 -5.58113,5.77716 -7.196909,7.77427 -7.196909,8.89538 0,0.65861 -1.068933,2.64632 -2.375406,4.41715 -1.306473,1.77082 -2.375406,3.92549 -2.375406,4.78814 0,0.86266 -0.812807,2.30405 -1.80623,3.20308 -0.993433,0.89905 -2.098538,3.21007 -2.455809,5.13562 -0.357261,1.92555 -1.343263,4.27383 -2.191112,5.21841 -1.083394,1.20699 -1.564889,3.648 -1.620122,8.21335 -0.04323,3.57277 -0.521202,7.07567 -1.062186,7.78422 -1.863078,2.44014 -3.216651,9.12602 -3.216651,15.88848 0,3.72814 0.341621,6.77844 0.759151,6.77844 0.417539,0 1.807152,-1.75952 3.088028,-3.91006 1.280885,-2.15053 3.077129,-4.71596 3.99166,-5.70097 0.914531,-0.985 1.662784,-2.16496 1.662784,-2.62212 0,-0.45718 1.867316,-2.78011 4.149597,-5.16211 2.28227,-2.38199 4.406719,-5.00096 4.720986,-5.81993 0.314275,-0.81897 1.197366,-1.48904 1.962436,-1.48904 0.765071,0 1.692857,-0.95096 2.061758,-2.11325 0.815676,-2.56999 13.37472,-14.98967 15.15786,-14.98967 0.7009,0 1.54575,-0.85514 1.87748,-1.90032 0.33173,-1.04518 1.15802,-1.90033 1.83622,-1.90033 0.67819,0 2.25278,-0.78994 3.49908,-1.75543 4.56191,-3.53403 6.9483,-3.35232 10.714,0.81588 2.81805,3.11923 3.42527,4.51455 3.4079,7.83097 -0.0133,2.53536 -0.71182,4.91846 -1.87919,6.41086 -1.40553,1.79686 -1.86322,3.88854 -1.8792,8.5881 -0.0153,4.4826 -0.58218,7.26087 -2.03585,9.9767 -1.91314,3.57422 -2.02093,5.17738 -2.13787,31.7938 -0.0677,15.41638 0.21608,29.34914 0.63068,30.96168 0.57767,2.24675 0.33758,3.44591 -1.02739,5.13158 -2.03949,2.51867 -5.07764,2.23032 -8.87036,-0.84186 l -2.25802,-1.82903 0,-32.6264 c 0,-28.20513 0.20769,-33.01269 1.53258,-35.4769 0.8429,-1.56776 1.81918,-5.75926 2.16948,-9.31443 0.59309,-6.01923 0.52034,-6.3983 -1.05749,-5.50982 -2.51378,1.41553 -7.32236,6.44154 -12.819334,13.39901 -2.683781,3.39683 -5.661196,6.94097 -6.616499,7.87586 -0.955302,0.93488 -1.736906,2.53828 -1.736906,3.56311 0,1.22986 -0.646025,1.8633 -1.900325,1.8633 -1.045178,0 -1.900324,0.56426 -1.900324,1.25389 0,0.68965 -1.068933,2.18333 -2.375406,3.31929 -1.306473,1.13597 -2.375406,2.76745 -2.375406,3.62551 0,0.85805 -0.962039,2.54721 -2.137865,3.75367 -4.520815,4.63859 -5.463433,5.81942 -5.463433,6.84411 0,0.58246 -1.10465,2.25097 -2.454773,3.70778 -2.381221,2.56938 -2.449443,2.99074 -2.277064,14.06384 0.267527,17.18614 0.162202,18.36015 -1.8255,20.34785 -0.993584,0.99359 -2.091336,2.70388 -2.439437,3.80065 -0.845188,2.66297 -4.37163,2.58906 -6.858243,-0.14374 z M 619.59022,620.78052 c -0.3599,-0.5823 -3.11283,-1.05874 -6.11764,-1.05874 -8.51349,0 -9.09792,-0.80563 -8.39106,-11.56665 0.64301,-9.78882 0.66786,-9.72567 -6.89484,-17.5133 -1.0684,-1.10017 -1.94255,-2.48617 -1.94255,-3.07998 0,-0.5938 -0.85515,-1.6137 -1.90032,-2.26642 -1.04518,-0.65273 -1.90033,-1.70863 -1.90033,-2.34645 0,-0.63782 -0.86649,-1.96693 -1.92554,-2.95359 -4.86868,-4.53586 2.94714,-7.25518 8.43824,-2.93587 1.26227,0.99291 3.04037,1.80528 3.95133,1.80528 0.91096,0 2.27255,0.92812 3.02575,2.0625 1.71906,2.58904 3.83871,1.56329 2.76537,-1.33823 -0.4203,-1.13617 -0.41169,-3.5811 0.0191,-5.4332 1.19827,-5.1514 1.05642,-5.63191 -2.25939,-7.6536 -2.52334,-1.53851 -4.79351,-1.88346 -12.41458,-1.88636 -10.30079,-0.004 -13.00223,-0.87446 -13.00223,-4.18998 0,-2.00712 0.54452,-2.28085 5.6967,-2.86375 3.13319,-0.35448 7.1814,-1.26486 8.99602,-2.02306 1.81463,-0.7582 4.99552,-1.37854 7.06864,-1.37854 2.07312,0 4.88873,-0.4256 6.2569,-0.94578 2.35801,-0.89652 2.48303,-1.28002 2.40035,-7.36376 -0.048,-3.52989 0.0363,-7.27292 0.18723,-8.31785 0.3869,-2.67839 -3.22812,-2.99389 -6.571,-0.57348 -3.63761,2.6338 -11.81802,3.64992 -13.45967,1.67185 -2.04074,-2.45894 -0.96807,-5.80698 1.96909,-6.14591 1.53347,-0.17695 2.80269,-1.03709 3.15136,-2.13566 0.32109,-1.01165 1.73113,-2.07963 3.13342,-2.37327 1.40228,-0.29362 3.19097,-0.94458 3.97486,-1.44655 0.78388,-0.50196 2.85846,-1.56938 4.61017,-2.37204 2.64241,-1.2108 3.07062,-1.81447 2.51387,-3.54401 -1.47329,-4.57684 -1.53994,-8.13042 -0.20156,-10.74813 0.77006,-1.50615 1.71297,-4.23496 2.09538,-6.06402 0.38239,-1.82906 1.30947,-4.02318 2.06019,-4.87583 0.75071,-0.85264 1.81507,-4.48701 2.36524,-8.07638 0.55019,-3.58936 1.57202,-7.17169 2.27076,-7.96075 0.78799,-0.88981 1.47059,-5.03934 1.7975,-10.92686 2.12024,-38.18489 2.03542,-30.84006 0.63626,-55.10003 -0.8473,-14.69163 -1.53168,-20.53739 -2.59521,-22.16794 -0.79444,-1.218 -1.78737,-5.61618 -2.2065,-9.77374 -0.43517,-4.31677 -1.36824,-8.25761 -2.1753,-9.18742 -0.77729,-0.89551 -1.68681,-3.73482 -2.02117,-6.30959 -0.33434,-2.57475 -1.24199,-5.38203 -2.01699,-6.23839 -0.775,-0.85638 -1.68665,-3.02549 -2.02589,-4.82026 -0.33923,-1.79477 -1.19411,-3.93234 -1.89973,-4.75016 -0.70562,-0.81782 -1.76085,-2.85782 -2.34493,-4.53333 -0.58408,-1.67551 -1.87214,-3.47998 -2.86235,-4.00992 -0.99022,-0.52994 -1.80039,-1.6397 -1.80039,-2.46612 0,-1.1496 -0.61382,-1.36317 -2.61295,-0.90914 -1.43712,0.32639 -7.09996,1.22388 -12.5841,1.99444 -5.77147,0.81092 -10.13101,1.88059 -10.3507,2.53965 -0.20876,0.62626 -1.38707,2.0724 -2.6185,3.21364 -1.23142,1.14124 -2.24351,2.45352 -2.24908,2.91619 -0.006,0.46266 -1.92965,2.92267 -4.27573,5.46668 -2.34608,2.54401 -4.2656,4.87884 -4.2656,5.18849 0,0.30966 -2.55431,2.97107 -5.67625,5.91424 -3.12193,2.94319 -6.01346,6.26282 -6.42561,7.37699 -0.77303,2.08967 -6.34351,8.81482 -13.18365,15.91637 -2.14877,2.23089 -4.16632,4.73233 -4.48344,5.55874 -0.31713,0.82641 -1.23137,1.50258 -2.03167,1.50258 -0.80028,0 -1.45506,0.44821 -1.45506,0.99602 0,0.54783 -2.99301,3.9772 -6.65113,7.62084 -3.65813,3.64363 -6.65114,6.94855 -6.65114,7.34426 0,0.39571 -0.74825,1.43435 -1.66278,2.30809 -0.91454,0.87375 -2.14606,2.08891 -2.73672,2.70035 -3.76457,3.89698 -9.79238,9.43563 -10.26899,9.43563 -0.31134,0 -2.40967,1.92408 -4.66295,4.27573 -2.25327,2.35165 -4.59773,4.27573 -5.2099,4.27573 -0.61217,0 -1.11304,0.61255 -1.11304,1.36121 0,0.74867 -0.8169,1.6205 -1.81533,1.93738 -0.99843,0.31689 -2.50479,1.62842 -3.34747,2.91451 -0.84268,1.28611 -2.31117,2.33836 -3.26331,2.33836 -0.95213,0 -2.50504,0.85515 -3.45092,1.90033 -0.94588,1.04518 -2.27982,1.90032 -2.96432,1.90032 -0.6845,0 -1.67198,0.79866 -2.1944,1.77481 -0.52242,0.97614 -2.28319,2.04147 -3.91283,2.3674 -1.62965,0.32593 -3.67581,1.41377 -4.54702,2.41742 -1.12307,1.29379 -3.40122,2.00411 -7.82854,2.44093 l -6.24451,0.6161 -2.33057,-3.62062 c -4.0687,-6.32088 -4.66406,-7.34932 -6.19887,-10.70804 -1.44075,-3.15289 -1.41633,-3.35607 0.59944,-4.98836 1.15576,-0.93587 2.71269,-1.70159 3.45984,-1.70159 0.74715,0 2.51696,-0.78825 3.93292,-1.75168 1.41596,-0.96342 4.49855,-2.97119 6.85021,-4.4617 2.35165,-1.49051 5.25507,-3.69526 6.45204,-4.89946 1.19698,-1.20419 3.02758,-2.18943 4.06801,-2.18943 1.04044,0 2.12301,-0.60277 2.40571,-1.33949 0.28271,-0.73673 1.552,-1.60002 2.82067,-1.91842 1.26865,-0.31842 2.30665,-1.04061 2.30665,-1.60487 0,-0.98456 5.40827,-6.53917 6.3669,-6.53917 0.6376,0 19.82267,-19.58343 24.51338,-25.02239 2.09035,-2.42381 4.34428,-4.4127 5.00872,-4.41977 0.66444,-0.007 1.69511,-1.0818 2.29038,-2.38827 0.59527,-1.30648 1.43027,-2.37541 1.85555,-2.37541 0.42529,0 1.39096,-1.17583 2.14595,-2.61295 0.75498,-1.43712 3.01072,-4.37882 5.01275,-6.53712 2.00203,-2.1583 5.46602,-6.00645 7.69775,-8.55146 2.23172,-2.54501 5.96785,-6.76516 8.30247,-9.37811 2.8121,-3.14733 4.06668,-5.31208 3.71708,-6.41374 -0.41064,-1.29398 -0.0391,-1.61021 1.67422,-1.42525 1.77717,0.19184 2.2609,-0.27628 2.50755,-2.42664 0.19721,-1.71922 1.12408,-3.03725 2.61295,-3.71562 1.26904,-0.57821 2.30734,-1.43598 2.30734,-1.90617 0,-1.90381 14.62977,-14.968 17.93121,-16.01235 1.89609,-0.59978 3.94253,-1.71256 4.54763,-2.47284 0.84756,-1.06491 4.6989,-1.50992 16.77192,-1.93796 15.03385,-0.53302 15.77743,-0.47249 18.26873,1.48717 1.42836,1.12354 3.1479,2.0428 3.82121,2.0428 0.67331,0 2.49456,1.06894 4.04722,2.37541 1.55266,1.30647 3.29575,2.37541 3.87355,2.37541 0.57779,0 1.05054,0.77804 1.05054,1.72897 0,0.95094 1.06893,2.6584 2.3754,3.79437 1.30648,1.13596 2.37541,2.70595 2.37541,3.48886 0,0.78291 0.85515,1.95752 1.90032,2.61025 1.04518,0.65272 1.90033,2.09519 1.90033,3.20548 0,1.1103 0.81998,3.06115 1.82218,4.33524 1.00221,1.2741 2.12789,4.00409 2.50152,6.06666 0.37364,2.06256 1.47772,4.51503 2.45355,5.44992 0.97582,0.93488 1.77421,2.98289 1.77421,4.55112 0,1.56823 0.80075,4.43769 1.77944,6.37658 0.9787,1.93889 2.09259,6.51828 2.47531,10.1764 0.38273,3.65813 1.34647,7.91055 2.14166,9.44983 0.83226,1.61105 1.77929,7.25596 2.23167,13.30227 0.43223,5.77697 1.4435,12.36471 2.24726,14.63942 1.20065,3.39796 1.40518,8.31399 1.1464,27.55471 -0.18748,13.93905 -0.75043,24.76504 -1.39072,26.74444 -0.59164,1.82906 -1.45357,7.46315 -1.9154,12.52019 -0.55649,6.09364 -1.33408,9.68904 -2.30562,10.66056 -0.80626,0.80627 -1.76293,4.02494 -2.12594,7.15262 -0.363,3.12767 -1.24067,6.16858 -1.95039,6.75759 -1.95394,1.62162 -2.34256,6.63603 -2.75877,35.59645 -0.2103,14.6325 -0.82251,28.52863 -1.36047,30.88028 -0.53796,2.35165 -1.4495,11.1169 -2.02566,19.47833 -0.62432,9.06042 -1.60157,16.41227 -2.41881,18.19668 -0.75419,1.64674 -1.37781,4.21218 -1.38581,5.70097 -0.008,1.48879 -0.37395,3.27378 -0.81322,3.96665 -1.0505,1.65694 -8.21732,2.62303 -9.08182,1.22423 z m -25.48396,-9.31774 c -0.91453,-0.23749 -1.66278,-1.03196 -1.66278,-1.76547 0,-0.73352 -1.06893,-2.03406 -2.37541,-2.8901 -1.30647,-0.85603 -2.3754,-2.13356 -2.3754,-2.83896 0,-0.70539 -0.80597,-1.71388 -1.79103,-2.24107 -0.98507,-0.52718 -2.05905,-2.0264 -2.38663,-3.33157 -0.32757,-1.30517 -1.44569,-2.828 -2.4847,-3.38406 -1.039,-0.55606 -1.8891,-1.62229 -1.8891,-2.3694 0,-0.74711 -0.82619,-1.80055 -1.83598,-2.34096 -1.00979,-0.54043 -2.10753,-1.83819 -2.43943,-2.88393 -0.3319,-1.04573 -1.21601,-1.90133 -1.96468,-1.90133 -0.74866,0 -1.36121,-0.57794 -1.36121,-1.28432 0,-0.70637 -1.17583,-2.60063 -2.61295,-4.20944 -1.43712,-1.60882 -3.46809,-4.06021 -4.51327,-5.44754 -1.04518,-1.38734 -3.93129,-4.65247 -6.41359,-7.25585 -2.4823,-2.60337 -4.51327,-5.13249 -4.51327,-5.62023 0,-0.48776 -0.65195,-0.88684 -1.44876,-0.88684 -0.79682,0 -1.85518,-1.06893 -2.35189,-2.3754 -0.66367,-1.74559 -1.60218,-2.37569 -3.5396,-2.37648 -1.85127,-7.5e-4 -4.26568,-1.48637 -8.10701,-4.98836 -3.0088,-2.743 -5.46735,-5.41889 -5.46343,-5.94642 0.004,-0.52753 -0.84803,-1.49319 -1.89321,-2.14592 -1.04518,-0.65272 -1.90032,-1.74308 -1.90032,-2.42303 0,-0.93725 -2.70018,-1.26827 -11.16384,-1.36862 -10.02048,-0.11881 -11.32546,-0.33196 -12.74195,-2.08125 -0.86797,-1.0719 -2.2336,-1.9489 -3.03473,-1.9489 -0.80113,0 -2.07611,-0.88448 -2.83329,-1.9655 -0.75745,-1.08141 -2.17069,-1.82934 -3.14191,-1.66278 -1.09397,0.1876 -1.77125,-0.26387 -1.7811,-1.18728 -0.009,-0.81949 -1.85533,-3.38493 -4.10353,-5.70097 -6.65937,-6.86032 -7.75761,-8.16113 -7.75761,-9.18852 0,-0.53729 -0.77434,-1.17938 -1.72076,-1.42687 -0.94642,-0.24749 -3.0525,-2.54213 -4.68018,-5.09917 -1.62768,-2.55705 -3.63256,-5.39744 -4.4553,-6.31197 -0.82273,-0.91453 -1.49587,-2.25497 -1.49587,-2.97875 0,-0.72378 -1.06893,-2.01636 -2.3754,-2.87239 -1.30648,-0.85604 -2.37541,-2.19212 -2.37541,-2.96907 0,-0.77694 -0.85515,-2.14483 -1.90033,-3.03975 -1.04517,-0.89491 -1.90032,-2.39639 -1.90032,-3.33663 0,-0.94025 -1.11331,-2.21679 -2.47403,-2.83678 -2.20606,-1.00515 -2.41978,-1.53167 -1.9732,-4.86116 0.27545,-2.05366 1.20256,-4.42335 2.06024,-5.26598 1.43646,-1.41126 1.70443,-1.35519 3.39845,0.71106 1.01146,1.23373 1.83903,2.82208 1.83903,3.52968 0,0.70761 0.85514,1.74422 1.90032,2.30358 1.04518,0.55936 1.90033,1.59098 1.90033,2.29249 0,0.70151 0.66606,1.82826 1.48014,2.50388 0.81407,0.67562 2.07497,2.65205 2.802,4.39207 0.72703,1.74002 1.72943,3.16367 2.22756,3.16367 0.49813,0 1.35285,1.28272 1.89938,2.85048 0.54653,1.56777 1.65729,2.85049 2.46836,2.85049 0.81106,0 1.47467,0.61934 1.47467,1.37629 0,0.75696 1.06893,2.52969 2.3754,3.93939 1.30648,1.40971 2.37541,3.32701 2.37541,4.26066 0,0.93365 0.85514,1.96896 1.90032,2.30069 1.04518,0.33173 1.90033,1.01774 1.90033,1.52446 0,0.76078 5.29296,6.18101 13.38198,13.70378 0.82772,0.76979 2.08288,1.3996 2.78925,1.3996 0.70636,0 2.30095,0.95509 3.54352,2.12243 1.81321,1.70343 3.62735,2.19154 9.18915,2.47239 6.39158,0.32276 6.97048,0.19479 7.45222,-1.64736 0.41793,-1.59822 1.26152,-1.9973 4.22187,-1.9973 4.34055,0 5.97996,1.31941 5.97996,4.81271 0,1.39277 0.79633,3.55202 1.76962,4.79832 0.97329,1.2463 2.07104,3.22804 2.43944,4.40387 0.38555,1.23055 1.43494,2.13786 2.47267,2.13786 0.99158,0 2.24193,0.82039 2.77856,1.8231 0.53664,1.00269 2.31386,2.117 3.9494,2.47623 1.76268,0.38715 3.16535,1.38597 3.44429,2.45263 0.25882,0.98973 0.90135,1.7995 1.42785,1.7995 1.19432,0 15.92401,14.8855 15.92401,16.09247 0,0.48532 0.85515,1.15381 1.90033,1.48554 1.04518,0.33173 1.90703,1.10879 1.91523,1.72681 0.009,0.61802 1.93227,3.2587 4.27573,5.86817 2.34345,2.60946 4.26083,5.15987 4.26083,5.66755 0,0.85961 0.77127,1.76921 6.41359,7.56373 1.17583,1.20755 2.13787,2.69156 2.13787,3.29781 0,0.60625 1.06893,1.50867 2.3754,2.00539 1.78218,0.67759 2.37541,1.59319 2.37541,3.66632 0,1.96409 0.54955,2.90689 1.90032,3.26013 1.4556,0.38064 1.90033,1.29603 1.90033,3.91146 0,1.87799 -0.17882,3.41452 -0.39737,3.41452 -0.21856,0 -0.96681,0.16297 -1.66278,0.36215 -0.69599,0.19917 -2.01367,0.16783 -2.92821,-0.0697 z m -77.07631,-94.15729 c -0.29151,-0.47167 -0.79791,-2.5329 -1.12533,-4.5805 -0.48452,-3.02997 -0.22916,-4.05426 1.37194,-5.50324 1.08199,-0.97919 2.25135,-3.32505 2.59858,-5.21301 0.34723,-1.88796 1.42453,-4.45237 2.39399,-5.69866 0.96947,-1.2463 1.76266,-2.98638 1.76266,-3.86684 0,-0.88047 1.06894,-2.53027 2.37541,-3.66623 1.30647,-1.13597 2.37541,-2.63247 2.37541,-3.32557 0,-0.6931 1.06893,-2.1896 2.3754,-3.32557 1.30647,-1.13596 2.37541,-2.46697 2.37541,-2.95781 0,-0.49082 0.85514,-1.16382 1.90032,-1.49555 1.04518,-0.33173 1.90033,-1.13858 1.90033,-1.79301 0,-1.46707 3.65633,-4.71844 7.59877,-6.75714 1.62293,-0.83925 3.1699,-2.09694 3.43772,-2.79486 0.26782,-0.69792 1.78161,-1.52788 3.364,-1.84435 1.78255,-0.35651 3.06672,-1.30073 3.37564,-2.48203 0.38402,-1.46854 1.29387,-1.90661 3.95986,-1.90661 2.35581,0 3.81676,-0.56923 4.57431,-1.78226 0.61217,-0.98025 2.74599,-2.08535 4.74183,-2.4558 1.99583,-0.37045 4.3746,-1.34279 5.28615,-2.16075 1.06549,-0.9561 4.20417,-1.65065 8.789,-1.94488 l 7.13164,-0.45768 0,2.44648 c 0,3.16962 -3.21709,5.40472 -7.77928,5.40472 -2.58336,0 -3.83394,0.5197 -4.57283,1.90033 -0.64321,1.20185 -1.98947,1.90032 -3.66273,1.90032 -1.63788,0 -3.43248,0.90487 -4.71109,2.37541 -1.13597,1.30647 -2.64331,2.3754 -3.34966,2.3754 -0.70634,0 -2.05816,0.85515 -3.00403,1.90033 -0.94588,1.04518 -2.10392,1.90032 -2.57344,1.90032 -1.13385,0 -7.4032,5.02897 -7.40324,5.93852 -6e-5,1.58468 3.37915,0.56164 5.79732,-1.75512 1.83632,-1.7593 3.1469,-2.28646 4.56527,-1.8363 2.64205,0.83856 2.70453,4.8992 0.0882,5.72961 -1.04574,0.3319 -2.3435,1.42964 -2.88392,2.43942 -0.54042,1.0098 -1.80794,1.83598 -2.81672,1.83598 -1.00877,0 -3.10814,1.17583 -4.66527,2.61295 -4.71358,4.35033 -5.69597,5.04778 -9.13276,6.48375 -1.81732,0.75933 -3.30422,1.81584 -3.30422,2.34782 0,0.53199 -0.74825,1.24268 -1.66278,1.57932 -2.29945,0.84645 -11.63949,10.61317 -11.63949,12.17121 0,0.69859 -0.69312,1.40841 -1.54026,1.57737 -0.84715,0.16896 -2.02297,1.80372 -2.61295,3.63278 -1.05033,3.25626 -4.44821,5.07574 -5.69912,3.05173 z m -41.35729,-40.80645 c -3.18818,-0.38816 -5.80012,-2.12612 -5.80012,-3.85935 0,-1.05656 9.96252,-3.99372 13.54628,-3.99372 1.66926,0 4.08245,-1.49337 7.29317,-4.51327 2.63914,-2.4823 5.8849,-5.29191 7.21279,-6.24358 2.35346,-1.68665 5.97323,-6.51462 9.15374,-12.20904 0.86619,-1.55084 2.2558,-3.57211 3.08803,-4.4917 0.83222,-0.9196 1.51313,-2.89349 1.51313,-4.38643 0,-1.49293 0.8165,-3.59713 1.81443,-4.676 1.09118,-1.17966 1.98937,-3.85527 2.2533,-6.71237 0.3626,-3.92519 1.11667,-5.48951 4.33907,-9.00145 3.77544,-4.11466 3.94556,-4.19065 5.31778,-2.3754 2.01813,2.66966 2.08418,23.86596 0.0832,26.72266 -0.76711,1.09521 -1.67784,3.86268 -2.02382,6.14993 -0.34598,2.28725 -1.37949,5.01379 -2.29668,6.05897 -0.9172,1.04518 -1.94144,2.80587 -2.27611,3.91264 -0.68725,2.27287 -8.44371,10.81487 -9.82031,10.81487 -0.49338,0 -1.67094,0.85515 -2.61682,1.90033 -0.94588,1.04518 -2.19429,1.90032 -2.77428,1.90032 -0.57998,0 -2.63593,0.8476 -4.56878,1.88354 -1.93285,1.03594 -5.13332,2.08882 -7.11215,2.33971 -6.87689,0.87191 -13.11833,1.16986 -16.32591,0.77934 z m 82.56498,-74.96486 c 0,-2.41264 5.59032,-8.9012 7.66895,-8.9012 0.48538,0 0.88251,-0.85515 0.88251,-1.90032 0,-1.26688 0.63344,-1.90033 1.90032,-1.90033 1.04518,0 1.90033,-0.44353 1.90033,-0.9856 0,-0.54209 1.96332,-2.89374 4.36293,-5.2259 8.18964,-7.95942 2.14925,-4.26525 -7.04927,4.31118 -5.04446,4.7033 -9.69543,8.55146 -10.33549,8.55146 -0.64006,0 -1.61618,-0.84539 -2.16917,-1.87864 -0.81236,-1.51793 -0.63633,-2.10914 0.91674,-3.07905 2.44234,-1.52527 2.4506,-3.24409 0.0219,-4.54394 -2.5661,-1.37333 -2.39165,-3.26015 0.47508,-5.13851 1.30648,-0.85604 2.37541,-2.19235 2.37541,-2.96957 0,-1.39804 15.24943,-16.86429 20.93753,-21.23523 2.50369,-1.92392 4.04133,-2.26834 10.24493,-2.29477 8.2711,-0.0352 11.14394,0.63981 11.97854,2.81473 1.00419,2.61687 -1.17207,3.85159 -8.25827,4.68538 -6.70492,0.78894 -6.7568,0.81517 -2.12213,1.07269 9.22781,0.51275 10.92686,1.07438 10.92686,3.6119 0,1.64168 -0.6213,2.43669 -2.13786,2.73556 -1.17583,0.23173 -4.06194,0.82989 -6.4136,1.32924 l -4.27573,0.90794 6.22357,0.1141 c 6.3846,0.11706 8.50395,1.13172 8.50395,4.07136 0,2.02384 -2.7572,3.64405 -6.20126,3.64405 -1.38906,0 -3.61269,0.85514 -4.94142,1.90032 -1.32872,1.04518 -3.41728,1.90033 -4.64124,1.90033 -1.28624,0 -2.84169,0.94064 -3.68583,2.22895 -0.80326,1.22594 -2.53948,2.7206 -3.85827,3.32148 -2.60868,1.18859 -4.44841,2.56273 -6.88012,5.13889 -0.86325,0.91453 -2.10603,1.66279 -2.76172,1.66279 -0.6557,0 -1.89257,1.06893 -2.7486,2.3754 -0.85603,1.30648 -2.09874,2.37541 -2.76158,2.37541 -0.66283,0 -1.42876,0.85515 -1.70209,1.90032 -0.36185,1.38373 -1.29603,1.90033 -3.43638,1.90033 -2.54129,0 -2.93947,-0.33876 -2.93947,-2.50075 z"
     id="path3584"
     inkscape:connector-curvature="0" />
</svg>
