<?xml version="1.0" encoding="UTF-8" standalone="no"?>
<!-- Created with Inkscape (http://www.inkscape.org/) -->

<svg
   xmlns:dc="http://purl.org/dc/elements/1.1/"
   xmlns:cc="http://creativecommons.org/ns#"
   xmlns:rdf="http://www.w3.org/1999/02/22-rdf-syntax-ns#"
   xmlns:svg="http://www.w3.org/2000/svg"
   xmlns="http://www.w3.org/2000/svg"
   xmlns:sodipodi="http://sodipodi.sourceforge.net/DTD/sodipodi-0.dtd"
   xmlns:inkscape="http://www.inkscape.org/namespaces/inkscape"
   width="744.09448819"
   height="1052.3622047"
   id="svg2"
   version="1.1"
   inkscape:version="0.48.3.1 r9886"
   sodipodi:docname="einhorn.hpgl">
  <defs
     id="defs4" />
  <sodipodi:namedview
     id="base"
     pagecolor="#ffffff"
     bordercolor="#666666"
     borderopacity="1.0"
     inkscape:pageopacity="0.0"
     inkscape:pageshadow="2"
     inkscape:zoom="1.6729415"
     inkscape:cx="97.722298"
     inkscape:cy="882.9431"
     inkscape:document-units="px"
     inkscape:current-layer="g3123"
     showgrid="false"
     showguides="true"
     inkscape:guide-bbox="true"
     inkscape:window-width="1020"
     inkscape:window-height="729"
     inkscape:window-x="0"
     inkscape:window-y="18"
     inkscape:window-maximized="0" />
  <metadata
     id="metadata7">
    <rdf:RDF>
      <cc:Work
         rdf:about="">
        <dc:format>image/svg+xml</dc:format>
        <dc:type
           rdf:resource="http://purl.org/dc/dcmitype/StillImage" />
        <dc:title></dc:title>
      </cc:Work>
    </rdf:RDF>
  </metadata>
  <g
     inkscape:label="Layer 1"
     inkscape:groupmode="layer"
     id="layer1">
    <flowRoot
       xml:space="preserve"
       id="flowRoot2985"
       style="fill:black;stroke:none;stroke-opacity:1;stroke-width:1px;stroke-linejoin:miter;stroke-linecap:butt;fill-opacity:1;font-family:DejaVu Sans Mono;font-style:normal;font-weight:normal;font-size:40px;line-height:125%;letter-spacing:0px;word-spacing:0px;-inkscape-font-specification:DejaVu Sans Mono;font-stretch:normal;font-variant:normal"><flowRegion
         id="flowRegion2987"><rect
           id="rect2989"
           width="605.32019"
           height="358.41327"
           x="61.063004"
           y="208.09981"
           style="-inkscape-font-specification:DejaVu Sans Mono;font-family:DejaVu Sans Mono;font-weight:normal;font-style:normal;font-stretch:normal;font-variant:normal" /></flowRegion><flowPara
         id="flowPara2991" /></flowRoot>    <flowRoot
       xml:space="preserve"
       id="flowRoot2993"
       style="font-size:40px;font-style:normal;font-variant:normal;font-weight:normal;font-stretch:normal;line-height:125%;letter-spacing:0px;word-spacing:0px;fill:#000000;fill-opacity:1;stroke:none;font-family:ttf;-inkscape-font-specification:ttf"
       transform="translate(136.72803,-181.86155)"
       inkscape:export-xdpi="90"
       inkscape:export-ydpi="90"><flowRegion
         id="flowRegion2995"><rect
           id="rect2997"
           width="748.68555"
           height="373.01529"
           x="67.700287"
           y="235.97639" /></flowRegion><flowPara
         id="flowPara2999">Bitte Nicht das </flowPara><flowPara
         id="flowPara3919">Rosa Einhorn </flowPara><flowPara
         id="flowPara3921">fuettern!</flowPara></flowRoot>    <g
       id="g3123"
       transform="translate(-19.168781,27.80988)">
      <path
         style="fill:none"
         d="m 120.78189,194.70727 c -3.54145,-0.20864 -6.42037,-1.02857 -7.52951,-2.14445 -0.71552,-0.71988 -1.39283,-2.06656 -1.7762,-3.53158 -0.0997,-0.3811 -0.18648,-0.70193 -0.19278,-0.71293 -0.006,-0.011 -0.54001,0.0662 -1.18601,0.17158 -6.08765,0.99305 -13.324811,-0.14649 -15.696575,-2.47152 -0.64021,-0.6276 -0.890147,-1.17889 -1.102628,-2.43207 -0.195782,-1.15467 -0.167501,-7.24731 0.04755,-10.24479 0.668743,-9.32108 2.063966,-19.6383 3.439065,-25.43075 0.160335,-0.67539 0.275182,-1.24432 0.255217,-1.26429 -0.05781,-0.0578 -1.270068,2.35044 -2.026901,4.0266 -3.267169,7.23578 -4.997868,14.09125 -5.472865,21.67855 -0.163574,2.61282 -0.05982,6.98746 0.25825,10.88878 0.324962,3.98585 0.314229,6.15292 -0.03488,7.04276 -0.597209,1.52221 -2.299555,2.43056 -5.462091,2.91447 -1.406854,0.21526 -6.278823,0.29912 -8.47912,0.14594 -7.873067,-0.54812 -14.789235,-2.48844 -16.400727,-4.60122 -0.550453,-0.72167 -0.684003,-1.92274 -0.452183,-4.06662 0.552638,-5.11081 7.003846,-22.02653 13.062103,-34.25013 1.719653,-3.46971 2.952167,-5.65687 3.749697,-6.65402 0.831342,-1.03943 2.740061,-2.12499 4.210622,-2.39471 0.734869,-0.13479 1.847012,-0.13843 2.533294,-0.008 0.288462,0.0547 0.534054,0.0881 0.54576,0.0743 0.01171,-0.0139 -0.03865,-1.27249 -0.111902,-2.79691 -0.64952,-13.51696 -0.182807,-21.86788 1.579485,-28.26188 1.502086,-5.4499 4.135566,-9.71817 7.69175,-12.466569 3.934164,-3.040522 8.697279,-4.5093 15.287079,-4.713999 2.09708,-0.06514 3.78645,-0.272269 5.67647,-0.695971 1.36622,-0.306279 1.50802,-0.373321 2.10935,-0.997249 4.20915,-4.367319 8.86292,-25.144487 8.29961,-37.054298 -0.15012,-3.173806 -0.42048,-4.787556 -0.89555,-5.345397 -1.51237,-1.77586 -2.47073,-3.109442 -3.37901,-4.70197 -3.15186,-5.526292 -5.13616,-12.670648 -5.7324,-20.639172 -0.15012,-2.006186 -0.0593,-7.418166 0.15274,-9.106972 0.81789,-6.5127207 2.74975,-10.8871541 5.67936,-12.8601294 0.83064,-0.5594029 1.8335,-1.02079365 2.44281,-1.12387307 1.77093,-0.29959656 3.98842,-0.14372717 5.12854,0.36049047 2.14495,0.9485972 4.61045,3.2913606 6.55017,6.2240963 0.20706,0.3130522 0.40357,0.5687756 0.43669,0.5682742 0.0331,-5.049e-4 0.23375,-0.3803826 0.44583,-0.8441806 1.15486,-2.5255714 2.71182,-4.1973592 4.8362,-5.1928775 1.09714,-0.5141378 1.88585,-0.690026 3.10217,-0.6918078 1.17553,-0.00172 2.21184,0.2304238 3.27315,0.7332226 2.13644,1.0121406 4.37634,3.1479362 6.31243,6.01905 0.64673,0.9590512 0.81867,1.1531877 0.98906,1.1166962 0.11343,-0.024294 0.60714,-0.088291 1.09713,-0.1422156 4.35407,-0.479173 9.64466,-0.3708111 14.16339,0.2900941 9.08932,1.3294011 17.97538,4.7439271 25.16965,9.6716061 l 1.22234,0.837233 0.213,-0.19317 c 0.83067,-0.753339 3.49255,-2.978688 5.06346,-4.233075 3.43609,-2.743769 6.39315,-4.798437 8.96012,-6.2257851 3.79608,-2.1107845 6.37757,-2.5689669 7.70758,-1.3679953 0.57587,0.5200152 0.74132,1.1782266 0.66593,2.6493424 -0.0852,1.66291 -0.19245,2.192273 -0.7035,3.472556 -1.51025,3.78354 -4.927,9.206157 -9.44075,14.983145 -0.74197,0.949624 -1.38483,1.785124 -1.42855,1.856669 -0.0514,0.08406 0.14518,0.488826 0.55559,1.144088 2.90243,4.633941 4.59662,9.329939 5.16585,14.318855 0.33443,2.930989 0.46227,9.700965 0.24788,13.126861 -0.47704,7.62308 -1.76154,13.087133 -4.2769,18.193268 -0.47877,0.971905 -0.8705,1.848999 -0.8705,1.9491 0,0.262061 0.47078,0.5137 1.93029,1.031774 3.75886,1.334267 4.49513,1.652724 5.11424,2.212055 0.63781,0.576215 0.71333,0.805347 0.6432,1.951399 -0.46348,7.575065 -6.2759,13.758003 -16.49773,17.549401 -6.01131,2.22966 -13.70217,3.3177 -20.4412,2.89186 -5.21734,-0.3297 -9.93112,-1.41428 -13.63631,-3.13752 -0.42228,-0.1964 -0.78518,-0.3388 -0.80646,-0.31645 -0.0213,0.0224 0.0652,0.57518 0.19216,1.22851 0.60334,3.10453 0.83297,5.50603 0.83559,8.73858 0.004,4.55694 -0.54525,8.0594 -1.88656,12.03687 -1.08902,3.2293 -2.86519,6.63539 -4.89679,9.39037 l -0.27298,0.37018 0.26914,1.26313 c 1.3748,6.45224 3.55104,13.48758 6.36167,20.56596 2.26001,5.69168 4.01638,9.53103 8.96627,19.59979 3.3064,6.72567 4.01018,8.32787 4.43517,10.09686 0.56374,2.34659 -0.0753,3.52278 -2.35895,4.3419 -3.98168,1.42817 -15.09404,1.48039 -23.13702,0.10873 -3.47154,-0.59204 -4.96665,-1.21125 -5.74084,-2.37761 -2.01185,-3.03098 -4.33746,-13.8829 -6.18439,-28.85798 -0.36157,-2.93171 -0.98304,-8.81911 -1.1485,-10.88029 -0.0371,-0.46277 -0.0828,-0.86845 -0.10152,-0.9015 -0.0288,-0.051 -2.79636,0.67495 -2.8954,0.75951 -0.0914,0.078 0.94106,7.02503 1.57345,10.58711 0.87081,4.90507 2.9863,14.67865 4.24198,19.59799 2.4536,9.61234 2.58358,10.21123 2.58358,11.90323 0,0.82196 -0.13349,1.76905 -0.31432,2.23001 -0.18225,0.46461 -1.00108,1.10679 -1.90804,1.49641 -2.35457,1.0115 -6.25911,1.71051 -10.84417,1.94137 -2.294,0.1155 -7.66533,0.1065 -9.7504,-0.0163 z m -18.68414,-53.5299 c 0.50361,-0.004 0.91565,-0.0313 0.91565,-0.0608 0,-0.0742 -1.39084,-1.87141 -1.4701,-1.89961 -0.0606,-0.0216 -1.40058,1.95299 -1.40058,2.06378 0,0.0285 0.23386,0.0185 0.51969,-0.0222 0.28583,-0.0407 0.93174,-0.0773 1.43534,-0.0812 z"
         id="path3137"
         inkscape:connector-curvature="0" />
      <path
         style="fill:none"
         d="m 122.91015,194.75934 c -0.35388,-0.0216 -1.46656,-0.12995 -2.47261,-0.24083 -3.89306,-0.42905 -6.15158,-1.14853 -7.17358,-2.28524 -0.55094,-0.61277 -1.16442,-1.8629 -1.49849,-3.05354 -0.14512,-0.51722 -0.29833,-0.97823 -0.34047,-1.02448 -0.0421,-0.0462 -0.73814,0.0149 -1.54666,0.13589 -1.84458,0.27601 -5.25038,0.37209 -7.17135,0.2023 -4.26073,-0.3766 -7.561021,-1.58336 -8.593613,-3.14229 -0.161442,-0.24374 -0.363897,-0.75253 -0.4499,-1.13065 -1.133344,-4.98294 0.978626,-26.81298 3.609246,-37.3064 0.211195,-0.84245 0.363197,-1.55251 0.337783,-1.57793 -0.105013,-0.10501 -0.371879,0.33095 -1.267297,2.07027 -2.576109,5.00402 -4.489698,10.15424 -5.645697,15.19478 -1.554774,6.77934 -1.806444,12.37233 -1.001441,22.25552 0.254331,3.12249 0.167634,4.81683 -0.291947,5.70556 -0.981003,1.89705 -4.73341,2.7951 -11.038947,2.64192 -3.756898,-0.0913 -7.348117,-0.49821 -10.646118,-1.20635 -4.869793,-1.04565 -7.651449,-2.36414 -8.540006,-4.04793 -0.561907,-1.0648 -0.287022,-3.18839 0.972328,-7.51156 3.075645,-10.55826 12.078204,-31.43301 15.666527,-36.32689 0.292894,-0.39946 0.744734,-0.85171 1.114696,-1.11572 0.747032,-0.53306 2.069206,-1.16016 2.818417,-1.33672 0.645063,-0.15203 1.842949,-0.17588 2.858474,-0.0569 l 0.730213,0.0855 -0.06711,-1.3229 c -0.03691,-0.7276 -0.110224,-2.19154 -0.16292,-3.25319 -0.170313,-3.43132 -0.2289,-11.72517 -0.100692,-14.25439 0.403402,-7.95811 1.609663,-13.55007 3.880262,-17.98804 1.14624,-2.24036 2.387685,-3.9194 4.127528,-5.582421 2.736991,-2.616139 6.042943,-4.280061 10.282134,-5.175114 1.81773,-0.38379 3.40192,-0.553923 6.07,-0.65188 3.3169,-0.121778 6.59388,-0.678485 7.54524,-1.281817 0.95363,-0.604775 2.33843,-2.917711 3.47145,-5.798116 3.51476,-8.93538 6.02058,-24.17303 5.41266,-32.913787 -0.10662,-1.532864 -0.44363,-3.780905 -0.61583,-4.107784 -0.0574,-0.109026 -0.32813,-0.443227 -0.60155,-0.742669 -2.86067,-3.132882 -5.51397,-8.546025 -7.03781,-14.358195 -1.33248,-5.082318 -1.93143,-10.18383 -1.80665,-15.387949 0.1307,-5.450841 0.99372,-9.7281758 2.61611,-12.9660278 1.32768,-2.6496879 2.89856,-4.1008112 5.41925,-5.00611281 0.79925,-0.28704797 1.00801,-0.32083601 2.02927,-0.32843717 1.28867,-0.009591 2.04585,0.17340364 3.36071,0.81220898 2.02465,0.9836551 4.26717,3.1523107 6.18482,5.9811084 0.32287,0.4762785 0.62151,0.8659608 0.66365,0.8659608 0.0421,0 0.36258,-0.5902209 0.7121,-1.311602 1.06893,-2.2061515 2.29686,-3.6258215 3.94417,-4.5600378 2.15864,-1.2241987 4.34879,-1.38014657 6.54466,-0.4660065 2.21677,0.9228438 4.60909,3.1676443 6.70499,6.2915264 0.44355,0.6611098 0.75697,1.0344578 0.8661,1.0317237 0.0941,-0.00236 0.68328,-0.067286 1.30939,-0.1442888 4.49999,-0.5534384 10.37073,-0.3653861 15.46291,0.49531 8.40065,1.4199076 16.48782,4.5983806 23.32174,9.1660676 0.88789,0.593451 1.6721,1.079001 1.74269,1.079001 0.0706,0 0.54797,-0.367496 1.06082,-0.816658 6.66122,-5.83394 12.94002,-10.1322588 16.58418,-11.3531675 2.07045,-0.6936652 3.65767,-0.5730573 4.33254,0.3292154 0.51449,0.6878796 0.59591,0.9540823 0.59386,1.9417267 -0.005,2.3221894 -1.60567,5.9885104 -4.76662,10.9167804 -1.59776,2.491082 -4.03499,5.872222 -6.14826,8.529408 -0.51735,0.650511 -0.94064,1.232859 -0.94064,1.294107 0,0.06125 0.35651,0.687182 0.79224,1.390963 2.48764,4.01793 4.05743,8.101434 4.77292,12.415844 0.84032,5.067068 0.79767,14.198737 -0.0953,20.3917 -0.72571,5.033282 -1.89583,8.885376 -3.91334,12.882979 -0.40242,0.797373 -0.73166,1.513464 -0.73166,1.591314 0,0.214891 0.38934,0.534497 0.94039,0.771962 0.27222,0.117308 1.38082,0.523786 2.46355,0.903285 2.87936,1.009227 3.98008,1.608248 4.28172,2.330172 0.31575,0.755717 -0.21009,3.93012 -0.96497,5.825358 -0.86252,2.165491 -1.99565,3.829232 -3.94901,5.798252 -2.98559,3.009536 -6.97327,5.368327 -12.02714,7.114277 -9.08906,3.13998 -20.13512,3.59464 -28.67902,1.18042 -1.7018,-0.48087 -3.29125,-1.06056 -4.62411,-1.68646 -0.56802,-0.26674 -1.07031,-0.44744 -1.11619,-0.40155 -0.0459,0.0459 -0.0174,0.36959 0.0634,0.71934 0.24116,1.04448 0.62684,3.40713 0.8148,4.99141 0.27405,2.30984 0.24929,7.26208 -0.0473,9.45343 -0.81694,6.03698 -2.84377,11.29611 -6.11939,15.87836 -0.34659,0.48486 -0.63017,0.98527 -0.63017,1.11205 0,0.629 1.22768,5.7296 2.18558,9.08042 1.24414,4.35208 3.32108,10.24097 5.24128,14.86106 2.02926,4.88246 3.77532,8.66463 7.19757,15.59074 4.75089,9.61505 5.50074,11.41917 5.51317,13.2645 0.005,0.68466 -0.0349,0.91746 -0.21224,1.24966 -0.9444,1.76936 -4.93268,2.61174 -12.35272,2.60907 -7.46375,-0.003 -14.60007,-0.89576 -17.12506,-2.14311 -0.96321,-0.47583 -1.47665,-1.15534 -2.15645,-2.85399 -2.23104,-5.5748 -4.73055,-19.95372 -6.25486,-35.98244 -0.13721,-1.44276 -0.24963,-2.70255 -0.24984,-2.79954 -6.9e-4,-0.30982 -0.26621,-0.29761 -1.60796,0.0739 -1.79275,0.49641 -1.75804,0.47905 -1.75804,0.879 0,0.75158 0.83491,6.35169 1.54,10.32943 1.03674,5.84876 3.11918,15.38985 4.59772,21.06537 1.82285,6.99714 1.99567,7.74149 2.18508,9.41178 0.18335,1.61674 -0.0273,3.09818 -0.52034,3.65974 -1.47602,1.68109 -8.63452,3.0652 -16.3155,3.15463 -1.60609,0.0187 -3.20971,0.0163 -3.5636,-0.005 z m 8.75681,-1.85951 c 4.82889,-0.49205 8.02933,-1.31764 9.04492,-2.33323 0.39444,-0.39444 0.46299,-0.75183 0.45582,-2.37676 -0.007,-1.63888 -0.0782,-2.00414 -1.5776,-8.11709 -1.20527,-4.91381 -1.73415,-7.31478 -2.76458,-12.55024 -1.91165,-9.7129 -2.7268,-17.03845 -2.88278,-25.90692 -0.0598,-3.3981 0.0279,-4.02329 0.24284,-1.7323 0.25534,2.72117 0.51516,4.90095 0.59352,4.97931 0.15236,0.15237 3.05192,-0.62234 5.00865,-1.33821 6.76324,-2.47431 12.38118,-6.79929 16.17402,-12.45161 2.85938,-4.26123 4.68245,-9.1854 5.45327,-14.72939 0.58784,-4.22788 0.5164,-9.14049 -0.20537,-14.12535 -0.30666,-2.11782 -0.26648,-2.02748 -1.18906,-2.67395 -0.43908,-0.307673 -0.77693,-0.58081 -0.75077,-0.60697 0.0262,-0.02616 0.44198,0.150234 0.92403,0.391986 4.02074,2.016394 8.69487,3.244554 14.63593,3.845694 1.92017,0.1943 7.77158,0.16469 9.84939,-0.0498 6.39997,-0.66076 11.7076,-2.0932 16.33316,-4.408054 1.53308,-0.767227 3.36562,-1.883662 3.36562,-2.05043 0,-0.168651 -1.03524,-0.601585 -1.98522,-0.830216 -1.95749,-0.471105 -4.43297,-0.470004 -7.33386,0.0033 -1.15876,0.189046 -1.47912,0.185982 -1.17087,-0.0112 0.28931,-0.185062 2.14002,-0.868023 2.77171,-1.02283 3.02282,-0.740797 6.42319,-0.553284 8.7675,0.483485 0.69389,0.306873 0.65183,0.328506 2.10507,-1.082609 2.63951,-2.563009 4.14407,-5.169279 4.861,-8.42049 0.10805,-0.489994 0.19742,-1.054525 0.1986,-1.254512 0.005,-0.824742 -0.86372,-1.3264 -4.32954,-2.500583 -3.07975,-1.04338 -3.68642,-1.370545 -3.68642,-1.988011 0,-0.41599 0.24123,-1.081394 1.04007,-2.868918 2.53847,-5.680197 3.77545,-10.527654 4.30478,-16.86942 0.36026,-4.316299 0.13816,-10.959683 -0.49958,-14.943112 -0.66557,-4.157301 -2.31788,-8.366107 -4.81575,-12.266775 -0.37859,-0.591225 -0.56314,-0.799128 -0.65902,-0.742416 -0.0733,0.04332 -0.61241,0.635582 -1.19813,1.316131 -2.1681,2.51914 -4.60664,5.055657 -4.60664,4.791745 0,-0.08275 0.54091,-0.84041 2.59578,-3.635979 0.91341,-1.242641 1.66074,-2.314094 1.66074,-2.381007 0,-0.06691 -0.3675,-0.270638 -0.81666,-0.452724 -3.94036,-1.597384 -6.32984,-3.59479 -7.24095,-6.052847 -0.2226,-0.600526 -0.54539,-2.160607 -0.6739,-3.256949 -0.016,-0.13611 -0.0824,-0.247472 -0.14775,-0.247472 -0.0653,0 -1.68612,1.291804 -3.60179,2.870676 -3.83187,3.158191 -3.85211,3.174093 -3.85211,3.02786 0,-0.200085 2.54878,-2.84153 4.76867,-4.942048 1.24363,-1.176754 2.24652,-2.185178 2.22866,-2.240942 -0.0429,-0.13372 -2.60375,-1.869904 -3.96051,-2.685061 -4.57042,-2.745962 -9.67311,-4.911 -14.87788,-6.312589 -10.29643,-2.772721 -20.84238,-2.486454 -29.68476,0.805784 -2.50425,0.932396 -6.51179,2.890417 -6.64929,3.248739 -0.0289,0.07544 0.15649,0.772513 0.41208,1.549055 0.95833,2.911629 1.87252,6.979079 1.48048,6.587045 -0.0301,-0.03012 -0.7821,-1.741388 -1.67107,-3.802822 -1.81587,-4.210808 -2.50048,-5.721669 -3.4701,-7.658119 -4.52507,-9.037135 -8.79625,-12.30130824 -13.12847,-10.0332039 -3.34496,1.751229 -5.37517,6.1811745 -5.93644,12.9533739 -0.14855,1.79239 -0.0616,6.739427 0.15231,8.661523 0.82945,7.454442 2.69579,14.102557 5.54399,19.748272 1.51251,2.99811 2.94393,5.089783 4.79274,7.003422 0.56547,0.585293 0.98466,1.064168 0.93154,1.064168 -0.0531,0 -0.3736,-0.179049 -0.71219,-0.397886 -0.33858,-0.218838 -0.66179,-0.369343 -0.71824,-0.334456 -0.0565,0.03489 -0.0765,0.194168 -0.0445,0.353957 0.032,0.159789 0.10518,1.203299 0.16272,2.31891 0.325,6.301979 -0.86201,16.062554 -2.97822,24.489494 -2.15541,8.582997 -4.71278,14.02495 -7.17637,15.270917 -1.22387,0.618975 -4.87196,1.195975 -8.5572,1.353451 -1.2933,0.05527 -2.93584,0.190323 -3.69911,0.304161 -6.086237,0.907734 -10.511888,3.526676 -13.507953,7.993522 -2.6307,3.92213 -4.075242,9.00325 -4.776657,16.80174 -0.05876,0.65333 -0.130464,3.53334 -0.15934,6.40004 -0.05205,5.16744 4.1e-5,7.42166 0.325252,14.07499 0.08474,1.7336 0.128601,3.17745 0.09748,3.20858 -0.03113,0.0311 -0.691497,-0.1114 -1.467492,-0.31673 -2.32687,-0.61568 -3.383407,-0.5795 -4.903989,0.16796 -0.954805,0.46936 -1.620889,1.18621 -2.530096,2.72295 -2.330677,3.9393 -6.179907,12.27447 -9.565112,20.71241 -4.197221,10.46197 -6.528631,18.24055 -5.910499,19.71994 0.717986,1.71838 7.552115,3.59431 15.093979,4.1432 2.436047,0.1773 6.863198,0.0742 8.384594,-0.19521 1.873637,-0.33182 2.926443,-0.74861 3.356313,-1.3287 0.195152,-0.26334 0.206965,-0.39951 0.201822,-2.32624 -0.0034,-1.26432 -0.09165,-3.0302 -0.230955,-4.62022 -0.410776,-4.68849 -0.392699,-9.91261 0.04778,-13.80895 1.269167,-11.22655 5.803259,-22.35239 13.429063,-32.95247 0.48531,-0.6746 0.90375,-1.28221 0.92986,-1.35026 0.0261,-0.068 -0.15588,-0.52863 -0.40443,-1.02351 -0.54839,-1.09191 -1.1005,-2.46544 -1.57685,-3.92283 -0.404093,-1.23631 -0.885841,-3.17347 -0.830497,-3.33951 0.02031,-0.0609 0.273099,0.57647 0.561762,1.41641 1.539975,4.48092 3.445285,7.60063 6.407735,10.49186 1.91317,1.86719 3.74707,3.14414 6.32021,4.4008 1.55113,0.75753 2.4722,1.12237 2.5747,1.01987 0.0332,-0.0332 0.29976,-1.7022 0.59228,-3.7088 0.73047,-5.01092 0.95367,-6.37057 1.04582,-6.37057 0.0434,0 0.0577,0.23386 0.0318,0.51969 -0.33369,3.68173 -1.95629,24.9922 -2.41375,31.70118 -0.16706,2.44997 -0.47883,6.57038 -0.69282,9.15646 -0.5541,6.69641 -0.62693,8.01536 -0.55748,10.09686 0.0858,2.57077 0.42033,4.13917 1.15693,5.4236 0.71159,1.24081 3.07767,2.05788 6.92403,2.39105 0.68055,0.0589 1.41554,0.12445 1.63332,0.14555 0.96048,0.0931 7.41753,-0.04 8.8063,-0.18155 z M 174.97828,92.299859 c -2.79466,-0.299286 -5.78073,-1.377035 -8.08786,-2.919122 -0.39226,-0.262185 -0.75016,-0.476699 -0.79532,-0.476699 -0.0452,0 -0.15551,0.12424 -0.2452,0.276088 -0.3104,0.525453 -1.20025,1.313748 -1.81325,1.606308 -0.84372,0.402669 -1.81141,0.526874 -3.04626,0.390995 -1.02754,-0.113069 -1.45437,-0.225612 -1.45437,-0.383483 0,-0.113962 0.18559,-0.16991 0.84141,-0.253666 1.42101,-0.181477 2.68286,-0.698562 3.3287,-1.36405 0.38244,-0.394081 0.87832,-1.223683 0.87832,-1.469413 0,-0.06321 -0.41491,-0.547202 -0.92202,-1.075541 -0.50711,-0.528339 -1.05278,-1.145328 -1.21261,-1.371085 -0.15983,-0.225758 -0.32612,-0.41142 -0.36955,-0.412582 -0.0434,-0.0012 -0.29103,0.209475 -0.55023,0.468083 -1.22042,1.217597 -3.17475,1.623238 -5.34738,1.109908 -0.84978,-0.200777 -2.10785,-0.746652 -2.16243,-0.938271 -0.0187,-0.06579 0.66498,-0.100032 1.97641,-0.09899 1.66845,0.0013 2.1039,-0.02891 2.59381,-0.180091 0.88034,-0.271663 1.68225,-0.709115 2.18768,-1.1934 l 0.45125,-0.432376 -0.65539,-1.245485 c -0.36047,-0.685018 -0.80273,-1.605413 -0.9828,-2.045322 -0.18007,-0.43991 -0.35212,-0.824553 -0.38233,-0.854763 -0.0302,-0.03021 -0.35873,0.07173 -0.73004,0.226528 -0.62679,0.261312 -0.7672,0.28116 -1.96196,0.277335 -1.03543,-0.0033 -1.44661,-0.04894 -2.10454,-0.233517 -1.26935,-0.356105 -1.22462,-0.537238 0.15698,-0.635742 1.55843,-0.111111 3.1895,-0.676365 3.78703,-1.312421 0.20725,-0.220596 0.215,-0.271783 0.10733,-0.708466 -0.53776,-2.181056 -0.90224,-4.304188 -1.06433,-6.199814 -0.0547,-0.639298 -0.0421,-0.771683 0.0699,-0.735263 0.0751,0.02443 0.21722,0.308468 0.31584,0.631198 0.72937,2.386993 1.03972,3.315004 1.47074,4.397849 2.47051,6.206564 6.30033,10.794822 10.97577,13.149348 6.08319,3.063465 12.56464,2.0978 18.39958,-2.741336 3.14176,-2.605579 6.29426,-6.944622 8.4436,-11.621609 0.67983,-1.479338 0.75888,-1.608783 0.89763,-1.470025 0.19303,0.193027 -0.26106,2.970597 -0.78167,4.78126 -2.28214,7.937322 -9.14628,13.830454 -17.4396,14.972585 -1.02105,0.140616 -3.79274,0.190004 -4.77281,0.08505 z M 127.0631,35.928895 c -0.71396,-0.431794 -1.96119,-1.476695 -2.72191,-2.28034 -1.70281,-1.798895 -2.75351,-3.84927 -3.31247,-6.464055 -0.32587,-1.52441 -0.40369,-5.988824 -0.1044,-5.988824 0.0418,0 0.12883,0.523403 0.19334,1.163118 0.46197,4.580817 2.12328,8.452238 5.33495,12.432206 0.56419,0.699169 1.00929,1.287741 0.98909,1.307937 -0.0202,0.0202 -0.19057,-0.05632 -0.3786,-0.170042 z m 41.54078,151.963355 c 2.70333,-0.21097 4.59151,-0.57105 5.58249,-1.06458 0.5002,-0.24911 0.54693,-0.30132 0.57517,-0.64245 0.0929,-1.12229 -1.22065,-4.23954 -4.80721,-11.40837 -7.71315,-15.41709 -11.95034,-26.32506 -14.57334,-37.51677 -0.22968,-0.97999 -0.43549,-1.81083 -0.45735,-1.84631 -0.0219,-0.0355 -0.63005,0.52267 -1.35152,1.24034 -3.48594,3.46756 -7.24608,6.00407 -11.84182,7.98827 -0.72825,0.31442 -1.36237,0.60995 -1.40916,0.65674 -0.0475,0.0475 0.046,1.48467 0.21129,3.24921 1.37661,14.69692 3.6285,28.28184 5.73626,34.60508 0.41846,1.25538 0.96241,2.41523 1.25763,2.68166 0.66155,0.59701 3.32382,1.21667 7.10976,1.65485 1.43473,0.16605 2.53523,0.25868 5.19691,0.43744 1.17388,0.0788 7.64257,0.0529 8.77089,-0.0351 z m -60.89221,-1.34135 c 0.91366,-0.0546 3.19158,-0.37757 3.27894,-0.46494 0.0211,-0.0211 0.0563,-1.2824 0.0783,-2.80301 0.0422,-2.91792 0.12507,-4.05481 0.75322,-10.33739 0.21502,-2.15054 0.52803,-5.38005 0.69559,-7.17669 0.5067,-5.43331 1.1854,-11.46453 1.9421,-17.25846 0.19446,-1.48891 0.31558,-2.74217 0.26917,-2.78502 -0.0464,-0.0429 -0.66347,-0.34048 -1.37124,-0.6614 -1.57752,-0.71528 -3.32295,-1.74051 -4.70197,-2.76184 -1.66601,-1.2339 -3.97929,-3.64478 -5.26848,-5.49076 -0.16704,-0.23919 -0.17368,-0.24027 -0.32172,-0.0521 -0.0831,0.10569 -0.15115,0.25402 -0.15115,0.32965 0,0.246 1.15959,1.82958 2.1004,2.86839 0.50532,0.55795 1.67602,1.71178 2.60157,2.56406 1.7273,1.59056 1.89334,1.76635 1.75132,1.85412 -0.0453,0.028 -0.92565,-0.14357 -1.95626,-0.38131 -2.37411,-0.54766 -3.11216,-0.64768 -4.72692,-0.64062 -1.74365,0.008 -2.0369,0.0663 -2.30255,0.46046 -0.486233,0.72152 -1.361052,3.84379 -2.018879,7.20547 -1.677764,8.57383 -2.988195,20.85144 -3.011143,28.21182 -0.01062,3.40769 0.07617,4.46046 0.415036,5.03438 0.549938,0.93139 3.572362,1.93215 6.751466,2.2355 1.94197,0.18529 2.78726,0.19338 5.19322,0.0497 z m -5.65992,-45.1465 c 0.69608,-0.0366 1.28903,-0.10439 1.31766,-0.15073 0.0286,-0.0463 -0.20925,-0.40703 -0.52865,-0.80155 -0.31939,-0.39452 -0.71189,-0.90568 -0.87221,-1.1359 -0.16033,-0.23023 -0.3463,-0.41954 -0.41328,-0.4207 -0.11246,-0.002 -1.641825,2.18102 -1.779676,2.54025 -0.05287,0.13777 0.0095,0.15049 0.474846,0.0969 0.29464,-0.034 1.10523,-0.0917 1.80131,-0.12822 z M 203.74683,30.525373 c 0.31049,-0.42194 0.6588,-0.856253 0.77402,-0.965141 0.27939,-0.264042 3.24128,-4.506328 3.29874,-4.724761 0.0347,-0.131739 -0.1003,-0.233638 -0.58466,-0.441439 -3.72779,-1.599313 -6.05626,-3.829957 -6.72423,-6.441712 -0.10545,-0.412307 -0.21592,-0.773846 -0.2455,-0.803419 -0.0296,-0.02957 -0.15197,0.0075 -0.27199,0.08239 -0.27244,0.169978 -4.80251,3.723355 -5.05785,3.96736 -0.18215,0.174068 -0.18257,0.214072 -0.0159,1.498527 0.23313,1.796829 0.40277,2.463892 0.87367,3.43543 0.88515,1.82622 2.978,3.388919 6.38364,4.766562 0.53012,0.214441 0.97323,0.390676 0.98469,0.391632 0.0115,9.9e-4 0.2749,-0.343484 0.58538,-0.765424 z m 6.11093,-8.661523 c 1.1656,-1.782589 2.63729,-4.15949 2.63729,-4.25941 0,-0.03193 -0.50113,-0.303102 -1.11362,-0.602613 -0.6125,-0.299512 -1.36293,-0.743245 -1.66764,-0.986074 -0.97653,-0.77824 -1.7042,-2.110479 -1.86012,-3.405578 -0.0414,-0.343883 -0.11911,-0.669084 -0.17269,-0.722669 -0.1864,-0.186398 -6.03918,3.935286 -6.13603,4.321151 -0.10441,0.41597 0.15991,1.657628 0.51141,2.402428 0.6457,1.368174 1.8289,2.553362 3.60197,3.607993 0.92166,0.548215 2.64302,1.348375 2.9058,1.350737 0.12089,0.0011 0.53148,-0.540359 1.29363,-1.705965 z m 4.17574,-7.151943 c 1.29064,-2.56794 1.72968,-4.260251 1.34303,-5.1768347 -0.42088,-0.9977491 -1.96081,-0.8503073 -4.56392,0.4369768 -1.77664,0.8785799 -1.78217,0.8840269 -1.78217,1.7565799 0,2.049597 0.98661,3.398987 3.16514,4.328961 0.35526,0.151656 0.73502,0.267279 0.84391,0.256938 0.15035,-0.01428 0.38946,-0.399781 0.99401,-1.602621 z m -75.85455,-0.954095 c 2.27056,-1.260979 5.26477,-2.467632 8.16995,-3.292449 1.532,-0.434952 3.70783,-0.9503698 4.01199,-0.9503698 0.30488,0 0.28042,-0.2187164 -0.0865,-0.7735385 -1.14475,-1.7308694 -2.84149,-3.6286656 -3.95335,-4.4218025 -1.39654,-0.9962161 -2.57679,-1.3920674 -3.91006,-1.3114118 -1.52404,0.092197 -2.80185,0.7137813 -4.11714,2.0027609 -1.16618,1.1428596 -1.92494,2.3811058 -2.65162,4.3272958 l -0.35907,0.9616759 0.6313,1.315067 c 0.34722,0.723288 0.73359,1.560065 0.85862,1.859507 0.21722,0.520277 0.37257,0.79191 0.45289,0.79191 0.0204,0 0.44928,-0.22889 0.95302,-0.508645 z"
         id="path3131"
         inkscape:connector-curvature="0" />
      <path
         style="fill:#000000;fill-opacity:1;stroke:none"
         d="m 115.05753,193.55854 c -0.61459,-0.0206 -1.09491,-0.074 -1.06737,-0.11852 0.0276,-0.0446 -0.42732,-0.11017 -1.01081,-0.1458 -2.50299,-0.15279 -5.3618,-0.75153 -6.72959,-1.40941 -0.40726,-0.19589 -0.93277,-0.54846 -1.16781,-0.7835 -0.54866,-0.54865 -1.3488,-2.18087 -1.64224,-3.35004 -0.12098,-0.48202 -0.28082,-0.89975 -0.35519,-0.92829 -0.0744,-0.0285 -0.83441,0.0535 -1.68897,0.18232 -1.35058,0.20359 -1.916136,0.23427 -4.325426,0.23467 -2.915887,9.9e-4 -3.726927,-0.0699 -5.811589,-0.50455 -2.883189,-0.60112 -4.928291,-1.64475 -5.52849,-2.82123 -0.716296,-1.40406 -0.833888,-5.79961 -0.338664,-12.65908 0.681986,-9.44632 2.223614,-20.19026 3.719853,-25.92445 0.40515,-1.5527 0.409403,-1.95629 0.01534,-1.45531 -0.2734,0.34757 -2.451876,4.67369 -3.145077,6.24565 -2.623232,5.94863 -4.294579,12.1612 -4.942742,18.3727 -0.422812,4.0519 -0.394778,7.96202 0.101413,14.14513 0.413993,5.15881 0.289411,6.32092 -0.791341,7.38168 -0.623423,0.61188 -1.599491,1.04496 -3.114604,1.38193 -3.417737,0.76011 -9.210386,0.69805 -14.837655,-0.159 -4.890942,-0.7449 -8.735469,-1.96418 -10.446767,-3.31319 -0.590142,-0.4652 -1.15695,-1.22706 -1.15695,-1.55507 0,-0.10144 -0.03863,-0.16056 -0.08585,-0.13139 -0.04722,0.0292 -0.114378,-0.1551 -0.149251,-0.40952 -0.07131,-0.52025 0.02498,-1.71061 0.138373,-1.71061 0.04065,0 0.105606,-0.25367 0.144342,-0.5637 0.166748,-1.3346 1.15738,-4.86309 2.356857,-8.39479 3.930669,-11.57332 11.995498,-29.54055 14.59195,-32.50868 1.417752,-1.62071 3.90433,-2.49667 6.14319,-2.1641 0.504144,0.0749 0.967835,0.10451 1.030428,0.0658 0.08573,-0.053 0.0854,-0.6647 -0.0013,-2.47996 -0.255595,-5.34853 -0.334749,-9.00109 -0.279607,-12.90244 0.05962,-4.21818 0.129241,-5.49353 0.467047,-8.55541 1.391509,-12.61272 6.225737,-19.955694 15.041423,-22.847264 2.754964,-0.90364 5.051281,-1.26741 8.909001,-1.41133 2.529796,-0.0944 3.913046,-0.26931 5.988816,-0.757397 1.21703,-0.286166 1.50161,-0.428185 2.09183,-1.043935 2.888,-3.012884 6.16748,-13.751459 7.70305,-25.223412 0.50854,-3.799221 0.69049,-6.423263 0.69327,-9.997872 0.003,-3.308171 -0.0882,-4.614511 -0.44012,-6.332034 -0.17793,-0.868473 -0.19181,-0.894396 -0.9528,-1.77982 -5.54482,-6.45142 -9.00478,-18.165372 -8.71462,-29.503903 0.1372,-5.361297 0.96407,-9.5829518 2.4914,-12.7200648 1.21345,-2.492413 2.43464,-3.7950129 4.48935,-4.78865034 0.45276,-0.2189494 1.07529,-0.4533062 1.3834,-0.5207929 0.3081,-0.067487 0.59186,-0.1698162 0.63057,-0.2273991 0.0904,-0.1344299 2.04836,-0.1292656 2.13949,0.00564 0.0368,0.054444 0.37084,0.1800407 0.74236,0.279104 2.48724,0.66320781 5.12219,2.90829734 7.44209,6.34097234 0.36795,0.544439 0.72497,1.022724 0.79338,1.062857 0.16927,0.09929 0.26105,-0.03607 0.68709,-1.013362 1.16751,-2.678181 2.78525,-4.4084616 5.0048,-5.35296323 4.04628,-1.72184991 8.24008,0.41996753 12.13785,6.19894123 0.56381,0.83593 0.8185,1.133572 0.96944,1.132938 0.11259,-4.75e-4 0.76153,-0.06664 1.44208,-0.147043 0.68054,-0.0804 2.25715,-0.196574 3.50357,-0.258163 7.85384,-0.388081 16.68883,1.181101 24.63778,4.3759148 3.72622,1.497628 8.65058,4.154342 11.38577,6.14268 0.3707,0.269482 0.73231,0.512338 0.80356,0.539681 0.0712,0.02734 0.6475,-0.39735 1.28053,-0.943764 8.28307,-7.149642 14.52996,-11.1715358 18.1476,-11.6838568 0.71042,-0.100608 1.53267,-0.0038 1.99384,0.234636 0.36398,0.188224 0.87043,0.788557 0.95733,1.134813 0.0356,0.141635 0.11679,0.289757 0.18053,0.329161 0.13914,0.08602 0.14143,1.7491373 0.003,1.8463803 -0.0501,0.03505 -0.16432,0.3755515 -0.25389,0.7566585 -0.38215,1.626058 -1.7335,4.590302 -3.24914,7.127196 -1.69898,2.843758 -4.61139,7.003485 -7.18535,10.262638 -0.67398,0.853391 -1.22541,1.580213 -1.22541,1.61516 0,0.03495 0.38021,0.670485 0.84492,1.412307 3.15572,5.037568 4.80245,10.177819 5.19257,16.208567 0.55563,8.589381 -0.13575,17.092499 -1.87203,23.023668 -0.71622,2.446593 -1.24009,3.767209 -2.4597,6.200482 -1.04,2.074959 -1.04011,2.071268 0.076,2.61789 0.40833,0.199976 1.54422,0.637813 2.52421,0.972974 2.12955,0.728312 3.47814,1.356263 3.97083,1.848951 l 0.36199,0.361989 -0.058,1.294902 c -0.0319,0.712195 -0.13008,1.628988 -0.21818,2.037317 -1.00341,4.651051 -4.09062,8.638821 -9.13301,11.797171 -5.36645,3.361317 -12.54704,5.514567 -20.43773,6.128657 -1.99037,0.15491 -7.41747,0.0658 -9.18149,-0.1508 -4.41424,-0.54194 -7.74701,-1.41634 -11.06783,-2.90381 -0.81604,-0.36553 -1.25129,-0.51293 -1.31789,-0.44634 -0.0666,0.0666 -0.002,0.60247 0.19685,1.62254 0.31281,1.60791 0.52289,2.99508 0.72542,4.78972 0.16624,1.47308 0.16493,6.40839 -0.002,7.91911 -0.72008,6.51275 -2.75503,11.9157 -6.44993,17.12507 l -0.49148,0.69292 0.28992,1.35512 c 1.5679,7.32873 4.01762,15.00474 7.35477,23.04563 1.89995,4.57793 3.45198,7.92662 7.27176,15.68973 4.63759,9.42516 5.29927,11.02802 5.31231,12.86855 0.005,0.66469 -0.0333,0.86052 -0.23697,1.21898 -0.66226,1.1659 -2.84905,1.89683 -6.93021,2.31639 -1.89955,0.19529 -9.30962,0.16211 -11.87866,-0.0532 -6.76679,-0.56709 -10.5104,-1.43684 -11.52758,-2.67817 -2.42819,-2.96329 -5.56659,-19.30353 -7.33159,-38.1723 -0.14005,-1.4972 -0.27535,-2.78269 -0.30066,-2.85664 -0.0608,-0.17747 -0.37395,-0.1285 -2.02378,0.31651 -0.77497,0.20902 -1.38627,0.42835 -1.45518,0.5221 -0.0653,0.0889 -0.0979,0.27865 -0.0724,0.42166 0.0256,0.14302 0.20277,1.41255 0.39381,2.8212 1.13447,8.36535 3.44353,19.58466 6.24013,30.3197 1.29223,4.96034 1.5656,6.17583 1.72579,7.67355 0.12679,1.1854 0.008,2.64296 -0.26271,3.21259 -0.52117,1.0983 -3.50814,2.12956 -8.11231,2.80082 -1.54409,0.22512 -4.37644,0.50034 -5.15543,0.50095 -0.28129,0 -0.52629,0.0403 -0.54444,0.0892 -0.0372,0.10012 -3.99733,0.19744 -5.70392,0.14016 z m 6.61132,-1.61668 c 5.18127,-0.3572 9.25795,-1.24194 10.52145,-2.28343 0.66477,-0.54796 0.7144,-0.72754 0.70884,-2.5651 -0.006,-1.92462 0.0315,-1.72823 -1.57966,-8.31507 -1.24659,-5.0964 -1.51333,-6.30009 -2.57741,-11.63118 -2.01555,-10.09791 -2.72399,-16.15999 -3.06534,-26.2298 -0.0332,-0.97875 -0.0333,-1.75254 -3e-4,-1.71951 0.033,0.033 0.16673,1.04541 0.29714,2.24977 0.1304,1.20434 0.26463,2.23426 0.29827,2.2887 0.0964,0.15598 0.34809,0.12174 1.75278,-0.23847 13.30382,-3.41155 22.6324,-13.49069 24.92447,-26.92983 0.4741,-2.77981 0.54118,-3.7037 0.54296,-7.47781 0.002,-3.77885 -0.0572,-4.69817 -0.50168,-7.82012 -0.31987,-2.246614 -0.36657,-2.410144 -0.76017,-2.662224 -0.49804,-0.31897 -0.28697,-0.25199 1.06742,0.3387 3.66131,1.596864 7.85412,2.607424 13.01519,3.136964 1.66995,0.17134 7.93529,0.16893 9.70091,-0.004 7.48182,-0.73166 13.71251,-2.58958 18.78417,-5.601224 1.13587,-0.6745 1.44279,-0.93387 1.32693,-1.12132 -0.11234,-0.18178 -1.11255,-0.59304 -1.96681,-0.80871 -1.86481,-0.47079 -4.14974,-0.50746 -6.85318,-0.10997 -0.73147,0.10755 -1.34699,0.17851 -1.36781,0.15769 -0.0498,-0.0498 1.36054,-0.58659 2.05435,-0.78197 2.91146,-0.81989 6.38504,-0.70286 8.76051,0.29514 0.97901,0.41131 0.91225,0.42667 1.88734,-0.43424 1.75195,-1.546782 3.23353,-3.445787 4.21633,-5.404249 0.80539,-1.604924 1.46897,-3.852848 1.46897,-4.976216 0,-0.402131 -0.0462,-0.506227 -0.35279,-0.795411 -0.51386,-0.484632 -1.5052,-0.923189 -3.90373,-1.726972 -2.4833,-0.832194 -3.1174,-1.096088 -3.48935,-1.452184 -0.45031,-0.431116 -0.39754,-0.644488 0.85965,-3.475564 2.63448,-5.932598 3.90815,-11.258121 4.31227,-18.030609 0.25092,-4.20501 -0.0153,-10.288795 -0.6043,-13.808942 -0.63719,-3.808284 -2.09919,-7.682497 -4.2398,-11.235233 -1.03831,-1.723273 -1.11543,-1.822324 -1.35164,-1.736127 -0.10383,0.03789 -0.68599,0.655608 -1.29366,1.372707 -1.41723,1.67243 -3.70254,4.151549 -3.76729,4.086795 -0.0275,-0.02746 0.72787,-1.110308 1.6785,-2.406339 2.04492,-2.787918 2.0669,-2.820908 1.97683,-2.966469 -0.0385,-0.06225 -0.49161,-0.281905 -1.00688,-0.488113 -2.77891,-1.112112 -5.01944,-2.635046 -6.08214,-4.134166 -0.87189,-1.229944 -1.23935,-2.236607 -1.50709,-4.128677 -0.18019,-1.273397 -0.26243,-1.41787 -0.6559,-1.152186 -0.12208,0.08243 -1.57065,1.26589 -3.21906,2.629908 -1.64841,1.364018 -3.0492,2.512229 -3.11287,2.551581 -0.52034,0.32159 2.80419,-3.054148 5.24382,-5.324585 0.55805,-0.519348 1.01463,-1.01311 1.01463,-1.097249 0,-0.15636 -0.98268,-0.866783 -2.92017,-2.111108 -3.07461,-1.974633 -6.86367,-3.866666 -10.49281,-5.239504 -13.64076,-5.1600468 -28.00478,-4.8823628 -39.28752,0.759502 -1.47054,0.735335 -2.54804,1.346991 -2.69574,1.53027 -0.0849,0.105333 0.0149,0.527196 0.42432,1.794297 0.70293,2.175307 1.65624,6.048269 1.43036,5.811026 -0.0502,-0.05271 -0.70282,-1.521305 -1.45025,-3.263509 -2.90743,-6.777081 -4.23842,-9.4382655 -6.23817,-12.4725928 -3.70933,-5.6283764 -7.30408,-7.24523094 -10.99447,-4.9451138 -2.1397,1.3336158 -3.70888,3.8383018 -4.6384,7.4036888 -0.57387,2.2012068 -0.80078,3.8278108 -0.9392,6.7326448 -0.44191,9.273999 2.25758,21.022887 6.57648,28.622515 1.19436,2.101626 2.21279,3.537695 3.61387,5.09587 0.67795,0.753966 0.77337,0.894979 0.48559,0.717669 -0.66111,-0.407343 -0.70433,-0.35485 -0.61297,0.744471 0.14776,1.777841 0.0833,8.018168 -0.1035,10.022619 -1.18117,12.673176 -4.70416,25.636727 -8.14451,29.969315 -0.95264,1.19971 -1.57239,1.60197 -3.00783,1.95228 -2.20538,0.53822 -3.79428,0.75328 -6.283036,0.8504 -1.30614,0.051 -2.95048,0.15977 -3.65407,0.24177 -6.634703,0.77322 -11.450826,3.48851 -14.658941,8.264574 -0.772579,1.15017 -2.021468,3.73925 -2.55459,5.29591 -1.901731,5.55287 -2.629009,12.63644 -2.355028,22.93756 0.06267,2.3564 0.19924,6.04261 0.30348,8.19156 0.10424,2.14896 0.175783,3.92094 0.158984,3.93774 -0.0168,0.0168 -0.604596,-0.12923 -1.306216,-0.32452 -2.619641,-0.72913 -4.180112,-0.53971 -5.903899,0.71665 -0.830715,0.60546 -2.137668,2.77344 -4.224243,7.00722 -5.791453,11.75117 -11.992025,27.92528 -12.921544,33.70569 -0.302091,1.87862 -0.195383,2.23278 0.891859,2.95997 2.832608,1.89455 10.64289,3.38698 17.764004,3.39442 2.914522,0.003 4.55013,-0.14462 6.174433,-0.55744 1.345918,-0.34208 1.925351,-0.67849 2.236808,-1.29868 0.227605,-0.45321 0.243848,-0.58385 0.232996,-1.87404 -0.0064,-0.76277 -0.134739,-2.85685 -0.285161,-4.6535 -0.232633,-2.77856 -0.27484,-3.82865 -0.28249,-7.0282 -0.0058,-2.41533 0.0381,-4.27528 0.122586,-5.19692 0.784264,-8.55506 2.895801,-15.79527 6.943025,-23.80681 1.957959,-3.87581 3.900745,-7.08916 6.46212,-10.68826 0.63971,-0.8989 1.16312,-1.68009 1.16312,-1.73597 0,-0.0559 -0.22132,-0.56045 -0.49183,-1.12127 -0.76567,-1.58739 -1.892882,-4.64298 -1.761333,-4.77452 0.02069,-0.0207 0.229163,0.44016 0.463283,1.02411 1.87287,4.6714 4.934297,8.53784 8.867573,11.19932 2.1362,1.44548 5.52698,3.10371 5.889,2.87996 0.084,-0.0519 0.32604,-1.44843 0.70383,-4.06133 0.31668,-2.19021 0.60488,-4.01 0.64044,-4.04398 0.0356,-0.034 0.0368,0.20549 0.003,0.53215 -0.2098,2.01513 -1.79942,22.84824 -2.23572,29.3007 -0.16566,2.44997 -0.47816,6.59266 -0.69444,9.20596 -0.52161,6.30236 -0.59053,7.40463 -0.59234,9.47311 -0.002,2.12226 0.197,3.76472 0.60272,4.97809 0.51198,1.5312 0.9722,2.1049 2.11326,2.63433 1.26297,0.58601 3.55414,1.06176 6.0925,1.26509 1.49596,0.11983 6.53345,0.12588 8.21607,0.01 z M 166.71937,91.059998 c -2.83706,-0.296558 -5.7388,-1.31699 -8.10264,-2.849396 l -0.91536,-0.593394 -0.39967,0.541009 c -0.51259,0.693881 -1.2316,1.259879 -1.95169,1.536365 -0.72333,0.27773 -2.33929,0.361671 -3.33412,0.17319 -1.08922,-0.206363 -0.98424,-0.29173 0.78074,-0.634866 1.60615,-0.312256 2.67125,-1.034051 3.27029,-2.216201 l 0.25931,-0.511717 -0.72457,-0.759321 c -0.39851,-0.417627 -0.98515,-1.082272 -1.30364,-1.47699 -0.3185,-0.394718 -0.59343,-0.717669 -0.61097,-0.717669 -0.0175,0 -0.2796,0.247698 -0.58233,0.550441 -1.25958,1.259568 -3.29093,1.639159 -5.50079,1.027906 -0.83276,-0.230343 -1.88079,-0.672845 -1.88079,-0.794113 0,-0.15735 0.16381,-0.167227 1.18786,-0.07163 1.13215,0.105695 2.64377,-0.0093 3.49397,-0.265726 0.73768,-0.222516 1.58197,-0.713015 2.05243,-1.192379 l 0.42865,-0.43676 -0.74612,-1.46289 c -0.41037,-0.80459 -0.84852,-1.730161 -0.97368,-2.056824 -0.12516,-0.326663 -0.25737,-0.628449 -0.29379,-0.670635 -0.0364,-0.04219 -0.30788,0.0335 -0.60325,0.168193 -0.69573,0.317272 -1.75603,0.484208 -2.5663,0.404047 -1.24853,-0.123521 -2.63719,-0.514541 -2.45925,-0.692479 0.0194,-0.01941 0.49024,-0.08535 1.04631,-0.146537 1.76865,-0.194618 3.01255,-0.639786 3.66215,-1.310618 l 0.31892,-0.329345 -0.14973,-0.493112 c -0.55503,-1.827913 -1.2471,-6.679914 -0.95279,-6.679914 0.0439,0 0.26369,0.616349 0.4885,1.369664 1.70442,5.711347 4.1351,10.009224 7.51277,13.283965 2.6885,2.606577 5.48559,4.142882 8.84606,4.858725 1.41119,0.30061 4.12293,0.325466 5.59287,0.05126 5.61499,-1.04742 10.75628,-5.048875 14.77072,-11.496028 0.7358,-1.181696 1.82473,-3.218688 2.40772,-4.503992 0.28399,-0.626104 0.58294,-1.205189 0.66432,-1.286855 0.13133,-0.131785 0.14173,-0.05306 0.0924,0.700034 -0.0802,1.22473 -0.50404,3.204791 -1.01554,4.744352 -1.34636,4.052311 -3.86389,7.537253 -7.33724,10.15674 -4.0593,3.061384 -9.51706,4.601401 -14.47174,4.083491 z M 117.76942,33.938196 c -2.05463,-1.543169 -3.7242,-3.835971 -4.51176,-6.195954 -0.53678,-1.608515 -0.70461,-2.668953 -0.76313,-4.821895 -0.0584,-2.148367 0.0484,-2.479857 0.25883,-0.80345 0.52065,4.147778 2.61348,8.59273 5.72645,12.162419 0.27934,0.320315 -0.0231,0.175104 -0.71039,-0.34112 z m 42.2576,152.955634 c 3.32692,-0.23932 5.66755,-0.75702 6.3588,-1.40642 0.28024,-0.26326 0.28517,-0.59783 0.0235,-1.59676 -0.43087,-1.64498 -1.16202,-3.26682 -4.84848,-10.75475 -5.38235,-10.93262 -7.79114,-16.41979 -10.32585,-23.52213 -1.92983,-5.40745 -3.10364,-9.46144 -4.47481,-15.45472 -0.028,-0.1225 -0.103,-0.22273 -0.1666,-0.22273 -0.0636,0 -0.83116,0.70527 -1.70568,1.56725 -3.06713,3.02321 -6.29859,5.28955 -10.17423,7.13555 -0.77751,0.37034 -1.7394,0.79909 -2.13752,0.95278 -0.39812,0.15369 -0.76113,0.34926 -0.8067,0.4346 -0.0456,0.0853 -0.0453,0.55607 5e-4,1.04607 0.0458,0.48999 0.17711,1.89316 0.29175,3.11814 1.26666,13.53527 3.6045,27.58033 5.59395,33.60671 0.5261,1.59368 1.17173,2.88311 1.5631,3.12179 1.35832,0.82838 6.18504,1.6387 11.70129,1.96443 2.02445,0.11954 7.50177,0.12567 9.10697,0.0102 z m -58.89835,-1.52763 c 0.54443,-0.0882 1.15693,-0.20512 1.36109,-0.25982 l 0.37121,-0.0995 2e-4,-2.19868 c 2e-4,-2.66006 0.13701,-4.5753 0.84649,-11.8501 1.32476,-13.58386 1.67417,-16.81103 2.52793,-23.34856 0.33789,-2.58728 0.38335,-3.12523 0.27253,-3.22462 -0.0732,-0.0656 -0.44483,-0.24591 -0.82594,-0.40067 -3.93081,-1.59624 -7.456816,-4.34405 -10.067346,-7.84548 -0.37547,-0.5036 -0.721798,-0.91564 -0.769608,-0.91564 -0.12361,0 -0.49726,0.49499 -0.49726,0.65874 0,0.31956 1.263508,2.04082 2.357828,3.21203 0.38677,0.41394 1.44377,1.43719 2.34888,2.27389 0.90511,0.8367 1.602406,1.53569 1.549546,1.55331 -0.0529,0.0176 -0.869856,-0.14643 -1.815546,-0.36456 -0.94569,-0.21813 -2.16411,-0.44906 -2.70761,-0.51315 -1.145598,-0.13511 -3.580687,-0.0677 -3.909347,0.10815 -0.903455,0.48352 -2.451061,7.00338 -3.606952,15.19559 -1.659152,11.75901 -2.313829,23.89762 -1.38612,25.70056 0.534874,1.03949 3.457424,2.08347 6.872352,2.45491 1.307807,0.14224 5.904297,0.0536 7.077703,-0.13645 z m -8.463543,-44.99354 c 0.40833,-0.0522 1.13219,-0.0963 1.60857,-0.098 0.784749,-0.003 0.866149,-0.0208 0.866149,-0.19168 0,-0.10373 -0.16205,-0.38213 -0.36011,-0.61868 -0.19806,-0.23653 -0.621959,-0.77361 -0.941999,-1.1935 -0.37799,-0.49591 -0.63097,-0.74461 -0.72193,-0.7097 -0.16272,0.0624 -1.836523,2.57195 -1.836523,2.75348 0,0.1991 0.123236,0.2643 0.391183,0.20697 0.13873,-0.0297 0.58633,-0.0967 0.99466,-0.1489 z M 195.37917,29.527852 c 0.26176,-0.367496 0.6375,-0.846355 0.83497,-1.06413 0.70717,-0.77992 3.37361,-4.696292 3.34097,-4.907105 -0.0231,-0.14913 -0.24362,-0.295657 -0.82345,-0.547137 -2.57587,-1.117186 -4.61018,-2.681497 -5.6377,-4.335183 -0.44317,-0.71324 -0.94506,-2.022711 -0.94506,-2.465776 0,-0.286786 -0.23462,-0.514507 -0.41636,-0.404123 -0.12295,0.07467 -2.74199,2.114361 -4.5649,3.555114 l -0.87322,0.690159 0.0595,0.704773 c 0.18036,2.135291 0.5756,3.675438 1.21212,4.723256 0.69824,1.149447 2.08575,2.310936 3.93719,3.295844 0.8575,0.456167 3.07501,1.414519 3.28491,1.419663 0.0633,0.0016 0.32923,-0.297859 0.59101,-0.665355 z m 6.16514,-8.731536 c 1.48434,-2.260507 2.69228,-4.28008 2.659,-4.4456 -0.015,-0.07455 -0.41298,-0.301658 -0.88442,-0.504678 -2.13883,-0.921074 -3.37506,-2.331679 -3.65466,-4.170164 -0.17339,-1.140182 -0.1846,-1.178625 -0.34344,-1.178625 -0.2535,0 -5.28438,3.462926 -6.01927,4.143266 -0.27341,0.253115 -0.28082,0.285034 -0.22486,0.969002 0.0637,0.778562 0.37413,1.734865 0.79801,2.458155 0.4252,0.725552 1.56221,1.857685 2.53442,2.523565 1.02442,0.701647 3.39095,1.883476 3.77172,1.883586 0.2288,6.6e-5 0.39829,-0.20858 1.3635,-1.678507 z m 4.21675,-7.180919 c 1.01828,-2.033505 1.47447,-3.392795 1.47976,-4.4091868 0.004,-0.818246 -0.13087,-1.139439 -0.61192,-1.454523 -0.41078,-0.269065 -1.38342,-0.22094 -2.39699,0.118602 -0.86849,0.290935 -3.17725,1.421351 -3.50397,1.7156143 -0.16732,0.1507 -0.18296,0.281739 -0.1449,1.2142755 0.0374,0.915611 0.0815,1.128334 0.35557,1.714014 0.5046,1.078321 1.66562,2.027842 3.16199,2.585995 0.76139,0.284001 0.78555,0.262396 1.66046,-1.484791 z m -75.85708,-0.906259 c 2.95712,-1.637206 6.90347,-3.0805285 10.80548,-3.9519568 0.87837,-0.196163 1.63079,-0.37752 1.67204,-0.403016 0.15553,-0.09612 0.0583,-0.308262 -0.56006,-1.222537 -1.25416,-1.854178 -2.68464,-3.406511 -3.91842,-4.252197 -1.73783,-1.191188 -3.21485,-1.5241758 -4.8761,-1.0992986 -2.63039,0.6727396 -4.86878,3.1251426 -6.04381,6.6216356 l -0.24387,0.725702 0.66908,1.4025588 c 0.36799,0.771407 0.77156,1.647555 0.89681,1.946996 0.25101,0.600088 0.3726,0.791911 0.50196,0.791911 0.0472,0 0.54079,-0.251909 1.09689,-0.559798 z"
         id="path3129"
         inkscape:connector-curvature="0" />
    </g>
  </g>
</svg>
