<?xml version="1.0" encoding="UTF-8" standalone="no"?>
<!-- Created with Inkscape (http://www.inkscape.org/) -->

<svg
   xmlns:dc="http://purl.org/dc/elements/1.1/"
   xmlns:cc="http://creativecommons.org/ns#"
   xmlns:rdf="http://www.w3.org/1999/02/22-rdf-syntax-ns#"
   xmlns:svg="http://www.w3.org/2000/svg"
   xmlns="http://www.w3.org/2000/svg"
   xmlns:sodipodi="http://sodipodi.sourceforge.net/DTD/sodipodi-0.dtd"
   xmlns:inkscape="http://www.inkscape.org/namespaces/inkscape"
   width="210mm"
   height="297mm"
   id="svg3942"
   version="1.1"
   inkscape:version="0.48.3.1 r9886"
   sodipodi:docname="New document 11">
  <defs
     id="defs3" />
  <sodipodi:namedview
     inkscape:document-units="mm"
     id="base"
     pagecolor="#ffffff"
     bordercolor="#666666"
     borderopacity="1.0"
     inkscape:pageopacity="0.0"
     inkscape:pageshadow="2"
     inkscape:zoom="0.75332031"
     inkscape:cx="350"
     inkscape:cy="267.54011"
     inkscape:current-layer="layer1"
     showgrid="false"
     showguides="true"
     inkscape:guide-bbox="true"
     inkscape:window-width="1020"
     inkscape:window-height="729"
     inkscape:window-x="0"
     inkscape:window-y="18"
     inkscape:window-maximized="0" />
  <metadata
     id="metadata4">
    <rdf:RDF>
      <cc:Work
         rdf:about="">
        <dc:format>image/svg+xml</dc:format>
        <dc:type
           rdf:resource="http://purl.org/dc/dcmitype/StillImage" />
        <dc:title></dc:title>
      </cc:Work>
    </rdf:RDF>
  </metadata>
  <g
     inkscape:label="Layer 1"
     inkscape:groupmode="layer"
     id="layer1">
    <path
       style="fill:#000000"
       d="M 120.87176,158.80837 C 93.14701,152.93908 71.42636,133.87666 62.91257,107.94238 57.91696,92.724997 58.18461,75.35309 63.65275,59.90078 76.10556,24.71061 112.59603,4.0774404 149.01028,11.63623 c 34.99235,7.26363 59.78629,37.49735 59.78629,72.90337 0,12.251417 -2.16469,21.70491 -7.50776,32.78744 -9.37844,19.45264 -25.06237,32.90961 -45.99224,39.4618 -7.94157,2.48614 -26.95247,3.60142 -34.42481,2.01953 z m 59.42378,-56.50106 c 9.45907,-29.11489 10.70031,-33.70334 9.44559,-34.91697 -1.27738,-1.23554 -52.0108,-38.25014 -54.7321,-39.93199 -1.29246,-0.79879 -57.76078,40.11696 -57.59963,41.73548 0.062,0.62327 4.92051,15.87071 10.79657,33.88321 l 10.68375,32.75 35.25783,0 35.25784,0 10.89015,-33.51973 z m -76.40202,23.26973 C 100.26201,116.00422 86.74876,72.39402 87.1168,71.43491 c 0.79204,-2.06402 46.6564,-34.83082 48.02065,-34.30731 2.11591,0.81196 47.15912,33.83127 47.15912,34.5704 0,0.37478 -4.0297,13.15714 -8.95489,28.40523 l -8.9549,27.72381 -29.81986,0 -29.81985,0 -0.85355,-2.25 z m 41.90305,-18.75 c 0,-0.55 -0.85186,-1 -1.89301,-1 -2.6523,0 -3.10699,-1.84128 -3.10699,-12.581793 0,-9.084827 0.0796,-9.420067 2.25,-9.470657 l 2.25,-0.0525 -2.25,-1.56952 c -1.81659,-1.26719 -2.25,-2.51873 -2.25,-6.49721 0,-5.56928 -2.00896,-10.22761 -5.13146,-11.89873 -2.32176,-1.24256 -7.543,-1.48513 -10.66165,-0.49531 -1.78225,0.56567 -1.88346,1.00953 -0.93497,4.1 1.30433,4.2499 2.28966,4.40777 3.07275,0.49234 0.42033,-2.1017 1.34025,-3.16047 3.13798,-3.61167 4.37079,-1.097 5.51735,0.92031 5.51735,9.70745 l 0,7.87755 -3,0 c -1.65,0 -3,0.45 -3,1 0,0.55 1.35,1 3,1 l 3,0 0,10.999997 c 0,10.333333 -0.12121,11.000003 -2,11.000003 -1.1,0 -2,0.45 -2,1 0,0.57143 3,1 7,1 4,0 7,-0.42857 7,-1 z"
       id="path4032"
       inkscape:connector-curvature="0" />
    <path
       style="fill:#000000"
       d="m 288.13129,155.98801 c -27.72475,-5.86929 -49.4454,-24.93171 -57.95919,-50.86599 -4.99561,-15.217384 -4.72796,-32.589291 0.74018,-48.041601 12.45281,-35.19017 48.94328,-55.8233404 85.35753,-48.2645504 34.99235,7.2636294 59.78629,37.4973504 59.78629,72.9033704 0,12.251417 -2.16469,21.704911 -7.50776,32.787441 -9.37844,19.45264 -25.06237,32.90961 -45.99224,39.4618 -7.94157,2.48614 -26.95247,3.60142 -34.42481,2.01953 z m 59.42378,-56.501064 c 9.45907,-29.114887 10.70031,-33.703337 9.44559,-34.916967 -1.27738,-1.23554 -52.0108,-38.25014 -54.7321,-39.93199 -1.29246,-0.79879 -57.76078,40.11696 -57.59963,41.73548 0.062,0.62327 4.92051,15.87071 10.79657,33.883211 l 10.68375,32.75 35.25783,0 35.25784,0 10.89015,-33.519734 z m -76.40202,23.269734 c -3.63151,-9.57282 -17.14476,-53.183021 -16.77672,-54.142131 0.79204,-2.06402 46.6564,-34.83082 48.02065,-34.30731 2.11591,0.81196 47.15912,33.83127 47.15912,34.5704 0,0.37478 -4.0297,13.15714 -8.95489,28.405227 l -8.9549,27.723814 -29.81986,0 -29.81985,0 -0.85355,-2.25 z m 41.90305,-18.75 c 0,-0.55 -0.85186,-1 -1.89301,-1 -2.6523,0 -3.10699,-1.84128 -3.10699,-12.581794 0,-9.084827 0.0796,-9.420067 2.25,-9.470657 l 2.25,-0.0525 -2.25,-1.56952 c -1.81659,-1.26719 -2.25,-2.51873 -2.25,-6.49721 0,-5.56928 -2.00896,-10.22761 -5.13146,-11.89873 -2.32176,-1.24256 -7.543,-1.48513 -10.66165,-0.49531 -1.78225,0.56567 -1.88346,1.00953 -0.93497,4.1 1.30433,4.2499 2.28966,4.40777 3.07275,0.49234 0.42033,-2.1017 1.34025,-3.16047 3.13798,-3.61167 4.37079,-1.097 5.51735,0.92031 5.51735,9.70745 l 0,7.87755 -3,0 c -1.65,0 -3,0.45 -3,1 0,0.55 1.35,1 3,1 l 3,0 0,10.999997 c 0,10.333334 -0.12121,11.000004 -2,11.000004 -1.1,0 -2,0.45 -2,1 0,0.57143 3,1 7,1 4,0 7,-0.42857 7,-1 z"
       id="path4032-6"
       inkscape:connector-curvature="0" />
    <path
       style="fill:#000000"
       d="m 460.70064,158.64292 c -27.72475,-5.86929 -49.4454,-24.93171 -57.95919,-50.866 -4.99561,-15.217371 -4.72796,-32.589278 0.74018,-48.041588 12.45281,-35.19017 48.94328,-55.82334 85.35753,-48.26455 34.99235,7.263629 59.78629,37.49735 59.78629,72.90337 0,12.251417 -2.16469,21.704908 -7.50776,32.787438 -9.37844,19.45264 -25.06237,32.90961 -45.99224,39.4618 -7.94157,2.48614 -26.95247,3.60142 -34.42481,2.01953 z m 59.42378,-56.50106 c 9.45907,-29.114888 10.70031,-33.703338 9.44559,-34.916968 -1.27738,-1.23554 -52.0108,-38.25014 -54.7321,-39.93199 -1.29246,-0.79879 -57.76078,40.11696 -57.59963,41.73548 0.062,0.62327 4.92051,15.87071 10.79657,33.883208 l 10.68375,32.75 35.25783,0 35.25784,0 10.89015,-33.51973 z m -76.40202,23.26973 c -3.63151,-9.57282 -17.14476,-53.183018 -16.77672,-54.142128 0.79204,-2.06402 46.6564,-34.83082 48.02065,-34.30731 2.11591,0.81196 47.15912,33.83127 47.15912,34.5704 0,0.37478 -4.0297,13.15714 -8.95489,28.405227 l -8.9549,27.723811 -29.81986,0 -29.81985,0 -0.85355,-2.25 z m 41.90305,-18.75001 c 0,-0.54999 -0.85186,-0.99999 -1.89301,-0.99999 -2.6523,0 -3.10699,-1.84128 -3.10699,-12.581791 0,-9.084827 0.0796,-9.420067 2.25,-9.470657 l 2.25,-0.0525 -2.25,-1.56952 c -1.81659,-1.26719 -2.25,-2.51873 -2.25,-6.49721 0,-5.56928 -2.00896,-10.22761 -5.13146,-11.89873 -2.32176,-1.24256 -7.543,-1.48513 -10.66165,-0.49531 -1.78225,0.56567 -1.88346,1.00953 -0.93497,4.1 1.30433,4.2499 2.28966,4.40777 3.07275,0.49234 0.42033,-2.1017 1.34025,-3.16047 3.13798,-3.61167 4.37079,-1.097 5.51735,0.92031 5.51735,9.70745 l 0,7.87755 -3,0 c -1.65,0 -3,0.45 -3,1 0,0.55 1.35,1 3,1 l 3,0 0,10.999997 c 0,10.333331 -0.12121,11.000001 -2,11.000001 -1.1,0 -2,0.45 -2,0.99999 0,0.57143 3,1 7,1 4,0 7,-0.42857 7,-1 z"
       id="path4032-6-7"
       inkscape:connector-curvature="0" />
    <path
       style="fill:#000000"
       d="m 629.28763,157.31546 c -27.72475,-5.86929 -49.4454,-24.93171 -57.95919,-50.86599 -4.99561,-15.217377 -4.72796,-32.589284 0.74018,-48.041594 12.45281,-35.19017 48.94328,-55.8233406 85.35753,-48.264551 34.99235,7.263629 59.78629,37.497351 59.78629,72.903371 0,12.251417 -2.16469,21.704904 -7.50776,32.787434 -9.37844,19.45264 -25.06237,32.90961 -45.99224,39.4618 -7.94157,2.48614 -26.95247,3.60142 -34.42481,2.01953 z m 59.42378,-56.50106 c 9.45907,-29.114884 10.70031,-33.703334 9.44559,-34.916964 -1.27738,-1.23554 -52.0108,-38.25014 -54.7321,-39.93199 -1.29246,-0.79879 -57.76078,40.11696 -57.59963,41.73548 0.062,0.62327 4.92051,15.87071 10.79657,33.883204 l 10.68375,32.75 35.25783,0 35.25784,0 10.89015,-33.51973 z m -76.40202,23.26973 c -3.63151,-9.57282 -17.14476,-53.183014 -16.77672,-54.142124 0.79204,-2.06402 46.6564,-34.83082 48.02065,-34.30731 2.11591,0.81196 47.15912,33.83127 47.15912,34.5704 0,0.37478 -4.0297,13.15714 -8.95489,28.405227 l -8.9549,27.723807 -29.81986,0 -29.81985,0 -0.85355,-2.25 z m 41.90305,-18.75 c 0,-0.55 -0.85186,-1 -1.89301,-1 -2.6523,0 -3.10699,-1.84128 -3.10699,-12.581787 0,-9.084827 0.0796,-9.420067 2.25,-9.470657 l 2.25,-0.0525 -2.25,-1.56952 c -1.81659,-1.26719 -2.25,-2.51873 -2.25,-6.49721 0,-5.56928 -2.00896,-10.22761 -5.13146,-11.89873 -2.32176,-1.24256 -7.543,-1.48513 -10.66165,-0.49531 -1.78225,0.56567 -1.88346,1.00953 -0.93497,4.1 1.30433,4.2499 2.28966,4.40777 3.07275,0.49234 0.42033,-2.1017 1.34025,-3.16047 3.13798,-3.61167 4.37079,-1.097 5.51735,0.92031 5.51735,9.70745 l 0,7.87755 -3,0 c -1.65,0 -3,0.45 -3,1 0,0.55 1.35,1 3,1 l 3,0 0,10.999997 c 0,10.333327 -0.12121,10.999997 -2,10.999997 -1.1,0 -2,0.45 -2,1 0,0.57143 3,1 7,1 4,0 7,-0.42857 7,-1 z"
       id="path4032-6-7-0"
       inkscape:connector-curvature="0" />
    <path
       style="fill:#000000"
       d="m 204.50153,300.68078 c -27.72475,-5.86929 -49.4454,-24.93171 -57.95919,-50.866 -4.99561,-15.21738 -4.72796,-32.58928 0.74018,-48.04159 12.45281,-35.19017 48.94328,-55.82335 85.35753,-48.26456 34.99235,7.26363 59.78629,37.49736 59.78629,72.90338 0,12.25141 -2.16469,21.7049 -7.50776,32.78744 -9.37844,19.45264 -25.06237,32.90961 -45.99224,39.4618 -7.94157,2.48614 -26.95247,3.60142 -34.42481,2.01953 z m 59.42378,-56.50107 c 9.45907,-29.11488 10.70031,-33.70333 9.44559,-34.91696 -1.27738,-1.23554 -52.0108,-38.25014 -54.7321,-39.93199 -1.29246,-0.79879 -57.76078,40.11696 -57.59963,41.73548 0.062,0.62327 4.92051,15.87071 10.79657,33.8832 l 10.68375,32.75001 35.25783,0 35.25784,0 10.89015,-33.51974 z m -76.40202,23.26974 c -3.63151,-9.57282 -17.14476,-53.18302 -16.77672,-54.14213 0.79204,-2.06402 46.6564,-34.83082 48.02065,-34.30731 2.11591,0.81196 47.15912,33.83127 47.15912,34.5704 0,0.37478 -4.0297,13.15714 -8.95489,28.40522 l -8.9549,27.72382 -29.81986,0 -29.81985,0 -0.85355,-2.25 z m 41.90305,-18.75001 c 0,-0.55 -0.85186,-1 -1.89301,-1 -2.6523,0 -3.10699,-1.84128 -3.10699,-12.58179 0,-9.08482 0.0796,-9.42006 2.25,-9.47065 l 2.25,-0.0525 -2.25,-1.56952 c -1.81659,-1.26719 -2.25,-2.51873 -2.25,-6.49721 0,-5.56928 -2.00896,-10.22761 -5.13146,-11.89873 -2.32176,-1.24256 -7.543,-1.48513 -10.66165,-0.49531 -1.78225,0.56567 -1.88346,1.00953 -0.93497,4.1 1.30433,4.2499 2.28966,4.40777 3.07275,0.49234 0.42033,-2.1017 1.34025,-3.16047 3.13798,-3.61167 4.37079,-1.097 5.51735,0.92031 5.51735,9.70745 l 0,7.87755 -3,0 c -1.65,0 -3,0.45 -3,1 0,0.55 1.35,1 3,1 l 3,0 0,10.99999 c 0,10.33333 -0.12121,11 -2,11 -1.1,0 -2,0.45 -2,1 0,0.57143 3,1 7,1 4,0 7,-0.42857 7,-1 z"
       id="path4032-6-7-0-4"
       inkscape:connector-curvature="0" />
    <path
       style="fill:#000000"
       d="m 377.07088,303.33569 c -27.72475,-5.86929 -49.4454,-24.93171 -57.95919,-50.866 -4.99561,-15.21738 -4.72796,-32.58928 0.74018,-48.04159 12.45281,-35.19017 48.94328,-55.82335 85.35753,-48.26456 34.99235,7.26363 59.78629,37.49736 59.78629,72.90338 0,12.25141 -2.16469,21.7049 -7.50776,32.78744 -9.37844,19.45264 -25.06237,32.90961 -45.99224,39.4618 -7.94157,2.48614 -26.95247,3.60142 -34.42481,2.01953 z m 59.42378,-56.50107 c 9.45907,-29.11488 10.70031,-33.70333 9.44559,-34.91696 -1.27738,-1.23554 -52.0108,-38.25014 -54.7321,-39.93199 -1.29246,-0.79879 -57.76078,40.11696 -57.59963,41.73548 0.062,0.62327 4.92051,15.87071 10.79657,33.8832 l 10.68375,32.75001 35.25783,0 35.25784,0 10.89015,-33.51974 z m -76.40202,23.26974 c -3.63151,-9.57282 -17.14476,-53.18302 -16.77672,-54.14213 0.79204,-2.06402 46.6564,-34.83082 48.02065,-34.30731 2.11591,0.81196 47.15912,33.83127 47.15912,34.5704 0,0.37478 -4.0297,13.15714 -8.95489,28.40522 l -8.9549,27.72382 -29.81986,0 -29.81985,0 -0.85355,-2.25 z m 41.90305,-18.75001 c 0,-0.55 -0.85186,-1 -1.89301,-1 -2.6523,0 -3.10699,-1.84128 -3.10699,-12.58179 0,-9.08482 0.0796,-9.42006 2.25,-9.47065 l 2.25,-0.0525 -2.25,-1.56952 c -1.81659,-1.26719 -2.25,-2.51873 -2.25,-6.49721 0,-5.56928 -2.00896,-10.22761 -5.13146,-11.89873 -2.32176,-1.24256 -7.543,-1.48513 -10.66165,-0.49531 -1.78225,0.56567 -1.88346,1.00953 -0.93497,4.1 1.30433,4.2499 2.28966,4.40777 3.07275,0.49234 0.42033,-2.1017 1.34025,-3.16047 3.13798,-3.61167 4.37079,-1.097 5.51735,0.92031 5.51735,9.70745 l 0,7.87755 -3,0 c -1.65,0 -3,0.45 -3,1 0,0.55 1.35,1 3,1 l 3,0 0,10.99999 c 0,10.33333 -0.12121,11 -2,11 -1.1,0 -2,0.45 -2,1 0,0.57143 3,1 7,1 4,0 7,-0.42857 7,-1 z"
       id="path4032-6-7-0-4-6"
       inkscape:connector-curvature="0" />
    <path
       style="fill:#000000"
       d="m 546.98532,304.66315 c -27.72475,-5.86929 -49.4454,-24.93171 -57.95919,-50.866 -4.99561,-15.21738 -4.72796,-32.58928 0.74018,-48.04159 12.45281,-35.19017 48.94328,-55.82335 85.35753,-48.26456 34.99235,7.26363 59.78629,37.49736 59.78629,72.90338 0,12.25141 -2.16469,21.7049 -7.50776,32.78744 -9.37844,19.45264 -25.06237,32.90961 -45.99224,39.4618 -7.94157,2.48614 -26.95247,3.60142 -34.42481,2.01953 z m 59.42378,-56.50107 c 9.45907,-29.11488 10.70031,-33.70333 9.44559,-34.91696 -1.27738,-1.23554 -52.0108,-38.25014 -54.7321,-39.93199 -1.29246,-0.79879 -57.76078,40.11696 -57.59963,41.73548 0.062,0.62327 4.92051,15.87071 10.79657,33.8832 l 10.68375,32.75001 35.25783,0 35.25784,0 10.89015,-33.51974 z m -76.40202,23.26974 c -3.63151,-9.57282 -17.14476,-53.18302 -16.77672,-54.14213 0.79204,-2.06402 46.6564,-34.83082 48.02065,-34.30731 2.11591,0.81196 47.15912,33.83127 47.15912,34.5704 0,0.37478 -4.0297,13.15714 -8.95489,28.40522 l -8.9549,27.72382 -29.81986,0 -29.81985,0 -0.85355,-2.25 z m 41.90305,-18.75001 c 0,-0.55 -0.85186,-1 -1.89301,-1 -2.6523,0 -3.10699,-1.84128 -3.10699,-12.58179 0,-9.08482 0.0796,-9.42006 2.25,-9.47065 l 2.25,-0.0525 -2.25,-1.56952 c -1.81659,-1.26719 -2.25,-2.51873 -2.25,-6.49721 0,-5.56928 -2.00896,-10.22761 -5.13146,-11.89873 -2.32176,-1.24256 -7.543,-1.48513 -10.66165,-0.49531 -1.78225,0.56567 -1.88346,1.00953 -0.93497,4.1 1.30433,4.2499 2.28966,4.40777 3.07275,0.49234 0.42033,-2.1017 1.34025,-3.16047 3.13798,-3.61167 4.37079,-1.097 5.51735,0.92031 5.51735,9.70745 l 0,7.87755 -3,0 c -1.65,0 -3,0.45 -3,1 0,0.55 1.35,1 3,1 l 3,0 0,10.99999 c 0,10.33333 -0.12121,11 -2,11 -1.1,0 -2,0.45 -2,1 0,0.57143 3,1 7,1 4,0 7,-0.42857 7,-1 z"
       id="path4032-6-7-0-4-6-1"
       inkscape:connector-curvature="0" />
    <path
       style="fill:#000000"
       d="m 117.55312,461.46846 c -27.724754,-5.86929 -49.445404,-24.93171 -57.959194,-50.86599 -4.99561,-15.21738 -4.72796,-32.58928 0.74018,-48.04159 12.45281,-35.19017 48.943284,-55.82334 85.357534,-48.26455 34.99236,7.26363 59.7863,37.49735 59.7863,72.90337 0,12.25141 -2.16469,21.70491 -7.50776,32.78743 -9.37844,19.45264 -25.06237,32.90961 -45.99225,39.4618 -7.94157,2.48614 -26.95247,3.60142 -34.42481,2.01953 z m 59.42379,-56.50105 c 9.45907,-29.11489 10.70031,-33.70334 9.44559,-34.91697 -1.27738,-1.23554 -52.01081,-38.25014 -54.73211,-39.93199 -1.29246,-0.79879 -57.760784,40.11696 -57.599634,41.73548 0.062,0.62327 4.92051,15.87071 10.79657,33.88321 l 10.68375,32.74999 35.257834,0 35.25785,0 10.89015,-33.51972 z m -76.40203,23.26972 c -3.631514,-9.57282 -17.144764,-53.18301 -16.776724,-54.14212 0.79204,-2.06402 46.656404,-34.83082 48.020654,-34.30731 2.11591,0.81196 47.15913,33.83127 47.15913,34.5704 0,0.37478 -4.0297,13.15714 -8.95489,28.40523 l -8.9549,27.7238 -29.81987,0 -29.81985,0 -0.85355,-2.25 z m 41.90305,-18.74999 c 0,-0.55 -0.85186,-1 -1.89301,-1 -2.6523,0 -3.10699,-1.84128 -3.10699,-12.5818 0,-9.08482 0.0796,-9.42006 2.25,-9.47065 l 2.25,-0.0525 -2.25,-1.56952 c -1.81659,-1.26719 -2.25,-2.51873 -2.25,-6.49721 0,-5.56928 -2.00896,-10.22761 -5.13146,-11.89873 -2.32176,-1.24256 -7.543,-1.48513 -10.66165,-0.49531 -1.78225,0.56567 -1.88346,1.00953 -0.93497,4.1 1.30433,4.2499 2.28966,4.40777 3.07275,0.49234 0.42033,-2.1017 1.34025,-3.16047 3.13798,-3.61167 4.37079,-1.097 5.51735,0.92031 5.51735,9.70745 l 0,7.87755 -3,0 c -1.65,0 -3,0.45 -3,1 0,0.55 1.35,1 3,1 l 3,0 0,10.99999 c 0,10.33334 -0.12121,11.00001 -2,11.00001 -1.1,0 -2,0.45 -2,1 0,0.57142 3,0.99999 7,0.99999 4,0 7,-0.42857 7,-0.99999 z"
       id="path4032-4"
       inkscape:connector-curvature="0" />
    <path
       style="fill:#000000"
       d="m 284.81266,458.6481 c -27.72475,-5.86929 -49.4454,-24.93171 -57.95919,-50.86598 -4.99561,-15.21739 -4.72796,-32.5893 0.74018,-48.04161 12.45281,-35.19017 48.94328,-55.82333 85.35753,-48.26454 34.99235,7.26362 59.78629,37.49734 59.78629,72.90336 0,12.25142 -2.16469,21.70492 -7.50776,32.78744 -9.37844,19.45264 -25.06237,32.90961 -45.99224,39.4618 -7.94157,2.48614 -26.95247,3.60142 -34.42481,2.01953 z m 59.42378,-56.50106 c 9.45907,-29.11489 10.70031,-33.70334 9.44559,-34.91697 -1.27738,-1.23554 -52.0108,-38.25014 -54.7321,-39.93199 -1.29246,-0.79879 -57.76078,40.11696 -57.59963,41.73548 0.062,0.62327 4.92051,15.87071 10.79657,33.88322 l 10.68375,32.74999 35.25783,0 35.25784,0 10.89015,-33.51973 z m -76.40202,23.26973 c -3.63151,-9.57282 -17.14476,-53.18302 -16.77672,-54.14213 0.79204,-2.06402 46.6564,-34.83082 48.02065,-34.30731 2.11591,0.81196 47.15912,33.83127 47.15912,34.5704 0,0.37478 -4.0297,13.15714 -8.95489,28.40523 l -8.9549,27.72381 -29.81986,0 -29.81985,0 -0.85355,-2.25 z m 41.90305,-18.74999 c 0,-0.55 -0.85186,-1 -1.89301,-1 -2.6523,0 -3.10699,-1.84128 -3.10699,-12.5818 0,-9.08483 0.0796,-9.42007 2.25,-9.47066 l 2.25,-0.0525 -2.25,-1.56952 c -1.81659,-1.26719 -2.25,-2.51873 -2.25,-6.49721 0,-5.56928 -2.00896,-10.22761 -5.13146,-11.89873 -2.32176,-1.24256 -7.543,-1.48513 -10.66165,-0.49531 -1.78225,0.56567 -1.88346,1.00953 -0.93497,4.1 1.30433,4.2499 2.28966,4.40777 3.07275,0.49234 0.42033,-2.1017 1.34025,-3.16047 3.13798,-3.61167 4.37079,-1.097 5.51735,0.92031 5.51735,9.70745 l 0,7.87755 -3,0 c -1.65,0 -3,0.45 -3,1 0,0.55 1.35,1 3,1 l 3,0 0,11 c 0,10.33334 -0.12121,11.00001 -2,11.00001 -1.1,0 -2,0.45 -2,1 0,0.57143 3,1 7,1 4,0 7,-0.42857 7,-1 z"
       id="path4032-6-5"
       inkscape:connector-curvature="0" />
    <path
       style="fill:#000000"
       d="m 457.38201,461.30301 c -27.72475,-5.86929 -49.4454,-24.93171 -57.95919,-50.866 -4.99561,-15.21737 -4.72796,-32.58927 0.74018,-48.04158 12.45281,-35.19017 48.94328,-55.82334 85.35753,-48.26455 34.99235,7.26363 59.78629,37.49735 59.78629,72.90337 0,12.25141 -2.16469,21.70491 -7.50776,32.78743 -9.37844,19.45264 -25.06237,32.90961 -45.99224,39.4618 -7.94157,2.48614 -26.95247,3.60142 -34.42481,2.01953 z m 59.42378,-56.50105 c 9.45907,-29.11489 10.70031,-33.70334 9.44559,-34.91697 -1.27738,-1.23554 -52.0108,-38.25014 -54.7321,-39.93199 -1.29246,-0.79879 -57.76078,40.11696 -57.59963,41.73548 0.062,0.62327 4.92051,15.87071 10.79657,33.88321 l 10.68375,32.74999 35.25783,0 35.25784,0 10.89015,-33.51972 z m -76.40202,23.26972 c -3.63151,-9.57282 -17.14476,-53.18301 -16.77672,-54.14212 0.79204,-2.06402 46.6564,-34.83082 48.02065,-34.30731 2.11591,0.81196 47.15912,33.83127 47.15912,34.5704 0,0.37478 -4.0297,13.15714 -8.95489,28.40522 l -8.9549,27.72381 -29.81986,0 -29.81985,0 -0.85355,-2.25 z m 41.90305,-18.75 c 0,-0.54999 -0.85186,-0.99999 -1.89301,-0.99999 -2.6523,0 -3.10699,-1.84128 -3.10699,-12.5818 0,-9.08482 0.0796,-9.42006 2.25,-9.47065 l 2.25,-0.0525 -2.25,-1.56952 c -1.81659,-1.26719 -2.25,-2.51873 -2.25,-6.49721 0,-5.56928 -2.00896,-10.22761 -5.13146,-11.89873 -2.32176,-1.24256 -7.543,-1.48513 -10.66165,-0.49531 -1.78225,0.56567 -1.88346,1.00953 -0.93497,4.1 1.30433,4.2499 2.28966,4.40777 3.07275,0.49234 0.42033,-2.1017 1.34025,-3.16047 3.13798,-3.61167 4.37079,-1.097 5.51735,0.92031 5.51735,9.70745 l 0,7.87755 -3,0 c -1.65,0 -3,0.45 -3,1 0,0.55 1.35,1 3,1 l 3,0 0,10.99999 c 0,10.33334 -0.12121,11.00001 -2,11.00001 -1.1,0 -2,0.45 -2,0.99999 0,0.57143 3,0.99999 7,0.99999 4,0 7,-0.42856 7,-0.99999 z"
       id="path4032-6-7-9"
       inkscape:connector-curvature="0" />
    <path
       style="fill:#000000"
       d="m 625.969,459.97555 c -27.72475,-5.86929 -49.4454,-24.93171 -57.95919,-50.86598 -4.99561,-15.21738 -4.72796,-32.58929 0.74018,-48.0416 12.45281,-35.19017 48.94328,-55.82334 85.35753,-48.26455 34.99235,7.26363 59.78629,37.49735 59.78629,72.90337 0,12.25142 -2.16469,21.70491 -7.50776,32.78743 -9.37844,19.45264 -25.06237,32.90961 -45.99224,39.4618 -7.94157,2.48614 -26.95247,3.60142 -34.42481,2.01953 z m 59.42378,-56.50105 c 9.45907,-29.11489 10.70031,-33.70334 9.44559,-34.91697 -1.27738,-1.23554 -52.0108,-38.25014 -54.7321,-39.93199 -1.29246,-0.79879 -57.76078,40.11696 -57.59963,41.73548 0.062,0.62327 4.92051,15.87071 10.79657,33.88321 l 10.68375,32.74999 35.25783,0 35.25784,0 10.89015,-33.51972 z m -76.40202,23.26972 c -3.63151,-9.57282 -17.14476,-53.18301 -16.77672,-54.14212 0.79204,-2.06402 46.6564,-34.83082 48.02065,-34.30731 2.11591,0.81196 47.15912,33.83127 47.15912,34.5704 0,0.37478 -4.0297,13.15714 -8.95489,28.40523 l -8.9549,27.7238 -29.81986,0 -29.81985,0 -0.85355,-2.25 z m 41.90305,-18.74999 c 0,-0.55 -0.85186,-1 -1.89301,-1 -2.6523,0 -3.10699,-1.84128 -3.10699,-12.58179 0,-9.08483 0.0796,-9.42007 2.25,-9.47066 l 2.25,-0.0525 -2.25,-1.56952 c -1.81659,-1.26719 -2.25,-2.51873 -2.25,-6.49721 0,-5.56928 -2.00896,-10.22761 -5.13146,-11.89873 -2.32176,-1.24256 -7.543,-1.48513 -10.66165,-0.49531 -1.78225,0.56567 -1.88346,1.00953 -0.93497,4.1 1.30433,4.2499 2.28966,4.40777 3.07275,0.49234 0.42033,-2.1017 1.34025,-3.16047 3.13798,-3.61167 4.37079,-1.097 5.51735,0.92031 5.51735,9.70745 l 0,7.87755 -3,0 c -1.65,0 -3,0.45 -3,1 0,0.55 1.35,1 3,1 l 3,0 0,11 c 0,10.33333 -0.12121,11 -2,11 -1.1,0 -2,0.45 -2,1 0,0.57143 3,1 7,1 4,0 7,-0.42857 7,-1 z"
       id="path4032-6-7-0-0"
       inkscape:connector-curvature="0" />
    <path
       style="fill:#000000"
       d="m 201.1829,603.34087 c -27.72475,-5.86929 -49.44541,-24.93171 -57.9592,-50.866 -4.99561,-15.21738 -4.72796,-32.58928 0.74018,-48.04159 12.45282,-35.19017 48.94329,-55.82335 85.35754,-48.26456 34.99235,7.26363 59.78629,37.49736 59.78629,72.90338 0,12.25141 -2.16469,21.7049 -7.50776,32.78744 -9.37844,19.45264 -25.06237,32.90961 -45.99224,39.4618 -7.94157,2.48614 -26.95247,3.60142 -34.42481,2.01953 z m 59.42378,-56.50107 c 9.45907,-29.11488 10.70031,-33.70333 9.44559,-34.91696 -1.27738,-1.23554 -52.0108,-38.25014 -54.7321,-39.93199 -1.29246,-0.79879 -57.76078,40.11696 -57.59963,41.73548 0.062,0.62327 4.92051,15.87071 10.79657,33.8832 l 10.68375,32.75001 35.25783,0 35.25784,0 10.89015,-33.51974 z m -76.40202,23.26974 c -3.63151,-9.57282 -17.14476,-53.18302 -16.77672,-54.14213 0.79204,-2.06402 46.6564,-34.83082 48.02065,-34.30731 2.11591,0.81196 47.15912,33.83127 47.15912,34.5704 0,0.37478 -4.0297,13.15714 -8.95489,28.40522 l -8.9549,27.72382 -29.81986,0 -29.81985,0 -0.85355,-2.25 z m 41.90305,-18.75001 c 0,-0.55 -0.85186,-1 -1.89301,-1 -2.6523,0 -3.10699,-1.84128 -3.10699,-12.58179 0,-9.08482 0.0796,-9.42006 2.25,-9.47065 l 2.25,-0.0525 -2.25,-1.56952 c -1.81659,-1.26719 -2.25,-2.51873 -2.25,-6.49721 0,-5.56928 -2.00896,-10.22761 -5.13146,-11.89873 -2.32176,-1.24256 -7.543,-1.48513 -10.66165,-0.49531 -1.78225,0.56567 -1.88346,1.00953 -0.93497,4.1 1.30433,4.2499 2.28966,4.40777 3.07275,0.49234 0.42033,-2.1017 1.34025,-3.16047 3.13798,-3.61167 4.37079,-1.097 5.51735,0.92031 5.51735,9.70745 l 0,7.87755 -3,0 c -1.65,0 -3,0.45 -3,1 0,0.55 1.35,1 3,1 l 3,0 0,10.99999 c 0,10.33333 -0.12121,11 -2,11 -1.1,0 -2,0.45 -2,1 0,0.57143 3,1 7,1 4,0 7,-0.42857 7,-1 z"
       id="path4032-6-7-0-4-4"
       inkscape:connector-curvature="0" />
    <path
       style="fill:#000000"
       d="m 373.75225,605.99578 c -27.72475,-5.86929 -49.4454,-24.93171 -57.95919,-50.866 -4.99561,-15.21738 -4.72796,-32.58928 0.74018,-48.04159 12.45281,-35.19017 48.94328,-55.82335 85.35753,-48.26456 34.99235,7.26363 59.78629,37.49736 59.78629,72.90338 0,12.25141 -2.16469,21.7049 -7.50776,32.78744 -9.37844,19.45264 -25.06237,32.90961 -45.99224,39.4618 -7.94157,2.48614 -26.95247,3.60142 -34.42481,2.01953 z m 59.42378,-56.50107 c 9.45907,-29.11488 10.70031,-33.70333 9.44559,-34.91696 -1.27738,-1.23554 -52.0108,-38.25014 -54.7321,-39.93199 -1.29246,-0.79879 -57.76078,40.11696 -57.59963,41.73548 0.062,0.62327 4.92051,15.87071 10.79657,33.8832 l 10.68375,32.75001 35.25783,0 35.25784,0 10.89015,-33.51974 z m -76.40202,23.26974 c -3.63151,-9.57282 -17.14476,-53.18302 -16.77672,-54.14213 0.79204,-2.06402 46.6564,-34.83082 48.02065,-34.30731 2.11591,0.81196 47.15912,33.83127 47.15912,34.5704 0,0.37478 -4.0297,13.15714 -8.95489,28.40522 l -8.9549,27.72382 -29.81986,0 -29.81985,0 -0.85355,-2.25 z m 41.90305,-18.75001 c 0,-0.55 -0.85186,-1 -1.89301,-1 -2.6523,0 -3.10699,-1.84128 -3.10699,-12.58179 0,-9.08482 0.0796,-9.42006 2.25,-9.47065 l 2.25,-0.0525 -2.25,-1.56952 c -1.81659,-1.26719 -2.25,-2.51873 -2.25,-6.49721 0,-5.56928 -2.00896,-10.22761 -5.13146,-11.89873 -2.32176,-1.24256 -7.543,-1.48513 -10.66165,-0.49531 -1.78225,0.56567 -1.88346,1.00953 -0.93497,4.1 1.30433,4.2499 2.28966,4.40777 3.07275,0.49234 0.42033,-2.1017 1.34025,-3.16047 3.13798,-3.61167 4.37079,-1.097 5.51735,0.92031 5.51735,9.70745 l 0,7.87755 -3,0 c -1.65,0 -3,0.45 -3,1 0,0.55 1.35,1 3,1 l 3,0 0,10.99999 c 0,10.33333 -0.12121,11 -2,11 -1.1,0 -2,0.45 -2,1 0,0.57143 3,1 7,1 4,0 7,-0.42857 7,-1 z"
       id="path4032-6-7-0-4-6-5"
       inkscape:connector-curvature="0" />
    <path
       style="fill:#000000"
       d="m 543.66669,607.32324 c -27.72475,-5.86929 -49.4454,-24.93171 -57.95919,-50.866 -4.99561,-15.21738 -4.72796,-32.58928 0.74018,-48.04159 12.45281,-35.19017 48.94328,-55.82335 85.35753,-48.26456 34.99235,7.26363 59.78629,37.49736 59.78629,72.90338 0,12.25141 -2.16469,21.7049 -7.50776,32.78744 -9.37844,19.45264 -25.06237,32.90961 -45.99224,39.4618 -7.94157,2.48614 -26.95247,3.60142 -34.42481,2.01953 z m 59.42378,-56.50107 c 9.45907,-29.11488 10.70031,-33.70333 9.44559,-34.91696 -1.27738,-1.23554 -52.0108,-38.25014 -54.7321,-39.93199 -1.29246,-0.79879 -57.76078,40.11696 -57.59963,41.73548 0.062,0.62327 4.92051,15.87071 10.79657,33.8832 l 10.68375,32.75001 35.25783,0 35.25784,0 10.89015,-33.51974 z m -76.40202,23.26974 c -3.63151,-9.57282 -17.14476,-53.18302 -16.77672,-54.14213 0.79204,-2.06402 46.6564,-34.83082 48.02065,-34.30731 2.11591,0.81196 47.15912,33.83127 47.15912,34.5704 0,0.37478 -4.0297,13.15714 -8.95489,28.40522 l -8.9549,27.72382 -29.81986,0 -29.81985,0 -0.85355,-2.25 z M 568.5915,555.3419 c 0,-0.55 -0.85186,-1 -1.89301,-1 -2.6523,0 -3.10699,-1.84128 -3.10699,-12.58179 0,-9.08482 0.0796,-9.42006 2.25,-9.47065 l 2.25,-0.0525 -2.25,-1.56952 c -1.81659,-1.26719 -2.25,-2.51873 -2.25,-6.49721 0,-5.56928 -2.00896,-10.22761 -5.13146,-11.89873 -2.32176,-1.24256 -7.543,-1.48513 -10.66165,-0.49531 -1.78225,0.56567 -1.88346,1.00953 -0.93497,4.1 1.30433,4.2499 2.28966,4.40777 3.07275,0.49234 0.42033,-2.1017 1.34025,-3.16047 3.13798,-3.61167 4.37079,-1.097 5.51735,0.92031 5.51735,9.70745 l 0,7.87755 -3,0 c -1.65,0 -3,0.45 -3,1 0,0.55 1.35,1 3,1 l 3,0 0,10.99999 c 0,10.33333 -0.12121,11 -2,11 -1.1,0 -2,0.45 -2,1 0,0.57143 3,1 7,1 4,0 7,-0.42857 7,-1 z"
       id="path4032-6-7-0-4-6-1-5"
       inkscape:connector-curvature="0" />
    <path
       style="fill:#000000"
       d="m 97.641271,760.14619 c -27.72475,-5.86929 -49.4454,-24.93171 -57.95919,-50.86599 -4.99561,-15.21738 -4.72796,-32.58929 0.74018,-48.0416 12.45281,-35.19017 48.94328,-55.82334 85.357529,-48.26455 34.99235,7.26363 59.78629,37.49735 59.78629,72.90337 0,12.25142 -2.16469,21.70491 -7.50776,32.78744 -9.37844,19.45264 -25.06237,32.90961 -45.99224,39.4618 -7.94157,2.48614 -26.95247,3.60142 -34.424809,2.01953 z m 59.423779,-56.50106 c 9.45907,-29.11489 10.70031,-33.70334 9.44559,-34.91697 -1.27738,-1.23554 -52.0108,-38.25014 -54.7321,-39.93199 -1.29246,-0.79879 -57.760779,40.11696 -57.599629,41.73548 0.062,0.62327 4.92051,15.87071 10.79657,33.88321 l 10.68375,32.75 35.257829,0 35.25784,0 10.89015,-33.51973 z m -76.402019,23.26973 c -3.63151,-9.57282 -17.14476,-53.18302 -16.77672,-54.14213 0.79204,-2.06402 46.656399,-34.83082 48.020649,-34.30731 2.11591,0.81196 47.15912,33.83127 47.15912,34.5704 0,0.37478 -4.0297,13.15714 -8.95489,28.40523 l -8.9549,27.72381 -29.81986,0 -29.819849,0 -0.85355,-2.25 z m 41.903049,-18.75 c 0,-0.55 -0.85186,-1 -1.89301,-1 -2.6523,0 -3.10699,-1.84128 -3.10699,-12.58179 0,-9.08483 0.0796,-9.42007 2.25,-9.47066 l 2.25,-0.0525 -2.25,-1.56952 c -1.81659,-1.26719 -2.25,-2.51873 -2.25,-6.49721 0,-5.56928 -2.00896,-10.22761 -5.13146,-11.89873 -2.32176,-1.24256 -7.543,-1.48513 -10.66165,-0.49531 -1.782249,0.56567 -1.883459,1.00953 -0.93497,4.1 1.30433,4.2499 2.28966,4.40777 3.07275,0.49234 0.42033,-2.1017 1.34025,-3.16047 3.13798,-3.61167 4.37079,-1.097 5.51735,0.92031 5.51735,9.70745 l 0,7.87755 -3,0 c -1.65,0 -3,0.45 -3,1 0,0.55 1.35,1 3,1 l 3,0 0,11 c 0,10.33333 -0.12121,11 -2,11 -1.1,0 -2,0.45 -2,1 0,0.57143 3,1 7,1 4,0 7,-0.42857 7,-1 z"
       id="path4032-7"
       inkscape:connector-curvature="0" />
    <path
       style="fill:#000000"
       d="m 264.9008,757.32583 c -27.72475,-5.86929 -49.4454,-24.93171 -57.95919,-50.86599 -4.99561,-15.21738 -4.72796,-32.58929 0.74018,-48.0416 12.45281,-35.19017 48.94328,-55.82334 85.35753,-48.26455 34.99235,7.26363 59.78629,37.49735 59.78629,72.90337 0,12.25142 -2.16469,21.70491 -7.50776,32.78744 -9.37844,19.45264 -25.06237,32.90961 -45.99224,39.4618 -7.94157,2.48614 -26.95247,3.60142 -34.42481,2.01953 z m 59.42378,-56.50106 c 9.45907,-29.11489 10.70031,-33.70334 9.44559,-34.91697 -1.27738,-1.23554 -52.0108,-38.25014 -54.7321,-39.93199 -1.29246,-0.79879 -57.76078,40.11696 -57.59963,41.73548 0.062,0.62327 4.92051,15.87071 10.79657,33.88321 l 10.68375,32.75 35.25783,0 35.25784,0 10.89015,-33.51973 z m -76.40202,23.26973 c -3.63151,-9.57282 -17.14476,-53.18302 -16.77672,-54.14213 0.79204,-2.06402 46.6564,-34.83082 48.02065,-34.30731 2.11591,0.81196 47.15912,33.83127 47.15912,34.5704 0,0.37478 -4.0297,13.15714 -8.95489,28.40523 l -8.9549,27.72381 -29.81986,0 -29.81985,0 -0.85355,-2.25 z m 41.90305,-18.75 c 0,-0.55 -0.85186,-1 -1.89301,-1 -2.6523,0 -3.10699,-1.84128 -3.10699,-12.58179 0,-9.08483 0.0796,-9.42007 2.25,-9.47066 l 2.25,-0.0525 -2.25,-1.56952 c -1.81659,-1.26719 -2.25,-2.51873 -2.25,-6.49721 0,-5.56928 -2.00896,-10.22761 -5.13146,-11.89873 -2.32176,-1.24256 -7.543,-1.48513 -10.66165,-0.49531 -1.78225,0.56567 -1.88346,1.00953 -0.93497,4.1 1.30433,4.2499 2.28966,4.40777 3.07275,0.49234 0.42033,-2.1017 1.34025,-3.16047 3.13798,-3.61167 4.37079,-1.097 5.51735,0.92031 5.51735,9.70745 l 0,7.87755 -3,0 c -1.65,0 -3,0.45 -3,1 0,0.55 1.35,1 3,1 l 3,0 0,11 c 0,10.33333 -0.12121,11 -2,11 -1.1,0 -2,0.45 -2,1 0,0.57143 3,1 7,1 4,0 7,-0.42857 7,-1 z"
       id="path4032-6-2"
       inkscape:connector-curvature="0" />
    <path
       style="fill:#000000"
       d="m 437.47015,759.98074 c -27.72475,-5.86929 -49.4454,-24.93171 -57.95919,-50.866 -4.99561,-15.21737 -4.72796,-32.58928 0.74018,-48.04159 12.45281,-35.19017 48.94328,-55.82333 85.35753,-48.26454 34.99235,7.26362 59.78631,37.49734 59.78631,72.90336 0,12.25142 -2.1647,21.70491 -7.5078,32.78744 -9.37842,19.45264 -25.06235,32.90961 -45.99222,39.4618 -7.94157,2.48614 -26.95247,3.60142 -34.42481,2.01953 z m 59.42378,-56.50106 c 9.45907,-29.11489 10.70031,-33.70334 9.44559,-34.91697 -1.27738,-1.23554 -52.0108,-38.25014 -54.7321,-39.93199 -1.29246,-0.79879 -57.76078,40.11696 -57.59963,41.73548 0.062,0.62327 4.92051,15.87071 10.79657,33.88321 l 10.68375,32.75 35.25783,0 35.25784,0 10.89015,-33.51973 z m -76.40202,23.26973 c -3.63151,-9.57282 -17.14476,-53.18302 -16.77672,-54.14213 0.79204,-2.06402 46.6564,-34.83082 48.02065,-34.30731 2.11591,0.81196 47.15912,33.83127 47.15912,34.5704 0,0.37478 -4.0297,13.15714 -8.95489,28.40523 l -8.9549,27.72381 -29.81986,0 -29.81985,0 -0.85355,-2.25 z m 41.90305,-18.75001 c 0,-0.54999 -0.85186,-0.99999 -1.89301,-0.99999 -2.6523,0 -3.10699,-1.84128 -3.10699,-12.58179 0,-9.08483 0.0796,-9.42007 2.25,-9.47066 l 2.25,-0.0525 -2.25,-1.56952 c -1.81659,-1.26719 -2.25,-2.51873 -2.25,-6.49721 0,-5.56928 -2.00896,-10.22761 -5.13146,-11.89873 -2.32176,-1.24256 -7.543,-1.48513 -10.66165,-0.49531 -1.78225,0.56567 -1.88346,1.00953 -0.93497,4.1 1.30433,4.2499 2.28966,4.40777 3.07275,0.49234 0.42033,-2.1017 1.34025,-3.16047 3.13798,-3.61167 4.37079,-1.097 5.51735,0.92031 5.51735,9.70745 l 0,7.87755 -3,0 c -1.65,0 -3,0.45 -3,1 0,0.55 1.35,1 3,1 l 3,0 0,11 c 0,10.33333 -0.12121,11 -2,11 -1.1,0 -2,0.45 -2,0.99999 0,0.57143 3,1 7,1 4,0 7,-0.42857 7,-1 z"
       id="path4032-6-7-4"
       inkscape:connector-curvature="0" />
    <path
       style="fill:#000000"
       d="m 606.05718,758.65328 c -27.7248,-5.86929 -49.4454,-24.93171 -57.9592,-50.86599 -4.9956,-15.21737 -4.728,-32.58928 0.7402,-48.04159 12.4528,-35.19017 48.9432,-55.82334 85.3575,-48.26455 34.9923,7.26363 59.7863,37.49735 59.7863,72.90337 0,12.25142 -2.1647,21.7049 -7.5078,32.78743 -9.3784,19.45264 -25.0624,32.90961 -45.9922,39.4618 -7.9416,2.48614 -26.9525,3.60142 -34.4248,2.01953 z m 59.4237,-56.50106 c 9.4591,-29.11488 10.7004,-33.70333 9.4456,-34.91696 -1.2773,-1.23554 -52.0108,-38.25014 -54.7321,-39.93199 -1.2924,-0.79879 -57.7607,40.11696 -57.5996,41.73548 0.062,0.62327 4.9205,15.87071 10.7966,33.8832 l 10.6837,32.75 35.2579,0 35.2578,0 10.8901,-33.51973 z m -76.402,23.26973 c -3.6315,-9.57282 -17.1447,-53.18301 -16.7767,-54.14212 0.792,-2.06402 46.6564,-34.83082 48.0207,-34.30731 2.1159,0.81196 47.1591,33.83127 47.1591,34.5704 0,0.37478 -4.0297,13.15714 -8.9549,28.40523 l -8.9549,27.7238 -29.8199,0 -29.8198,0 -0.8536,-2.25 z m 41.9031,-18.75 c 0,-0.55 -0.8519,-1 -1.893,-1 -2.6523,0 -3.107,-1.84128 -3.107,-12.58178 0,-9.08483 0.08,-9.42007 2.25,-9.47066 l 2.25,-0.0525 -2.25,-1.56952 c -1.8166,-1.26719 -2.25,-2.51873 -2.25,-6.49721 0,-5.56928 -2.009,-10.22761 -5.1315,-11.89873 -2.3217,-1.24256 -7.543,-1.48513 -10.6616,-0.49531 -1.7823,0.56567 -1.8835,1.00953 -0.935,4.1 1.3043,4.2499 2.2897,4.40777 3.0727,0.49234 0.4204,-2.1017 1.3403,-3.16047 3.138,-3.61167 4.3708,-1.097 5.5174,0.92031 5.5174,9.70745 l 0,7.87755 -3,0 c -1.65,0 -3,0.45 -3,1 0,0.55 1.35,1 3,1 l 3,0 0,11 c 0,10.33332 -0.1212,10.99999 -2,10.99999 -1.1,0 -2,0.45 -2,1 0,0.57143 3,1 7,1 4,0 7,-0.42857 7,-1 z"
       id="path4032-6-7-0-44"
       inkscape:connector-curvature="0" />
    <path
       style="fill:#000000"
       d="m 181.27104,902.0186 c -27.72475,-5.86929 -49.4454,-24.93171 -57.95919,-50.866 -4.99561,-15.21738 -4.72796,-32.58928 0.74018,-48.04159 12.45281,-35.19017 48.94328,-55.82335 85.35753,-48.26456 34.99235,7.26363 59.78629,37.49736 59.78629,72.90338 0,12.25141 -2.16469,21.7049 -7.50776,32.78744 -9.37844,19.45264 -25.06237,32.90961 -45.99224,39.4618 -7.94157,2.48614 -26.95247,3.60142 -34.42481,2.01953 z m 59.42378,-56.50107 c 9.45907,-29.11488 10.70031,-33.70333 9.44559,-34.91696 -1.27738,-1.23554 -52.0108,-38.25014 -54.7321,-39.93199 -1.29246,-0.79879 -57.76078,40.11696 -57.59963,41.73548 0.062,0.62327 4.92051,15.87071 10.79657,33.8832 l 10.68375,32.75001 35.25783,0 35.25784,0 10.89015,-33.51974 z m -76.40202,23.26974 c -3.63151,-9.57282 -17.14476,-53.18302 -16.77672,-54.14213 0.79204,-2.06402 46.6564,-34.83082 48.02065,-34.30731 2.11591,0.81196 47.15912,33.83127 47.15912,34.5704 0,0.37478 -4.0297,13.15714 -8.95489,28.40522 l -8.9549,27.72382 -29.81986,0 -29.81985,0 -0.85355,-2.25 z m 41.90305,-18.75001 c 0,-0.55 -0.85186,-1 -1.89301,-1 -2.6523,0 -3.10699,-1.84128 -3.10699,-12.58179 0,-9.08482 0.0796,-9.42006 2.25,-9.47065 l 2.25,-0.0525 -2.25,-1.56952 c -1.81659,-1.26719 -2.25,-2.51873 -2.25,-6.49721 0,-5.56928 -2.00896,-10.22761 -5.13146,-11.89873 -2.32176,-1.24256 -7.543,-1.48513 -10.66165,-0.49531 -1.78225,0.56567 -1.88346,1.00953 -0.93497,4.1 1.30433,4.2499 2.28966,4.40777 3.07275,0.49234 0.42033,-2.1017 1.34025,-3.16047 3.13798,-3.61167 4.37079,-1.097 5.51735,0.92031 5.51735,9.70745 l 0,7.87755 -3,0 c -1.65,0 -3,0.45 -3,1 0,0.55 1.35,1 3,1 l 3,0 0,10.99999 c 0,10.33333 -0.12121,11 -2,11 -1.1,0 -2,0.45 -2,1 0,0.57143 3,1 7,1 4,0 7,-0.42857 7,-1 z"
       id="path4032-6-7-0-4-7"
       inkscape:connector-curvature="0" />
    <path
       style="fill:#000000"
       d="m 353.84039,904.67351 c -27.72475,-5.86929 -49.4454,-24.93171 -57.95919,-50.866 -4.99561,-15.21738 -4.72796,-32.58928 0.74018,-48.04159 12.45281,-35.19017 48.94328,-55.82335 85.35753,-48.26456 34.99235,7.26363 59.78629,37.49736 59.78629,72.90338 0,12.25141 -2.16469,21.7049 -7.50776,32.78744 -9.37844,19.45264 -25.06237,32.90961 -45.99224,39.4618 -7.94157,2.48614 -26.95247,3.60142 -34.42481,2.01953 z m 59.42378,-56.50107 c 9.45907,-29.11488 10.70031,-33.70333 9.44559,-34.91696 -1.27738,-1.23554 -52.0108,-38.25014 -54.7321,-39.93199 -1.29246,-0.79879 -57.76078,40.11696 -57.59963,41.73548 0.062,0.62327 4.92051,15.87071 10.79657,33.8832 l 10.68375,32.75001 35.25783,0 35.25784,0 10.89015,-33.51974 z m -76.40202,23.26974 c -3.63151,-9.57282 -17.14476,-53.18302 -16.77672,-54.14213 0.79204,-2.06402 46.6564,-34.83082 48.02065,-34.30731 2.11591,0.81196 47.15912,33.83127 47.15912,34.5704 0,0.37478 -4.0297,13.15714 -8.95489,28.40522 l -8.9549,27.72382 -29.81986,0 -29.81985,0 -0.85355,-2.25 z m 41.90305,-18.75001 c 0,-0.55 -0.85186,-1 -1.89301,-1 -2.6523,0 -3.10699,-1.84128 -3.10699,-12.58179 0,-9.08482 0.0796,-9.42006 2.25,-9.47065 l 2.25,-0.0525 -2.25,-1.56952 c -1.81659,-1.26719 -2.25,-2.51873 -2.25,-6.49721 0,-5.56928 -2.00896,-10.22761 -5.13146,-11.89873 -2.32176,-1.24256 -7.543,-1.48513 -10.66165,-0.49531 -1.78225,0.56567 -1.88346,1.00953 -0.93497,4.1 1.30433,4.2499 2.28966,4.40777 3.07275,0.49234 0.42033,-2.1017 1.34025,-3.16047 3.13798,-3.61167 4.37079,-1.097 5.51735,0.92031 5.51735,9.70745 l 0,7.87755 -3,0 c -1.65,0 -3,0.45 -3,1 0,0.55 1.35,1 3,1 l 3,0 0,10.99999 c 0,10.33333 -0.12121,11 -2,11 -1.1,0 -2,0.45 -2,1 0,0.57143 3,1 7,1 4,0 7,-0.42857 7,-1 z"
       id="path4032-6-7-0-4-6-3"
       inkscape:connector-curvature="0" />
    <path
       style="fill:#000000"
       d="m 523.75488,906.00097 c -27.7248,-5.86929 -49.44545,-24.93171 -57.95924,-50.866 -4.99561,-15.21738 -4.72796,-32.58928 0.74018,-48.04159 12.45281,-35.19017 48.94326,-55.82335 85.35756,-48.26456 34.9923,7.26363 59.7863,37.49736 59.7863,72.90338 0,12.25141 -2.1647,21.7049 -7.5078,32.78744 -9.3784,19.45264 -25.0624,32.90961 -45.9922,39.4618 -7.9416,2.48614 -26.9525,3.60142 -34.4248,2.01953 z m 59.4237,-56.50107 c 9.4591,-29.11488 10.7003,-33.70333 9.4456,-34.91696 -1.2774,-1.23554 -52.0108,-38.25014 -54.7321,-39.93199 -1.2924,-0.79879 -57.76076,40.11696 -57.59961,41.73548 0.062,0.62327 4.92051,15.87071 10.79657,33.8832 l 10.68375,32.75001 35.25779,0 35.2579,0 10.8901,-33.51974 z m -76.40199,23.26974 c -3.63151,-9.57282 -17.14476,-53.18302 -16.77672,-54.14213 0.79204,-2.06402 46.65641,-34.83082 48.02061,-34.30731 2.116,0.81196 47.1592,33.83127 47.1592,34.5704 0,0.37478 -4.0297,13.15714 -8.9549,28.40522 l -8.9549,27.72382 -29.8199,0 -29.81984,0 -0.85355,-2.25 z m 41.90309,-18.75001 c 0,-0.55 -0.8519,-1 -1.893,-1 -2.6523,0 -3.107,-1.84128 -3.107,-12.58179 0,-9.08482 0.08,-9.42006 2.25,-9.47065 l 2.25,-0.0525 -2.25,-1.56952 c -1.8166,-1.26719 -2.25,-2.51873 -2.25,-6.49721 0,-5.56928 -2.009,-10.22761 -5.1315,-11.89873 -2.3218,-1.24256 -7.543,-1.48513 -10.6616,-0.49531 -1.7823,0.56567 -1.8835,1.00953 -0.935,4.1 1.3043,4.2499 2.2896,4.40777 3.0727,0.49234 0.4204,-2.1017 1.3403,-3.16047 3.138,-3.61167 4.3708,-1.097 5.5174,0.92031 5.5174,9.70745 l 0,7.87755 -3,0 c -1.65,0 -3,0.45 -3,1 0,0.55 1.35,1 3,1 l 3,0 0,10.99999 c 0,10.33333 -0.1212,11 -2,11 -1.1,0 -2,0.45 -2,1 0,0.57143 3,1 7,1 4,0 7,-0.42857 7,-1 z"
       id="path4032-6-7-0-4-6-1-3"
       inkscape:connector-curvature="0" />
    <path
       style="fill:#000000"
       d="m 100.29618,1042.8117 c -27.724754,-5.8693 -49.445404,-24.9317 -57.959194,-50.86597 -4.99561,-15.21738 -4.72796,-32.58929 0.74018,-48.0416 12.45281,-35.19017 48.94328,-55.82334 85.357524,-48.26455 34.99235,7.26363 59.78629,37.49735 59.78629,72.90337 0,12.25142 -2.16469,21.70491 -7.50776,32.78745 -9.37844,19.4526 -25.06237,32.9096 -45.99224,39.4618 -7.94157,2.4861 -26.95247,3.6014 -34.4248,2.0195 z m 59.42377,-56.50104 c 9.45907,-29.11489 10.70031,-33.70334 9.44559,-34.91697 -1.27738,-1.23554 -52.0108,-38.25014 -54.7321,-39.93199 -1.29246,-0.79879 -57.760774,40.11696 -57.599624,41.73548 0.062,0.62327 4.92051,15.87071 10.79657,33.88321 l 10.68375,32.75001 35.257824,0 35.25784,0 10.89015,-33.51974 z m -76.402014,23.26974 c -3.63151,-9.5728 -17.14476,-53.18303 -16.77672,-54.14214 0.79204,-2.06402 46.656394,-34.83082 48.020644,-34.30731 2.11591,0.81196 47.15912,33.83127 47.15912,34.5704 0,0.37478 -4.0297,13.15714 -8.95489,28.40523 l -8.9549,27.72382 -29.81986,0 -29.819844,0 -0.85355,-2.25 z m 41.903044,-18.75001 c 0,-0.55 -0.85186,-1 -1.89301,-1 -2.6523,0 -3.10699,-1.84128 -3.10699,-12.58179 0,-9.08483 0.0796,-9.42007 2.25,-9.47066 l 2.25,-0.0525 -2.25,-1.56952 c -1.81659,-1.26719 -2.25,-2.51873 -2.25,-6.49721 0,-5.56928 -2.00896,-10.22761 -5.13146,-11.89873 -2.32176,-1.24256 -7.543,-1.48513 -10.66165,-0.49531 -1.78224,0.56567 -1.88345,1.00953 -0.93497,4.1 1.30433,4.2499 2.28966,4.40777 3.07275,0.49234 0.42033,-2.1017 1.34025,-3.16047 3.13798,-3.61167 4.37079,-1.097 5.51735,0.92031 5.51735,9.70745 l 0,7.87755 -3,0 c -1.65,0 -3,0.45 -3,1 0,0.55 1.35,1 3,1 l 3,0 0,11 c 0,10.33333 -0.12121,11 -2,11 -1.1,0 -2,0.45 -2,1 0,0.57143 3,1 7,1 4,0 7,-0.42857 7,-1 z"
       id="path4032-7-2"
       inkscape:connector-curvature="0" />
    <path
       style="fill:#000000"
       d="m 267.5557,1039.9914 c -27.72475,-5.8693 -49.4454,-24.9317 -57.95919,-50.86603 -4.99561,-15.21738 -4.72796,-32.58929 0.74018,-48.0416 12.45281,-35.19017 48.94328,-55.82334 85.35753,-48.26455 34.99235,7.26363 59.78629,37.49735 59.78629,72.90337 0,12.25142 -2.16469,21.70491 -7.50776,32.78744 -9.37844,19.45267 -25.06237,32.90957 -45.99224,39.46177 -7.94157,2.4862 -26.95247,3.6015 -34.42481,2.0196 z m 59.42378,-56.5011 c 9.45907,-29.11489 10.70031,-33.70334 9.44559,-34.91697 -1.27738,-1.23554 -52.0108,-38.25014 -54.7321,-39.93199 -1.29246,-0.79879 -57.76078,40.11696 -57.59963,41.73548 0.062,0.62327 4.92051,15.87071 10.79657,33.88321 l 10.68375,32.74997 35.25783,0 35.25784,0 10.89015,-33.5197 z m -76.40202,23.2697 c -3.63151,-9.57279 -17.14476,-53.18299 -16.77672,-54.1421 0.79204,-2.06402 46.6564,-34.83082 48.02065,-34.30731 2.11591,0.81196 47.15912,33.83127 47.15912,34.5704 0,0.37478 -4.0297,13.15714 -8.95489,28.40523 l -8.9549,27.72378 -29.81986,0 -29.81985,0 -0.85355,-2.25 z m 41.90305,-18.74997 c 0,-0.55 -0.85186,-1 -1.89301,-1 -2.6523,0 -3.10699,-1.84128 -3.10699,-12.58179 0,-9.08483 0.0796,-9.42007 2.25,-9.47066 l 2.25,-0.0525 -2.25,-1.56952 c -1.81659,-1.26719 -2.25,-2.51873 -2.25,-6.49721 0,-5.56928 -2.00896,-10.22761 -5.13146,-11.89873 -2.32176,-1.24256 -7.543,-1.48513 -10.66165,-0.49531 -1.78225,0.56567 -1.88346,1.00953 -0.93497,4.1 1.30433,4.2499 2.28966,4.40777 3.07275,0.49234 0.42033,-2.1017 1.34025,-3.16047 3.13798,-3.61167 4.37079,-1.097 5.51735,0.92031 5.51735,9.70745 l 0,7.87755 -3,0 c -1.65,0 -3,0.45 -3,1 0,0.55 1.35,1 3,1 l 3,0 0,11 c 0,10.33333 -0.12121,11 -2,11 -1.1,0 -2,0.45 -2,1 0,0.57143 3,1 7,1 4,0 7,-0.42857 7,-1 z"
       id="path4032-6-2-3"
       inkscape:connector-curvature="0" />
    <path
       style="fill:#000000"
       d="m 440.12505,1042.6463 c -27.72475,-5.8693 -49.4454,-24.9317 -57.95919,-50.86603 -4.99561,-15.21737 -4.72796,-32.58928 0.74018,-48.04159 12.45281,-35.19017 48.94328,-55.82333 85.35753,-48.26454 34.99235,7.26362 59.78631,37.49734 59.78631,72.90336 0,12.25142 -2.1647,21.70491 -7.5078,32.7874 -9.37842,19.4527 -25.06235,32.9097 -45.99222,39.4618 -7.94157,2.4862 -26.95247,3.6015 -34.42481,2.0196 z m 59.42378,-56.50109 c 9.45907,-29.11489 10.70031,-33.70334 9.44559,-34.91697 -1.27738,-1.23554 -52.0108,-38.25014 -54.7321,-39.93199 -1.29246,-0.79879 -57.76078,40.11696 -57.59963,41.73548 0.062,0.62327 4.92051,15.87071 10.79657,33.88321 l 10.68375,32.74996 35.25783,0 35.25784,0 10.89015,-33.51969 z m -76.40202,23.26969 c -3.63151,-9.57278 -17.14476,-53.18298 -16.77672,-54.14209 0.79204,-2.06402 46.6564,-34.83082 48.02065,-34.30731 2.11591,0.81196 47.15912,33.83127 47.15912,34.5704 0,0.37478 -4.0297,13.15714 -8.95489,28.40523 l -8.9549,27.72377 -29.81986,0 -29.81985,0 -0.85355,-2.25 z m 41.90305,-18.74997 c 0,-0.54999 -0.85186,-0.99999 -1.89301,-0.99999 -2.6523,0 -3.10699,-1.84128 -3.10699,-12.58179 0,-9.08483 0.0796,-9.42007 2.25,-9.47066 l 2.25,-0.0525 -2.25,-1.56952 c -1.81659,-1.26719 -2.25,-2.51873 -2.25,-6.49721 0,-5.56928 -2.00896,-10.22761 -5.13146,-11.89873 -2.32176,-1.24256 -7.543,-1.48513 -10.66165,-0.49531 -1.78225,0.56567 -1.88346,1.00953 -0.93497,4.1 1.30433,4.2499 2.28966,4.40777 3.07275,0.49234 0.42033,-2.1017 1.34025,-3.16047 3.13798,-3.61167 4.37079,-1.097 5.51735,0.92031 5.51735,9.70745 l 0,7.87755 -3,0 c -1.65,0 -3,0.45 -3,1 0,0.55 1.35,1 3,1 l 3,0 0,11 c 0,10.33333 -0.12121,11 -2,11 -1.1,0 -2,0.45 -2,0.99999 0,0.57143 3,1 7,1 4,0 7,-0.42857 7,-1 z"
       id="path4032-6-7-4-6"
       inkscape:connector-curvature="0" />
    <path
       style="fill:#000000"
       d="m 608.71208,1041.3188 c -27.7248,-5.8693 -49.4454,-24.9317 -57.9592,-50.86598 -4.9956,-15.21737 -4.728,-32.58928 0.7402,-48.04159 12.4528,-35.19017 48.9432,-55.82334 85.3575,-48.26455 34.9923,7.26363 59.7863,37.49735 59.7863,72.90337 0,12.25142 -2.1647,21.7049 -7.5078,32.78743 -9.3784,19.45262 -25.0624,32.90962 -45.9922,39.46182 -7.9416,2.4861 -26.9525,3.6014 -34.4248,2.0195 z m 59.4237,-56.50105 c 9.4591,-29.11488 10.7004,-33.70333 9.4456,-34.91696 -1.2773,-1.23554 -52.0108,-38.25014 -54.7321,-39.93199 -1.2924,-0.79879 -57.7607,40.11696 -57.5996,41.73548 0.062,0.62327 4.9205,15.87071 10.7966,33.8832 l 10.6837,32.75002 35.2579,0 35.2578,0 10.8901,-33.51975 z m -76.402,23.26975 c -3.6315,-9.57284 -17.1447,-53.18303 -16.7767,-54.14214 0.792,-2.06402 46.6564,-34.83082 48.0207,-34.30731 2.1159,0.81196 47.1591,33.83127 47.1591,34.5704 0,0.37478 -4.0297,13.15714 -8.9549,28.40523 l -8.9549,27.72382 -29.8199,0 -29.8198,0 -0.8536,-2.25 z m 41.9031,-18.75002 c 0,-0.55 -0.8519,-1 -1.893,-1 -2.6523,0 -3.107,-1.84128 -3.107,-12.58178 0,-9.08483 0.08,-9.42007 2.25,-9.47066 l 2.25,-0.0525 -2.25,-1.56952 c -1.8166,-1.26719 -2.25,-2.51873 -2.25,-6.49721 0,-5.56928 -2.009,-10.22761 -5.1315,-11.89873 -2.3217,-1.24256 -7.543,-1.48513 -10.6616,-0.49531 -1.7823,0.56567 -1.8835,1.00953 -0.935,4.1 1.3043,4.2499 2.2897,4.40777 3.0727,0.49234 0.4204,-2.1017 1.3403,-3.16047 3.138,-3.61167 4.3708,-1.097 5.5174,0.92031 5.5174,9.70745 l 0,7.87755 -3,0 c -1.65,0 -3,0.45 -3,1 0,0.55 1.35,1 3,1 l 3,0 0,11 c 0,10.33332 -0.1212,10.99999 -2,10.99999 -1.1,0 -2,0.45 -2,1 0,0.57143 3,1 7,1 4,0 7,-0.42857 7,-1 z"
       id="path4032-6-7-0-44-2"
       inkscape:connector-curvature="0" />
  </g>
</svg>
