<?xml version="1.0" encoding="UTF-8" standalone="no"?>
<!-- Created with Inkscape (http://www.inkscape.org/) -->

<svg
   xmlns:dc="http://purl.org/dc/elements/1.1/"
   xmlns:cc="http://creativecommons.org/ns#"
   xmlns:rdf="http://www.w3.org/1999/02/22-rdf-syntax-ns#"
   xmlns:svg="http://www.w3.org/2000/svg"
   xmlns="http://www.w3.org/2000/svg"
   xmlns:sodipodi="http://sodipodi.sourceforge.net/DTD/sodipodi-0.dtd"
   xmlns:inkscape="http://www.inkscape.org/namespaces/inkscape"
   width="210mm"
   height="297mm"
   id="svg2"
   version="1.1"
   inkscape:version="0.48.3.1 r9886"
   sodipodi:docname="Logo_Greenspace.svg">
  <defs
     id="defs4" />
  <sodipodi:namedview
     id="base"
     pagecolor="#ffffff"
     bordercolor="#666666"
     borderopacity="1.0"
     inkscape:pageopacity="0.0"
     inkscape:pageshadow="2"
     inkscape:zoom="0.75041354"
     inkscape:cx="579.30981"
     inkscape:cy="591.5563"
     inkscape:document-units="px"
     inkscape:current-layer="layer1"
     showgrid="false"
     inkscape:window-width="1680"
     inkscape:window-height="991"
     inkscape:window-x="0"
     inkscape:window-y="27"
     inkscape:window-maximized="1" />
  <metadata
     id="metadata7">
    <rdf:RDF>
      <cc:Work
         rdf:about="">
        <dc:format>image/svg+xml</dc:format>
        <dc:type
           rdf:resource="http://purl.org/dc/dcmitype/StillImage" />
        <dc:title />
      </cc:Work>
    </rdf:RDF>
  </metadata>
  <g
     inkscape:label="Ebene 1"
     inkscape:groupmode="layer"
     id="layer1">
    <path
       sodipodi:nodetypes="cssscsscssccscsssscssccccsscscssssssssssscssscsssscssssssssccssscssscssccsscscscsssssssscsscssccsssccssssssscssssscccsssssscssscssscssscsssscccsssccsssssscscssscscsssccsccc"
       inkscape:connector-curvature="0"
       id="path3008"
       d="m 411.68447,279.14877 c -4.99127,-3.45351 -10.31201,-8.78323 -12.75204,-11.89098 -4.481,-5.70722 -12.95143,-16.50827 -10.54277,-13.49159 4.28929,5.37204 -13.69408,-20.57176 -11.65474,-17.38808 3.24003,5.05813 -11.6341,-17.01876 -11.55466,-17.09819 0.0794,-0.0794 -0.79638,-9.55149 -1.94622,-21.04902 -2.37133,-23.71147 -4.77004,-49.65993 -4.77004,-51.6007 0,-1.09673 0.0787,-1.27223 0.49815,-1.11125 0.27399,0.10514 7.59303,4.37946 16.26455,9.49849 68.03981,40.1658 180.90965,106.47689 251.34239,147.66384 11.11039,6.49703 20.30748,11.87571 20.43796,11.95262 0.13047,0.077 0.0834,0.32518 -0.10454,0.55166 -0.18796,0.22649 -8.48026,4.92684 -18.42736,10.44526 -9.9471,5.51839 -18.08805,10.13372 -18.09099,10.25626 -0.003,0.12254 -37.02337,-1.48342 -33.68674,-1.19063 11.38962,0.99945 -27.35401,-2.48709 -48.58249,-7.50724 -4.02429,-0.95167 -8.90181,-5.93641 -13.32792,-13.04441 -6.48812,-10.41943 -6.9532,-12.46523 -12.95082,-23.38991 -3.03998,-5.53733 -7.56659,-16.54358 -10.82756,-21.86882 -7.35172,-10.65379 -9.57369,-9.19787 -12.94168,-8.82753 -3.92516,0.43161 -12.85914,4.09763 -17.05103,5.8285 -11.43847,4.72305 -16.57516,8.80517 -26.62445,12.8021 -7.99754,3.55522 -15.37448,5.72987 -22.707,0.45962 z m 93.82886,-53.27136 c -79.16156,-46.90433 -144.04754,-85.39539 -144.19108,-85.53569 -0.14824,-0.14492 0.5322,-1.30768 1.57539,-2.69211 2.2284,-2.9573 5.07361,-8.67925 6.12135,-12.31043 1.12874,-3.912 1.72247,-8.87256 1.52682,-12.7566 -0.0901,-1.78771 -0.0381,-5.11871 0.11544,-7.40223 0.15352,-2.28352 0.22176,-4.20926 0.15156,-4.27943 -0.0702,-0.0702 -0.97239,0.28354 -2.00495,0.78601 -2.62226,1.27608 -4.99614,1.81765 -7.96731,1.81765 -3.16848,0 -5.37187,-0.5456 -8.61501,-2.13324 -2.02649,-0.99205 -3.02583,-1.739353 -5.06108,-3.784683 -2.77309,-2.78682 -4.4323,-5.55124 -5.6306,-9.38115 -0.91613,-2.9281 -1.11412,-7.60595 -0.44635,-10.54596 0.92086,-4.05431 1.06958,-3.58378 -1.4939,-4.7265 -8.29622,-3.69816 -13.5495,-13.25653 -12.31286,-22.40332 0.65609,-4.85275 2.41652,-8.53172 5.63528,-11.77665 3.35214,-3.3794 7.46468,-5.0598 12.3831,-5.0598 4.19596,0 8.24929,1.35813 11.59714,3.88578 l 1.56009,1.17788 1.19208,-0.78889 c 0.65566,-0.43389 1.19211,-0.90925 1.19211,-1.05636 0,-0.14711 -0.32122,-0.90138 -0.71383,-1.67616 -1.60153,-3.16045 -2.10931,-5.54995 -2.09532,-9.86019 0.0116,-3.59366 0.0986,-4.25742 0.83652,-6.38699 1.77125,-5.11151 5.124,-9.0227703 9.5479,-11.1383503 2.82617,-1.35151 4.72358,-1.78417 7.82454,-1.78417 7.11466,0 14.10987,4.5521703 17.57519,11.4371703 3.02072,6.00167 3.20555,13.31688 0.48383,19.14845 -0.41622,0.89175 -0.71576,1.66233 -0.66567,1.71242 0.0501,0.0501 0.81326,-0.23876 1.69591,-0.64188 2.4756,-1.13063 4.90459,-1.65215 7.69478,-1.65215 3.16848,0 5.37187,0.5456 8.61501,2.13324 2.01802,0.98789 3.03715,1.74806 5.07501,3.78544 2.11772,2.1172 2.78464,3.02755 3.93445,5.37071 1.67722,3.41798 2.25788,5.53925 2.47991,9.05986 0.51713,8.19916 -3.63622,15.57623 -10.70582,19.01539 -1.57467,0.76603 -2.86131,1.41295 -2.8592,1.43759 0.003,0.0247 0.28337,0.91373 0.62506,1.97575 0.86052,2.67482 1.07824,7.99162 0.44843,10.95165 -1.50867,7.09073 -7.03238,12.896503 -13.77903,14.482603 -2.65185,0.62344 -6.88571,0.40824 -9.80397,-0.49832 -1.18605,-0.36844 -2.22333,-0.60301 -2.30505,-0.52128 -0.22194,0.22193 1.77986,6.64207 3.30255,10.5919 4.29099,11.13087 10.49745,20.36495 17.01702,25.31824 2.67018,2.02869 7.34406,4.27842 10.58108,5.0931 2.33419,0.58746 3.40905,0.67147 8.46647,0.66179 4.86526,-0.009 6.29232,-0.11847 8.91208,-0.68174 7.59503,-1.63297 14.28705,-4.07039 22.26984,-8.11131 2.85359,-1.4445 5.37476,-2.81276 5.60258,-3.04059 0.35428,-0.35426 -0.0528,-0.41379 -2.81179,-0.41114 -2.72612,0.003 -3.60331,-0.12256 -5.66069,-0.80782 -12.8164,-4.26875 -17.75682,-21.21596 -9.53622,-32.712303 l 0.87436,-1.22276 -2.33262,-2.34208 c -4.16007,-4.17695 -6.14084,-9.12284 -6.1133,-15.26459 0.0301,-6.69675 2.59205,-12.46868 7.25812,-16.35182 3.55081,-2.95501 7.13005,-4.2619 11.69018,-4.26846 5.99501,-0.009 11.00794,2.60107 14.88071,7.74677 1.7553,2.33225 1.64918,2.28696 3.62562,1.54733 0.66718,-0.24967 0.67779,-0.31889 0.48398,-3.15382 -0.70376,-10.29318 5.09305,-19.20034 14.28146,-21.94441 2.75669,-0.82327 7.08389,-0.7018 10.10036,0.28354 7.92649,2.58921 13.51666,10.72903 13.51666,19.68162 0,5.39678 -1.60828,9.9749 -4.97592,14.16455 -1.02117,1.27043 -1.85668,2.35652 -1.85668,2.41353 0,0.057 1.19859,0.0353 2.66355,-0.0482 3.41752,-0.19486 5.78068,0.26705 8.77362,1.71491 4.12576,1.99589 7.00635,4.87165 9.07268,9.05751 1.75092,3.54689 2.20687,5.60455 2.20517,9.951833 0,3.04482 -0.12566,4.11449 -0.69137,5.94138 -1.82962,5.90841 -5.39962,10.36758 -10.16244,12.6935 -2.39201,1.16813 -4.05054,1.63452 -7.19966,2.02462 -0.78563,0.0973 -1.47141,0.33469 -1.52399,0.52749 -0.0526,0.19279 -0.25296,1.54651 -0.44525,3.00825 -1.06695,8.11018 -6.6078,14.76608 -14.12948,16.97293 -2.38553,0.69991 -6.82362,0.69991 -9.20915,0 -2.27843,-0.66849 -5.39312,-2.29853 -6.96818,-3.64674 -0.67631,-0.57888 -1.31016,-0.972 -1.40855,-0.87359 -0.49459,0.49457 6.23798,14.09717 10.45164,21.11677 8.75725,14.58873 19.27324,26.01661 28.94641,31.45642 8.52755,4.79555 18.88538,7.73266 32.70006,9.27259 7.74076,0.86287 29.70693,0.94547 29.70693,0.11172 0,-0.14482 -0.56814,-0.54864 -1.26254,-0.89737 -7.06431,-3.54775 -11.08595,-12.20236 -9.61293,-20.68715 0.26184,-1.50826 0.82972,-3.6257 1.26195,-4.70541 1.64473,-4.10847 5.1377,-8.34757 8.66828,-10.51997 0.84667,-0.52095 1.53938,-1.12009 1.53938,-1.33141 0,-0.21132 -0.32856,-1.10221 -0.73011,-1.97974 -1.88879,-4.12766 -2.31752,-9.60721 -1.09603,-14.00869 1.79709,-6.47577 5.79962,-11.42725 11.4809,-14.20295 11.05273,-5.40003 23.15982,0.54424 25.9392,12.73549 0.51277,2.24913 0.53282,2.28042 1.62726,2.53924 0.60943,0.14413 1.29489,0.19036 1.52322,0.10274 0.22833,-0.0876 0.63914,-0.92981 0.91292,-1.87153 1.98166,-6.81669 7.35446,-12.40365 14.02958,-14.5888 2.96033,-0.96907 7.58139,-1.08639 10.31597,-0.2619 8.95034,2.69856 14.2934,11.20993 13.19579,21.0206 -0.87127,7.78752 -6.12343,15.03974 -12.87715,17.78088 -0.90196,0.36607 -1.63991,0.77425 -1.63991,0.90707 0,0.13282 0.76866,0.46211 1.70814,0.73176 5.38109,1.54448 10.15826,6.33139 12.00428,12.0288 0.89305,2.75613 1.09951,8.46702 0.41138,11.37848 -0.68257,2.88782 -2.76316,7.08157 -4.63547,9.34344 -5.1139,6.17793 -13.72864,8.93359 -20.66919,6.61161 -0.9579,-0.32047 -1.89073,-0.58597 -2.07289,-0.58998 -0.1822,-0.004 -0.96679,1.08646 -1.74353,2.42328 -1.68783,2.90487 -4.86743,6.14796 -7.59987,7.75164 -6.22194,3.65168 -13.85181,3.61558 -19.50296,-0.0923 -2.28824,-1.50138 -4.74643,-4.18125 -6.06434,-6.61127 -0.91964,-1.69562 -1.00826,-1.77753 -1.09598,-1.01294 -0.27078,2.36023 1.72511,12.29754 3.6525,18.18542 5.0685,15.48343 14.10512,25.19955 31.20006,33.54613 5.93539,2.89795 19.47014,7.97715 19.95771,7.48956 0.0909,-0.0909 -0.45846,-0.87343 -1.2208,-1.73898 -1.59886,-1.81534 -3.22273,-4.94716 -3.89669,-7.51512 -0.68338,-2.60386 -0.62786,-7.45962 0.11767,-10.29154 1.752,-6.65512 6.63573,-12.274 12.94557,-14.89431 1.1553,-0.47976 2.205,-0.96889 2.33262,-1.08695 0.12765,-0.11806 0.0273,-1.00054 -0.2228,-1.96108 -0.64928,-2.49277 -0.59328,-7.22381 0.11841,-10.00658 1.62304,-6.34593 6.13959,-11.79274 12.08003,-14.56806 5.607,-2.61954 11.23341,-2.59787 16.63448,0.0641 5.81653,2.86668 9.53406,8.97576 9.77073,16.0564 l 0.0844,2.52509 1.00056,0.51941 c 1.30116,0.67543 1.95671,0.65763 2.18426,-0.0593 0.45143,-1.42229 3.21355,-5.09663 5.27863,-7.02191 4.04225,-3.7686 8.59359,-5.60235 13.88695,-5.59509 9.33023,0.0128 16.22328,6.07055 17.85009,15.68705 0.65819,3.89082 -0.10976,8.18908 -2.23544,12.51159 -2.13753,4.34661 -5.58972,7.8557 -9.67326,9.83265 -1.22541,0.59325 -2.41948,1.17239 -2.65346,1.28697 -0.234,0.11458 -0.65872,0.75762 -0.94385,1.42897 l -0.51841,1.22064 2.46181,2.47307 c 3.36918,3.38461 4.90456,6.52067 5.4946,11.22285 1.13088,9.01232 -4.18167,18.25717 -12.81237,22.29596 -5.42918,2.54061 -12.52866,2.28341 -17.28652,-0.62626 -0.79909,-0.4887 -1.61541,-0.84893 -1.81403,-0.80053 -0.19862,0.0484 -0.91898,0.73565 -1.60081,1.52723 -1.99583,2.31718 -4.16224,4.00316 -6.92225,5.38721 -3.48549,1.74784 -6.35598,2.36317 -10.01852,2.14763 -4.80046,-0.28251 -8.25069,-1.83165 -11.64245,-5.22739 -2.09615,-2.09861 -3.56857,-4.45919 -4.54522,-7.28693 -0.12248,-0.35459 -0.30188,-0.46438 -0.47537,-0.2909 -0.15322,0.15326 -2.32501,5.35466 -4.82613,11.55868 -2.84794,7.06435 -4.71083,11.30905 -4.98458,11.35771 -0.24042,0.0427 -65.20566,-38.29861 -144.36721,-85.20293 z"
       style="fill:#fdf25e" />
    <path
       inkscape:connector-curvature="0"
       id="path2998"
       d="m 412.0374,712.254 c -0.24508,-0.16532 -0.31822,-0.30263 -0.16252,-0.30512 0.15572,-0.003 -0.20266,-0.50585 -0.79636,-1.11856 -2.53424,-2.61531 -6.67069,-10.34413 -12.99342,-24.27764 -2.14817,-4.73394 -3.95435,-8.65577 -4.01371,-8.71512 -0.0593,-0.0593 -2.42456,-0.14164 -5.25602,-0.18288 -3.89538,-0.0567 -5.92252,-0.23325 -8.33071,-0.72544 -16.59718,-3.3922 -39.31413,-15.66791 -66.38031,-35.87032 -8.52318,-6.36177 -23.48241,-18.42032 -23.20074,-18.702 0.0571,-0.0571 10.5252,1.49731 23.26237,3.45435 12.73716,1.957 23.49268,3.52244 23.90115,3.47874 0.42679,-0.0457 0.74268,-0.26903 0.74268,-0.5251 0,-0.48464 -0.81501,-0.76415 -15.59614,-5.34906 -23.99649,-7.4434 -46.04575,-15.26669 -46.04575,-16.33751 0,-0.51636 14.60212,-3.17793 23.46848,-4.27765 8.80478,-1.09206 13.49679,-1.39569 21.53752,-1.39376 15.20474,0.004 26.36931,2.2438 34.36335,6.89486 3.41268,1.98555 3.83309,1.47941 1.9257,-2.31848 -7.66335,-15.25864 -24.56343,-28.83483 -54.26174,-43.58964 -15.19534,-7.54939 -26.41026,-12.38595 -62.5331,-26.96801 -39.28235,-15.85754 -54.6772,-22.54489 -74.11881,-32.19647 C 133.73904,486.44442 110.78059,470.84521 92.338056,452.12664 76.949521,436.50777 67.436911,421.55187 60.136586,401.49895 51.852148,378.74284 46.667385,348.00778 45.529903,314.91113 c -0.220733,-6.42252 -0.227185,-6.47132 -0.373151,-2.82216 -0.119271,2.98178 -0.197351,1.82217 -0.396309,-5.88576 -0.136275,-5.27952 -0.136275,-14.16932 0,-19.75511 0.208355,-8.54024 0.273506,-9.51795 0.409517,-6.14555 l 0.161744,4.01044 0.06106,-3.59555 c 0.389277,-22.92324 3.792148,-58.02939 8.117269,-83.74285 1.795529,-10.67467 4.501914,-23.34735 5.284852,-24.74639 0.145794,-0.26051 0.854093,1.41787 1.938151,4.59265 8.326195,24.38413 19.824231,49.7601 33.225975,73.32916 14.873919,26.1581 32.248269,50.4612 52.032069,72.78199 5.66233,6.38845 23.25655,24.0699 29.22961,29.37455 18.20664,16.16922 36.37295,29.17898 55.82813,39.98117 5.74687,3.19085 6.90594,3.61836 6.90594,2.54719 0,-0.24871 -36.73405,-53.89248 -81.63122,-119.20842 -44.89717,-65.31594 -81.745648,-118.95678 -81.885514,-119.20186 -0.314021,-0.55025 1.09517,0.74142 6.819447,6.25072 27.270417,26.24628 56.030047,45.00545 88.668407,57.83612 10.9215,4.29343 21.08759,7.7126 41.29264,13.88803 22.70191,6.93857 34.6635,11.07122 45.60015,15.75457 34.74813,14.88002 61.55663,36.21339 89.7762,71.44112 5.29374,6.6084 6.64431,8.82278 9.99207,16.38266 13.58784,30.68406 18.92017,73.65015 15.47916,124.72529 -0.85241,12.65248 -2.95011,31.89063 -4.14617,38.02488 -0.18287,0.93793 0.28753,1.76491 0.74419,1.30826 0.17637,-0.17637 2.90748,-7.99562 6.06913,-17.37609 3.16165,-9.38047 7.84551,-23.20474 10.40856,-30.7206 16.01347,-46.95743 22.50176,-70.35713 22.9542,-82.78298 l 0.1586,-4.35664 -2.36779,-3.36716 c -11.07344,-15.74706 -21.13227,-32.38686 -28.88266,-47.77901 -6.67871,-13.26387 -10.35408,-21.9724 -14.30065,-33.88433 -7.52539,-22.71402 -9.78778,-43.55089 -6.32799,-58.28144 0.25904,-1.10287 0.55686,-2.00266 0.66178,-1.99954 0.10495,0.003 1.12658,1.50061 2.27029,3.32775 1.14372,1.82714 2.427,3.72955 2.85175,4.22756 0.42475,0.49802 2.68583,3.77964 5.02463,7.29248 21.792,32.7313 38.12847,51.98988 46.48732,54.80257 1.89352,0.63716 5.50223,0.64147 8.55497,0.0102 5.45387,-1.12776 11.04911,-3.53748 24.66439,-10.6223 10.3663,-5.39418 15.33677,-7.7242 19.71902,-9.24376 7.94711,-2.75566 12.81337,-2.64358 15.82135,0.3644 3.98132,3.98134 7.05103,9.19936 16.80082,28.55878 10.40396,20.65832 14.13717,26.9018 18.78238,31.41173 2.33307,2.26512 4.26096,3.22032 9.72368,4.81772 13.69721,4.0053 40.07281,7.63884 61.50138,8.47251 2.45082,0.0954 5.0576,0.2313 5.79285,0.30209 0.73524,0.0708 6.34986,0.21802 12.47691,0.32716 6.12706,0.10911 11.19164,0.24351 11.25462,0.29867 0.4175,0.36558 -5.05511,6.91019 -9.0744,10.85192 -14.82599,14.53994 -34.79615,23.23017 -61.62145,26.81526 -12.46747,1.66623 -20.12378,2.02093 -45.57279,2.11133 -26.97681,0.0958 -28.93075,0.26012 -35.49978,2.98457 -1.71558,0.71154 -5.12445,2.05287 -7.57527,2.9807 -9.99989,3.78592 -16.8034,8.12577 -23.92169,15.2593 -3.9275,3.93596 -6.48107,7.04619 -9.76827,11.89772 -15.62151,23.05558 -25.74334,59.64053 -30.18192,109.0912 -0.49996,5.57035 -0.39768,6.46878 0.7365,6.46878 0.63017,0 1.80624,-1.30583 6.28744,-6.98113 3.67579,-4.65526 11.07626,-12.13166 15.5553,-15.71494 8.57279,-6.85829 19.02366,-12.7313 29.5584,-16.61078 6.02602,-2.21911 12.77398,-4.21527 12.77398,-3.77873 0,0.39255 -2.43232,3.52669 -5.10291,6.57534 -2.91351,3.32593 -6.08315,6.78607 -17.79757,19.42875 -17.10217,18.45733 -23.73941,26.36199 -23.73941,28.27251 0,0.5095 0.16805,0.69175 0.63781,0.69175 1.36667,0 6.09586,-4.37105 24.25307,-22.41644 l 14.64198,-14.55182 -1.19722,3.472 c -0.65845,1.90959 -2.95031,7.98828 -5.09304,13.50822 -10.59691,27.2988 -15.80234,42.8737 -20.13364,60.24094 -11.46459,45.96943 -9.14409,82.72113 6.94085,109.92764 l 1.36072,2.30157 -0.82648,1.19259 c -2.70101,3.89758 -13.85549,10.65252 -19.26699,11.66772 -0.95363,0.1789 -1.05439,0.25807 -0.56943,0.44748 0.44754,0.17479 0.47315,0.23513 0.10644,0.25099 -0.26549,0.0116 -0.86705,0.0913 -1.33681,0.17747 -0.46972,0.0861 -1.05459,0.0214 -1.29968,-0.14399 z"
       style="fill:#7ab828" />
  </g>
</svg>
