<?xml version="1.0" encoding="UTF-8" standalone="no"?>
<!-- Created with Inkscape (http://www.inkscape.org/) -->

<svg
   xmlns:dc="http://purl.org/dc/elements/1.1/"
   xmlns:cc="http://creativecommons.org/ns#"
   xmlns:rdf="http://www.w3.org/1999/02/22-rdf-syntax-ns#"
   xmlns:svg="http://www.w3.org/2000/svg"
   xmlns="http://www.w3.org/2000/svg"
   xmlns:sodipodi="http://sodipodi.sourceforge.net/DTD/sodipodi-0.dtd"
   xmlns:inkscape="http://www.inkscape.org/namespaces/inkscape"
   width="210mm"
   height="297mm"
   id="svg3942"
   version="1.1"
   inkscape:version="0.48.3.1 r9886"
   sodipodi:docname="hasi.svg">
  <defs
     id="defs3" />
  <sodipodi:namedview
     inkscape:document-units="mm"
     id="base"
     pagecolor="#ffffff"
     bordercolor="#666666"
     borderopacity="1.0"
     inkscape:pageopacity="0.0"
     inkscape:pageshadow="2"
     inkscape:zoom="0.75332031"
     inkscape:cx="350"
     inkscape:cy="1823.9673"
     inkscape:current-layer="layer1"
     showgrid="false"
     inkscape:window-width="1020"
     inkscape:window-height="729"
     inkscape:window-x="0"
     inkscape:window-y="18"
     inkscape:window-maximized="0" />
  <metadata
     id="metadata4">
    <rdf:RDF>
      <cc:Work
         rdf:about="">
        <dc:format>image/svg+xml</dc:format>
        <dc:type
           rdf:resource="http://purl.org/dc/dcmitype/StillImage" />
      </cc:Work>
    </rdf:RDF>
  </metadata>
  <g
     inkscape:label="Layer 1"
     inkscape:groupmode="layer"
     id="layer1">
    <g
       id="layer1-4-1-9-95"
       inkscape:label="Layer 1"
       transform="matrix(0.35984761,0,0,0.35984761,439.91279,-15.095349)">
      <path
         inkscape:connector-curvature="0"
         d="m 493.47582,331.89537 48.57143,0 0,48.57143 -48.57143,0 z m -194.28572,48.57143 -48.57143,0 0,-97.14286 48.57143,0 z m 97.14286,-194.28572 -48.57143,0 0,-97.142859 48.57143,0 z m -48.57143,97.14286 -48.57143,0 0,-97.14286 48.57143,0 z m 0,0 48.57143,0 0,97.14286 -48.57143,0 z m 48.57143,-97.14286 48.57143,0 0,97.14286 -48.57143,0 z m 145.71429,-48.57143 0,48.57143 -48.57143,0 -48.57143,0 0,-97.142859 48.57143,0 0,48.571429 z m 0,48.57143 48.57143,0 0,145.71429 -48.57143,0 z m 0,437.14287 0,-48.57143 145.71429,0 0,48.57143 z m 0,-97.14286 0,-48.57143 145.71429,0 0,48.57143 z m -48.57143,0 -48.57143,0 0,-48.57143 -48.57143,0 0,-48.57143 97.14286,0 z m -145.71429,0 48.57143,0 0,48.57143 -48.57143,0 z m 0,0 -48.57143,0 0,-48.57143 -48.57143,0 0,-48.57143 97.14286,0 z m -291.42858,97.14286 0,-48.57143 145.71429,0 0,48.57143 z m 145.71429,-145.71429 0,48.57143 -145.714295,0 0,-48.57143 z m -48.57143,485.7143 -48.57143,0 0,-97.14286 48.57143,0 z m 48.57143,-242.85715 48.57143,0 0,242.85715 -48.57143,0 z m -97.14286,0 48.57143,0 0,97.14286 -48.57143,0 z m 242.85715,242.85715 -48.57143,0 0,-97.14286 48.57143,0 z m -48.57143,-194.28572 48.57143,0 0,48.57143 -48.57143,0 z m 340.00001,194.28572 -48.57143,0 0,-145.71429 -97.14286,0 0,-48.57143 97.14286,0 0,-48.57143 48.57143,0 z m -97.14286,-97.14286 0,48.57143 -97.14286,0 0,48.57143 -48.57143,0 0,-242.85715 48.57143,0 0,145.71429 z"
         style="fill:#000000;fill-opacity:1;fill-rule:nonzero;stroke:none"
         id="path3000-0-8-77" />
    </g>
    <g
       id="layer1-4-1-9-95-8"
       inkscape:label="Layer 1"
       transform="matrix(0.35984761,0,0,0.35984761,45.326322,-14.431615)">
      <path
         inkscape:connector-curvature="0"
         d="m 493.47582,331.89537 48.57143,0 0,48.57143 -48.57143,0 z m -194.28572,48.57143 -48.57143,0 0,-97.14286 48.57143,0 z m 97.14286,-194.28572 -48.57143,0 0,-97.142859 48.57143,0 z m -48.57143,97.14286 -48.57143,0 0,-97.14286 48.57143,0 z m 0,0 48.57143,0 0,97.14286 -48.57143,0 z m 48.57143,-97.14286 48.57143,0 0,97.14286 -48.57143,0 z m 145.71429,-48.57143 0,48.57143 -48.57143,0 -48.57143,0 0,-97.142859 48.57143,0 0,48.571429 z m 0,48.57143 48.57143,0 0,145.71429 -48.57143,0 z m 0,437.14287 0,-48.57143 145.71429,0 0,48.57143 z m 0,-97.14286 0,-48.57143 145.71429,0 0,48.57143 z m -48.57143,0 -48.57143,0 0,-48.57143 -48.57143,0 0,-48.57143 97.14286,0 z m -145.71429,0 48.57143,0 0,48.57143 -48.57143,0 z m 0,0 -48.57143,0 0,-48.57143 -48.57143,0 0,-48.57143 97.14286,0 z m -291.42858,97.14286 0,-48.57143 145.71429,0 0,48.57143 z m 145.71429,-145.71429 0,48.57143 -145.714295,0 0,-48.57143 z m -48.57143,485.7143 -48.57143,0 0,-97.14286 48.57143,0 z m 48.57143,-242.85715 48.57143,0 0,242.85715 -48.57143,0 z m -97.14286,0 48.57143,0 0,97.14286 -48.57143,0 z m 242.85715,242.85715 -48.57143,0 0,-97.14286 48.57143,0 z m -48.57143,-194.28572 48.57143,0 0,48.57143 -48.57143,0 z m 340.00001,194.28572 -48.57143,0 0,-145.71429 -97.14286,0 0,-48.57143 97.14286,0 0,-48.57143 48.57143,0 z m -97.14286,-97.14286 0,48.57143 -97.14286,0 0,48.57143 -48.57143,0 0,-242.85715 48.57143,0 0,145.71429 z"
         style="fill:#000000;fill-opacity:1;fill-rule:nonzero;stroke:none"
         id="path3000-0-8-77-9" />
    </g>
    <g
       id="layer1-4-1-9-95-0"
       inkscape:label="Layer 1"
       transform="matrix(0.35984761,0,0,0.35984761,412.534,360.90672)">
      <path
         inkscape:connector-curvature="0"
         d="m 522.98735,269.18337 48.57143,0 0,48.57143 -48.57143,0 z m -194.28572,48.57143 -48.57143,0 0,-97.14286 48.57143,0 z m 97.14286,-194.28572 -48.57143,0 0,-97.142855 48.57143,0 z m -48.57143,97.14286 -48.57143,0 0,-97.14286 48.57143,0 z m 0,0 48.57143,0 0,97.14286 -48.57143,0 z m 48.57143,-97.14286 48.57143,0 0,97.14286 -48.57143,0 z m 145.71429,-48.571426 0,48.571426 -48.57143,0 -48.57143,0 0,-97.142855 48.57143,0 0,48.571429 z m 0,48.571426 48.57143,0 0,145.71429 -48.57143,0 z m 0,437.14287 0,-48.57143 145.71429,0 0,48.57143 z m 0,-97.14286 0,-48.57143 145.71429,0 0,48.57143 z m -48.57143,0 -48.57143,0 0,-48.57143 -48.57143,0 0,-48.57143 97.14286,0 z m -145.71429,0 48.57143,0 0,48.57143 -48.57143,0 z m 0,0 -48.57143,0 0,-48.57143 -48.57143,0 0,-48.57143 97.14286,0 z m -291.428583,97.14286 0,-48.57143 145.714293,0 0,48.57143 z m 145.714293,-145.71429 0,48.57143 -145.714298,0 0,-48.57143 z m -48.57143,485.7143 -48.57143,0 0,-97.14286 48.57143,0 z m 48.57143,-242.85715 48.57143,0 0,242.85715 -48.57143,0 z m -97.14286,0 48.57143,0 0,97.14286 -48.57143,0 z m 242.85715,242.85715 -48.57143,0 0,-97.14286 48.57143,0 z m -48.57143,-194.28572 48.57143,0 0,48.57143 -48.57143,0 z m 340.00001,194.28572 -48.57143,0 0,-145.71429 -97.14286,0 0,-48.57143 97.14286,0 0,-48.57143 48.57143,0 z m -97.14286,-97.14286 0,48.57143 -97.14286,0 0,48.57143 -48.57143,0 0,-242.85715 48.57143,0 0,145.71429 z"
         style="fill:#000000;fill-opacity:1;fill-rule:nonzero;stroke:none"
         id="path3000-0-8-77-1" />
    </g>
    <g
       id="layer1-4-1-9-95-8-9"
       inkscape:label="Layer 1"
       transform="matrix(0.35984761,0,0,0.35984761,17.947537,361.57046)">
      <path
         inkscape:connector-curvature="0"
         d="m 522.98735,269.18337 48.57143,0 0,48.57143 -48.57143,0 z m -194.28572,48.57143 -48.57143,0 0,-97.14286 48.57143,0 z m 97.14286,-194.28572 -48.57143,0 0,-97.142855 48.57143,0 z m -48.57143,97.14286 -48.57143,0 0,-97.14286 48.57143,0 z m 0,0 48.57143,0 0,97.14286 -48.57143,0 z m 48.57143,-97.14286 48.57143,0 0,97.14286 -48.57143,0 z m 145.71429,-48.571426 0,48.571426 -48.57143,0 -48.57143,0 0,-97.142855 48.57143,0 0,48.571429 z m 0,48.571426 48.57143,0 0,145.71429 -48.57143,0 z m 0,437.14287 0,-48.57143 145.71429,0 0,48.57143 z m 0,-97.14286 0,-48.57143 145.71429,0 0,48.57143 z m -48.57143,0 -48.57143,0 0,-48.57143 -48.57143,0 0,-48.57143 97.14286,0 z m -145.71429,0 48.57143,0 0,48.57143 -48.57143,0 z m 0,0 -48.57143,0 0,-48.57143 -48.57143,0 0,-48.57143 97.14286,0 z m -291.428583,97.14286 0,-48.57143 145.714293,0 0,48.57143 z m 145.714293,-145.71429 0,48.57143 -145.714298,0 0,-48.57143 z m -48.57143,485.7143 -48.57143,0 0,-97.14286 48.57143,0 z m 48.57143,-242.85715 48.57143,0 0,242.85715 -48.57143,0 z m -97.14286,0 48.57143,0 0,97.14286 -48.57143,0 z m 242.85715,242.85715 -48.57143,0 0,-97.14286 48.57143,0 z m -48.57143,-194.28572 48.57143,0 0,48.57143 -48.57143,0 z m 340.00001,194.28572 -48.57143,0 0,-145.71429 -97.14286,0 0,-48.57143 97.14286,0 0,-48.57143 48.57143,0 z m -97.14286,-97.14286 0,48.57143 -97.14286,0 0,48.57143 -48.57143,0 0,-242.85715 48.57143,0 0,145.71429 z"
         style="fill:#000000;fill-opacity:1;fill-rule:nonzero;stroke:none"
         id="path3000-0-8-77-9-7" />
    </g>
    <g
       id="layer1-4-1-9-95-05"
       inkscape:label="Layer 1"
       transform="matrix(0.35984761,0,0,0.35984761,416.06783,683.99875)">
      <path
         inkscape:connector-curvature="0"
         d="m 493.47582,331.89537 48.57143,0 0,48.57143 -48.57143,0 z m -194.28572,48.57143 -48.57143,0 0,-97.14286 48.57143,0 z m 97.14286,-194.28572 -48.57143,0 0,-97.142859 48.57143,0 z m -48.57143,97.14286 -48.57143,0 0,-97.14286 48.57143,0 z m 0,0 48.57143,0 0,97.14286 -48.57143,0 z m 48.57143,-97.14286 48.57143,0 0,97.14286 -48.57143,0 z m 145.71429,-48.57143 0,48.57143 -48.57143,0 -48.57143,0 0,-97.142859 48.57143,0 0,48.571429 z m 0,48.57143 48.57143,0 0,145.71429 -48.57143,0 z m 0,437.14287 0,-48.57143 145.71429,0 0,48.57143 z m 0,-97.14286 0,-48.57143 145.71429,0 0,48.57143 z m -48.57143,0 -48.57143,0 0,-48.57143 -48.57143,0 0,-48.57143 97.14286,0 z m -145.71429,0 48.57143,0 0,48.57143 -48.57143,0 z m 0,0 -48.57143,0 0,-48.57143 -48.57143,0 0,-48.57143 97.14286,0 z m -291.42858,97.14286 0,-48.57143 145.71429,0 0,48.57143 z m 145.71429,-145.71429 0,48.57143 -145.714295,0 0,-48.57143 z m -48.57143,485.7143 -48.57143,0 0,-97.14286 48.57143,0 z m 48.57143,-242.85715 48.57143,0 0,242.85715 -48.57143,0 z m -97.14286,0 48.57143,0 0,97.14286 -48.57143,0 z m 242.85715,242.85715 -48.57143,0 0,-97.14286 48.57143,0 z m -48.57143,-194.28572 48.57143,0 0,48.57143 -48.57143,0 z m 340.00001,194.28572 -48.57143,0 0,-145.71429 -97.14286,0 0,-48.57143 97.14286,0 0,-48.57143 48.57143,0 z m -97.14286,-97.14286 0,48.57143 -97.14286,0 0,48.57143 -48.57143,0 0,-242.85715 48.57143,0 0,145.71429 z"
         style="fill:#000000;fill-opacity:1;fill-rule:nonzero;stroke:none"
         id="path3000-0-8-77-4" />
    </g>
    <g
       id="layer1-4-1-9-95-8-8"
       inkscape:label="Layer 1"
       transform="matrix(0.35984761,0,0,0.35984761,21.481369,684.66249)">
      <path
         inkscape:connector-curvature="0"
         d="m 493.47582,331.89537 48.57143,0 0,48.57143 -48.57143,0 z m -194.28572,48.57143 -48.57143,0 0,-97.14286 48.57143,0 z m 97.14286,-194.28572 -48.57143,0 0,-97.142859 48.57143,0 z m -48.57143,97.14286 -48.57143,0 0,-97.14286 48.57143,0 z m 0,0 48.57143,0 0,97.14286 -48.57143,0 z m 48.57143,-97.14286 48.57143,0 0,97.14286 -48.57143,0 z m 145.71429,-48.57143 0,48.57143 -48.57143,0 -48.57143,0 0,-97.142859 48.57143,0 0,48.571429 z m 0,48.57143 48.57143,0 0,145.71429 -48.57143,0 z m 0,437.14287 0,-48.57143 145.71429,0 0,48.57143 z m 0,-97.14286 0,-48.57143 145.71429,0 0,48.57143 z m -48.57143,0 -48.57143,0 0,-48.57143 -48.57143,0 0,-48.57143 97.14286,0 z m -145.71429,0 48.57143,0 0,48.57143 -48.57143,0 z m 0,0 -48.57143,0 0,-48.57143 -48.57143,0 0,-48.57143 97.14286,0 z m -291.42858,97.14286 0,-48.57143 145.71429,0 0,48.57143 z m 145.71429,-145.71429 0,48.57143 -145.714295,0 0,-48.57143 z m -48.57143,485.7143 -48.57143,0 0,-97.14286 48.57143,0 z m 48.57143,-242.85715 48.57143,0 0,242.85715 -48.57143,0 z m -97.14286,0 48.57143,0 0,97.14286 -48.57143,0 z m 242.85715,242.85715 -48.57143,0 0,-97.14286 48.57143,0 z m -48.57143,-194.28572 48.57143,0 0,48.57143 -48.57143,0 z m 340.00001,194.28572 -48.57143,0 0,-145.71429 -97.14286,0 0,-48.57143 97.14286,0 0,-48.57143 48.57143,0 z m -97.14286,-97.14286 0,48.57143 -97.14286,0 0,48.57143 -48.57143,0 0,-242.85715 48.57143,0 0,145.71429 z"
         style="fill:#000000;fill-opacity:1;fill-rule:nonzero;stroke:none"
         id="path3000-0-8-77-9-78" />
    </g>
  </g>
</svg>
