<?xml version="1.0" encoding="UTF-8" standalone="no"?>
<!-- Created with Inkscape (http://www.inkscape.org/) -->

<svg
   xmlns:dc="http://purl.org/dc/elements/1.1/"
   xmlns:cc="http://creativecommons.org/ns#"
   xmlns:rdf="http://www.w3.org/1999/02/22-rdf-syntax-ns#"
   xmlns:svg="http://www.w3.org/2000/svg"
   xmlns="http://www.w3.org/2000/svg"
   xmlns:sodipodi="http://sodipodi.sourceforge.net/DTD/sodipodi-0.dtd"
   xmlns:inkscape="http://www.inkscape.org/namespaces/inkscape"
   id="svg3131"
   version="1.1"
   inkscape:version="0.48.3.1 r9886"
   width="300"
   height="434"
   sodipodi:docname="New document 9">
  <metadata
     id="metadata3137">
    <rdf:RDF>
      <cc:Work
         rdf:about="">
        <dc:format>image/svg+xml</dc:format>
        <dc:type
           rdf:resource="http://purl.org/dc/dcmitype/StillImage" />
        <dc:title></dc:title>
      </cc:Work>
    </rdf:RDF>
  </metadata>
  <defs
     id="defs3135" />
  <sodipodi:namedview
     pagecolor="#ffffff"
     bordercolor="#666666"
     borderopacity="1"
     objecttolerance="10"
     gridtolerance="10"
     guidetolerance="10"
     inkscape:pageopacity="0"
     inkscape:pageshadow="2"
     inkscape:window-width="1020"
     inkscape:window-height="729"
     id="namedview3133"
     showgrid="false"
     inkscape:zoom="1.2235023"
     inkscape:cx="135.6968"
     inkscape:cy="385.82603"
     inkscape:window-x="0"
     inkscape:window-y="18"
     inkscape:window-maximized="0"
     inkscape:current-layer="svg3131" />
  <path
     style="fill:#000000"
     d="m 232.83333,433.03556 c -0.18333,-0.53044 -4.27339,-1.41051 -9.08902,-1.95572 -9.11615,-1.0321 -15.48549,-3.28541 -19.74431,-6.98503 -6.6176,-5.7487 -8.46335,-7.88805 -10.2077,-11.83144 C 191.68302,407.495 189,406.53556 189,410.54966 189,415.90218 182.75209,423 178.04049,423 c -1.43972,0 -2.0501,-0.66245 -2.07314,-2.25 -0.0299,-2.06331 -1.98002,-8.17643 -4.77366,-14.96442 -3.82522,-9.29454 -4.6925,-14.50883 -4.6215,-27.78558 0.0729,-13.63079 0.63025,-16.92621 8.41667,-49.76435 C 176.23953,322.96112 176.3022,317 175.10699,317 173.93611,317 173,319.53137 173,322.69757 c 0,1.3937 -0.65258,4.6194 -1.45018,7.16822 -0.7976,2.54881 -1.98586,6.65921 -2.64058,9.13421 -1.77326,6.70337 -6.94732,19.76038 -10.30294,26 -12.77966,23.76321 -15.92483,28.16644 -30.46652,42.65313 -7.49767,7.4693 -11.39471,10.44934 -23.64753,18.08304 -5.94645,3.70473 -13.59009,5.38615 -24.715189,5.43677 -8.239503,0.0375 -11.207478,-0.35964 -14.96991,-2.00305 C 59.900053,427.02649 52,419.75357 52,417.37942 52,416.62074 51.159251,416 50.131669,416 c -1.443448,0 -1.995796,0.96651 -2.428833,4.25 -1.083462,8.21534 -9.863239,12.79272 -20.666164,10.77441 -3.506627,-0.65514 -5.250596,-1.75713 -8.136194,-5.14112 l -3.672866,-4.30724 -2.747615,3.26535 c -2.195005,2.60862 -3.3743538,3.20434 -5.8638058,2.96198 L 3.5,427.5 l 0,-16 c 0,-14.61101 0.1953262,-16.38526 2.25,-20.43783 2.800485,-5.52359 2.800485,-6.09687 0,-5.80038 -1.9181725,0.20308 -2.2312751,-0.21332 -2.1230334,-2.82347 C 3.841094,377.27484 9.0166937,368.18543 14.700723,362.99055 20.411361,357.77134 31.76351,350.57416 39,347.58496 c 10.457086,-4.31953 13.054529,-5.68771 12.50032,-6.58444 -0.32243,-0.52171 -2.828591,-1.61446 -5.569246,-2.42835 -5.717255,-1.69784 -11.930433,-5.85151 -14.52305,-9.70902 -0.980981,-1.45959 -3.073343,-3.41566 -4.649692,-4.34684 -1.57635,-0.93117 -2.69436,-2.21577 -2.484469,-2.85467 0.623888,-1.89909 8.080166,-5.65928 10.024125,-5.05516 0.988893,0.30732 2.417249,0.0448 3.174124,-0.58333 1.166996,-0.96853 1.159703,-1.66009 -0.04799,-4.5505 -3.049781,-7.29916 -1.01227,-14.84694 5.324093,-19.72265 3.989427,-3.06978 9.607694,-3.67267 12.758085,-1.36905 1.799059,1.3155 1.713333,1.54621 -1.80887,4.86808 C 50.54721,298.22007 50,299.37304 50,303.03949 c 0,3.77763 0.53531,4.81626 4.381907,8.50195 3.732163,3.57604 5.222993,4.30369 10.054243,4.90732 7.449015,0.93069 12.745585,-0.0288 20.06385,-3.63468 6.492508,-3.199 15.5426,-9.66977 19.24456,-13.75979 C 106.94443,295.51901 115,284.404 115,283.52414 c 0,-0.39704 0.65453,-2.13989 1.45452,-3.87301 1.56821,-3.39743 4.71229,-11.23011 7.62562,-18.99727 0.99974,-2.66537 2.12383,-7.95287 2.49799,-11.75 L 127.25842,242 l -5.06383,0 c -6.87956,0 -17.78098,2.40005 -24.6008,5.4161 -7.016941,3.10323 -14.49989,10.6242 -18.22593,18.31853 -3.505843,7.23964 -3.930668,16.96256 -0.957051,21.9039 3.599229,5.98095 -0.674227,8.30921 -8.200647,4.46788 C 63.199399,288.52826 60,282.85454 60,274 c 0,-3.43013 0.647915,-7.35225 1.480539,-8.96237 1.449836,-2.80367 1.407867,-2.90592 -2.023841,-4.93068 -1.927409,-1.1372 -3.675481,-2.63898 -3.884605,-3.33729 -1.484533,-4.9572 -1.438577,-4.91384 -3.807256,-3.59251 -2.84474,1.58689 -8.883607,3.78788 -10.447449,3.80779 C 40.666951,256.99322 39.849126,256.1 39.5,255 38.892479,253.08587 35,252.08951 35,253.84813 c 0,0.46646 -1.9125,1.63999 -4.25,2.60782 -2.3375,0.96784 -5.444431,2.38618 -6.904292,3.15187 C 22.385847,260.37352 20.634877,261 19.954662,261 c -2.034139,0 -10.9458269,7.26613 -13.0226989,10.61803 -4.1229494,6.65411 -1.7016322,18.09356 4.4507439,21.02743 3.27026,1.55948 3.659737,1.55675 6.100819,-0.0427 4.19027,-2.74557 5.178348,-5.99158 3.13082,-10.28528 -1.825594,-3.82832 -1.099917,-5.78773 2.385654,-6.44154 2.550669,-0.47845 8.590567,2.05935 10.996607,4.62046 3.124286,3.32565 3.752725,10.76753 1.30877,15.49825 -2.119165,4.10203 -8.852584,8.16213 -13.767413,8.30145 C 16.669296,304.4341 9.1706511,299.44895 5.2434515,293.4634 3.4523498,290.73353 1.5398498,288.35 0.99345148,288.16667 -0.91939201,287.52485 -0.15814622,270.40636 2.0784845,263.76702 4.9133751,255.35178 6.1950752,253.07105 12.028357,246.06165 17.365838,239.64801 30.400021,231 34.729091,231 36.08101,231 37,230.39298 37,229.5 c 0,-0.825 -0.813992,-1.5 -1.80887,-1.5 -0.994879,0 -2.682379,-0.66069 -3.75,-1.4682 -1.25352,-0.94811 -4.355483,-1.47946 -8.756871,-1.5 -3.748658,-0.0175 -7.686158,-0.49763 -8.75,-1.06698 -2.994879,-1.60281 -2.3548,-5.49357 1.629238,-9.90342 l 3.563497,-3.94437 -3.139643,-1.62357 c -6.7097294,-3.46974 -10.3018567,-19.01831 -6.4973365,-28.1238 2.5528805,-6.10991 8.8855005,-10.28268 15.6832605,-10.33422 3.601482,-0.0273 5.378906,0.55831 7.75,2.55345 C 37.066628,176.0753 36.929927,178 32.538955,178 27.601115,178 25,181.10816 25,187.00856 c 0,3.82029 0.594611,5.32611 3.395041,8.59778 6.479085,7.56936 18.545509,11.71814 43.104959,14.82071 7.15,0.90325 14.918958,2.07668 17.264351,2.60761 2.345393,0.53094 5.455842,0.96534 6.912108,0.96534 1.456266,0 5.049811,0.675 7.985651,1.5 2.93584,0.825 7.73994,2.175 10.67578,3 7.35801,2.06767 9.66211,1.95578 9.66211,-0.46921 0,-6.27473 -11.26834,-18.59366 -16,-17.49174 -3.62102,0.84327 -6.10416,4.38097 -5.41238,7.71095 0.92046,4.43079 -2.764816,3.59173 -6.053852,-1.37834 -2.124915,-3.21096 -2.761842,-5.42624 -2.866276,-9.9691 -0.141618,-6.16035 0.806423,-7.70527 6.082508,-9.912 2.97945,-1.24615 2.83845,-2.56999 -0.5,-4.69441 -1.5125,-0.96247 -2.975,-2.0243 -3.25,-2.35962 -0.950976,-1.15955 -10.508383,-6.44144 -13.997575,-7.73574 C 76.123182,170.0199 69.879322,168.29315 61.5,166.5308 36.354733,161.24223 34.083478,160.44432 27.196645,154.47983 21.841791,149.84214 21.741329,146.75708 26.920509,146 c 4.686039,-0.68499 4.796946,-2.17052 0.335877,-4.49886 -9.703243,-5.06436 -12.21996,-8.25184 -23.4956262,-29.75779 -4.44667659,-8.4811 2.1816456,-9.07558 16.9636662,-1.52144 2.987555,1.52674 5.478117,2.25939 5.816945,1.71115 0.325884,-0.52729 -0.900107,-2.70318 -2.724427,-4.83531 C 18.9901,101.4565 12.455962,88.562352 10.338474,80.5 8.9747218,75.307507 8.5,69.884987 8.5,59.5 c 0,-13.324597 0.5520051,-17.082541 3.807219,-25.918807 0.591396,-1.605344 1.101707,-6.780344 1.134024,-11.5 C 13.489712,15.002495 13.086001,12.659176 11.135527,8.6978062 9.835067,6.0565996 8.935067,3.7604654 9.1355271,3.5952856 11.73619,1.4523305 13.693684,1.3132434 17.062775,3.0320255 c 4.613314,2.3535369 7.218466,6.2736158 7.900377,11.8880205 0.295267,2.431025 1.099867,4.606198 1.788001,4.833717 0.688133,0.22752 3.949713,-2.211501 7.247955,-5.420045 C 39.944815,8.549706 48.73336,3 51.947245,3 52.866018,3 54.491249,2.3393115 55.55887,1.5318034 58.394111,-0.61266452 81.224684,-0.6391244 83,1.5 83.684689,2.325 84.912532,3 85.72854,3 88.239218,3 94.692036,8.7965766 96.902639,13.037711 98.42934,15.966752 99,18.902583 99,23.827846 c 0,6.549551 -0.12514,6.888455 -3.907254,10.58159 -3.053061,2.981234 -4.911306,3.928502 -8.5,4.333 C 82.84276,39.165114 82,38.968066 82,37.668597 c 0,-1.002623 1.436968,-1.978444 3.883512,-2.63723 4.72044,-1.271083 6.218796,-2.924947 6.334428,-6.991852 C 92.454744,19.710814 83.722047,14.623094 75.297053,18.181308 71.978188,19.582999 61,29.915241 61,31.637137 c 0,0.659859 1.55382,2.160058 3.452934,3.333775 8.862882,5.477562 8.784156,19.161269 -0.134708,23.414379 C 59.295139,60.780634 57.594594,60.396002 54.87762,56.25 52.807776,53.091494 51.903437,52.524387 49.144222,52.654611 41.819629,53.000302 38.046898,60.250755 38.037275,74 c -0.0084,11.95653 0.672201,13.263691 5.006755,9.616405 6.529679,-5.494362 9.427475,-6.292935 25.45597,-7.015135 16.564604,-0.746355 20.564079,-1.485518 28.12694,-5.198279 3.84655,-1.888351 7.38335,-2.663105 14.16207,-3.102279 7.23487,-0.468727 9.58433,-1.023271 11.79141,-2.783138 C 127.13312,61.887374 125.37331,60 117.43576,60 c -5.04254,0 -7.30422,-0.482212 -9.45939,-2.016827 -3.73944,-2.662718 -5.57239,-8.039552 -3.81266,-11.184204 0.70756,-1.264433 1.54281,-6.221629 1.85609,-11.015991 C 106.7038,25.315409 108.85775,22 114.97431,22 118.84992,22 121,20.579375 121,18.018645 c 0,-0.869746 2.14987,-3.817246 4.77748,-6.55 4.92881,-5.1260244 11.99391,-8.4744774 17.85673,-8.4630681 5.32365,0.01036 18.3923,4.6102672 19.86416,6.9917898 C 163.83919,10.548815 166.55733,11 169.53869,11 c 5.30824,0 5.46256,0.08213 7.44099,3.960162 1.11117,2.178089 2.02032,4.851531 2.02032,5.940983 0,1.089452 0.45,2.258936 1,2.598855 0.55,0.339919 1,2.567615 1,4.950437 0,4.142316 -0.18083,4.404756 -4.12134,5.981437 -4.00291,1.601647 -4.1035,1.755628 -3.50053,5.358579 0.34144,2.040251 0.88648,4.675989 1.2112,5.857195 0.42782,1.556238 -0.3647,3.208494 -2.87797,6 -2.62021,2.91029 -3.6407,5.117283 -4.17307,9.025005 -0.91814,6.73944 -2.21725,8.340472 -7.32338,9.025347 -5.39781,0.723999 -5.38616,2.489628 0.0351,5.315104 C 164.49254,77.224256 176,88.251777 176,90.106226 176,91.386996 183.84503,102 184.79176,102 c 0.40077,0 1.85308,1.0125 3.22735,2.25 1.37427,1.2375 4.59794,3.93958 7.16372,6.00463 4.24677,3.41797 4.80637,3.61331 6.24111,2.17857 0.86683,-0.86683 1.57883,-2.10641 1.58222,-2.75463 0.003,-0.64821 0.72278,-2.52857 1.59865,-4.17857 4.53941,-8.551564 6.69088,-17.877282 7.15178,-31 0.34197,-9.736575 0.83993,-13.433388 1.98365,-14.726419 C 215.63266,57.6341 217,58.358265 217,61.5 c 0,2.859687 1.87795,4.301958 3.09649,2.378115 0.48009,-0.757963 0.87978,-3.515615 0.8882,-6.128115 0.0124,-3.852751 0.34588,-4.749294 1.76531,-4.746262 3.22303,0.0069 7.93536,3.674314 8.53566,6.642985 0.33829,1.672986 1.53611,3.271362 2.89565,3.863971 2.32478,1.013348 2.66186,2.475886 1.32279,5.739306 -0.48147,1.173364 -0.25855,1.75 0.6765,1.75 0.76702,0 3.61075,2.25 6.3194,5 2.70865,2.75 5.23125,5 5.60577,5 1.33309,0 21.10959,-22.565807 23.0053,-26.25 2.12934,-4.138223 3.29686,-4.630384 4.76424,-2.00833 1.44828,2.587929 2.64597,0.642747 1.5402,-2.501467 -1.23559,-3.513381 -3.4708,-3.867292 -10.33283,-1.636041 -8.45273,2.748478 -10.26337,4.631704 -5.58268,5.806482 1.375,0.345103 2.5,1.093578 2.5,1.663277 0,0.5697 -1.81677,3.711127 -4.03726,6.980948 L 255.92548,69 l -5.40372,0 c -2.97205,0 -5.68728,-0.458798 -6.03384,-1.01955 -0.78406,-1.268639 1.40845,-8.21887 2.90699,-9.215137 C 248.00271,58.361235 249.85,58.016844 251.5,58 c 1.65,-0.01684 3.675,-0.473735 4.5,-1.015313 2.6616,-1.747228 -0.87071,-2.952723 -8.70078,-2.969374 -9.9851,-0.02123 -20.64088,-2.455495 -32.39484,-7.400449 C 204.47424,42.226848 191.50463,27.095933 188.51551,15.828452 186.75859,9.2057712 186.76187,9.1233697 188.96202,4.5784525 190.44685,1.5112038 191.80911,0 193.08921,0 c 2.36015,0 2.64405,4.1465583 0.41079,6 -0.825,0.6846892 -1.5,2.7894781 -1.5,4.677309 0,7.88587 8.11316,19.410754 18.82594,26.742569 8.57275,5.867185 9.1353,5.589003 9.15875,-4.528957 0.0121,-5.214522 0.60039,-7.768997 2.7881,-12.106163 4.32704,-8.578418 9.24795,-14.3426946 15.15526,-17.7526398 l 5.42806,-3.13329665 13.57194,0.39378348 c 20.95294,0.60793943 28.05123,3.32880737 34.9357,13.39132497 3.86817,5.653825 5.06895,10.856806 5.24286,22.717417 0.18807,12.826936 -0.41571,15.038285 -8.31409,30.45016 C 284.71052,74.816605 284,77.054717 284,81.947869 c 0,8.619769 2.30638,12.199272 9.31338,14.454391 C 296.59511,97.458443 293.97679,99 288.90114,99 283.0059,99 277.73422,96.548384 273.5,91.837629 c -4.61093,-5.129855 -5.71924,-7.699791 -6.2678,-14.533643 -0.29539,-3.679969 -0.96934,-6.295099 -1.61911,-6.282635 -0.6122,0.01174 -2.38389,1.817474 -3.9371,4.012734 -1.5532,2.195261 -4.58724,4.998152 -6.7423,6.228649 -2.15506,1.230496 -3.92175,2.626162 -3.92599,3.101479 -0.004,0.475317 2.17419,3.400317 4.84095,6.5 13.27931,15.435107 22.01197,29.906017 25.42741,42.135787 7.22423,25.86803 5.70912,35.43243 -9.74229,61.5 -5.84196,9.85578 -11.89737,24.18101 -13.52669,32 -0.93635,4.49347 -0.86169,4.76518 1.10231,4.01152 2.98363,-1.14493 7.15259,-9.55447 7.84859,-15.83202 0.39257,-3.54082 1.61002,-7.67402 2.85113,-9.6795 1.1913,-1.925 2.60096,-4.48749 3.13257,-5.69443 0.53161,-1.20694 4.97383,-6.18646 9.8716,-11.06561 7.11115,-7.08411 9.33631,-10.02384 11.04588,-14.59309 1.17746,-3.14704 2.14084,-6.18157 2.14084,-6.7434 0,-0.56183 0.51709,-0.70192 1.14909,-0.31133 0.82999,0.51296 0.97147,4.90317 0.50949,15.80902 -0.77833,18.37357 -0.94829,19.62539 -3.64202,26.82504 -3.27118,8.74301 -9.97956,17.2215 -15.58953,19.70305 -2.5747,1.13891 -5.91926,2.07075 -7.43237,2.07075 -2.20023,0 -3.46369,1.05125 -6.30981,5.25 C 259.58337,243.77599 257,252.60566 257,262.51593 c 0,4.50209 0.48862,9.71527 1.08582,11.58485 2.58153,8.08165 3.10079,8.89922 5.65213,8.89922 2.16237,0 2.38665,-0.30021 1.6809,-2.25 -0.44792,-1.2375 -0.83791,-8.1 -0.86663,-15.25 l -0.0522,-13 3,0.31852 c 1.78141,0.18913 3.87753,1.40772 5.16036,3 1.1882,1.47481 2.5001,2.34458 2.91533,1.93282 0.41523,-0.41176 1.12849,-3.48 1.58503,-6.8183 1.57534,-11.51913 10.00671,-21.89663 19.08928,-23.49549 3.30559,-0.5819 3.75,-0.4226 3.75,1.34417 0,1.10237 -0.65578,2.25595 -1.4573,2.56352 -2.69453,1.03399 -6.24237,8.10337 -7.35464,14.65476 -2.40875,14.18784 -2.43488,27.66544 -0.0843,43.5 4.26382,28.7234 3.36759,55.81624 -2.10043,63.49536 -2.12252,2.98081 -2.57268,5.53471 -1.13246,6.42481 1.51389,0.93564 2.15764,6.6581 0.99367,8.833 -0.61504,1.1492 -2.40731,3.17413 -3.98283,4.49985 -2.4037,2.02258 -2.69091,2.73492 -1.78508,4.42748 0.88174,1.64754 0.50645,2.93897 -2.04837,7.04881 -1.72034,2.76745 -2.96578,5.51805 -2.76764,6.11246 0.19813,0.5944 2.5321,1.54817 5.1866,2.11948 5.58919,1.20293 8.35337,4.21167 8.76341,9.53875 l 0.2694,3.5 -6.5,0.52157 c -6.34826,0.50939 -21.43106,5.55157 -25.36587,8.47981 -1.81116,1.34784 -1.80383,1.46742 0.25,4.07845 2.63887,3.35477 2.83062,9.47221 0.36587,11.67224 -2.19676,1.96081 -4.80766,2.33771 -9.14764,1.3205 -2.65986,-0.62341 -3.59351,-0.44633 -4.29969,0.81555 -0.69307,1.23845 -2.49296,1.61188 -7.76903,1.61188 -3.77683,0 -7.01697,-0.434 -7.20031,-0.96444 z M 249.8,425.8 c 1.63737,-1.63737 1.51411,-6.29442 -0.20435,-7.72061 C 247.8025,416.5912 243,417.74068 243,419.65807 243,422 245.94588,427 247.32568,427 c 0.70088,0 1.81432,-0.54 2.47432,-1.2 z M 42.583108,416.39354 c 4.997598,-2.37152 7.369019,-6.82019 6.70807,-12.58403 -0.626152,-5.46038 0.297067,-10.11343 1.900569,-9.57893 0.614892,0.20497 1.668544,2.23729 2.34145,4.51629 C 55.005018,403.73161 60.401542,409 64.035708,409 c 1.424492,0 4.921998,-1.125 7.772236,-2.5 2.850237,-1.375 6.214231,-2.5 7.47554,-2.5 2.397248,0 12.23758,3.18773 13.386271,4.33642 1.109243,1.10924 12.066395,0.74092 14.783195,-0.49694 1.65518,-0.75415 2.54705,-1.9662 2.54705,-3.46145 0,-1.83304 -0.80251,-2.51703 -3.94638,-3.36359 -4.51921,-1.2169 -7.725952,-4.7509 -8.616007,-9.4953 -0.472082,-2.51641 -0.01062,-4.23528 1.986263,-7.39855 2.910504,-4.61055 4.017014,-5.03382 5.570584,-2.13094 3.86677,7.22512 20.32344,6.23514 29.16713,-1.7546 9.70063,-8.76394 17.10208,-20.97838 22.38249,-36.93729 5.61602,-16.97319 3.50315,-18.73605 -5.54408,-4.62568 -3.025,4.7179 -7.7928,10.65923 -10.59511,13.20296 -8.13462,7.38399 -21.60363,13.36696 -30.40489,13.50594 -9.74898,0.15394 -13.57693,-3.30474 -4.9546,-4.47664 3.77786,-0.51347 5.18099,-1.46372 10.1686,-6.88654 3.1823,-3.45999 5.786,-6.66628 5.786,-7.1251 0,-1.04873 6.23675,-10.2757 7.25,-10.72603 0.4125,-0.18334 0.75,-1.19584 0.75,-2.25 C 129,332.24004 128.24609,332 122.98013,332 c -4.69846,0 -6.88918,-0.54877 -9.98013,-2.5 -2.17814,-1.375 -4.41868,-2.5 -4.97898,-2.5 -0.5603,0 -2.87351,1.8 -5.14046,4 -2.26695,2.2 -4.536381,4 -5.043183,4 -2.442541,0 -10.183038,7.30082 -15.173103,14.31123 -8.039688,11.29476 -8.811222,19.94666 -2.319515,26.01082 2.974302,2.77842 3.018629,2.93907 1.181606,4.28233 -3.489251,2.5514 -7.541742,1.46864 -12.776365,-3.41366 -2.268568,-2.11587 -2.75,-3.41297 -2.75,-7.4092 0,-5.52701 -1.514373,-6.78076 -6.099756,-5.04997 -2.111548,0.79702 -3.246792,0.73553 -4.592905,-0.24877 -1.649419,-1.20608 -1.430989,-1.6218 2.816757,-5.36081 5.271466,-4.64013 7.850135,-9.54774 5.992745,-11.40513 -0.895851,-0.89585 -1.577616,-0.88996 -2.894365,0.025 -0.947362,0.65829 -3.576825,2.05965 -5.843251,3.11413 C 33.981692,359.81141 22,376.03023 22,395.03922 c 0,13.62665 3.505366,19.90625 12.275048,21.98984 4.679188,1.11173 4.615782,1.11658 8.30806,-0.63552 z m 193.558452,-14.5541 c 4.94928,-1.48284 11.11439,-6.75171 13.30718,-11.37266 3.74541,-7.89286 1.71521,-18.23448 -4.57347,-23.29676 C 241.20399,364.2147 241.96215,363 247.47798,363 c 9.13466,0 13.6948,5.96101 14.8752,19.44486 0.33438,3.81967 1.22592,7.56281 1.9812,8.31809 3.55523,3.55523 11.08378,-12.95218 8.79448,-19.28313 C 272.50799,369.76282 272,367.01745 272,365.379 272,361.66774 270.40354,360 266.85089,360 c -4.37297,0 -7.53479,-5.13698 -9.91787,-16.11346 -2.10521,-9.69658 -5.24433,-15.73396 -9.6982,-18.65225 -1.94174,-1.27228 -2.98749,-1.32536 -6.33746,-0.32169 -5.03756,1.50929 -7.48281,3.92648 -8.80078,8.69979 -1.44364,5.22844 1.23218,11.17264 6.24455,13.87199 2.0194,1.08752 3.52101,2.4292 3.33691,2.98151 -0.57482,1.72445 -6.33434,2.81274 -11.10204,2.09778 -11.47335,-1.72054 -16.70754,-13.23007 -11.43611,-25.14702 2.02896,-4.58678 2.04793,-4.89148 0.36604,-5.87712 -5.48337,-3.21341 -9.65046,-8.49108 -6.75593,-8.55647 0.4125,-0.009 2.87986,-2.01492 5.48302,-4.45689 5.34327,-5.0124 11.08032,-7.11793 15.16405,-5.5653 2.20308,0.8376 2.82012,0.63729 4.11245,-1.33505 0.83625,-1.27629 1.6118,-4.41927 1.72344,-6.9844 0.20106,-4.61959 0.11802,-4.74924 -8.74414,-13.65265 C 225.5679,276.04495 221.20822,272 220.80064,272 c -1.54798,0 -15.65293,-10.17268 -16.24527,-11.71631 -0.34152,-0.88997 -0.16839,-2.07067 0.38472,-2.62378 1.06519,-1.06519 2.76637,-0.39595 8.87806,3.49262 3.65946,2.32834 5.83199,1.47125 4.76802,-1.88105 C 217.85747,256.97556 204.80007,247 202.52354,247 c -2.09229,0 -2.3245,0.90471 -2.95165,11.5 -0.72176,12.19365 -2.86621,27.15913 -7.16464,50 -4.69527,24.94955 -5.5639,35.15604 -4.38296,51.5 1.11835,15.4777 11.07059,32.09932 23.16597,38.69042 7.44958,4.05947 17.62584,5.34378 24.9513,3.14902 z m 39.50362,-76.42067 c 1.50082,-2.29055 1.54286,-3.16329 0.37329,-7.75 -1.60087,-6.27809 -3.28516,-9.01362 -6.4328,-10.44778 -1.7597,-0.80178 -2.77369,-0.7766 -3.86165,0.0959 -2.99961,2.40547 -3.51715,4.79699 -2.23331,10.31991 1.34885,5.80257 2.83109,8.13753 5.97457,9.41171 3.34847,1.35726 4.40539,1.07854 6.1799,-1.62971 z m -96.36053,-17.21963 c 0.25144,-3.13453 0.89469,-7.28388 1.42944,-9.22079 0.9638,-3.49092 0.0387,-9.19554 -0.96948,-5.97835 C 177.88494,298.93429 176,308.51684 176,312.03658 c 0,6.48532 2.71063,3.3185 3.28465,-3.83744 z m -34.16913,-11.4487 C 147.25199,294.41319 149,292.09316 149,291.59483 c 0,-0.49832 1.03269,-2.29852 2.29486,-4.00044 1.9454,-2.62318 6.12458,-10.68863 9.98577,-19.27164 0.5387,-1.19749 1.03344,-5.34698 1.09942,-9.22109 0.10129,-5.94781 -0.2112,-7.37516 -2.00822,-9.17314 -4.41629,-4.41864 -6.73411,-0.48355 -10.93883,18.57148 -1.88616,8.54777 -2.74107,10.91602 -8.03985,22.27193 -1.86623,3.99957 -3.39315,7.93707 -3.39315,8.75 0,2.75019 3.2117,1.49924 7.11552,-2.77149 z m 35.48865,-10.47961 c -0.3323,-0.33229 -0.56864,0.25834 -0.52522,1.3125 0.048,1.16495 0.28494,1.4019 0.60416,0.60417 0.28887,-0.72188 0.25335,-1.58438 -0.0789,-1.91667 z M 251.55214,274.75 c -1.9959,-17.70694 -2.42444,-27.10336 -1.48095,-32.4725 2.04795,-11.65435 3.19875,-16.78448 4.42967,-19.74695 0.69256,-1.6668 1.81475,-4.83055 2.49375,-7.03055 1.64075,-5.31613 9.5726,-21.68673 13.68546,-28.2455 5.69278,-9.07828 9.29279,-20.61127 8.97569,-28.7545 -0.12825,-3.29355 -0.54198,-4.05497 -2.34256,-4.31127 -1.50514,-0.21424 -2.74952,0.56505 -3.99203,2.5 -2.72739,4.24734 -5.22073,6.74504 -5.97766,5.98811 -0.37269,-0.37269 0.65967,-2.36494 2.29413,-4.42723 4.58282,-5.7824 5.86374,-9.89822 5.84935,-18.79498 C 275.46714,127.1855 270.13505,115.74398 256.571,98.865031 247.78638,87.933538 234.38076,74 232.64807,74 c -0.81275,0 -3.03732,2.1375 -4.94348,4.75 l -3.46574,4.75 -0.51415,20 c -0.52425,20.39247 -2.02823,29.96794 -5.26949,33.54949 -0.80037,0.8844 -1.47018,2.02256 -1.48848,2.52925 -0.0183,0.50669 -0.92117,1.98716 -2.00639,3.28993 -1.82065,2.18565 -2.22376,2.26915 -5.21673,1.08063 -6.69844,-2.65997 -12.77927,-6.04172 -16.08871,-8.94744 C 191.77449,133.35084 189.35106,132 188.2695,132 c -1.79359,0 -2.08073,1.1839 -3.26634,13.46727 -1.13571,11.76642 -1.10762,14.00815 0.22241,17.75 0.83726,2.3555 2.30467,7.20773 3.26093,10.78273 0.95625,3.575 2.12724,7.625 2.6022,9 1.48001,4.28463 3.08562,11.29279 3.76213,16.42085 0.35704,2.70647 1.15219,5.08664 1.76699,5.28927 0.61479,0.20263 3.21957,-1.67425 5.78838,-4.17085 5.59323,-5.436 9.6766,-6.02337 14.3772,-2.06807 C 221.53579,202.47007 222.04173,214 217.46482,214 216.65917,214 216,213.1368 216,212.08179 c 0,-3.23145 -1.1631,-5.1933 -3.63638,-6.13364 -3.34327,-1.27111 -6.98777,0.39164 -9.37441,4.27692 -1.80161,2.93291 -1.98443,4.72714 -1.75046,17.18009 l 0.26125,13.90516 3.3898,0.0963 c 2.47901,0.0704 3.78616,-0.50863 4.86501,-2.15516 2.00763,-3.06403 3.10134,-2.83275 4.72206,0.99854 1.5483,3.66007 8.09049,12.66619 11.66364,16.05641 3.97805,3.77437 20.33859,21.7702 20.69282,22.76113 0.18334,0.51285 1.45322,0.93246 2.82196,0.93246 2.41063,0 2.47008,-0.16454 1.89685,-5.25 z m -17.32639,-53.49407 c 0.53738,-22.70601 0.49946,-22.61453 14.09519,-33.99932 2.63543,-2.20685 3.26934,-4.5548 2.07207,-7.67482 -0.80361,-2.09418 -6.94145,-2.07697 -10.89301,0.0305 -4.00758,2.13739 -16.1801,2.38612 -20.08227,0.41036 C 212.27743,176.40738 200,165.59578 200,162.92327 200,162.40463 205.90019,162 213.46298,162 c 15.55972,0 21.72682,1.71201 27.28483,7.57435 3.86694,4.07868 8.81409,4.67221 11.76498,1.41151 1.11718,-1.23446 2.52365,-1.79168 3.63336,-1.43947 1.1421,0.36248 2.83015,-0.37073 4.572,-1.98587 2.65993,-2.46642 5.28921,-3.36886 5.27502,-1.81052 -0.004,0.4125 -1.58959,1.82793 -3.52406,3.14539 -9.19472,6.26201 -11.48588,12.34901 -7.46911,19.84343 2.35299,4.39016 2.47201,8.25696 0.4236,13.76118 -0.81874,2.2 -2.19343,5.99083 -3.05486,8.42406 -0.86143,2.43323 -2.36294,5.58323 -3.33669,7 -3.78912,5.51303 -11.14974,17.21907 -11.65489,18.53546 -0.29249,0.76221 -1.21576,1.6483 -2.05172,1.96909 -1.33421,0.51199 -1.46857,-1.58619 -1.09969,-17.17268 z M 252.17743,160.7 c -5.48649,-4.97802 -6.177,-6.1093 -6.16237,-10.09602 0.0162,-4.41544 1.34985,-8.75857 4.63799,-15.10398 3.21382,-6.20196 5.60529,-14.36827 5.0533,-17.25581 -0.56886,-2.97577 0.0597,-5.24419 1.45318,-5.24419 0.52005,0 2.38216,3.0375 4.13803,6.75 2.86588,6.05945 3.18932,7.67074 3.16159,15.75 -0.0327,9.52141 0.2333,8.74452 -8.26372,24.13679 -1.45622,2.63794 -2.09588,2.8072 -4.018,1.06321 z M 233,134.26453 c -5.10341,-1.96505 -6.65045,-7.87841 -5.09461,-19.47337 C 229.48995,102.98224 237.37549,88 242.00627,88 c 3.0304,0 2.43751,2.390088 -2.42661,9.782259 -6.40872,9.739541 -8.72937,16.252161 -8.37353,23.499261 0.24109,4.9099 0.69756,6.252 2.54139,7.47201 2.20449,1.45865 2.24468,1.41303 2.09939,-2.38321 -0.0815,-2.12867 0.15329,-4.81453 0.5217,-5.96856 1.93343,-6.05645 11.63512,-3.69224 11.62765,2.83354 -0.009,7.98693 -7.87434,13.77151 -14.99626,11.02923 z M 57.065741,234.96482 C 58.129584,234.39547 59,233.30602 59,232.54382 59,231.5125 57.017525,231.06714 51.25,230.80279 42.580451,230.40543 41,230.66006 41,232.45417 c 0,2.98705 11.745817,4.8226 16.065741,2.51065 z m 30.660179,-0.88621 c 1.766994,-0.50677 8.064023,-1.02412 13.9934,-1.14967 5.92937,-0.12555 11.56818,-0.62676 12.53068,-1.11379 2.31378,-1.17079 2.22434,-3.49092 -0.18426,-4.77997 -2.38674,-1.27734 -18.449506,-1.37284 -20.829309,-0.12384 -0.955037,0.50124 -3.873931,1.66346 -6.486431,2.58271 -4.378087,1.5405 -5.752846,3.16977 -4.083333,4.83928 0.863073,0.86308 1.225296,0.84484 5.059253,-0.25472 z m 29.91734,-45.59134 C 118.50884,186.23161 116.13875,184 112.87756,184 c -3.50404,0 -3.83113,2.21868 -0.65505,4.4433 2.80664,1.96584 4.67743,1.98102 5.42075,0.044 z m -2.40661,-16.00047 c 1.00595,-8.11891 3.55441,-13.91572 8.44784,-19.21573 2.61632,-2.8337 2.33838,-5.17448 -1.53449,-12.92306 -2.15741,-4.31641 -5.14299,-10.45998 -6.63463,-13.65239 -1.91556,-4.09969 -3.19714,-5.70916 -4.36372,-5.48014 -1.34682,0.2644 -1.65165,1.61251 -1.65165,7.30438 0,5.70197 -0.27467,6.91254 -1.5,6.61098 -0.825,-0.20304 -3.47656,-0.46603 -5.89235,-0.58444 C 96.83865,134.28816 95,132.26956 95,126.74313 c 0,-8.45486 -1.304561,-9.16695 -30.507285,-16.6522 -4.713721,-1.20822 -7.495805,-3.10122 -14.658278,-9.97387 -7.397948,-7.09859 -10.223278,-7.713172 -8.886957,-1.933138 1.116812,4.830588 9.383555,21.531688 13.446478,27.165598 6.560872,9.09772 30.429787,32.49505 42.106042,41.27414 2.75,2.06766 7.25,5.70784 10,8.08928 2.75,2.38145 5.67385,4.20182 6.49744,4.04528 1.02601,-0.19502 1.73096,-2.16939 2.23921,-6.27142 z m -5.65836,-55.83021 c 0.75353,-1.96367 -3.24684,-15.63286 -5.20986,-17.801968 C 101.25003,95.408827 90,97.156148 90,101.08628 90,102.86404 106.14789,118 108.04449,118 c 0.56006,0 1.25026,-0.60454 1.5338,-1.34341 z M 22.490781,65.014917 c 0.334848,-0.541796 0.852484,-3.466796 1.150302,-6.5 0.628974,-6.405955 -1.005293,-7.409945 -4.60746,-2.830532 -1.961725,2.493929 -2.114225,6.579994 -0.357009,9.565615 0.633626,1.076569 3.09737,0.924718 3.814167,-0.235083 z M 251.4122,45.960849 c 0.54431,-0.528231 -0.13891,-2.41284 -1.69411,-4.673047 C 245.61406,35.323338 245.09194,33.068465 246.64126,28 c 0.75656,-2.475 1.93428,-5.181188 2.61715,-6.013752 C 252.76879,17.706373 261,15.221036 261,18.440983 c 0,0.792541 -0.45,1.719098 -1,2.059017 -0.55,0.339919 -1,2.410292 -1,4.60083 0,4.931341 2.43614,7.771131 7.35069,8.568653 3.25388,0.528032 4.03887,0.176251 7.63796,-3.422836 C 277.67733,26.557965 278,25.802087 278,20.849782 278,13.638783 274.8839,9.0364709 267.70071,5.638279 260.83874,2.3920442 248.44011,1.84386 243,4.5461789 230.82724,10.592874 223,23.708533 223,38.059057 c 0,6.603235 1.10174,7.964308 7.33654,9.063493 5.03449,0.887571 19.80282,0.07353 21.07566,-1.161701 z M 269.74793,428.25 c -3.29861,-3.69553 -1.77159,-10.47152 2.62597,-11.65252 5.76288,-1.54765 10.35207,8.37977 5.45829,11.8075 -2.97687,2.08508 -6.1389,2.02446 -8.08426,-0.15498 z M 287.2,426.8 c -3.02746,-3.02746 0.17405,-9.31345 3.63382,-7.13483 2.37493,1.49549 2.62486,4.17051 0.59885,6.40923 -2.03511,2.24877 -2.61081,2.34746 -4.23267,0.7256 z M 21.222506,347.4433 c -3.391027,-2.37517 -3.151284,-9.56756 0.412353,-12.37072 3.168326,-2.49221 5.603971,-2.61742 8.900324,-0.45757 C 32.524228,335.91828 33,337.06242 33,340.54243 c 0,3.4677 -0.516116,4.71839 -2.634859,6.38499 -3.14003,2.46995 -6.113286,2.63771 -9.142635,0.51588 z M 197.60699,11.418213 C 196.39866,8.2693583 196.92926,5.8399519 198.75,6.1848652 201.01608,6.6141439 201.87846,13 199.67035,13 c -0.80101,0 -1.72952,-0.711804 -2.06336,-1.581787 z"
     id="path3141"
     inkscape:connector-curvature="0" />
</svg>
