<?xml version="1.0" encoding="UTF-8" standalone="no"?>
<!-- Created with Inkscape (http://www.inkscape.org/) -->

<svg
   xmlns:dc="http://purl.org/dc/elements/1.1/"
   xmlns:cc="http://creativecommons.org/ns#"
   xmlns:rdf="http://www.w3.org/1999/02/22-rdf-syntax-ns#"
   xmlns:svg="http://www.w3.org/2000/svg"
   xmlns="http://www.w3.org/2000/svg"
   xmlns:sodipodi="http://sodipodi.sourceforge.net/DTD/sodipodi-0.dtd"
   xmlns:inkscape="http://www.inkscape.org/namespaces/inkscape"
   width="210mm"
   height="297mm"
   id="svg2"
   version="1.1"
   inkscape:version="0.48.3.1 r9886"
   sodipodi:docname="Logo_Greenspace.svg">
  <defs
     id="defs4" />
  <sodipodi:namedview
     id="base"
     pagecolor="#ffffff"
     bordercolor="#666666"
     borderopacity="1.0"
     inkscape:pageopacity="0.0"
     inkscape:pageshadow="2"
     inkscape:zoom="0.40378697"
     inkscape:cx="579.30981"
     inkscape:cy="591.5563"
     inkscape:document-units="px"
     inkscape:current-layer="layer1"
     showgrid="false"
     inkscape:window-width="1020"
     inkscape:window-height="729"
     inkscape:window-x="0"
     inkscape:window-y="18"
     inkscape:window-maximized="0"
     showguides="true"
     inkscape:guide-bbox="true">
    <sodipodi:guide
       orientation="1,0"
       position="0,71.820048"
       id="guide2984" />
    <sodipodi:guide
       orientation="0,1"
       position="255.085,1124.3552"
       id="guide2986" />
    <sodipodi:guide
       orientation="0,1"
       position="-47.054514,0"
       id="guide2988" />
    <sodipodi:guide
       orientation="1,0"
       position="799.92675,681.05218"
       id="guide2990" />
  </sodipodi:namedview>
  <metadata
     id="metadata7">
    <rdf:RDF>
      <cc:Work
         rdf:about="">
        <dc:format>image/svg+xml</dc:format>
        <dc:type
           rdf:resource="http://purl.org/dc/dcmitype/StillImage" />
        <dc:title></dc:title>
      </cc:Work>
    </rdf:RDF>
  </metadata>
  <g
     inkscape:label="Ebene 1"
     inkscape:groupmode="layer"
     id="layer1">
    <path
       sodipodi:nodetypes="cssscsscssccscsssscssccccsscscssssssssssscssscsssscssssssssccssscssscssccsscscscsssssssscsscssccsssccssssssscssssscccsssssscssscssscssscsssscccsssccsssssscscssscscsssccsccc"
       inkscape:connector-curvature="0"
       id="path3008"
       d="m 136.78704,928.00576 c -4.99127,-3.45351 -10.31201,-8.78323 -12.75204,-11.89098 -4.481,-5.70722 -12.95143,-16.50827 -10.54277,-13.49159 4.28929,5.37204 -13.694077,-20.57176 -11.65474,-17.38808 3.24003,5.05813 -11.634097,-17.01876 -11.554657,-17.09819 0.0794,-0.0794 -0.79638,-9.55149 -1.94622,-21.04902 -2.37133,-23.71147 -4.77004,-49.65993 -4.77004,-51.6007 0,-1.09673 0.0787,-1.27223 0.49815,-1.11125 0.27399,0.10514 7.59303,4.37946 16.264547,9.49849 68.03981,40.1658 180.90965,106.47689 251.34239,147.66384 11.11039,6.49703 20.30748,11.87571 20.43796,11.95262 0.13047,0.077 0.0834,0.32518 -0.10454,0.55166 -0.18796,0.22649 -8.48026,4.92684 -18.42736,10.44526 -9.9471,5.51839 -18.08805,10.13372 -18.09099,10.25626 -0.003,0.12254 -37.02337,-1.48342 -33.68674,-1.19063 11.38962,0.99945 -27.35401,-2.48709 -48.58249,-7.50724 -4.02429,-0.95167 -8.90181,-5.93641 -13.32792,-13.04441 -6.48812,-10.41943 -6.9532,-12.46523 -12.95082,-23.38991 -3.03998,-5.53733 -7.56659,-16.54358 -10.82756,-21.86882 -7.35172,-10.65379 -9.57369,-9.19787 -12.94168,-8.82753 -3.92516,0.43161 -12.85914,4.09763 -17.05103,5.8285 -11.43847,4.72305 -16.57516,8.80517 -26.62445,12.8021 -7.99754,3.55522 -15.37448,5.72987 -22.707,0.45962 z M 230.6159,874.7344 C 151.45434,827.83007 86.568363,789.33901 86.424823,789.19871 c -0.14824,-0.14492 0.5322,-1.30768 1.57539,-2.69211 2.2284,-2.9573 5.07361,-8.67925 6.12135,-12.31043 1.12874,-3.912 1.72247,-8.87256 1.52682,-12.7566 -0.0901,-1.78771 -0.0381,-5.11871 0.11544,-7.40223 0.15352,-2.28352 0.22176,-4.20926 0.15156,-4.27943 -0.0702,-0.0702 -0.97239,0.28354 -2.00495,0.78601 -2.62226,1.27608 -4.99614,1.81765 -7.96731,1.81765 -3.16848,0 -5.37187,-0.5456 -8.61501,-2.13324 -2.02649,-0.99205 -3.02583,-1.73935 -5.06108,-3.78468 -2.77309,-2.78682 -4.4323,-5.55124 -5.6306,-9.38115 -0.91613,-2.9281 -1.11412,-7.60595 -0.44635,-10.54596 0.92086,-4.05431 1.06958,-3.58378 -1.4939,-4.7265 -8.29622,-3.69816 -13.5495,-13.25653 -12.31286,-22.40332 0.65609,-4.85275 2.41652,-8.53172 5.63528,-11.77665 3.35214,-3.3794 7.46468,-5.0598 12.3831,-5.0598 4.19596,0 8.24929,1.35813 11.59714,3.88578 l 1.56009,1.17788 1.19208,-0.78889 c 0.65566,-0.43389 1.19211,-0.90925 1.19211,-1.05636 0,-0.14711 -0.32122,-0.90138 -0.71383,-1.67616 -1.60153,-3.16045 -2.10931,-5.54995 -2.09532,-9.86019 0.0116,-3.59366 0.0986,-4.25742 0.83652,-6.38699 1.77125,-5.11151 5.124,-9.02277 9.5479,-11.13835 2.82617,-1.35151 4.72358,-1.78417 7.824537,-1.78417 7.11466,0 14.10987,4.55217 17.57519,11.43717 3.02072,6.00167 3.20555,13.31688 0.48383,19.14845 -0.41622,0.89175 -0.71576,1.66233 -0.66567,1.71242 0.0501,0.0501 0.81326,-0.23876 1.69591,-0.64188 2.4756,-1.13063 4.90459,-1.65215 7.69478,-1.65215 3.16848,0 5.37187,0.5456 8.61501,2.13324 2.01802,0.98789 3.03715,1.74806 5.07501,3.78544 2.11772,2.1172 2.78464,3.02755 3.93445,5.37071 1.67722,3.41798 2.25788,5.53925 2.47991,9.05986 0.51713,8.19916 -3.63622,15.57623 -10.70582,19.01539 -1.57467,0.76603 -2.86131,1.41295 -2.8592,1.43759 0.003,0.0247 0.28337,0.91373 0.62506,1.97575 0.86052,2.67482 1.07824,7.99162 0.44843,10.95165 -1.50867,7.09073 -7.03238,12.8965 -13.77903,14.4826 -2.65185,0.62344 -6.88571,0.40824 -9.80397,-0.49832 -1.18605,-0.36844 -2.22333,-0.60301 -2.30505,-0.52128 -0.22194,0.22193 1.77986,6.64207 3.30255,10.5919 4.29099,11.13087 10.49745,20.36495 17.01702,25.31824 2.67018,2.02869 7.34406,4.27842 10.58108,5.0931 2.33419,0.58746 3.40905,0.67147 8.46647,0.66179 4.86526,-0.009 6.29232,-0.11847 8.91208,-0.68174 7.59503,-1.63297 14.28705,-4.07039 22.26984,-8.11131 2.85359,-1.4445 5.37476,-2.81276 5.60258,-3.04059 0.35428,-0.35426 -0.0528,-0.41379 -2.81179,-0.41114 -2.72612,0.003 -3.60331,-0.12256 -5.66069,-0.80782 -12.8164,-4.26875 -17.75682,-21.21596 -9.53622,-32.7123 l 0.87436,-1.22276 -2.33262,-2.34208 c -4.16007,-4.17695 -6.14084,-9.12284 -6.1133,-15.26459 0.0301,-6.69675 2.59205,-12.46868 7.25812,-16.35182 3.55081,-2.95501 7.13005,-4.2619 11.69018,-4.26846 5.99501,-0.009 11.00794,2.60107 14.88071,7.74677 1.7553,2.33225 1.64918,2.28696 3.62562,1.54733 0.66718,-0.24967 0.67779,-0.31889 0.48398,-3.15382 -0.70376,-10.29318 5.09305,-19.20034 14.28146,-21.94441 2.75669,-0.82327 7.08389,-0.7018 10.10036,0.28354 7.92649,2.58921 13.51666,10.72903 13.51666,19.68162 0,5.39678 -1.60828,9.9749 -4.97592,14.16455 -1.02117,1.27043 -1.85668,2.35652 -1.85668,2.41353 0,0.057 1.19859,0.0353 2.66355,-0.0482 3.41752,-0.19486 5.78068,0.26705 8.77362,1.71491 4.12576,1.99589 7.00635,4.87165 9.07268,9.05751 1.75092,3.54689 2.20687,5.60455 2.20517,9.95183 0,3.04482 -0.12566,4.11449 -0.69137,5.94138 -1.82962,5.90841 -5.39962,10.36758 -10.16244,12.6935 -2.39201,1.16813 -4.05054,1.63452 -7.19966,2.02462 -0.78563,0.0973 -1.47141,0.33469 -1.52399,0.52749 -0.0526,0.19279 -0.25296,1.54651 -0.44525,3.00825 -1.06695,8.11018 -6.6078,14.76608 -14.12948,16.97293 -2.38553,0.69991 -6.82362,0.69991 -9.20915,0 -2.27843,-0.66849 -5.39312,-2.29853 -6.96818,-3.64674 -0.67631,-0.57888 -1.31016,-0.972 -1.40855,-0.87359 -0.49459,0.49457 6.23798,14.09717 10.45164,21.11677 8.75725,14.58873 19.27324,26.01661 28.94641,31.45642 8.52755,4.79555 18.88538,7.73266 32.70006,9.27259 7.74076,0.86287 29.70693,0.94547 29.70693,0.11172 0,-0.14482 -0.56814,-0.54864 -1.26254,-0.89737 -7.06431,-3.54775 -11.08595,-12.20236 -9.61293,-20.68715 0.26184,-1.50826 0.82972,-3.6257 1.26195,-4.70541 1.64473,-4.10847 5.1377,-8.34757 8.66828,-10.51997 0.84667,-0.52095 1.53938,-1.12009 1.53938,-1.33141 0,-0.21132 -0.32856,-1.10221 -0.73011,-1.97974 -1.88879,-4.12766 -2.31752,-9.60721 -1.09603,-14.00869 1.79709,-6.47577 5.79962,-11.42725 11.4809,-14.20295 11.05273,-5.40003 23.15982,0.54424 25.9392,12.73549 0.51277,2.24913 0.53282,2.28042 1.62726,2.53924 0.60943,0.14413 1.29489,0.19036 1.52322,0.10274 0.22833,-0.0876 0.63914,-0.92981 0.91292,-1.87153 1.98166,-6.81669 7.35446,-12.40365 14.02958,-14.5888 2.96033,-0.96907 7.58139,-1.08639 10.31597,-0.2619 8.95034,2.69856 14.2934,11.20993 13.19579,21.0206 -0.87127,7.78752 -6.12343,15.03974 -12.87715,17.78088 -0.90196,0.36607 -1.63991,0.77425 -1.63991,0.90707 0,0.13282 0.76866,0.46211 1.70814,0.73176 5.38109,1.54448 10.15826,6.33139 12.00428,12.0288 0.89305,2.75613 1.09951,8.46702 0.41138,11.37848 -0.68257,2.88782 -2.76316,7.08157 -4.63547,9.34344 -5.1139,6.17793 -13.72864,8.93359 -20.66919,6.61161 -0.9579,-0.32047 -1.89073,-0.58597 -2.07289,-0.58998 -0.1822,-0.004 -0.96679,1.08646 -1.74353,2.42328 -1.68783,2.90487 -4.86743,6.14796 -7.59987,7.75164 -6.22194,3.65168 -13.85181,3.61558 -19.50296,-0.0923 -2.28824,-1.50138 -4.74643,-4.18125 -6.06434,-6.61127 -0.91964,-1.69562 -1.00826,-1.77753 -1.09598,-1.01294 -0.27078,2.36023 1.72511,12.29754 3.6525,18.18542 5.0685,15.48343 14.10512,25.19955 31.20006,33.54613 5.93539,2.89795 19.47014,7.97715 19.95771,7.48956 0.0909,-0.0909 -0.45846,-0.87343 -1.2208,-1.73898 -1.59886,-1.81534 -3.22273,-4.94716 -3.89669,-7.51512 -0.68338,-2.60386 -0.62786,-7.45962 0.11767,-10.29154 1.752,-6.65512 6.63573,-12.274 12.94557,-14.89431 1.1553,-0.47976 2.205,-0.96889 2.33262,-1.08695 0.12765,-0.11806 0.0273,-1.00054 -0.2228,-1.96108 -0.64928,-2.49277 -0.59328,-7.22381 0.11841,-10.00658 1.62304,-6.34593 6.13959,-11.79274 12.08003,-14.56806 5.607,-2.61954 11.23341,-2.59787 16.63448,0.0641 5.81653,2.86668 9.53406,8.97576 9.77073,16.0564 l 0.0844,2.52509 1.00056,0.51941 c 1.30116,0.67543 1.95671,0.65763 2.18426,-0.0593 0.45143,-1.42229 3.21355,-5.09663 5.27863,-7.02191 4.04225,-3.7686 8.59359,-5.60235 13.88695,-5.59509 9.33023,0.0128 16.22328,6.07055 17.85009,15.68705 0.65819,3.89082 -0.10976,8.18908 -2.23544,12.51159 -2.13753,4.34661 -5.58972,7.8557 -9.67326,9.83265 -1.22541,0.59325 -2.41948,1.17239 -2.65346,1.28697 -0.234,0.11458 -0.65872,0.75762 -0.94385,1.42897 l -0.51841,1.22064 2.46181,2.47307 c 3.36918,3.38461 4.90456,6.52067 5.4946,11.22285 1.13088,9.01232 -4.18167,18.25717 -12.81237,22.29596 -5.42918,2.54061 -12.52866,2.28341 -17.28652,-0.62626 -0.79909,-0.4887 -1.61541,-0.84893 -1.81403,-0.80053 -0.19862,0.0484 -0.91898,0.73565 -1.60081,1.52723 -1.99583,2.31718 -4.16224,4.00316 -6.92225,5.38721 -3.48549,1.74784 -6.35598,2.36317 -10.01852,2.14763 -4.80046,-0.28251 -8.25069,-1.83165 -11.64245,-5.22739 -2.09615,-2.09861 -3.56857,-4.45919 -4.54522,-7.28693 -0.12248,-0.35459 -0.30188,-0.46438 -0.47537,-0.2909 -0.15322,0.15326 -2.32501,5.35466 -4.82613,11.55868 -2.84794,7.06435 -4.71083,11.30905 -4.98458,11.35771 -0.24042,0.0427 -65.20566,-38.29861 -144.36721,-85.20293 z"
       style="fill:#fdf25e" />
  </g>
</svg>
