<?xml version="1.0" encoding="UTF-8" standalone="no"?>
<!-- Created with Inkscape (http://www.inkscape.org/) -->

<svg
   xmlns:dc="http://purl.org/dc/elements/1.1/"
   xmlns:cc="http://creativecommons.org/ns#"
   xmlns:rdf="http://www.w3.org/1999/02/22-rdf-syntax-ns#"
   xmlns:svg="http://www.w3.org/2000/svg"
   xmlns="http://www.w3.org/2000/svg"
   xmlns:sodipodi="http://sodipodi.sourceforge.net/DTD/sodipodi-0.dtd"
   xmlns:inkscape="http://www.inkscape.org/namespaces/inkscape"
   id="svg3027"
   version="1.1"
   inkscape:version="0.48.3.1 r9886"
   width="1004.5275"
   height="611.92914"
   sodipodi:docname="mustache.svg">
  <metadata
     id="metadata3033">
    <rdf:RDF>
      <cc:Work
         rdf:about="">
        <dc:format>image/svg+xml</dc:format>
        <dc:type
           rdf:resource="http://purl.org/dc/dcmitype/StillImage" />
        <dc:title></dc:title>
      </cc:Work>
    </rdf:RDF>
  </metadata>
  <defs
     id="defs3031" />
  <sodipodi:namedview
     pagecolor="#ffffff"
     bordercolor="#666666"
     borderopacity="1"
     objecttolerance="10"
     gridtolerance="10"
     guidetolerance="10"
     inkscape:pageopacity="0"
     inkscape:pageshadow="2"
     inkscape:window-width="1020"
     inkscape:window-height="729"
     id="namedview3029"
     showgrid="false"
     inkscape:zoom="1.8963318"
     inkscape:cx="177.08358"
     inkscape:cy="186.47689"
     inkscape:window-x="0"
     inkscape:window-y="18"
     inkscape:window-maximized="0"
     inkscape:current-layer="svg3027"
     units="cm"
     inkscape:document-units="cm"
     showguides="true"
     inkscape:guide-bbox="true" />
  <path
     style="fill:#000000"
     d="m 732.25154,51.477099 c -2.72869,5.116 -6.26035,10.966 -7.84814,13 -5.43308,6.96 -15.60593,22.695 -22.75656,35.198 C 687.66736,124.1201 680.63423,135.1431 675.39816,140.8151 l -5.30593,5.748 3.80593,3.815 c 4.27332,4.283 6.10176,7.104 19.30814,29.797 5.12124,8.8 15.75552,25.557 23.63173,37.238 15.78341,23.408 19.36606,29.73 19.36606,34.17 0,7.22 -3.1629,5.209 -22.5,-14.308 -23.26096,-23.477 -54.23536,-59.77 -58.93052,-69.05 -3.13183,-6.19 -3.23163,-10.14 -0.42129,-16.673 l 2.14819,-4.993 -2.31764,-4.641 c -2.17973,-4.364 -2.24707,-5.052 -1.13165,-11.557 1.14568,-6.681 1.51664,-7.311 10.91311,-18.551 25.15153,-30.085001 68.26014,-75.466001 71.16453,-74.916001 3.03824,0.575 2.12486,5.205 -2.87728,14.583 z M 667.42557,526.9311 c -2.68874,7.388 -6.39573,11.227 -14.9108,15.439 l -7.69249,3.805 -15.51139,0.324 c -8.53127,0.177 -16.99845,0.04 -18.81598,-0.297 -1.82301,-0.342 -5.05066,-2.281 -7.19914,-4.325 -3.07969,-2.929 -4.04669,-4.719 -4.62159,-8.553 -1.11721,-7.45 0.76694,-12.222 7.3726,-18.675 8.4116,-8.216 16.9998,-10.148 19.21475,-4.323 1.28073,3.369 -0.23035,5.887 -4.99009,8.315 -4.46135,2.276 -8.50569,8.078 -7.60628,10.912 1.67175,5.267 16.34983,6.274 26.03599,1.785 9.50227,-4.402 13.50295,-9.196 13.50295,-16.179 0,-4.514 -0.82408,-6.062 -8.51007,-15.984 -10.04796,-12.971 -24.27696,-34.757 -28.08758,-43.005 -4.36501,-9.447 -5.72514,-17.188 -4.50863,-25.659 1.76623,-12.299 5.94803,-20.066 25.41523,-47.205 6.75859,-9.422 13.05395,-18.352 13.98969,-19.846 3.79766,-6.059 1.14436,-14.521 -6.0096,-19.164 -3.97854,-2.582 -15.98277,-6.625 -19.64438,-6.615 -3.79572,0.01 -9.71917,2.069 -11.72652,4.076 -1.80662,1.807 -1.83883,2.171 -0.43254,4.89 0.83569,1.616 2.67141,3.746 4.07937,4.733 6.8719,4.818 8.43503,6.535 8.43503,9.262 0,4.052 -2.15132,5.388 -7.40838,4.599 -4.98781,-0.748 -11.16944,-4.801 -14.86482,-9.747 -7.49053,-10.026 -5.56877,-22.674 4.18313,-27.531 3.02476,-1.506 6.26698,-1.788 20.59007,-1.788 16.62877,0 17.13643,0.06 23.24748,2.886 6.4879,2.996 12.7138,8.788 15.85604,14.75 1.18979,2.257 1.91401,6.387 2.20133,12.551 0.57551,12.348 -1.70188,19.77 -9.87187,32.171 -3.387,5.142 -7.63386,12.564 -9.43748,16.495 -3.82322,8.333 -10.4955,28.124 -10.4955,31.132 0,6.562 11.46854,33.826 19.25135,45.765 8.55468,13.123 10.08867,17.503 10.41832,29.75 0.21559,8.009 -0.12796,11.628 -1.4482,15.256 z M 585.44073,92.898099 c -2.67299,7.268001 -9.45133,15.773001 -21.50594,26.983001 -11.12564,10.346 -21.73069,24.434 -21.73069,28.869 0,4.153 4.21146,9.962 12.71613,17.539 14.44336,12.869 23.89042,22.695 26.2311,27.283 7.19654,14.106 5.8765,36.778 -2.8826,49.509 -6.34232,9.219 -15.05266,13.27 -26.54412,12.348 -7.90331,-0.634 -12.44444,-3.131 -22.31288,-12.268 -6.13878,-5.683 -7.20763,-7.162 -7.20763,-9.972 0,-4.99 4.25897,-5.987 10.73882,-2.514 6.67698,3.579 16.14916,2.051 18.77561,-3.028 1.71064,-3.308 0.68847,-7.059 -4.65614,-17.086 -3.98367,-7.474 -7.14583,-10.246 -19.38627,-16.993 -15.43626,-8.509 -21.47202,-15.658 -21.47202,-25.432 0,-7.746 5.79367,-17.751 12.19614,-21.062 l 2.95791,-1.53 -5.32703,-3.716 c -6.01933,-4.2 -7.68115,-7.597 -7.77058,-15.883 -0.11574,-10.724 2.10596,-13.429 25.21718,-30.706001 15.44525,-11.546 21.72638,-19.002 21.72638,-25.791 0,-5.766 -8.75948,-9.043 -21.45059,-8.025 -4.9174,0.395 -6.50599,0.153 -7.85655,-1.198 -2.92154,-2.921 -1.988,-5.651 3.87518,-11.33 10.07972,-9.763 22.73293,-13.309 34.88325,-9.777 7.25973,2.111 15.34348,9.395 19.22062,17.319 2.42286,4.952 2.7114,6.747 2.99143,18.61 0.24907,10.55 -0.0311,14.056 -1.42671,17.851 z M 579.4541,518.0971 c -2.0625,0.329 -12.75,1.505 -23.75,2.614 -27.73933,2.795 -43.06704,4.693 -56.5,6.997 -13.7918,2.365 -17.47909,3.375 -35,9.586 -13.23564,4.692 -13.77415,4.793 -27.5,5.176 -10.3875,0.29 -15.74174,-0.02 -20.75002,-1.188 -28.88948,-6.754 -42.27541,-30.453 -44.39943,-78.607 -0.62959,-14.273 -0.59852,-14.581 1.9865,-19.68 1.44435,-2.849 3.62745,-5.882 4.85134,-6.739 l 2.22525,-1.559 -3.0557,-3.261 c -6.23474,-6.653 -6.35794,-7.078 -6.35794,-21.911 0,-39.922 11.08457,-66.397 32.12658,-76.734 9.87242,-4.849 19.15668,-6.434 33.47019,-5.711 12.82953,0.648 18.33888,1.89 37.40323,8.436 15.55191,5.34 42.40271,9.636 92.25,14.762 9.2125,0.947 16.75,2.12 16.75,2.607 0,1.827 -5.34915,5.744 -9.84243,7.208 -7.68046,2.503 -21.79899,3.805 -33.65757,3.105 -22.02672,-1.301 -48.39362,-3.573 -65.5,-5.644 -26.90319,-3.257 -39.44952,-1.636 -48.41086,6.252 -5.10084,4.49 -7.42772,9.51 -11.57537,24.972 -1.6814,6.269 -4.95984,17.022 -7.28543,23.896 -3.70157,10.941 -4.81991,13.114 -8.97677,17.439 l -4.74843,4.94 3.53286,2.913 c 5.7653,4.752 8.24031,11.029 20.9167,53.046 3.16155,10.479 7.66147,16.111 15.82025,19.8 4.70889,2.129 6.61488,2.36 19.22705,2.334 8.42539,-0.02 24.15376,-1.147 39.5,-2.838 33.46456,-3.686 64.43307,-4.604 74.9133,-2.221 8.16954,1.858 10.50336,2.851 13.8367,5.888 3.07852,2.804 2.85109,3.429 -1.5,4.122 z m -112.34617,-311.74 c -2.03312,17.452 -10.60313,32.661 -24.13573,42.833 -10.65224,8.008 -13.85492,5.476 -8.07367,-6.382 3.38885,-6.951 3.72455,-8.392 3.7561,-16.133 0.0318,-7.79 -0.27924,-9.162 -3.72528,-16.428 -3.17998,-6.706 -5.59073,-9.79 -15.62926,-20 -17.033,-17.323 -17.86779,-19.509 -12.97475,-33.974 l 3.24093,-9.58 -2.68109,-6.529 c -4.66353,-11.356 -2.912,-21.256 5.06262,-28.615 14.41294,-13.300001 17.96847,-17.488001 22.3456,-26.322001 4.19248,-8.461 4.40934,-9.325 4.38312,-17.476 -0.0256,-7.952 -0.30945,-9.131 -3.90205,-16.208 -4.1269,-8.13 -4.18769,-10.868 -0.2413,-10.868 4.78375,0 13.47283,7.154 20.38312,16.782 5.98356,8.337 9.78194,17.667 11.89539,29.218 1.47953,8.087 1.56716,10.816 0.59395,18.494001 -1.12479,8.873 -4.35132,20.028 -7.62393,26.356 -0.91949,1.778 -3.90061,5.694 -6.6247,8.702 -2.7241,3.008 -4.9529,5.925 -4.9529,6.483 0,0.557 2.40465,4.169 5.34367,8.027 6.32797,8.306 12.247,22.051 13.63788,31.669 1.10748,7.659 1.09894,9.851 -0.0777,19.951 z m -119.23266,-81.182 c -1.23612,3.3 -3.46782,7.792 -4.95933,9.982 -3.32827,4.888 -3.33591,5.638 -0.12744,12.518 3.23701,6.942 6.4156,15.917 6.4156,18.117 0,0.927 -2.1,4.479 -4.66667,7.893 -5.60158,7.452 -5.91647,10.423 -1.62285,15.313 4.13015,4.704 6.70605,11.723 5.96905,16.265 -0.32183,1.983 -2.3329,5.925 -4.46905,8.759 -7.58635,10.066 -7.65831,10.751 -2.21048,21.033 4.7554,8.975 5.07616,12.629 1.36514,15.548 -4.32271,3.4 -7.65779,2.637 -20.24998,-4.636 -27.30401,-15.768 -47.18338,-31.421 -51.43203,-40.497 -4.77441,-10.199 -4.28214,-19.31 2.21416,-40.98 4.63964,-15.477 4.9676,-20.002 2.0589,-28.408 -5.54602,-16.028 -7.32182,-23.942 -7.38887,-32.93 -0.0661,-8.857001 0.007,-9.142001 3.96968,-15.479001 6.80051,-10.875 23.89846,-24.154 50.6789,-39.358 12.52102,-7.108 16.02194,-7.93 19.59554,-4.601 2.86421,2.669 2.80277,6.682 -0.2351,15.358 -2.78895,7.966 -2.44585,9.792 2.96548,15.781 1.902,2.106 3.45818,4.69 3.45818,5.744 0,1.054 -1.89937,5.57 -4.22081,10.035 -3.51187,6.756 -4.01707,8.407 -3.00779,9.831001 2.56456,3.62 7.00652,12.847 7.56383,15.712 0.37297,1.918 -0.22732,5.165 -1.66406,9 z m -4.65412,366.808 c -0.90703,5.025 -4.02418,11.648 -9.56933,20.332 -5.3545,8.386 -18.09745,17.629 -32.94772,23.899 -5.42709,2.292 -21.5,6.426 -21.5,5.531 0,-0.396 2.07196,-3.386 4.60435,-6.645 5.91148,-7.607 8.24417,-12.238 9.45023,-18.762 1.53022,-8.278 -0.2045,-14.414 -9.51689,-33.663 -8.57336,-17.721 -12.53769,-27.953 -12.53769,-32.359 0,-1.332 0.89012,-4.384 1.97804,-6.782 1.08792,-2.397 1.97804,-6.159 1.97804,-8.359 0,-2.2 -0.89012,-5.961 -1.97804,-8.359 -1.08792,-2.398 -1.97804,-5.361 -1.97804,-6.585 0,-4.052 4.11547,-14.887 10.4661,-27.556 15.28691,-30.495 15.62066,-39.54 2.12289,-57.53 -3.36481,-4.485 -4.0998,-6.054 -2.95525,-6.308 3.47642,-0.773 16.58949,3.353 27.01487,8.498 9.86894,4.871 12.1351,6.511 19.74318,14.286 9.06871,9.267 12.23684,14.634 15.06108,25.514 2.04701,7.886 1.95146,12.617 -0.44703,22.13 -2.57801,10.226 -8.70617,22.551 -14.45539,29.072 -2.50275,2.838 -4.55045,5.922 -4.55045,6.853 0,0.93 2.06625,3.99 4.59167,6.798 11.02047,12.258 18.09699,35.193 15.42538,49.995 z M 209.47561,159.1271 c -19.51364,12.663 -36.55357,19.863 -53.3898,22.56 -7.36455,1.18 -22.11699,1.086 -23.35107,-0.148 -0.33217,-0.332 0.29131,-2.875 1.3855,-5.651 3.54857,-9.003 5.38248,-20.714 4.84698,-30.951 -0.418,-7.992 -0.95497,-10.281 -3.62688,-15.462 -1.72493,-3.344 -3.13624,-6.529 -3.13624,-7.077 0,-1.629 22.62445,-0.09 30.5,2.077 3.85,1.059 11.5,3.612 17,5.675 14.98679,5.62 40.51369,19.018 40.49278,21.253 -0.004,0.425 -4.82855,3.901 -10.72127,7.724 z m 5.72344,356.533 c -5.62398,26.8792 -53.10488,37.68176 -53.99495,9.426 0,-5.116 1.56775,-6.655 2.49215,-2.446 0.90054,4.1 5.61326,7.779 10.99979,8.586 12.27253,1.841 16.67532,-5.204 10.94543,-17.514 -1.39871,-3.005 -6.51027,-11.105 -11.35903,-18 -19.64682,-27.939 -21.415,-38.829 -9.42298,-58.037 1.48765,-2.383 1.39339,-2.748 -2.01057,-7.796 -4.26435,-6.323 -5.14479,-9.952 -5.14479,-21.204 0,-7.782 0.31223,-9.133 3.69819,-16 2.03401,-4.125 7.8119,-12.675 12.83977,-19 5.02787,-6.325 10.0428,-13.251 11.1443,-15.391 3.95155,-7.678 1.91069,-17.085 -4.26139,-19.642 -4.16786,-1.726 -11.28108,0.07 -15.24701,3.842 -4.14293,3.80716 -1.30586,13.30215 -5.11716,7.969 -2.14173,-3.058 -1.94417,-8.63 0.44491,-12.548 2.16793,-3.556 9.24587,-8.496 14.79742,-10.328 34.65639,-3.49016 40.33679,29.04128 40.31805,53.598 -4.08636,23.42684 -9.44457,37.62421 -22.93501,54.284 10.09369,10.21638 16.31158,25.0749 19.85615,37.216 4.31131,15.233 5.05335,31.534 1.95673,42.985 z M 109.21319,231.6751 c -0.94361,11.791 -6.26375,18.57 -21.089952,26.874 -8.35979,4.683 -10.68657,3.74 -4.94355,-2.003 7.69144,-7.692 5.26058,-18.723 -7.2108,-32.723 -2.7673,-3.106 -13.49625,-14.215 -23.84212,-24.685 -10.34587,-10.471 -19.28588,-20.288 -19.86668,-21.815 -2.83622,-7.46 -0.28825,-13.968 7.91978,-20.227 l 4.91873,-3.751 -6.94725,-6.585 c -6.44039,-6.105 -6.94726,-6.891 -6.94726,-10.77 0,-2.302 0.48136,-5.451 1.06968,-7 0.58832,-1.548 10.1804,-12.04 21.31574,-23.315 11.13533,-11.275001 22.1675,-22.951001 24.51592,-25.948001 5.60299,-7.149 10.09959,-16.179 10.09493,-20.273 0.048,-6.02918 -11.87487,-15.59316 -7.51388,-15.779 1.8852,0 13.70408,7.166 19.262,11.679 8.960522,7.275 11.924822,17.708 8.333952,29.33 -1.51473,4.903 -3.61302,8.449 -8.575862,14.491 -24.4163,29.729001 -22.89821,26.531001 -23.26308,49.000001 -0.15184,9.35 -0.27206,18.769 -0.26717,20.932 0.0143,6.314 4.95981,15.16 15.88121,28.407 17.052382,20.683 18.071862,22.714 17.155662,34.161 z m -1.83475,284.051 c -3.37854,12.94 -11.077492,21.295 -23.025142,24.985 -7.98895,2.467 -13.49104,2.468 -23.77956,0 -19.59096,-4.697 -29.36965,-12.859 -29.36965,-24.515 0,-3.799 0.53039,-5.206 2.82881,-7.504 5.34174,-5.342 14.59526,-6.349 25.10958,-2.732 8.65612,2.977 9.06616,4.714 1.11283,4.714 -11.77328,0 -16.99277,4.637 -13.2779,11.795 5.30575,10.224 22.10866,9.007 25.35753,-1.837 1.10606,-3.692 0.94589,-4.418 -2.52271,-11.436 -2.03707,-4.122 -7.7831,-13.184 -12.76897,-20.137 -11.40998,-15.914 -14.77276,-22.882 -14.95612,-30.994 -0.20477,-9.058 3.35577,-15.212 12.18201,-21.053 l 3.92367,-2.596 -4.42189,-3.144 c -6.82426,-4.852 -10.663,-10.584 -11.98856,-17.901 -1.28317,-7.084 1.53685,-13.224 15.86119,-34.534 16.79406,-24.984 18.23602,-29.215 12.06106,-35.39 -7.35527,-7.355 -20.72877,-4.437 -23.46991,5.12 -0.85559,2.984 -0.6522,3.639 1.92956,6.221 2.5684,2.569 3.5822,2.888 9.2129,2.902 7.83235,0.02 9.91351,1.042 6.57138,3.232 -8.447,5.535 -25.05194,4.741 -30.25841,-1.447 -5.2096,-6.191 -2.05051,-17.514 6.45711,-23.144 5.6422,-3.734 13.03193,-6.506 23.39539,-8.777 7.50648,-1.644 9.76604,-1.768 14.99269,-0.82 12.84492,2.329 23.818892,10.732 27.059242,20.72 5.90873,18.212 4.14879,41.808 -4.46573,59.873 -4.657292,9.766 -14.960132,22.418 -21.065352,25.868 -1.60653,0.908 -1.28671,1.408 2.88117,4.5 7.67034,5.692 16.62457,18.815 20.972222,30.738 5.40127,14.811 6.83342,34.377 3.46156,47.292 z"
     id="path3037"
     inkscape:connector-curvature="0"
     sodipodi:nodetypes="sssscssssssscssssssscsssssssssssssssscsssssssssssssssssssssssssssssssscsssssssssssssssssssscsssssssssssssscsssssssscsssssscssssssssssssssccsssssssssssssssssssssssssssssssssssssssssssssssssscsssssscsccsssssssssssccscccccssssssscsssssccssssssscsssssssssssscssssssssssssssssssc" />
</svg>
