<?xml version="1.0" encoding="UTF-8" standalone="no"?>
<!DOCTYPE svg PUBLIC "-//W3C//DTD SVG 1.0//EN" "http://www.w3.org/TR/2001/REC-SVG-20010904/DTD/svg10.dtd">
<svg width="600" height="600" viewBox="0 0 594 594" xmlns="http://www.w3.org/2000/svg">
<title>Sacred Chao of Discordianism, by Trent Buck, modified by AnonMoos (public domain)</title>
<g transform="translate(-2.5,593.5)scale(0.1,-0.1)" stroke="#000000" fill="none">
<circle stroke-width="136.614" fill="#ffffff" cx="2992.95" cy="2960.05" r="2779.07"/>
<path stroke-width="133.342" d="M213.88,2960.03C283.848,934.091,2996.9,1143.79,2992.96,2960.03C2988.95,4813.03,5717.45,4989.74,5772.05,2960.03"/>
<path stroke-width="174.126" d="M548.229,2955.16L1276.31,1934.71L2425.98,2304.05L2410.14,3560.13L1246.13,3974.94Z"/>
<g fill="#ffe6bf" stroke="#ecc600"><title>Golden Apple of Eris</title>
<path stroke-width="157.97" stroke-linejoin="round" d="M3602.13,3255.08C3258.12,2942.85,3412.92,2157.98,4031.46,1955.14C4313.26,1864.28,4665.74,1886.19,4924.41,2081.33C5136.61,2238.53,5313.0,2468.34,5281.22,2933.87C5263.18,3195.58,4871.97,3665.46,4358.61,3377.42C4217.28,3449.57,3946.84,3572.68,3602.14,3255.08Z"/>
<path stroke-width="98.7312" d="M4394.16,3624.72C4606.36,3620.95,4849.02,3694.53,4859.86,4051.17C4761.85,4060.97,4477.19,4008.27,4457.05,3741.36C4442.63,3545.6,4368.28,3642.75,4337.79,3786.86C4291.47,3772.58,4325.27,3784.39,4263.9,3760.91C4415.72,3515.06,4343.36,3387.47,4372.53,3389.69C4405.11,3392.18,4395.02,3505.86,4394.17,3624.74Z"/>
</g>
<g stroke-width="38.5379" stroke-linecap="round" stroke-linejoin="round">
<title>"To the prettiest one" (Kallisti) inscription: καλλιστι (καλλιστῃ)</title>
<path d="M3598.62,2858.71C3619.18,2868.73,3629.5,2888.17,3639.34,2882.66C3683.4,2858.39,3578.87,2550.76,3587.27,2577.22C3610.7,2648.89,3785.51,2891.98,3773.85,2882.39C3766.46,2877.08,3677.71,2728.34,3691.95,2601.1C3697.77,2556.01,3728.72,2585.43,3757.63,2638.29 M4021.44,2874.16C3992.2,2791.44,3904.38,2569.52,3842.36,2575.27C3769.72,2581.84,3826.32,2860.69,3915.64,2865.72C3976.34,2869.03,3894.45,2444.99,3987.69,2618.27 M4054.45,3032.15C4191.78,3208.74,4057.98,2432.97,4206.17,2604.54 M4027,2577.1L4123.76,2877.6M4250.63,2580.51L4347.39,2881.01 M4278.11,3035.58C4415.44,3212.17,4281.64,2436.4,4429.83,2607.97 M4510.32,2891.34C4493.1,2715.89,4438.28,2443.27,4559.0,2668.08 M4802.63,2861.05C4776.86,2877.29,4714.51,2911.04,4667.05,2850.28C4621.84,2791.29,4592.76,2595.97,4679.3,2577.28C4733.16,2564.49,4816.33,2808.59,4705.35,2826.06 M4945.57,2860.42C4916.33,2683.25,4852.92,2474.18,4971.92,2644.03 M5095.36,2886.2C5078.14,2710.75,5023.32,2438.13,5144.04,2662.94"/>
<path stroke="none" fill="#000000" d="M5043.48,2917.82C5028.84,2827.34,4994.3,2832.56,4942.9,2836.12C4882.94,2840.27,4891.17,2852.78,4851.47,2784.46L4838.46,2785.25C4864.67,2924.52,4912.84,2881.75,4968.63,2879.4C4995.02,2878.3,5011.89,2885.07,5029.23,2917.82L5043.49,2917.82"/>
</g>
</g>
</svg>